G75*
G70*
%OFA0B0*%
%FSLAX25Y25*%
%IPPOS*%
%LPD*%
%AMOC8*
5,1,8,0,0,1.08239X$1,22.5*
%
%AMM150*
21,1,0.025590,0.026380,-0.000000,-0.000000,90.000000*
21,1,0.020470,0.031500,-0.000000,-0.000000,90.000000*
1,1,0.005120,0.013190,0.010240*
1,1,0.005120,0.013190,-0.010240*
1,1,0.005120,-0.013190,-0.010240*
1,1,0.005120,-0.013190,0.010240*
%
%AMM151*
21,1,0.017720,0.027950,-0.000000,-0.000000,90.000000*
21,1,0.014170,0.031500,-0.000000,-0.000000,90.000000*
1,1,0.003540,0.013980,0.007090*
1,1,0.003540,0.013980,-0.007090*
1,1,0.003540,-0.013980,-0.007090*
1,1,0.003540,-0.013980,0.007090*
%
%AMM154*
21,1,0.027560,0.018900,-0.000000,-0.000000,270.000000*
21,1,0.022840,0.023620,-0.000000,-0.000000,270.000000*
1,1,0.004720,-0.009450,-0.011420*
1,1,0.004720,-0.009450,0.011420*
1,1,0.004720,0.009450,0.011420*
1,1,0.004720,0.009450,-0.011420*
%
%AMM156*
21,1,0.027560,0.018900,-0.000000,-0.000000,0.000000*
21,1,0.022840,0.023620,-0.000000,-0.000000,0.000000*
1,1,0.004720,0.011420,-0.009450*
1,1,0.004720,-0.011420,-0.009450*
1,1,0.004720,-0.011420,0.009450*
1,1,0.004720,0.011420,0.009450*
%
%AMM158*
21,1,0.035430,0.030320,-0.000000,-0.000000,90.000000*
21,1,0.028350,0.037400,-0.000000,-0.000000,90.000000*
1,1,0.007090,0.015160,0.014170*
1,1,0.007090,0.015160,-0.014170*
1,1,0.007090,-0.015160,-0.014170*
1,1,0.007090,-0.015160,0.014170*
%
%AMM161*
21,1,0.027560,0.030710,-0.000000,-0.000000,180.000000*
21,1,0.022050,0.036220,-0.000000,-0.000000,180.000000*
1,1,0.005510,-0.011020,0.015350*
1,1,0.005510,0.011020,0.015350*
1,1,0.005510,0.011020,-0.015350*
1,1,0.005510,-0.011020,-0.015350*
%
%AMM182*
21,1,0.033470,0.026770,-0.000000,-0.000000,270.000000*
21,1,0.026770,0.033470,-0.000000,-0.000000,270.000000*
1,1,0.006690,-0.013390,-0.013390*
1,1,0.006690,-0.013390,0.013390*
1,1,0.006690,0.013390,0.013390*
1,1,0.006690,0.013390,-0.013390*
%
%AMM183*
21,1,0.025590,0.026380,-0.000000,-0.000000,180.000000*
21,1,0.020470,0.031500,-0.000000,-0.000000,180.000000*
1,1,0.005120,-0.010240,0.013190*
1,1,0.005120,0.010240,0.013190*
1,1,0.005120,0.010240,-0.013190*
1,1,0.005120,-0.010240,-0.013190*
%
%AMM184*
21,1,0.017720,0.027950,-0.000000,-0.000000,180.000000*
21,1,0.014170,0.031500,-0.000000,-0.000000,180.000000*
1,1,0.003540,-0.007090,0.013980*
1,1,0.003540,0.007090,0.013980*
1,1,0.003540,0.007090,-0.013980*
1,1,0.003540,-0.007090,-0.013980*
%
%AMM185*
21,1,0.033470,0.026770,-0.000000,-0.000000,180.000000*
21,1,0.026770,0.033470,-0.000000,-0.000000,180.000000*
1,1,0.006690,-0.013390,0.013390*
1,1,0.006690,0.013390,0.013390*
1,1,0.006690,0.013390,-0.013390*
1,1,0.006690,-0.013390,-0.013390*
%
%AMM186*
21,1,0.078740,0.045670,-0.000000,-0.000000,0.000000*
21,1,0.067320,0.057090,-0.000000,-0.000000,0.000000*
1,1,0.011420,0.033660,-0.022840*
1,1,0.011420,-0.033660,-0.022840*
1,1,0.011420,-0.033660,0.022840*
1,1,0.011420,0.033660,0.022840*
%
%AMM187*
21,1,0.059060,0.020470,-0.000000,-0.000000,0.000000*
21,1,0.053940,0.025590,-0.000000,-0.000000,0.000000*
1,1,0.005120,0.026970,-0.010240*
1,1,0.005120,-0.026970,-0.010240*
1,1,0.005120,-0.026970,0.010240*
1,1,0.005120,0.026970,0.010240*
%
%AMM188*
21,1,0.035430,0.030320,-0.000000,-0.000000,0.000000*
21,1,0.028350,0.037400,-0.000000,-0.000000,0.000000*
1,1,0.007090,0.014170,-0.015160*
1,1,0.007090,-0.014170,-0.015160*
1,1,0.007090,-0.014170,0.015160*
1,1,0.007090,0.014170,0.015160*
%
%AMM189*
21,1,0.012600,0.028980,-0.000000,-0.000000,0.000000*
21,1,0.010080,0.031500,-0.000000,-0.000000,0.000000*
1,1,0.002520,0.005040,-0.014490*
1,1,0.002520,-0.005040,-0.014490*
1,1,0.002520,-0.005040,0.014490*
1,1,0.002520,0.005040,0.014490*
%
%AMM190*
21,1,0.070870,0.036220,-0.000000,-0.000000,180.000000*
21,1,0.061810,0.045280,-0.000000,-0.000000,180.000000*
1,1,0.009060,-0.030910,0.018110*
1,1,0.009060,0.030910,0.018110*
1,1,0.009060,0.030910,-0.018110*
1,1,0.009060,-0.030910,-0.018110*
%
%AMM191*
21,1,0.035830,0.026770,-0.000000,-0.000000,180.000000*
21,1,0.029130,0.033470,-0.000000,-0.000000,180.000000*
1,1,0.006690,-0.014570,0.013390*
1,1,0.006690,0.014570,0.013390*
1,1,0.006690,0.014570,-0.013390*
1,1,0.006690,-0.014570,-0.013390*
%
%AMM192*
21,1,0.027560,0.049610,-0.000000,-0.000000,180.000000*
21,1,0.022050,0.055120,-0.000000,-0.000000,180.000000*
1,1,0.005510,-0.011020,0.024800*
1,1,0.005510,0.011020,0.024800*
1,1,0.005510,0.011020,-0.024800*
1,1,0.005510,-0.011020,-0.024800*
%
%AMM193*
21,1,0.070870,0.036220,-0.000000,-0.000000,270.000000*
21,1,0.061810,0.045280,-0.000000,-0.000000,270.000000*
1,1,0.009060,-0.018110,-0.030910*
1,1,0.009060,-0.018110,0.030910*
1,1,0.009060,0.018110,0.030910*
1,1,0.009060,0.018110,-0.030910*
%
%AMM194*
21,1,0.027560,0.030710,-0.000000,-0.000000,270.000000*
21,1,0.022050,0.036220,-0.000000,-0.000000,270.000000*
1,1,0.005510,-0.015350,-0.011020*
1,1,0.005510,-0.015350,0.011020*
1,1,0.005510,0.015350,0.011020*
1,1,0.005510,0.015350,-0.011020*
%
%AMM42*
21,1,0.035830,0.026770,0.000000,0.000000,0.000000*
21,1,0.029130,0.033470,0.000000,0.000000,0.000000*
1,1,0.006690,0.014570,-0.013390*
1,1,0.006690,-0.014570,-0.013390*
1,1,0.006690,-0.014570,0.013390*
1,1,0.006690,0.014570,0.013390*
%
%AMM44*
21,1,0.070870,0.036220,0.000000,0.000000,90.000000*
21,1,0.061810,0.045280,0.000000,0.000000,90.000000*
1,1,0.009060,0.018110,0.030910*
1,1,0.009060,0.018110,-0.030910*
1,1,0.009060,-0.018110,-0.030910*
1,1,0.009060,-0.018110,0.030910*
%
%AMM66*
21,1,0.023620,0.018900,0.000000,0.000000,90.000000*
21,1,0.018900,0.023620,0.000000,0.000000,90.000000*
1,1,0.004720,0.009450,0.009450*
1,1,0.004720,0.009450,-0.009450*
1,1,0.004720,-0.009450,-0.009450*
1,1,0.004720,-0.009450,0.009450*
%
%AMM67*
21,1,0.019680,0.019680,0.000000,0.000000,0.000000*
21,1,0.015750,0.023620,0.000000,0.000000,0.000000*
1,1,0.003940,0.007870,-0.009840*
1,1,0.003940,-0.007870,-0.009840*
1,1,0.003940,-0.007870,0.009840*
1,1,0.003940,0.007870,0.009840*
%
%AMM68*
21,1,0.019680,0.019680,0.000000,0.000000,270.000000*
21,1,0.015750,0.023620,0.000000,0.000000,270.000000*
1,1,0.003940,-0.009840,-0.007870*
1,1,0.003940,-0.009840,0.007870*
1,1,0.003940,0.009840,0.007870*
1,1,0.003940,0.009840,-0.007870*
%
%AMM82*
21,1,0.106300,0.050390,0.000000,0.000000,90.000000*
21,1,0.093700,0.062990,0.000000,0.000000,90.000000*
1,1,0.012600,0.025200,0.046850*
1,1,0.012600,0.025200,-0.046850*
1,1,0.012600,-0.025200,-0.046850*
1,1,0.012600,-0.025200,0.046850*
%
%AMM83*
21,1,0.033470,0.026770,0.000000,0.000000,270.000000*
21,1,0.026770,0.033470,0.000000,0.000000,270.000000*
1,1,0.006690,-0.013390,-0.013390*
1,1,0.006690,-0.013390,0.013390*
1,1,0.006690,0.013390,0.013390*
1,1,0.006690,0.013390,-0.013390*
%
%AMM84*
21,1,0.023620,0.018900,0.000000,0.000000,180.000000*
21,1,0.018900,0.023620,0.000000,0.000000,180.000000*
1,1,0.004720,-0.009450,0.009450*
1,1,0.004720,0.009450,0.009450*
1,1,0.004720,0.009450,-0.009450*
1,1,0.004720,-0.009450,-0.009450*
%
%AMM85*
21,1,0.122050,0.075590,0.000000,0.000000,180.000000*
21,1,0.103150,0.094490,0.000000,0.000000,180.000000*
1,1,0.018900,-0.051580,0.037800*
1,1,0.018900,0.051580,0.037800*
1,1,0.018900,0.051580,-0.037800*
1,1,0.018900,-0.051580,-0.037800*
%
%AMM86*
21,1,0.118110,0.083460,0.000000,0.000000,0.000000*
21,1,0.097240,0.104330,0.000000,0.000000,0.000000*
1,1,0.020870,0.048620,-0.041730*
1,1,0.020870,-0.048620,-0.041730*
1,1,0.020870,-0.048620,0.041730*
1,1,0.020870,0.048620,0.041730*
%
%ADD121R,0.01378X0.01476*%
%ADD124O,0.04961X0.00984*%
%ADD126M42*%
%ADD127R,0.09449X0.06693*%
%ADD128R,0.01476X0.01378*%
%ADD130R,0.03937X0.04331*%
%ADD131M44*%
%ADD159M66*%
%ADD160M67*%
%ADD161M68*%
%ADD179M82*%
%ADD180M83*%
%ADD181M84*%
%ADD182O,0.01968X0.08661*%
%ADD183M85*%
%ADD184M86*%
%ADD26R,0.00787X0.14567*%
%ADD269M150*%
%ADD27R,0.00787X0.01575*%
%ADD270M151*%
%ADD273M154*%
%ADD275M156*%
%ADD277M158*%
%ADD28R,0.00787X0.06299*%
%ADD280M161*%
%ADD29R,0.00787X0.38189*%
%ADD30R,0.00787X0.09055*%
%ADD301M182*%
%ADD302M183*%
%ADD303M184*%
%ADD304M185*%
%ADD305M186*%
%ADD306M187*%
%ADD307M188*%
%ADD308M189*%
%ADD309M190*%
%ADD31R,0.05512X0.00787*%
%ADD310M191*%
%ADD311M192*%
%ADD312M193*%
%ADD313M194*%
%ADD32R,0.25197X0.00787*%
%ADD33R,0.06693X0.00787*%
%ADD34R,0.12992X0.00787*%
%ADD35R,0.00787X0.27559*%
%ADD36R,0.00787X0.12992*%
%ADD37R,0.00787X0.24803*%
%ADD53R,0.17323X0.09055*%
%ADD54R,0.15748X0.09055*%
X0000000Y0000000D02*
%LPD*%
G01*
D53*
X0078740Y0170866D03*
D54*
X0015748Y0170866D03*
X0237303Y0173130D02*
G01*
G75*
D34*
X0183956Y0031791D02*
D03*
D33*
X0197736Y0031791D02*
D03*
D36*
X0103838Y0137894D02*
D03*
D31*
X0145571Y0031791D02*
D03*
X0229823Y0172736D02*
D03*
D32*
X0116043Y0172736D02*
D03*
X0221555Y0031791D02*
D03*
D29*
X0236909Y0137106D02*
D03*
D30*
X0236909Y0168602D02*
D03*
D28*
X0236909Y0083366D02*
D03*
D37*
X0103838Y0160728D02*
D03*
D35*
X0103838Y0045177D02*
D03*
D26*
X0236909Y0065847D02*
D03*
X0236909Y0041831D02*
D03*
D27*
X0236909Y0053839D02*
D03*
X0103838Y0079429D02*
D03*
D269*
X0185334Y0088091D02*
D03*
X0185334Y0113386D02*
D03*
X0185334Y0098130D02*
D03*
X0185334Y0103346D02*
D03*
X0192421Y0072835D02*
D03*
X0185334Y0072835D02*
D03*
X0185334Y0082874D02*
D03*
X0192421Y0082874D02*
D03*
X0192421Y0113386D02*
D03*
X0192421Y0103346D02*
D03*
X0192421Y0098130D02*
D03*
X0192421Y0088091D02*
D03*
D270*
X0185334Y0091536D02*
D03*
X0185334Y0106791D02*
D03*
X0185334Y0094685D02*
D03*
X0185334Y0109941D02*
D03*
X0185334Y0079429D02*
D03*
X0185334Y0076280D02*
D03*
X0192421Y0076280D02*
D03*
X0192421Y0079429D02*
D03*
X0192421Y0106791D02*
D03*
X0192421Y0109941D02*
D03*
X0192421Y0091536D02*
D03*
X0192421Y0094685D02*
D03*
D273*
X0183366Y0034941D02*
D03*
X0187303Y0034941D02*
D03*
X0188878Y0038484D02*
D03*
X0192815Y0038484D02*
D03*
X0181004Y0055807D02*
D03*
X0184941Y0055807D02*
D03*
X0152351Y0113509D02*
D03*
X0156288Y0113509D02*
D03*
X0160547Y0113509D02*
D03*
X0164484Y0113509D02*
D03*
X0203869Y0081042D02*
D03*
X0207806Y0081042D02*
D03*
X0203869Y0084765D02*
D03*
X0207806Y0084765D02*
D03*
X0206285Y0047933D02*
D03*
X0202348Y0047933D02*
D03*
X0117651Y0037000D02*
D03*
X0153399Y0037239D02*
D03*
X0138484Y0113509D02*
D03*
X0170768Y0059351D02*
D03*
X0170768Y0063681D02*
D03*
X0174198Y0067900D02*
D03*
X0185475Y0067845D02*
D03*
X0165059Y0097505D02*
D03*
X0173848Y0097505D02*
D03*
X0177785Y0105990D02*
D03*
X0112868Y0135856D02*
D03*
X0138484Y0118012D02*
D03*
X0179429Y0034941D02*
D03*
X0192815Y0067936D02*
D03*
X0214468Y0066538D02*
D03*
X0228533Y0066538D02*
D03*
X0214468Y0070768D02*
D03*
X0228533Y0070768D02*
D03*
X0188830Y0117676D02*
D03*
X0233366Y0119587D02*
D03*
X0166831Y0059351D02*
D03*
X0177785Y0097505D02*
D03*
X0168996Y0097505D02*
D03*
X0168996Y0101993D02*
D03*
X0165059Y0101993D02*
D03*
X0110925Y0121949D02*
D03*
X0114862Y0121949D02*
D03*
X0116805Y0135856D02*
D03*
X0202250Y0065032D02*
D03*
X0206187Y0065032D02*
D03*
X0232471Y0066538D02*
D03*
X0188878Y0067936D02*
D03*
X0173848Y0105990D02*
D03*
X0181538Y0067845D02*
D03*
X0178135Y0067900D02*
D03*
X0218405Y0070768D02*
D03*
X0192767Y0117676D02*
D03*
X0229429Y0119587D02*
D03*
X0157336Y0037239D02*
D03*
X0183366Y0034941D02*
D03*
X0210138Y0059965D02*
D03*
X0214075Y0059965D02*
D03*
X0218405Y0066538D02*
D03*
X0134547Y0118012D02*
D03*
X0134547Y0113509D02*
D03*
X0166831Y0063681D02*
D03*
X0121588Y0037000D02*
D03*
X0130904Y0037000D02*
D03*
X0126967Y0037000D02*
D03*
X0224596Y0070768D02*
D03*
X0233366Y0115650D02*
D03*
X0229429Y0115650D02*
D03*
X0233366Y0103248D02*
D03*
X0229429Y0103248D02*
D03*
X0233366Y0099114D02*
D03*
X0229429Y0099114D02*
D03*
X0233366Y0090846D02*
D03*
X0229429Y0090846D02*
D03*
X0233366Y0094980D02*
D03*
X0229429Y0094980D02*
D03*
X0233366Y0086713D02*
D03*
X0229429Y0086713D02*
D03*
X0233366Y0107382D02*
D03*
X0229429Y0107382D02*
D03*
X0233366Y0111516D02*
D03*
X0229429Y0111516D02*
D03*
D275*
X0178376Y0084154D02*
D03*
X0178376Y0079921D02*
D03*
X0132972Y0168012D02*
D03*
X0137697Y0168012D02*
D03*
X0142421Y0168012D02*
D03*
X0147145Y0168012D02*
D03*
X0217224Y0039665D02*
D03*
X0213090Y0039665D02*
D03*
X0121910Y0131886D02*
D03*
X0121910Y0127949D02*
D03*
X0232839Y0040847D02*
D03*
X0232839Y0044783D02*
D03*
X0178376Y0075984D02*
D03*
X0178376Y0088091D02*
D03*
X0126082Y0132382D02*
D03*
X0126082Y0128445D02*
D03*
X0150855Y0160158D02*
D03*
X0150855Y0156221D02*
D03*
X0147145Y0156221D02*
D03*
X0147145Y0160158D02*
D03*
X0147145Y0145571D02*
D03*
X0147145Y0149508D02*
D03*
X0147145Y0164075D02*
D03*
X0142421Y0164075D02*
D03*
X0132972Y0164075D02*
D03*
X0137697Y0164075D02*
D03*
X0231804Y0130881D02*
D03*
X0231804Y0126944D02*
D03*
X0181594Y0127854D02*
D03*
X0181594Y0131791D02*
D03*
X0181594Y0138091D02*
D03*
X0181594Y0142028D02*
D03*
X0209547Y0127854D02*
D03*
X0209547Y0131791D02*
D03*
X0186122Y0153248D02*
D03*
X0186122Y0149311D02*
D03*
X0215452Y0153248D02*
D03*
X0215452Y0149311D02*
D03*
X0228248Y0153248D02*
D03*
X0228248Y0149311D02*
D03*
X0211356Y0160158D02*
D03*
X0211356Y0164095D02*
D03*
X0232972Y0160532D02*
D03*
X0232972Y0156595D02*
D03*
X0232775Y0163681D02*
D03*
X0232775Y0167618D02*
D03*
X0232839Y0052373D02*
D03*
X0232839Y0048436D02*
D03*
X0217224Y0035728D02*
D03*
X0213090Y0035728D02*
D03*
X0209350Y0149311D02*
D03*
X0209350Y0153248D02*
D03*
X0205020Y0149311D02*
D03*
X0205020Y0153248D02*
D03*
X0196555Y0149311D02*
D03*
X0196555Y0153248D02*
D03*
X0192389Y0164095D02*
D03*
X0192389Y0160158D02*
D03*
X0153642Y0131791D02*
D03*
X0153642Y0127854D02*
D03*
X0223917Y0149311D02*
D03*
X0223917Y0153248D02*
D03*
X0173546Y0164095D02*
D03*
X0173546Y0160158D02*
D03*
X0177657Y0149311D02*
D03*
X0177657Y0153248D02*
D03*
X0190452Y0149311D02*
D03*
X0190452Y0153248D02*
D03*
X0154566Y0164095D02*
D03*
X0154566Y0160158D02*
D03*
X0158759Y0149311D02*
D03*
X0158759Y0153248D02*
D03*
X0167224Y0149311D02*
D03*
X0167224Y0153248D02*
D03*
X0171555Y0149311D02*
D03*
X0171555Y0153248D02*
D03*
X0153778Y0145571D02*
D03*
X0153778Y0149508D02*
D03*
D277*
X0197746Y0042874D02*
D03*
X0205486Y0052349D02*
D03*
X0223819Y0075719D02*
D03*
D280*
X0150098Y0044291D02*
D03*
X0156398Y0044291D02*
D03*
X0186712Y0042913D02*
D03*
X0193012Y0042913D02*
D03*
X0186712Y0047539D02*
D03*
X0193012Y0047539D02*
D03*
D277*
X0214567Y0079460D02*
D03*
X0205486Y0059829D02*
D03*
X0196234Y0056089D02*
D03*
X0197746Y0035394D02*
D03*
X0206998Y0039134D02*
D03*
X0223819Y0083200D02*
D03*
D301*
X0189272Y0052736D02*
D03*
X0189272Y0058957D02*
D03*
D302*
X0159842Y0123524D02*
D03*
X0159842Y0130610D02*
D03*
X0169882Y0130610D02*
D03*
X0169882Y0123524D02*
D03*
X0187795Y0130610D02*
D03*
X0215748Y0130610D02*
D03*
X0197834Y0134547D02*
D03*
X0142716Y0159744D02*
D03*
X0142716Y0152658D02*
D03*
X0132677Y0152658D02*
D03*
X0132677Y0159744D02*
D03*
X0225787Y0141634D02*
D03*
X0225787Y0134547D02*
D03*
X0215748Y0134547D02*
D03*
X0215748Y0141634D02*
D03*
X0215748Y0123524D02*
D03*
X0225787Y0130610D02*
D03*
X0225787Y0123524D02*
D03*
X0197834Y0141634D02*
D03*
X0187795Y0134547D02*
D03*
X0187795Y0141634D02*
D03*
X0187795Y0123524D02*
D03*
X0197834Y0130610D02*
D03*
X0197834Y0123524D02*
D03*
X0196850Y0165453D02*
D03*
X0196850Y0158366D02*
D03*
X0206890Y0158366D02*
D03*
X0206890Y0165453D02*
D03*
X0215748Y0165453D02*
D03*
X0215748Y0158366D02*
D03*
X0225787Y0158366D02*
D03*
X0225787Y0165453D02*
D03*
X0177952Y0165453D02*
D03*
X0177952Y0158366D02*
D03*
X0187992Y0158366D02*
D03*
X0187992Y0165453D02*
D03*
X0159055Y0165453D02*
D03*
X0159055Y0158366D02*
D03*
X0169094Y0158366D02*
D03*
X0169094Y0165453D02*
D03*
X0159842Y0141634D02*
D03*
X0159842Y0134547D02*
D03*
X0169882Y0134547D02*
D03*
X0169882Y0141634D02*
D03*
X0132283Y0141634D02*
D03*
X0132283Y0134547D02*
D03*
X0142323Y0134547D02*
D03*
X0142323Y0141634D02*
D03*
X0142323Y0123524D02*
D03*
X0142323Y0130610D02*
D03*
X0132283Y0130610D02*
D03*
X0132283Y0123524D02*
D03*
D303*
X0166437Y0130610D02*
D03*
X0163287Y0130610D02*
D03*
X0163287Y0123524D02*
D03*
X0166437Y0123524D02*
D03*
X0191240Y0130610D02*
D03*
X0219193Y0130610D02*
D03*
X0194390Y0134547D02*
D03*
X0136122Y0152658D02*
D03*
X0139271Y0152658D02*
D03*
X0139271Y0159744D02*
D03*
X0136122Y0159744D02*
D03*
X0219193Y0134547D02*
D03*
X0222342Y0134547D02*
D03*
X0222342Y0141634D02*
D03*
X0219193Y0141634D02*
D03*
X0222342Y0130610D02*
D03*
X0219193Y0123524D02*
D03*
X0222342Y0123524D02*
D03*
X0191240Y0134547D02*
D03*
X0194390Y0141634D02*
D03*
X0191240Y0141634D02*
D03*
X0194389Y0130610D02*
D03*
X0191240Y0123524D02*
D03*
X0194389Y0123524D02*
D03*
X0200295Y0165453D02*
D03*
X0203445Y0165453D02*
D03*
X0203445Y0158366D02*
D03*
X0200295Y0158366D02*
D03*
X0219192Y0165453D02*
D03*
X0222342Y0165453D02*
D03*
X0222342Y0158366D02*
D03*
X0219192Y0158366D02*
D03*
X0181397Y0165453D02*
D03*
X0184547Y0165453D02*
D03*
X0184547Y0158366D02*
D03*
X0181397Y0158366D02*
D03*
X0162500Y0165453D02*
D03*
X0165649Y0165453D02*
D03*
X0165649Y0158366D02*
D03*
X0162500Y0158366D02*
D03*
X0163287Y0141634D02*
D03*
X0166437Y0141634D02*
D03*
X0166437Y0134547D02*
D03*
X0163287Y0134547D02*
D03*
X0135728Y0141634D02*
D03*
X0138878Y0141634D02*
D03*
X0138878Y0134547D02*
D03*
X0135728Y0134547D02*
D03*
X0138878Y0123524D02*
D03*
X0135728Y0123524D02*
D03*
X0135728Y0130610D02*
D03*
X0138878Y0130610D02*
D03*
D304*
X0127500Y0046260D02*
D03*
X0127500Y0041270D02*
D03*
X0133720Y0041270D02*
D03*
X0133720Y0046260D02*
D03*
D305*
X0114862Y0053150D02*
D03*
X0147539Y0053150D02*
D03*
X0114862Y0107283D02*
D03*
X0147539Y0107283D02*
D03*
D306*
X0125098Y0071181D02*
D03*
X0125098Y0062520D02*
D03*
X0125098Y0066850D02*
D03*
X0125098Y0075512D02*
D03*
X0125098Y0079843D02*
D03*
X0125098Y0084173D02*
D03*
X0125098Y0088504D02*
D03*
X0125098Y0092835D02*
D03*
D307*
X0106791Y0151791D02*
D03*
X0119995Y0151791D02*
D03*
X0114272Y0159823D02*
D03*
X0127475Y0159823D02*
D03*
X0110531Y0142539D02*
D03*
X0123735Y0142539D02*
D03*
X0123735Y0169075D02*
D03*
X0211909Y0054154D02*
D03*
X0215649Y0044902D02*
D03*
X0110531Y0169075D02*
D03*
D121*
X0112868Y0126018D02*
D03*
X0116805Y0126018D02*
D03*
X0112868Y0132022D02*
D03*
X0114836Y0132022D02*
D03*
X0114836Y0126018D02*
D03*
X0116805Y0132022D02*
D03*
D308*
X0203433Y0069370D02*
D03*
X0208551Y0069370D02*
D03*
X0205992Y0069370D02*
D03*
X0203433Y0076851D02*
D03*
X0208551Y0076851D02*
D03*
D124*
X0200216Y0088878D02*
D03*
X0223208Y0091437D02*
D03*
X0223208Y0088878D02*
D03*
X0200216Y0111909D02*
D03*
X0223208Y0114468D02*
D03*
X0223208Y0117028D02*
D03*
X0223208Y0111909D02*
D03*
X0223208Y0109350D02*
D03*
X0223208Y0106791D02*
D03*
X0223208Y0104232D02*
D03*
X0223208Y0101673D02*
D03*
X0223208Y0099114D02*
D03*
X0223208Y0096555D02*
D03*
X0223208Y0093996D02*
D03*
X0200216Y0117028D02*
D03*
X0200216Y0114468D02*
D03*
X0200216Y0109350D02*
D03*
X0200216Y0106791D02*
D03*
X0200216Y0104232D02*
D03*
X0200216Y0101673D02*
D03*
X0200216Y0099114D02*
D03*
X0200216Y0096555D02*
D03*
X0200216Y0093996D02*
D03*
X0200216Y0091437D02*
D03*
D309*
X0226279Y0051291D02*
D03*
X0226279Y0039873D02*
D03*
D310*
X0168189Y0049156D02*
D03*
X0181181Y0049156D02*
D03*
X0232266Y0060356D02*
D03*
X0219274Y0060356D02*
D03*
D127*
X0169414Y0074561D02*
D03*
X0169414Y0089128D02*
D03*
D128*
X0117838Y0130004D02*
D03*
X0117838Y0128036D02*
D03*
X0111834Y0128036D02*
D03*
X0111834Y0130004D02*
D03*
D311*
X0182825Y0062038D02*
D03*
X0176920Y0062038D02*
D03*
D307*
X0114272Y0151791D02*
D03*
X0127475Y0151791D02*
D03*
X0119995Y0159823D02*
D03*
X0219390Y0054154D02*
D03*
X0106791Y0159823D02*
D03*
D130*
X0180022Y0112697D02*
D03*
X0173329Y0112697D02*
D03*
D312*
X0163661Y0039160D02*
D03*
X0175078Y0039160D02*
D03*
D313*
X0232578Y0073524D02*
D03*
X0232578Y0079823D02*
D03*
X0008760Y0034350D02*
G01*
G75*
D126*
X0038675Y0110728D02*
D03*
X0025683Y0110728D02*
D03*
D131*
X0058535Y0111122D02*
D03*
X0047118Y0111122D02*
D03*
X0058535Y0103090D02*
D03*
X0047118Y0103090D02*
D03*
D159*
X0021162Y0089074D02*
D03*
X0021162Y0093011D02*
D03*
X0017815Y0103641D02*
D03*
X0026477Y0103641D02*
D03*
X0017028Y0098393D02*
D03*
X0025689Y0098393D02*
D03*
D160*
X0028915Y0045767D02*
D03*
X0025371Y0045767D02*
D03*
X0038306Y0082500D02*
D03*
X0041850Y0082500D02*
D03*
X0030309Y0097605D02*
D03*
X0033852Y0097605D02*
D03*
X0037533Y0045767D02*
D03*
X0033990Y0045767D02*
D03*
X0017028Y0049704D02*
D03*
X0020571Y0049704D02*
D03*
D161*
X0042513Y0099180D02*
D03*
X0042513Y0102724D02*
D03*
X0021746Y0111582D02*
D03*
X0021746Y0108038D02*
D03*
X0070510Y0053265D02*
D03*
X0070510Y0056809D02*
D03*
D179*
X0057973Y0090649D02*
D03*
X0046949Y0090649D02*
D03*
D180*
X0025295Y0086326D02*
D03*
X0025295Y0092546D02*
D03*
X0039389Y0086326D02*
D03*
X0039389Y0092546D02*
D03*
X0034698Y0086326D02*
D03*
X0034698Y0092546D02*
D03*
X0030006Y0086326D02*
D03*
X0030006Y0092546D02*
D03*
X0038208Y0098570D02*
D03*
X0038208Y0104791D02*
D03*
D181*
X0028718Y0049704D02*
D03*
X0024781Y0049704D02*
D03*
X0033399Y0049704D02*
D03*
X0037336Y0049704D02*
D03*
X0030112Y0103641D02*
D03*
X0034049Y0103641D02*
D03*
X0053045Y0082027D02*
D03*
X0056982Y0082027D02*
D03*
X0060821Y0044586D02*
D03*
X0056883Y0044586D02*
D03*
D182*
X0033832Y0056464D02*
D03*
X0028832Y0056464D02*
D03*
X0023832Y0056464D02*
D03*
X0018832Y0056464D02*
D03*
X0033832Y0079101D02*
D03*
X0028832Y0079101D02*
D03*
X0023832Y0079101D02*
D03*
X0018832Y0079101D02*
D03*
X0056899Y0051181D02*
D03*
X0051899Y0051181D02*
D03*
X0046899Y0051181D02*
D03*
X0041899Y0051181D02*
D03*
X0056899Y0074606D02*
D03*
X0051899Y0074606D02*
D03*
X0046899Y0074606D02*
D03*
X0041899Y0074606D02*
D03*
D183*
X0026332Y0067782D02*
D03*
D184*
X0049399Y0062893D02*
D03*
M02*
