G75*
G70*
%OFA0B0*%
%FSLAX25Y25*%
%IPPOS*%
%LPD*%
%AMOC8*
5,1,8,0,0,1.08239X$1,22.5*
%
%ADD40C,0.00787*%
X0000000Y0000000D02*
%LPD*%
G01*
D40*
X0018110Y0314960D02*
G75*
G02*
X0005512Y0314960I-006299J0000000D01*
G01*
X0005512Y0314960D02*
G75*
G02*
X0018110Y0314960I0006299J0000000D01*
G01*
X0023622Y0010826D02*
G75*
G02*
X0012795Y0000000I-010827J0000000D01*
G01*
X0018110Y0011811D02*
G75*
G02*
X0005512Y0011811I-006299J0000000D01*
G01*
X0005512Y0011811D02*
G75*
G02*
X0018110Y0011811I0006299J0000000D01*
G01*
X0248031Y0010826D02*
G75*
G02*
X0237204Y0000000I-010827J0000000D01*
G01*
X0031496Y0019685D02*
X0216531Y0019685D01*
X0010826Y0000000D02*
G75*
G02*
X0000000Y0010826I0000000J0010827D01*
G01*
X0000000Y0318897D02*
X0007874Y0326771D01*
X0216531Y0019685D02*
G75*
G02*
X0224405Y0011811I0000000J-007874D01*
G01*
X0023622Y0011811D02*
G75*
G02*
X0031496Y0019685I0007874J0000000D01*
G01*
X0237204Y0000000D02*
X0235232Y0000000D01*
X0224405Y0011811D02*
X0224405Y0010826D01*
X0248031Y0318897D02*
X0240157Y0326771D01*
X0000000Y0010826D02*
X0000000Y0019685D01*
X0248031Y0010826D02*
X0248031Y0019685D01*
X0000000Y0318897D02*
X0000000Y0019685D01*
X0240157Y0326771D02*
X0007874Y0326771D01*
X0235232Y0000000D02*
G75*
G02*
X0224405Y0010826I0000000J0010827D01*
G01*
X0242515Y0011811D02*
G75*
G02*
X0229917Y0011811I-006299J0000000D01*
G01*
X0229917Y0011811D02*
G75*
G02*
X0242515Y0011811I0006299J0000000D01*
G01*
X0023622Y0010826D02*
X0023622Y0011811D01*
X0012795Y0000000D02*
X0010826Y0000000D01*
X0248031Y0019685D02*
X0248031Y0318897D01*
X0237303Y0173130D02*
G01*
G75*
X0008760Y0034350D02*
G01*
G75*
M02*
