M48
INCH,TZ
T01C0.013750
T02C0.030750
T03C0.039200
T04C0.051200
T05C0.059100
T06C0.129900
%
T01
X7412Y5207
X7412Y4813
X10424Y12904
X10424Y12589
X10424Y12274
X10424Y11959
X10424Y11644
X10424Y11329
X10424Y11014
X10424Y10699
X10424Y10384
X10424Y10069
X10424Y9754
X10424Y9439
X10424Y9124
X10424Y8809
X10424Y8180
X10424Y7628
X10424Y7313
X10424Y6998
X10424Y6683
X10424Y6368
X10424Y6054
X10424Y14597
X10424Y8494
X10581Y3219
X10896Y3219
X11211Y3219
X11526Y3219
X11841Y3219
X12156Y3219
X12471Y3219
X12786Y3219
X13022Y17156
X13101Y3219
X13416Y3219
X13494Y17156
X13731Y3219
X13967Y17156
X14046Y3219
X14439Y17156
X14912Y17156
X14991Y3219
X15305Y3219
X15384Y17156
X15620Y3219
X15857Y17156
X15935Y3219
X16250Y3219
X16329Y17156
X16565Y3219
X16802Y17156
X16880Y3219
X17195Y3219
X17274Y17156
X17510Y3219
X17746Y17156
X18219Y17156
X18691Y17156
X19164Y17156
X19203Y3219
X19636Y17156
X20109Y17156
X20266Y3219
X20581Y17156
X20660Y3219
X21054Y17156
X21526Y17156
X21998Y17156
X22471Y17156
X23416Y17156
X23573Y16172
X23573Y15778
X23573Y11565
X23573Y11172
X23573Y10778
X23573Y10384
X23573Y9991
X23573Y9597
X23573Y9203
X23573Y8809
X23573Y7786
X23573Y7471
X23573Y5620
X23573Y5069
X23573Y3219
X512Y7874
X512Y7244
X512Y5040
X512Y4449
X2166Y3071
X2363Y23071
X2874Y31457
X3741Y22992
X4449Y27914
X4646Y23032
X4843Y12087
X4922Y18189
X4922Y2481
X5197Y28898
X5355Y32087
X5512Y29685
X6024Y23032
X6024Y11969
X6063Y13426
X6103Y32402
X6575Y27481
X6575Y26890
X6654Y31693
X6654Y30552
X6654Y3071
X6733Y25827
X6851Y18307
X6930Y22992
X7048Y27481
X7048Y26890
X7244Y29370
X7323Y12559
X7520Y27481
X7520Y26890
X7717Y30867
X7756Y31693
X7835Y8977
X7835Y5630
X8150Y6930
X8268Y22992
X8347Y32402
X8504Y5552
X8583Y7678
X8819Y18111
X8859Y31693
X8859Y30512
X9055Y2953
X9174Y22992
X9646Y18189
X9922Y5630
X9961Y4055
X10000Y31575
X10000Y30552
X10000Y7953
X10118Y13937
X10552Y22992
X10709Y32402
X11221Y31654
X11221Y30473
X11260Y18229
X11457Y22992
X12126Y22953
X12126Y22284
X12402Y31575
X12953Y17914
X13032Y32323
X13583Y31615
X13583Y30433
X13583Y18347
X13622Y20945
X14567Y2756
X14646Y22678
X14725Y31693
X14725Y20748
X15394Y32363
X15906Y31615
X15906Y30433
X15945Y20512
X16693Y20906
X17008Y31733
X17441Y27717
X17638Y32402
X17835Y2717
X18150Y31654
X18150Y30788
X18504Y18386
X18701Y20315
X19370Y26300
X19410Y31890
X20040Y25512
X20709Y25985
X21024Y30552
X21260Y17717
X21536Y31693
X21536Y29292
X22559Y23937
X22638Y31693
X22638Y30552
X22678Y29016
X22678Y27835
X23150Y20118
X23307Y29725
X23347Y26733
X23701Y18347
X23780Y29725
X23977Y13701
X24174Y5355
X23454Y17195
X22978Y17164
X22746Y16974
X22510Y17195
X22273Y16994
X22037Y17195
X21801Y16994
X21565Y17195
X21328Y16994
X21092Y17195
X20856Y16994
X20620Y17195
X20384Y16994
X20147Y17195
X19911Y16994
X19675Y17195
X19439Y16994
X19202Y17195
X18966Y16994
X18730Y17195
X18494Y16994
X18258Y17195
X18021Y16994
X17785Y17195
X17549Y16994
X17313Y17195
X17076Y16994
X16840Y17195
X16604Y16994
X16368Y17195
X16132Y16994
X15895Y17195
X15659Y16994
X15423Y17195
X15187Y16994
X14950Y17195
X14714Y16994
X14478Y17195
X14242Y16994
X14006Y17195
X13769Y16994
X13533Y17195
X13297Y16994
X13061Y17195
X12746Y17037
X12753Y16502
X13180Y16308
X13631Y16298
X14073Y16291
X14546Y16293
X15051Y15246
X15361Y15246
X15608Y15719
X16206Y15516
X16502Y15507
X16345Y15236
X16228Y14554
X16483Y14286
X16580Y13745
X16141Y13745
X15681Y13865
X15681Y13533
X15681Y13238
X15687Y12947
X15357Y12263
X14812Y12267
X14950Y11683
X15580Y11762
X15650Y10930
X15665Y10544
X16013Y10738
X16247Y10938
X16504Y10505
X17197Y10204
X17795Y10187
X18142Y10483
X18917Y10308
X18899Y10863
X18909Y11410
X19617Y11283
X19572Y10484
X19598Y9719
X19620Y8909
X18917Y8869
X18917Y9154
X18917Y9439
X18917Y8568
X18129Y8252
X18142Y7967
X18174Y7669
X18124Y7187
X17720Y7136
X17090Y6658
X16713Y6670
X15777Y6526
X15452Y7126
X15244Y6923
X15262Y7450
X14904Y7497
X15455Y7681
X15661Y8824
X15884Y9053
X15930Y9736
X16221Y9747
X15734Y9955
X15065Y9955
X14199Y10144
X14005Y10358
X13801Y10562
X13599Y10764
X13602Y9951
X14049Y9486
X14062Y8785
X13686Y8883
X13809Y8415
X14011Y7878
X13771Y7652
X13577Y7254
X13769Y6998
X13870Y6615
X13910Y6309
X13612Y6407
X13108Y6609
X13052Y6910
X13108Y7472
X12961Y7717
X13218Y8100
X13236Y8591
X12008Y8983
X11698Y9297
X11880Y9518
X11915Y10038
X10462Y10108
X10462Y9793
X10462Y9478
X10462Y9163
X10462Y8848
X10462Y8533
X10462Y8219
X10601Y7941
X10462Y7667
X10462Y7352
X10462Y7037
X10462Y6722
X10462Y6407
X10462Y6093
X10819Y6005
X10602Y5761
X10911Y5059
X10915Y4124
X11288Y4080
X11290Y4365
X11663Y4124
X11565Y3258
X11880Y3258
X12195Y3258
X12510Y3258
X12824Y3258
X13139Y3258
X13454Y3258
X13769Y3258
X14084Y3258
X14675Y3455
X15029Y3258
X15344Y3258
X15659Y3258
X15974Y3258
X16289Y3258
X16604Y3258
X16919Y3258
X17234Y3258
X17549Y3258
X18061Y3297
X17967Y3952
X18365Y3988
X18710Y3943
X18989Y4245
X18931Y3490
X19242Y3258
X20305Y3258
X20699Y3258
X21060Y3282
X21052Y3745
X21282Y4190
X21363Y5063
X21803Y4840
X20617Y4528
X20154Y4209
X20197Y5060
X19754Y5108
X19269Y5536
X19261Y5821
X19193Y6181
X19190Y6477
X19920Y6378
X19911Y6762
X19920Y7087
X19581Y7415
X19920Y7795
X19904Y8147
X19924Y8442
X19607Y8124
X20602Y7696
X20605Y7252
X21781Y7396
X21761Y7917
X21762Y8306
X20937Y8771
X20637Y8732
X20614Y9185
X20614Y9472
X20614Y9759
X20614Y10175
X20614Y10461
X20596Y10885
X20596Y11193
X20596Y11482
X20372Y12222
X20092Y12317
X19780Y12712
X20078Y13032
X20078Y13598
X20085Y13884
X19994Y14545
X20197Y15290
X20029Y15522
X20329Y15557
X20954Y15721
X21250Y15721
X21876Y15516
X22162Y15516
X21998Y15233
X21894Y14557
X22053Y14288
X22233Y13711
X21757Y13711
X21271Y13865
X21271Y13533
X21271Y13238
X21278Y12947
X22041Y12725
X22037Y12348
X22840Y12340
X22813Y12674
X23108Y12242
X23587Y12199
X23612Y11604
X23612Y11211
X23612Y10817
X23612Y10423
X23612Y10030
X23612Y9636
X23612Y9242
X23612Y8848
X23573Y8219
X23612Y7825
X23612Y7510
X23612Y7136
X23484Y6653
X23573Y6289
X23612Y5659
X23328Y5549
X23612Y5108
X23591Y3946
X23612Y3258
X22588Y6526
X22462Y6821
X21593Y6336
X19601Y6044
X18724Y5596
X18592Y5207
X18254Y5278
X17831Y5600
X17391Y5699
X16650Y5621
X16122Y4685
X15982Y4406
X15911Y4099
X15649Y4789
X14818Y4760
X14626Y4435
X13882Y4781
X13956Y5629
X13662Y5629
X13371Y5629
X12185Y5571
X12155Y5108
X12430Y4577
X12456Y3673
X13566Y3546
X11250Y3258
X10935Y3258
X10620Y3258
X11814Y6162
X11970Y6401
X11742Y6693
X11525Y7120
X11966Y7118
X12064Y7802
X11548Y8091
X11272Y7537
X11261Y8746
X10462Y10423
X10462Y10738
X10462Y11053
X10462Y11368
X10462Y11683
X10462Y11998
X10462Y12313
X10462Y12628
X10462Y12943
X10981Y13557
X10541Y14163
X10462Y14636
X11033Y15234
X11033Y15553
X11033Y15871
X11033Y16189
X11033Y16508
X11397Y16834
X10679Y16877
X12275Y16046
X12142Y15467
X12706Y14557
X12939Y13853
X12925Y13533
X12930Y13245
X12931Y12947
X13718Y12725
X13727Y12312
X14237Y12697
X14527Y12913
X14527Y13486
X14490Y13872
X13886Y13738
X13386Y13745
X13726Y14291
X13605Y14957
X13922Y14957
X14268Y14957
X13258Y14968
X15069Y14557
X17285Y13872
X17283Y13473
X17283Y13034
X17201Y12650
X16474Y12672
X16525Y12390
X17667Y12258
X17991Y12250
X18013Y11758
X18423Y12038
X18494Y12867
X18471Y13238
X18484Y13533
X18494Y14033
X18789Y13770
X19458Y13725
X19258Y14267
X19329Y15143
X19098Y15723
X18388Y15516
X18096Y15516
X18238Y15226
X18115Y14557
X17469Y15677
X17141Y15728
X19136Y12719
X19335Y12313
X20948Y12263
X21482Y11644
X21482Y10883
X21482Y10122
X21481Y9360
X17798Y9413
X18002Y9088
X17840Y8200
X18919Y7100
X18120Y4477
X17676Y4573
X17583Y4843
X17380Y4480
X14874Y5822
X14816Y6105
X13243Y11638
X12864Y11289
X11777Y11434
X11826Y12163
X12138Y12131
X12601Y12263
X11066Y11956
X17388Y10901
X22874Y13445
X22836Y13910
X23118Y14232
X23609Y14271
X23011Y14823
X23277Y15135
X23612Y15817
X23612Y16211
X23592Y16796
X23021Y16604
X22824Y15721
X23484Y12913
X1969Y3618
X1697Y4254
X1911Y4639
X1270Y5068
X1230Y5404
X1427Y5994
X1703Y6250
X1821Y6781
X1427Y7077
X1230Y6585
X1230Y7766
X1230Y9341
X1703Y9321
X2814Y9613
X3861Y9588
X4183Y9300
X5236Y9225
X6348Y9341
X7136Y9341
X6663Y8337
X6018Y8331
X6078Y7085
X6545Y7175
X6713Y6695
X7136Y6978
X6714Y5810
X7410Y5638
X7451Y5246
X7451Y4852
X6769Y4946
X6459Y4457
X6846Y4140
X6449Y3710
X6060Y4089
X5985Y4813
X6033Y5246
X4717Y4261
X4717Y3632
X3798Y3618
X2943Y3618
X3166Y4260
X3750Y5285
X4143Y6732
X3396Y6781
X3829Y7291
X4418Y8289
X5364Y10246
X6296Y10313
X6348Y10718
X7136Y10522
X6742Y9931
X4268Y11071
X4310Y11477
X3481Y11061
X3216Y10658
X1779Y10735
X2188Y10100
X1348Y9867
T02
X2481Y13268
X3268Y13268
X4055Y13268
X4843Y13268
X3977Y27107
X3977Y25178
X17517Y11900
X15939Y11900
X14517Y11900
T03
X1132Y11290
X1132Y10561
X1132Y8613
X1132Y3868
X7235Y11113
X7235Y8593
X7235Y7845
X7235Y6152
X7235Y3691
X23297Y3573
X14218Y4544
X14218Y3744
X12218Y4144
X1171Y3907
X1171Y8652
X7274Y8632
X7274Y7884
X7274Y6191
X7274Y3730
X7274Y11152
X1171Y11329
X1171Y10600
T04
X7658Y28504
X7658Y25355
X8248Y27520
X8248Y26339
X8839Y28504
X8839Y25355
X9430Y27520
X9430Y26339
X10020Y28504
X10020Y25355
X10611Y27520
X10611Y26339
X11201Y28504
X11201Y25355
X11792Y27520
X11792Y26339
X12382Y28504
X12382Y25355
X12973Y27520
X12973Y26339
X13563Y28504
X13563Y25355
X14154Y27520
X14154Y26339
X14744Y28504
X14744Y25355
X15335Y27520
X15335Y26339
X15926Y28504
X15926Y25355
X16516Y27520
X16516Y26339
X17107Y28504
X17107Y25355
T05
X3308Y17087
X6260Y17087
T06
X4804Y31063
X19961Y31063
M30
