G04 #@! TF.GenerationSoftware,KiCad,Pcbnew,8.0.2-8.0.2-0~ubuntu22.04.1*
G04 #@! TF.CreationDate,2024-05-24T23:54:36+00:00*
G04 #@! TF.ProjectId,PRODashController,50524f44-6173-4684-936f-6e74726f6c6c,rev?*
G04 #@! TF.SameCoordinates,Original*
G04 #@! TF.FileFunction,Copper,L3,Inr*
G04 #@! TF.FilePolarity,Positive*
%FSLAX46Y46*%
G04 Gerber Fmt 4.6, Leading zero omitted, Abs format (unit mm)*
G04 Created by KiCad (PCBNEW 8.0.2-8.0.2-0~ubuntu22.04.1) date 2024-05-24 23:54:36*
%MOMM*%
%LPD*%
G01*
G04 APERTURE LIST*
G04 #@! TA.AperFunction,ComponentPad*
%ADD10O,1.200000X1.750000*%
G04 #@! TD*
G04 #@! TA.AperFunction,ComponentPad*
%ADD11R,1.950000X1.950000*%
G04 #@! TD*
G04 #@! TA.AperFunction,ComponentPad*
%ADD12C,1.950000*%
G04 #@! TD*
G04 #@! TA.AperFunction,ComponentPad*
%ADD13C,1.500000*%
G04 #@! TD*
G04 #@! TA.AperFunction,ComponentPad*
%ADD14C,0.600000*%
G04 #@! TD*
G04 #@! TA.AperFunction,Conductor*
%ADD15O,0.200000X3.300000*%
G04 #@! TD*
G04 #@! TA.AperFunction,Conductor*
%ADD16O,0.200000X10.200000*%
G04 #@! TD*
G04 #@! TA.AperFunction,Conductor*
%ADD17O,0.200000X0.300000*%
G04 #@! TD*
G04 #@! TA.AperFunction,Conductor*
%ADD18O,17.000000X0.200000*%
G04 #@! TD*
G04 #@! TA.AperFunction,Conductor*
%ADD19O,15.400000X0.200000*%
G04 #@! TD*
G04 #@! TA.AperFunction,Conductor*
%ADD20O,0.200000X4.800000*%
G04 #@! TD*
G04 #@! TA.AperFunction,Conductor*
%ADD21O,0.200000X2.600000*%
G04 #@! TD*
G04 #@! TA.AperFunction,Conductor*
%ADD22O,0.200000X1.000000*%
G04 #@! TD*
G04 #@! TA.AperFunction,Conductor*
%ADD23O,0.200000X1.500000*%
G04 #@! TD*
G04 #@! TA.AperFunction,Conductor*
%ADD24R,0.200000X3.700000*%
G04 #@! TD*
G04 #@! TA.AperFunction,Conductor*
%ADD25R,0.200000X0.400000*%
G04 #@! TD*
G04 #@! TA.AperFunction,Conductor*
%ADD26R,0.200000X1.600000*%
G04 #@! TD*
G04 #@! TA.AperFunction,Conductor*
%ADD27R,0.200000X9.700000*%
G04 #@! TD*
G04 #@! TA.AperFunction,Conductor*
%ADD28R,0.200000X2.300000*%
G04 #@! TD*
G04 #@! TA.AperFunction,Conductor*
%ADD29R,1.400000X0.200000*%
G04 #@! TD*
G04 #@! TA.AperFunction,Conductor*
%ADD30R,6.400000X0.200000*%
G04 #@! TD*
G04 #@! TA.AperFunction,Conductor*
%ADD31R,1.700000X0.200000*%
G04 #@! TD*
G04 #@! TA.AperFunction,Conductor*
%ADD32R,3.300000X0.200000*%
G04 #@! TD*
G04 #@! TA.AperFunction,Conductor*
%ADD33R,0.200000X7.000000*%
G04 #@! TD*
G04 #@! TA.AperFunction,Conductor*
%ADD34R,0.200000X3.300000*%
G04 #@! TD*
G04 #@! TA.AperFunction,Conductor*
%ADD35R,0.200000X6.300000*%
G04 #@! TD*
G04 #@! TA.AperFunction,ComponentPad*
%ADD36C,1.524000*%
G04 #@! TD*
G04 #@! TA.AperFunction,ViaPad*
%ADD37C,0.800000*%
G04 #@! TD*
G04 #@! TA.AperFunction,Conductor*
%ADD38C,0.200000*%
G04 #@! TD*
G04 #@! TA.AperFunction,Conductor*
%ADD39C,0.500000*%
G04 #@! TD*
G04 #@! TA.AperFunction,Conductor*
%ADD40C,0.800000*%
G04 #@! TD*
G04 APERTURE END LIST*
G04 #@! TO.N,GND*
G04 #@! TO.C,J2*
G04 #@! TA.AperFunction,ComponentPad*
G36*
G01*
X13000000Y34425000D02*
X13000000Y33175000D01*
G75*
G02*
X12750000Y32925000I-250000J0D01*
G01*
X12050000Y32925000D01*
G75*
G02*
X11800000Y33175000I0J250000D01*
G01*
X11800000Y34425000D01*
G75*
G02*
X12050000Y34675000I250000J0D01*
G01*
X12750000Y34675000D01*
G75*
G02*
X13000000Y34425000I0J-250000D01*
G01*
G37*
G04 #@! TD.AperFunction*
D10*
G04 #@! TO.N,/USB+*
X10400000Y33800000D03*
G04 #@! TO.N,/USB-*
X8400000Y33800000D03*
G04 #@! TO.N,/VBUS*
X6400000Y33800000D03*
G04 #@! TD*
D11*
G04 #@! TO.N,/OUT-8*
G04 #@! TO.C,J1*
X43550000Y64500000D03*
D12*
G04 #@! TO.N,/OUT-7*
X40550000Y64500000D03*
G04 #@! TO.N,/OUT-6*
X37550000Y64500000D03*
G04 #@! TO.N,/OUT-5*
X34550000Y64500000D03*
G04 #@! TO.N,/OUT-4*
X31550000Y64500000D03*
G04 #@! TO.N,/OUT-3*
X28550000Y64500000D03*
G04 #@! TO.N,/OUT-2*
X25550000Y64500000D03*
G04 #@! TO.N,/OUT-1*
X22550000Y64500000D03*
G04 #@! TO.N,/OUT-9*
X19550000Y64500000D03*
G04 #@! TO.N,/AN5*
X42050000Y67000000D03*
G04 #@! TO.N,/AN6*
X39050000Y67000000D03*
G04 #@! TO.N,/AN7*
X36050000Y67000000D03*
G04 #@! TO.N,/AN1*
X33050000Y67000000D03*
G04 #@! TO.N,/AN2*
X30050000Y67000000D03*
G04 #@! TO.N,/AN3*
X27050000Y67000000D03*
G04 #@! TO.N,/AN4*
X24050000Y67000000D03*
G04 #@! TO.N,/OUT-10*
X21050000Y67000000D03*
G04 #@! TO.N,/TEMP2*
X42050000Y70000000D03*
G04 #@! TO.N,/TEMP1*
X39050000Y70000000D03*
G04 #@! TO.N,/VSS*
X36050000Y70000000D03*
G04 #@! TO.N,/CAN-H*
X33050000Y70000000D03*
G04 #@! TO.N,/CAN-L*
X30050000Y70000000D03*
G04 #@! TO.N,+5VP*
X27050000Y70000000D03*
G04 #@! TO.N,GNDA*
X24050000Y70000000D03*
G04 #@! TO.N,GND*
X21050000Y70000000D03*
G04 #@! TO.N,/D5*
X43550000Y72500000D03*
G04 #@! TO.N,/D6*
X40550000Y72500000D03*
G04 #@! TO.N,/D7*
X37550000Y72500000D03*
G04 #@! TO.N,/SW_ON*
X34550000Y72500000D03*
G04 #@! TO.N,/D1*
X31550000Y72500000D03*
G04 #@! TO.N,/D2*
X28550000Y72500000D03*
G04 #@! TO.N,/D3*
X25550000Y72500000D03*
G04 #@! TO.N,/D4*
X22550000Y72500000D03*
G04 #@! TO.N,+12V*
X19550000Y72500000D03*
G04 #@! TD*
D13*
G04 #@! TO.N,Net-(D11-K)*
G04 #@! TO.C,M2*
X18474995Y28324999D03*
G04 #@! TO.N,+12V_PROT*
X18474995Y21925002D03*
G04 #@! TO.N,Net-(M1-IN_VIGN_(PA5))*
X18474995Y20024999D03*
G04 #@! TO.N,+5V*
X18474995Y15724999D03*
D14*
G04 #@! TO.N,/EN_5VP*
X18924994Y13325002D03*
G04 #@! TO.N,Net-(M2-PG_5VP)*
X18924994Y12325001D03*
D15*
G04 #@! TO.N,GND*
X2324999Y24474999D03*
D16*
X2324999Y15975001D03*
D17*
X2324999Y8874999D03*
D18*
X10724997Y8824999D03*
D19*
X11524998Y29424999D03*
D13*
X18474995Y9474999D03*
D17*
X19124996Y29374999D03*
D20*
X19124996Y25175001D03*
D21*
X19124996Y17824999D03*
D22*
X19124996Y14325002D03*
D23*
X19124996Y11025001D03*
D13*
G04 #@! TO.N,+12V_RAW*
X2974998Y28775001D03*
X2974998Y26925002D03*
X2974998Y21974999D03*
G04 #@! TO.N,+5VP*
X2974998Y9925001D03*
G04 #@! TD*
D14*
G04 #@! TO.N,+5VA*
G04 #@! TO.C,M1*
X26575005Y37175005D03*
G04 #@! TO.N,GNDA*
X26574995Y32875005D03*
G04 #@! TO.N,unconnected-(M1-I2C_SCL_(PB10)-PadE3)*
X26574995Y32075015D03*
G04 #@! TO.N,unconnected-(M1-I2C_SDA_(PB11)-PadE4)*
X26574995Y31275005D03*
G04 #@! TO.N,Net-(M1-IN_VIGN_(PA5))*
X26574995Y30475005D03*
G04 #@! TO.N,unconnected-(M1-SPI2_CS_{slash}_CAN2_RX_(PB12)-PadE6)*
X26574995Y29675005D03*
G04 #@! TO.N,unconnected-(M1-SPI2_SCK_{slash}_CAN2_TX_(PB13)-PadE7)*
X26574995Y28875005D03*
G04 #@! TO.N,unconnected-(M1-SPI2_MISO_(PB14)-PadE8)*
X26574995Y28075005D03*
G04 #@! TO.N,unconnected-(M1-SPI2_MOSI_(PB15)-PadE9)*
X26574995Y27275005D03*
G04 #@! TO.N,/Outputs/IN_8*
X26574995Y26475005D03*
G04 #@! TO.N,/Outputs/IN_7*
X26574995Y25675005D03*
G04 #@! TO.N,/Outputs/IN_6*
X26574995Y24875005D03*
G04 #@! TO.N,/Outputs/IN_5*
X26574995Y24075005D03*
G04 #@! TO.N,/Outputs/IN_4*
X26574995Y23275005D03*
G04 #@! TO.N,/Outputs/IN_3*
X26574995Y22475005D03*
G04 #@! TO.N,/Outputs/IN_2*
X26575005Y21675015D03*
G04 #@! TO.N,/Outputs/IN_1*
X26574995Y20875005D03*
G04 #@! TO.N,/Outputs/IN_9*
X26574995Y19475005D03*
G04 #@! TO.N,/Outputs/IN_10*
X26574995Y18675015D03*
G04 #@! TO.N,unconnected-(M1-OUT_PWM3_(PC7)-PadE20)*
X26574995Y17875015D03*
G04 #@! TO.N,unconnected-(M1-OUT_PWM4_(PC8)-PadE21)*
X26574995Y17075015D03*
G04 #@! TO.N,unconnected-(M1-OUT_PWM5_(PC9)-PadE22)*
X26574995Y16275015D03*
G04 #@! TO.N,unconnected-(M1-OUT_PWM6_(PD14)-PadE23)*
X26574995Y15475005D03*
D24*
G04 #@! TO.N,GND*
X60175005Y10625015D03*
D25*
X60175005Y13675005D03*
D24*
X60175005Y16725015D03*
D26*
X60175005Y21175005D03*
D27*
X60175005Y34825005D03*
D28*
X60175005Y42825005D03*
D29*
X58374995Y43875015D03*
D30*
X56275005Y8075015D03*
D31*
X50225005Y8075015D03*
D32*
X46725005Y8075015D03*
D29*
X36975005Y8075015D03*
D30*
X29475005Y43875015D03*
D33*
X26374995Y11474995D03*
D25*
X26374995Y20175015D03*
D34*
X26374995Y35025015D03*
D35*
X26374995Y40825015D03*
D14*
G04 #@! TO.N,/VBUS*
X26974995Y8275005D03*
G04 #@! TO.N,/USB-*
X27774995Y8275005D03*
G04 #@! TO.N,/USB+*
X28574995Y8275005D03*
G04 #@! TO.N,unconnected-(M1-USBID_(PA10)-PadN4)*
X29375005Y8275005D03*
G04 #@! TO.N,unconnected-(M1-SWDIO_(PA13)-PadN5)*
X30174995Y8275005D03*
G04 #@! TO.N,unconnected-(M1-SWCLK_(PA14)-PadN6)*
X30974995Y8275005D03*
G04 #@! TO.N,unconnected-(M1-nReset-PadN7)*
X31774995Y8275005D03*
G04 #@! TO.N,unconnected-(M1-SWO_(PB3)-PadN8)*
X32575005Y8275005D03*
G04 #@! TO.N,unconnected-(M1-SPI3_CS_(PA15)-PadN9)*
X33374995Y8275015D03*
G04 #@! TO.N,unconnected-(M1-SPI3_SCK_(PC10)-PadN10)*
X34174995Y8275015D03*
G04 #@! TO.N,unconnected-(M1-SPI3_MISO_(PC11)-PadN11)*
X34974995Y8275015D03*
G04 #@! TO.N,/PG_5VP*
X35774995Y8275015D03*
G04 #@! TO.N,unconnected-(M1-UART2_TX_(PD5)-PadN13)*
X38175005Y8275015D03*
G04 #@! TO.N,unconnected-(M1-UART2_RX_(PD6)-PadN14)*
X38975005Y8275015D03*
G04 #@! TO.N,unconnected-(M1-LED_GREEN-PadN14a)*
X39774995Y8275005D03*
G04 #@! TO.N,unconnected-(M1-LED_YELLOW-PadN14b)*
X40575005Y8275005D03*
G04 #@! TO.N,+3.3VA*
X41375005Y8275005D03*
G04 #@! TO.N,unconnected-(M1-BOOT0-PadN16)*
X42175005Y8275005D03*
G04 #@! TO.N,Net-(D11-K)*
X42975005Y8275005D03*
G04 #@! TO.N,unconnected-(M1-UART8_RX_(PE0)-PadN18)*
X43775005Y8275015D03*
G04 #@! TO.N,unconnected-(M1-UART8_TX_(PE1)-PadN19)*
X44575005Y8275015D03*
G04 #@! TO.N,/EN_5VP*
X48875005Y8275015D03*
G04 #@! TO.N,+3.3V*
X51575005Y8275015D03*
G04 #@! TO.N,+5V*
X52574995Y8275015D03*
G04 #@! TO.N,unconnected-(M1-V33-PadN23)*
X59975005Y8275015D03*
G04 #@! TO.N,/Digital Inputs/D4_OUT*
X33174985Y43675015D03*
G04 #@! TO.N,/Digital Inputs/D3_OUT*
X34374995Y43675015D03*
G04 #@! TO.N,/Digital Inputs/D2_OUT*
X35574995Y43675015D03*
G04 #@! TO.N,/Digital Inputs/D1_OUT*
X36774995Y43675015D03*
G04 #@! TO.N,unconnected-(M1-VREF2-PadS5)*
X37974995Y43675015D03*
G04 #@! TO.N,/AN4*
X39174995Y43675015D03*
G04 #@! TO.N,/AN3*
X40374995Y43675015D03*
G04 #@! TO.N,/AN2*
X41574995Y43675015D03*
G04 #@! TO.N,/AN1*
X42774995Y43675015D03*
G04 #@! TO.N,/AN7*
X43974995Y43675015D03*
G04 #@! TO.N,/Digital Inputs/SW_ON_OUT*
X45174995Y43675015D03*
G04 #@! TO.N,/AN6*
X46374995Y43675015D03*
G04 #@! TO.N,/AN5*
X47574995Y43675015D03*
G04 #@! TO.N,/Digital Inputs/D6_OUT*
X48774995Y43675015D03*
G04 #@! TO.N,/Digital Inputs/D5_OUT*
X49974995Y43675015D03*
G04 #@! TO.N,/Digital Inputs/D7_OUT*
X51174995Y43675015D03*
G04 #@! TO.N,/VSS*
X52374995Y43675015D03*
G04 #@! TO.N,/IN_VMAIN*
X53575005Y43675015D03*
G04 #@! TO.N,unconnected-(M1-IN_PPS_(PA3)-PadS19)*
X54775005Y43675015D03*
G04 #@! TO.N,/TEMP1*
X55975005Y43675015D03*
G04 #@! TO.N,/TEMP2*
X57175005Y43675015D03*
G04 #@! TO.N,unconnected-(M1-VREF1-PadS22)*
X59575005Y43675015D03*
G04 #@! TO.N,GNDA*
X59975005Y41175005D03*
G04 #@! TO.N,unconnected-(M1-V5A_SWITCHABLE-PadW2)*
X59975005Y40175005D03*
G04 #@! TO.N,unconnected-(M1-IGN8_(PE6)-PadW3)*
X59975005Y29475015D03*
G04 #@! TO.N,unconnected-(M1-IGN7_(PB9)-PadW4)*
X59975005Y28475005D03*
G04 #@! TO.N,unconnected-(M1-IGN6_(PB8)-PadW5)*
X59975005Y27475015D03*
G04 #@! TO.N,unconnected-(M1-IGN5_(PE2)-PadW6)*
X59975005Y26475015D03*
G04 #@! TO.N,unconnected-(M1-IGN4_(PE3)-PadW7)*
X59975005Y25475015D03*
G04 #@! TO.N,unconnected-(M1-IGN3_(PE4)-PadW8)*
X59975005Y24475015D03*
G04 #@! TO.N,unconnected-(M1-IGN2_(PE5)-PadW9)*
X59975005Y23475015D03*
G04 #@! TO.N,unconnected-(M1-IGN1_(PC13)-PadW10)*
X59975005Y22475015D03*
G04 #@! TO.N,/CAN-H*
X59975005Y19875015D03*
G04 #@! TO.N,/CAN-L*
X59975005Y19075015D03*
G04 #@! TO.N,unconnected-(M1-V33_REF-PadW13)*
X59975005Y14375005D03*
G04 #@! TO.N,unconnected-(M1-V5A_SWITCHABLE-PadW14)*
X59975005Y12975015D03*
G04 #@! TD*
D36*
G04 #@! TO.N,+12V*
G04 #@! TO.C,F1*
X10200000Y68950000D03*
G04 #@! TO.N,+12V_RAW*
X10200000Y64050000D03*
G04 #@! TD*
D37*
G04 #@! TO.N,Net-(BT1-+)*
X15400000Y30500000D03*
G04 #@! TO.N,GND*
X23100000Y7600000D03*
X17500000Y46600000D03*
X47100000Y46800000D03*
X25500000Y77700000D03*
X61500000Y13700000D03*
X25500000Y20300000D03*
X25400000Y10400000D03*
X19700000Y78500000D03*
X51000000Y64900000D03*
X19200000Y68400000D03*
X25300000Y14400000D03*
X1400000Y20100000D03*
X1400000Y12900000D03*
X22500000Y46100000D03*
X52700000Y66100000D03*
X37500000Y80600000D03*
X37100000Y7100000D03*
X60500000Y75600000D03*
X45400000Y7000000D03*
X34700000Y53300000D03*
X17200000Y65700000D03*
X11400000Y71000000D03*
X13700000Y81600000D03*
X57400000Y60900000D03*
X18500000Y74700000D03*
X59400000Y68000000D03*
X33000000Y45600000D03*
X49300000Y66900000D03*
X40600000Y52200000D03*
X20000000Y22900000D03*
X19200000Y69900000D03*
X54100000Y45100000D03*
X24600000Y46300000D03*
X59300000Y75600000D03*
X28700000Y46400000D03*
X5600000Y7900000D03*
X58900000Y51200000D03*
X17000000Y7900000D03*
X43300000Y80700000D03*
X25500000Y80300000D03*
X20000000Y14400000D03*
X18000000Y68400000D03*
X19800000Y80600000D03*
X25800000Y35500000D03*
X12400000Y30800000D03*
X18000000Y69900000D03*
X16800000Y68400000D03*
X37300000Y57700000D03*
X37500000Y52800000D03*
X15500000Y34200000D03*
X16800000Y69900000D03*
X12600000Y46300000D03*
X20800000Y17700000D03*
X30900000Y56700000D03*
X1400000Y11400000D03*
X1400000Y18500000D03*
X61000000Y34900000D03*
X49400000Y81100000D03*
X14100000Y75500000D03*
X31600000Y80300000D03*
X42500000Y53200000D03*
X53500000Y77700000D03*
X7400000Y80000000D03*
X47600000Y51700000D03*
G04 #@! TO.N,+12V_RAW*
X30900000Y58400000D03*
X11900000Y58600000D03*
X9600000Y58500000D03*
X6100000Y58700000D03*
X17700000Y58500000D03*
X21100000Y58500000D03*
X15400000Y58600000D03*
X29200000Y58500000D03*
X23400000Y58500000D03*
X26900000Y58500000D03*
G04 #@! TO.N,Net-(D11-K)*
X18700000Y32000000D03*
G04 #@! TO.N,/IN_VMAIN*
X13300000Y73500000D03*
X34600000Y46700000D03*
G04 #@! TO.N,GNDA*
X60300000Y46700000D03*
G04 #@! TO.N,Net-(M1-IN_VIGN_(PA5))*
X21900000Y19600000D03*
G04 #@! TO.N,+5V*
X21700000Y14200000D03*
G04 #@! TO.N,/CAN-L*
X44400000Y70500000D03*
G04 #@! TO.N,+12V_PROT*
X21300000Y82400000D03*
X44900000Y82400000D03*
X54800000Y74500000D03*
X33200000Y82200000D03*
X27300000Y82400000D03*
X15600000Y82400000D03*
X39200000Y82300000D03*
X54800000Y80600000D03*
G04 #@! TO.N,+5VP*
X12600000Y6400000D03*
G04 #@! TO.N,Net-(JP2-C)*
X34600000Y80400000D03*
G04 #@! TO.N,Net-(JP4-C)*
X28600000Y80500000D03*
G04 #@! TO.N,Net-(JP6-C)*
X22600000Y80600000D03*
G04 #@! TO.N,Net-(JP8-C)*
X17000000Y80600000D03*
G04 #@! TO.N,Net-(JP10-C)*
X57700000Y73800000D03*
G04 #@! TO.N,Net-(JP12-C)*
X57600000Y80600000D03*
G04 #@! TO.N,Net-(JP14-C)*
X46200000Y80500000D03*
G04 #@! TO.N,Net-(JP16-C)*
X40500000Y80400000D03*
G04 #@! TO.N,Net-(JP3-C)*
X34600000Y77400000D03*
G04 #@! TO.N,Net-(JP5-C)*
X28600000Y77500000D03*
G04 #@! TO.N,Net-(JP7-C)*
X22600000Y77600000D03*
G04 #@! TO.N,Net-(JP9-C)*
X17000000Y77700000D03*
G04 #@! TO.N,Net-(JP11-C)*
X57700000Y70800000D03*
G04 #@! TO.N,Net-(JP13-C)*
X57600000Y77700000D03*
G04 #@! TO.N,Net-(JP15-C)*
X46200000Y78300000D03*
G04 #@! TO.N,Net-(JP17-C)*
X40500000Y77400000D03*
G04 #@! TD*
D38*
G04 #@! TO.N,GND*
X26374995Y20175015D02*
X25624985Y20175015D01*
X60175005Y13675005D02*
X61475005Y13675005D01*
X25624985Y20175015D02*
X25500000Y20300000D01*
X61475005Y13675005D02*
X61500000Y13700000D01*
D39*
G04 #@! TO.N,+12V_RAW*
X6100000Y58700000D02*
X9400000Y58700000D01*
D40*
X1500000Y26800000D02*
X1500000Y22200000D01*
D39*
X21100000Y58500000D02*
X23400000Y58500000D01*
D40*
X1400000Y30349999D02*
X2974998Y28775001D01*
X8250000Y64050000D02*
X1400000Y57200000D01*
D39*
X15400000Y58600000D02*
X17600000Y58600000D01*
D40*
X1475001Y29200000D02*
X1475001Y30274998D01*
X1500000Y22200000D02*
X1725001Y21974999D01*
X10200000Y64050000D02*
X8250000Y64050000D01*
X1500000Y28750002D02*
X1500000Y27000000D01*
D39*
X10200000Y62800000D02*
X6100000Y58700000D01*
X23400000Y58500000D02*
X26900000Y58500000D01*
X17700000Y58500000D02*
X21100000Y58500000D01*
D40*
X1725001Y21974999D02*
X2974998Y21974999D01*
X1475001Y28775001D02*
X1475001Y29200000D01*
D39*
X30900000Y58400000D02*
X29300000Y58400000D01*
D40*
X1400000Y26900000D02*
X1500000Y26800000D01*
X1475001Y28775001D02*
X1500000Y28750002D01*
D39*
X29300000Y58400000D02*
X29200000Y58500000D01*
D40*
X1475001Y29200000D02*
X1900000Y28775001D01*
X1425002Y26925002D02*
X2974998Y26925002D01*
D39*
X17600000Y58600000D02*
X17700000Y58500000D01*
D40*
X1500000Y27000000D02*
X1400000Y26900000D01*
D39*
X10200000Y64050000D02*
X10200000Y62800000D01*
D40*
X2974998Y28775001D02*
X1475001Y28775001D01*
D39*
X11800000Y58500000D02*
X11900000Y58600000D01*
X9400000Y58700000D02*
X9600000Y58500000D01*
D40*
X1475001Y30274998D02*
X1400000Y30349999D01*
X1400000Y26900000D02*
X1425002Y26925002D01*
X1400000Y57200000D02*
X1400000Y30349999D01*
D39*
X11900000Y58600000D02*
X15400000Y58600000D01*
X9600000Y58500000D02*
X11800000Y58500000D01*
D40*
X1900000Y28775001D02*
X2974998Y28775001D01*
D39*
X29200000Y58500000D02*
X26900000Y58500000D01*
D38*
G04 #@! TO.N,/IN_VMAIN*
X35700000Y45600000D02*
X51650020Y45600000D01*
X51650020Y45600000D02*
X53575005Y43675015D01*
X34600000Y46700000D02*
X35700000Y45600000D01*
G04 #@! TO.N,Net-(M1-IN_VIGN_(PA5))*
X24275005Y30475005D02*
X26574995Y30475005D01*
X23600000Y29800000D02*
X24275005Y30475005D01*
X23600000Y21300000D02*
X23600000Y29800000D01*
X21900000Y19600000D02*
X23600000Y21300000D01*
D39*
G04 #@! TO.N,+5V*
X21700000Y11749990D02*
X27449990Y6000000D01*
X50299980Y6000000D02*
X52574995Y8275015D01*
X27449990Y6000000D02*
X50299980Y6000000D01*
X21700000Y14200000D02*
X21700000Y11749990D01*
D38*
G04 #@! TO.N,+12V_PROT*
X21300000Y82400000D02*
X27300000Y82400000D01*
X21200000Y20738477D02*
X21200000Y48200000D01*
X27300000Y82400000D02*
X33000000Y82400000D01*
X33000000Y82400000D02*
X33200000Y82200000D01*
X39200000Y82300000D02*
X44800000Y82300000D01*
X18474995Y21925002D02*
X19899997Y20500000D01*
X31600000Y58619239D02*
X28019239Y62200000D01*
X28019239Y62200000D02*
X17100000Y62200000D01*
X30750000Y57750000D02*
X31169239Y57750000D01*
X53000000Y82400000D02*
X54800000Y80600000D01*
X19899997Y20500000D02*
X20961523Y20500000D01*
X31169239Y57750000D02*
X31600000Y58180761D01*
X44800000Y82300000D02*
X44900000Y82400000D01*
X15600000Y82400000D02*
X21300000Y82400000D01*
X44900000Y82400000D02*
X53000000Y82400000D01*
X33200000Y82200000D02*
X33300000Y82300000D01*
X31600000Y58180761D02*
X31600000Y58619239D01*
X15600000Y63700000D02*
X15600000Y82400000D01*
X20961523Y20500000D02*
X21200000Y20738477D01*
X17100000Y62200000D02*
X15600000Y63700000D01*
X54800000Y80600000D02*
X54800000Y74500000D01*
X21200000Y48200000D02*
X30750000Y57750000D01*
X33300000Y82300000D02*
X39200000Y82300000D01*
D39*
G04 #@! TO.N,+5VP*
X22000000Y18368629D02*
X21100000Y19268629D01*
X29925000Y65180456D02*
X28500000Y66605456D01*
X1914338Y9925001D02*
X1400000Y9410663D01*
X26400000Y47700000D02*
X33900000Y55200000D01*
X1400000Y7100000D02*
X2100000Y6400000D01*
X22000000Y9000000D02*
X20900000Y10100000D01*
X22000000Y15631371D02*
X22000000Y18368629D01*
X33900000Y61400000D02*
X32625000Y61400000D01*
X21700000Y41500000D02*
X26400000Y46200000D01*
X33900000Y55200000D02*
X33900000Y61400000D01*
X28500000Y66605456D02*
X28500000Y68550000D01*
X1400000Y9410663D02*
X1400000Y7100000D01*
X12600000Y6400000D02*
X19400000Y6400000D01*
X2100000Y6400000D02*
X12600000Y6400000D01*
X21700000Y20531371D02*
X21700000Y41500000D01*
X32625000Y61400000D02*
X29925000Y64100000D01*
X2974998Y9925001D02*
X1914338Y9925001D01*
X20900000Y14531371D02*
X22000000Y15631371D01*
X28500000Y68550000D02*
X27050000Y70000000D01*
X21100000Y19931371D02*
X21700000Y20531371D01*
X19400000Y6400000D02*
X22000000Y9000000D01*
X29925000Y64100000D02*
X29925000Y65180456D01*
X21100000Y19268629D02*
X21100000Y19931371D01*
X26400000Y46200000D02*
X26400000Y47700000D01*
X20900000Y10100000D02*
X20900000Y14531371D01*
G04 #@! TD*
G04 #@! TA.AperFunction,Conductor*
G04 #@! TO.N,GND*
G36*
X505703Y26671630D02*
G01*
X539061Y26625370D01*
X590061Y26502247D01*
X599500Y26454794D01*
X599500Y22111304D01*
X634103Y21937342D01*
X634105Y21937334D01*
X655241Y21886308D01*
X701985Y21773456D01*
X701987Y21773453D01*
X746373Y21707025D01*
X800536Y21625964D01*
X1025537Y21400964D01*
X1101008Y21325493D01*
X1150967Y21275534D01*
X1298447Y21176990D01*
X1298460Y21176983D01*
X1395427Y21136819D01*
X1462335Y21109105D01*
X1462337Y21109105D01*
X1462342Y21109103D01*
X1636305Y21074500D01*
X1636308Y21074499D01*
X1636310Y21074499D01*
X2055660Y21074499D01*
X2122699Y21054814D01*
X2143341Y21038180D01*
X2168118Y21013403D01*
X2272122Y20940579D01*
X2315747Y20886002D01*
X2324999Y20839004D01*
X2324999Y11060997D01*
X2305314Y10993958D01*
X2272123Y10959422D01*
X2168116Y10886596D01*
X2013402Y10731882D01*
X2010950Y10728379D01*
X1956373Y10684753D01*
X1909374Y10675501D01*
X1840418Y10675501D01*
X1695430Y10646661D01*
X1695420Y10646658D01*
X1558847Y10590088D01*
X1558845Y10590087D01*
X1517983Y10562783D01*
X1517981Y10562782D01*
X1435927Y10507958D01*
X1435922Y10507954D01*
X817052Y9889085D01*
X817049Y9889082D01*
X775207Y9826461D01*
X775208Y9826460D01*
X734914Y9766155D01*
X678343Y9629581D01*
X678340Y9629571D01*
X649500Y9484584D01*
X649500Y9484581D01*
X649500Y7026082D01*
X649500Y7026080D01*
X649499Y7026080D01*
X678340Y6881093D01*
X678343Y6881083D01*
X734913Y6744511D01*
X734914Y6744509D01*
X734916Y6744505D01*
X745990Y6727931D01*
X745991Y6727928D01*
X817046Y6621586D01*
X817052Y6621579D01*
X1517048Y5921585D01*
X1517049Y5921584D01*
X1621584Y5817049D01*
X1621585Y5817048D01*
X1744498Y5734920D01*
X1744511Y5734913D01*
X1881082Y5678344D01*
X1881087Y5678342D01*
X1881091Y5678342D01*
X1881092Y5678341D01*
X2026079Y5649500D01*
X2026082Y5649500D01*
X12060663Y5649500D01*
X12127702Y5629815D01*
X12133548Y5625818D01*
X12147265Y5615852D01*
X12147270Y5615849D01*
X12322615Y5537779D01*
X12375852Y5492529D01*
X12396173Y5425680D01*
X12377127Y5358456D01*
X12324761Y5312201D01*
X12272179Y5300500D01*
X7966892Y5300500D01*
X7834759Y5284456D01*
X7702624Y5268412D01*
X7571511Y5236096D01*
X7444142Y5204702D01*
X7195235Y5110303D01*
X7049852Y5034001D01*
X6959517Y4986589D01*
X6959515Y4986588D01*
X6959510Y4986585D01*
X6740424Y4835359D01*
X6541168Y4658834D01*
X6541166Y4658832D01*
X6364641Y4459576D01*
X6213415Y4240490D01*
X6213412Y4240485D01*
X6213411Y4240483D01*
X6165999Y4150148D01*
X6089697Y4004765D01*
X5995298Y3755858D01*
X5995297Y3755853D01*
X5995297Y3755852D01*
X5931589Y3497377D01*
X5931588Y3497374D01*
X5899500Y3233109D01*
X5899500Y2853481D01*
X5899305Y2846528D01*
X5883859Y2571499D01*
X5882302Y2557681D01*
X5836745Y2289551D01*
X5833651Y2275994D01*
X5758357Y2014643D01*
X5753764Y2001518D01*
X5649685Y1750248D01*
X5643652Y1737720D01*
X5512088Y1499674D01*
X5504690Y1487901D01*
X5347308Y1266093D01*
X5338644Y1255227D01*
X5157409Y1052424D01*
X5147576Y1042591D01*
X4944773Y861356D01*
X4933907Y852692D01*
X4712101Y695311D01*
X4712100Y695310D01*
X4700326Y687912D01*
X4462280Y556348D01*
X4449752Y550315D01*
X4198482Y446236D01*
X4185357Y441643D01*
X3924006Y366349D01*
X3910449Y363255D01*
X3642319Y317698D01*
X3628501Y316141D01*
X3353472Y300695D01*
X3346519Y300500D01*
X2853481Y300500D01*
X2846528Y300695D01*
X2571498Y316141D01*
X2557680Y317698D01*
X2289550Y363255D01*
X2275993Y366349D01*
X2014642Y441643D01*
X2001517Y446236D01*
X1750247Y550315D01*
X1737719Y556348D01*
X1499673Y687912D01*
X1487904Y695307D01*
X1266083Y852698D01*
X1255226Y861356D01*
X1233415Y880847D01*
X1052421Y1042593D01*
X1042590Y1052424D01*
X1042589Y1052425D01*
X861351Y1255232D01*
X852694Y1266088D01*
X695301Y1487913D01*
X687911Y1499674D01*
X667643Y1536346D01*
X556343Y1737727D01*
X550317Y1750241D01*
X446234Y2001520D01*
X441642Y2014643D01*
X366348Y2275994D01*
X363254Y2289551D01*
X338726Y2433912D01*
X317695Y2557691D01*
X316141Y2571489D01*
X300695Y2846529D01*
X300500Y2853481D01*
X300500Y3100005D01*
X1294451Y3100005D01*
X1294451Y3099996D01*
X1314616Y2830899D01*
X1374664Y2567812D01*
X1374666Y2567805D01*
X1473257Y2316602D01*
X1608185Y2082898D01*
X1673082Y2001520D01*
X1776442Y1871911D01*
X1956029Y1705280D01*
X1974259Y1688365D01*
X2197226Y1536349D01*
X2440359Y1419262D01*
X2698228Y1339720D01*
X2698229Y1339720D01*
X2698232Y1339719D01*
X2965063Y1299501D01*
X2965068Y1299501D01*
X2965071Y1299500D01*
X2965072Y1299500D01*
X3234928Y1299500D01*
X3234929Y1299500D01*
X3234936Y1299501D01*
X3501767Y1339719D01*
X3501768Y1339720D01*
X3501772Y1339720D01*
X3759641Y1419262D01*
X4002775Y1536349D01*
X4225741Y1688365D01*
X4423561Y1871915D01*
X4591815Y2082898D01*
X4726743Y2316602D01*
X4825334Y2567805D01*
X4885383Y2830897D01*
X4905549Y3100000D01*
X4902560Y3139882D01*
X4885383Y3369102D01*
X4856106Y3497374D01*
X4825334Y3632195D01*
X4726743Y3883398D01*
X4591815Y4117102D01*
X4423561Y4328085D01*
X4423560Y4328086D01*
X4423557Y4328090D01*
X4225741Y4511635D01*
X4202266Y4527640D01*
X4002775Y4663651D01*
X4002769Y4663654D01*
X4002768Y4663655D01*
X4002767Y4663656D01*
X3759643Y4780737D01*
X3759645Y4780737D01*
X3501773Y4860280D01*
X3501767Y4860282D01*
X3234936Y4900500D01*
X3234929Y4900500D01*
X2965071Y4900500D01*
X2965063Y4900500D01*
X2698232Y4860282D01*
X2698226Y4860280D01*
X2440358Y4780738D01*
X2197230Y4663654D01*
X1974258Y4511635D01*
X1776442Y4328090D01*
X1608185Y4117102D01*
X1473258Y3883401D01*
X1473256Y3883397D01*
X1374666Y3632196D01*
X1374664Y3632189D01*
X1314616Y3369102D01*
X1294451Y3100005D01*
X300500Y3100005D01*
X300500Y26577917D01*
X320185Y26644956D01*
X372989Y26690711D01*
X442147Y26700655D01*
X505703Y26671630D01*
G37*
G04 #@! TD.AperFunction*
G04 #@! TA.AperFunction,Conductor*
G36*
X61032627Y82879815D02*
G01*
X61053269Y82863181D01*
X62863181Y81053269D01*
X62896666Y80991946D01*
X62899500Y80965588D01*
X62899500Y2853482D01*
X62899305Y2846529D01*
X62883859Y2571499D01*
X62882302Y2557681D01*
X62836745Y2289550D01*
X62833651Y2275993D01*
X62758358Y2014645D01*
X62753765Y2001520D01*
X62649685Y1750249D01*
X62643652Y1737721D01*
X62512092Y1499681D01*
X62504694Y1487907D01*
X62347306Y1266088D01*
X62338635Y1255216D01*
X62157408Y1052425D01*
X62147576Y1042593D01*
X61944785Y861366D01*
X61933913Y852695D01*
X61712094Y695307D01*
X61700320Y687909D01*
X61462280Y556348D01*
X61449751Y550315D01*
X61198482Y446237D01*
X61185358Y441644D01*
X60924006Y366349D01*
X60910449Y363255D01*
X60642319Y317698D01*
X60628501Y316141D01*
X60353472Y300695D01*
X60346519Y300500D01*
X59852378Y300500D01*
X59845425Y300695D01*
X59570396Y316141D01*
X59556578Y317698D01*
X59288446Y363256D01*
X59274889Y366350D01*
X59013541Y441643D01*
X59000416Y446236D01*
X58749146Y550316D01*
X58736618Y556349D01*
X58498572Y687913D01*
X58486807Y695306D01*
X58264982Y852699D01*
X58254128Y861355D01*
X58051320Y1042594D01*
X58041489Y1052425D01*
X57860250Y1255233D01*
X57851586Y1266099D01*
X57694203Y1487910D01*
X57686816Y1499665D01*
X57555243Y1737728D01*
X57549217Y1750242D01*
X57445134Y2001520D01*
X57440542Y2014643D01*
X57365248Y2275994D01*
X57362154Y2289551D01*
X57337626Y2433912D01*
X57316595Y2557691D01*
X57315041Y2571491D01*
X57299592Y2846588D01*
X57299397Y2853540D01*
X57299397Y3048635D01*
X57299400Y3048646D01*
X57299400Y3100005D01*
X58293348Y3100005D01*
X58293348Y3099996D01*
X58313513Y2830899D01*
X58373561Y2567812D01*
X58373563Y2567805D01*
X58472154Y2316602D01*
X58607082Y2082898D01*
X58671979Y2001520D01*
X58775339Y1871911D01*
X58954926Y1705280D01*
X58973156Y1688365D01*
X59196123Y1536349D01*
X59439256Y1419262D01*
X59697125Y1339720D01*
X59697126Y1339720D01*
X59697129Y1339719D01*
X59963960Y1299501D01*
X59963965Y1299501D01*
X59963968Y1299500D01*
X59963969Y1299500D01*
X60233825Y1299500D01*
X60233826Y1299500D01*
X60233833Y1299501D01*
X60500664Y1339719D01*
X60500665Y1339720D01*
X60500669Y1339720D01*
X60758538Y1419262D01*
X61001672Y1536349D01*
X61224638Y1688365D01*
X61422458Y1871915D01*
X61590712Y2082898D01*
X61725640Y2316602D01*
X61824231Y2567805D01*
X61884280Y2830897D01*
X61904446Y3100000D01*
X61901457Y3139882D01*
X61884280Y3369102D01*
X61855003Y3497374D01*
X61824231Y3632195D01*
X61725640Y3883398D01*
X61590712Y4117102D01*
X61422458Y4328085D01*
X61422457Y4328086D01*
X61422454Y4328090D01*
X61224638Y4511635D01*
X61201163Y4527640D01*
X61001672Y4663651D01*
X61001666Y4663654D01*
X61001665Y4663655D01*
X61001664Y4663656D01*
X60758540Y4780737D01*
X60758542Y4780737D01*
X60500670Y4860280D01*
X60500664Y4860282D01*
X60233833Y4900500D01*
X60233826Y4900500D01*
X59963968Y4900500D01*
X59963960Y4900500D01*
X59697129Y4860282D01*
X59697123Y4860280D01*
X59439255Y4780738D01*
X59196127Y4663654D01*
X58973155Y4511635D01*
X58775339Y4328090D01*
X58607082Y4117102D01*
X58472155Y3883401D01*
X58472153Y3883397D01*
X58373563Y3632196D01*
X58373561Y3632189D01*
X58313513Y3369102D01*
X58293348Y3100005D01*
X57299400Y3100005D01*
X57299400Y3233109D01*
X57292126Y3293007D01*
X57267312Y3497377D01*
X57203603Y3755853D01*
X57199721Y3766088D01*
X57187554Y3798171D01*
X57109203Y4004765D01*
X56985488Y4240484D01*
X56834262Y4459571D01*
X56657731Y4658834D01*
X56458469Y4835364D01*
X56239381Y4986590D01*
X56003662Y5110304D01*
X55754754Y5204703D01*
X55754749Y5204704D01*
X55496278Y5268411D01*
X55496276Y5268412D01*
X55496273Y5268412D01*
X55332953Y5288243D01*
X55232005Y5300500D01*
X55232003Y5300500D01*
X55138779Y5300500D01*
X50961210Y5300500D01*
X50894171Y5320185D01*
X50848416Y5372989D01*
X50838472Y5442147D01*
X50867497Y5505703D01*
X50873529Y5512181D01*
X52242440Y6881093D01*
X52883056Y7521710D01*
X52919129Y7544360D01*
X52918241Y7546204D01*
X52924513Y7549225D01*
X52924517Y7549226D01*
X53077257Y7645199D01*
X53204811Y7772753D01*
X53300784Y7925493D01*
X53324042Y7991961D01*
X53364763Y8048736D01*
X53429716Y8074483D01*
X53441083Y8075005D01*
X59108917Y8075005D01*
X59175956Y8055320D01*
X59221711Y8002516D01*
X59225958Y7991960D01*
X59249215Y7925494D01*
X59249217Y7925491D01*
X59345189Y7772753D01*
X59472743Y7645199D01*
X59563085Y7588433D01*
X59625261Y7549365D01*
X59625483Y7549226D01*
X59704125Y7521708D01*
X59795750Y7489647D01*
X59795755Y7489646D01*
X59975001Y7469450D01*
X59975005Y7469450D01*
X59975009Y7469450D01*
X60154254Y7489646D01*
X60154257Y7489647D01*
X60154260Y7489647D01*
X60324527Y7549226D01*
X60477267Y7645199D01*
X60604821Y7772753D01*
X60700794Y7925493D01*
X60760373Y8095760D01*
X60780570Y8275015D01*
X60773794Y8335152D01*
X60760374Y8454265D01*
X60760373Y8454270D01*
X60753718Y8473289D01*
X60700794Y8624537D01*
X60604821Y8777277D01*
X60477267Y8904831D01*
X60465350Y8912319D01*
X60324529Y9000803D01*
X60324528Y9000804D01*
X60258049Y9024066D01*
X60201274Y9064788D01*
X60175527Y9129741D01*
X60175005Y9141107D01*
X60175005Y12108923D01*
X60194690Y12175962D01*
X60247494Y12221717D01*
X60258051Y12225965D01*
X60265818Y12228683D01*
X60324527Y12249226D01*
X60477267Y12345199D01*
X60604821Y12472753D01*
X60700794Y12625493D01*
X60760373Y12795760D01*
X60763668Y12825002D01*
X60780570Y12975012D01*
X60780570Y12975019D01*
X60760374Y13154265D01*
X60760373Y13154270D01*
X60700793Y13324539D01*
X60604820Y13477278D01*
X60494769Y13587329D01*
X60461284Y13648652D01*
X60466268Y13718344D01*
X60494769Y13762691D01*
X60604821Y13872743D01*
X60700794Y14025483D01*
X60760373Y14195750D01*
X60780570Y14375005D01*
X60760373Y14554260D01*
X60700794Y14724527D01*
X60676368Y14763400D01*
X60621951Y14850004D01*
X60604821Y14877267D01*
X60477267Y15004821D01*
X60469364Y15009787D01*
X60324529Y15100793D01*
X60324528Y15100794D01*
X60258049Y15124056D01*
X60201274Y15164778D01*
X60175527Y15229731D01*
X60175005Y15241097D01*
X60175005Y18208923D01*
X60194690Y18275962D01*
X60247494Y18321717D01*
X60258051Y18325965D01*
X60265818Y18328683D01*
X60324527Y18349226D01*
X60477267Y18445199D01*
X60604821Y18572753D01*
X60700794Y18725493D01*
X60760373Y18895760D01*
X60763764Y18925856D01*
X60780570Y19075012D01*
X60780570Y19075019D01*
X60760374Y19254265D01*
X60760371Y19254278D01*
X60698494Y19431110D01*
X60700642Y19431862D01*
X60691040Y19490143D01*
X60699397Y19518604D01*
X60698494Y19518920D01*
X60760371Y19695753D01*
X60760374Y19695766D01*
X60780570Y19875012D01*
X60780570Y19875019D01*
X60760374Y20054265D01*
X60760373Y20054270D01*
X60700793Y20224539D01*
X60604820Y20377278D01*
X60477267Y20504831D01*
X60324529Y20600803D01*
X60324528Y20600804D01*
X60258049Y20624066D01*
X60201274Y20664788D01*
X60175527Y20729741D01*
X60175005Y20741107D01*
X60175005Y21608923D01*
X60194690Y21675962D01*
X60247494Y21721717D01*
X60258051Y21725965D01*
X60265818Y21728683D01*
X60324527Y21749226D01*
X60477267Y21845199D01*
X60604821Y21972753D01*
X60700794Y22125493D01*
X60760373Y22295760D01*
X60766972Y22354325D01*
X60780570Y22475012D01*
X60780570Y22475019D01*
X60760374Y22654265D01*
X60760373Y22654270D01*
X60700793Y22824540D01*
X60647696Y22909042D01*
X60628695Y22976279D01*
X60647696Y23040988D01*
X60700793Y23125491D01*
X60753109Y23275002D01*
X60760373Y23295760D01*
X60778231Y23454255D01*
X60780570Y23475012D01*
X60780570Y23475019D01*
X60760374Y23654265D01*
X60760373Y23654270D01*
X60700793Y23824540D01*
X60647696Y23909042D01*
X60628695Y23976279D01*
X60647696Y24040988D01*
X60700793Y24125491D01*
X60700794Y24125493D01*
X60760373Y24295760D01*
X60760374Y24295766D01*
X60780570Y24475012D01*
X60780570Y24475019D01*
X60760374Y24654265D01*
X60760373Y24654270D01*
X60700793Y24824540D01*
X60647696Y24909042D01*
X60628695Y24976279D01*
X60647696Y25040988D01*
X60700793Y25125491D01*
X60737747Y25231099D01*
X60760373Y25295760D01*
X60762897Y25318161D01*
X60780570Y25475012D01*
X60780570Y25475019D01*
X60760374Y25654265D01*
X60760373Y25654270D01*
X60700793Y25824540D01*
X60647696Y25909042D01*
X60628695Y25976279D01*
X60647696Y26040988D01*
X60700793Y26125491D01*
X60760367Y26295743D01*
X60760373Y26295760D01*
X60780569Y26475005D01*
X60780570Y26475012D01*
X60780570Y26475019D01*
X60760374Y26654265D01*
X60760373Y26654270D01*
X60700793Y26824540D01*
X60647696Y26909042D01*
X60628695Y26976279D01*
X60647696Y27040988D01*
X60700793Y27125491D01*
X60717988Y27174631D01*
X60760373Y27295760D01*
X60763165Y27320541D01*
X60780570Y27475012D01*
X60780570Y27475019D01*
X60760374Y27654265D01*
X60760373Y27654270D01*
X60700793Y27824540D01*
X60647699Y27909037D01*
X60628698Y27976274D01*
X60647699Y28040983D01*
X60700793Y28125481D01*
X60745855Y28254260D01*
X60760373Y28295750D01*
X60760374Y28295756D01*
X60780570Y28475002D01*
X60780570Y28475009D01*
X60760374Y28654255D01*
X60760373Y28654260D01*
X60749159Y28686308D01*
X60700794Y28824527D01*
X60647691Y28909039D01*
X60628692Y28976274D01*
X60647692Y29040982D01*
X60656040Y29054268D01*
X60700794Y29125493D01*
X60760373Y29295760D01*
X60762897Y29318161D01*
X60780570Y29475012D01*
X60780570Y29475019D01*
X60760374Y29654265D01*
X60760373Y29654270D01*
X60753119Y29675002D01*
X60700794Y29824537D01*
X60604821Y29977277D01*
X60477267Y30104831D01*
X60404340Y30150654D01*
X60324529Y30200803D01*
X60324528Y30200804D01*
X60258049Y30224066D01*
X60201274Y30264788D01*
X60175527Y30329741D01*
X60175005Y30341107D01*
X60175005Y39308913D01*
X60194690Y39375952D01*
X60247494Y39421707D01*
X60258051Y39425955D01*
X60265818Y39428673D01*
X60324527Y39449216D01*
X60477267Y39545189D01*
X60604821Y39672743D01*
X60700794Y39825483D01*
X60760373Y39995750D01*
X60780570Y40175005D01*
X60760373Y40354260D01*
X60700794Y40524527D01*
X60700793Y40524530D01*
X60647696Y40609032D01*
X60628695Y40676269D01*
X60647696Y40740978D01*
X60700793Y40825481D01*
X60760373Y40995751D01*
X60760374Y40995756D01*
X60780570Y41175002D01*
X60780570Y41175009D01*
X60760374Y41354255D01*
X60760373Y41354260D01*
X60700793Y41524529D01*
X60604820Y41677268D01*
X60477267Y41804821D01*
X60324529Y41900793D01*
X60324528Y41900794D01*
X60258049Y41924056D01*
X60201274Y41964778D01*
X60175527Y42029731D01*
X60175005Y42041097D01*
X60175005Y43091976D01*
X60194690Y43159015D01*
X60202060Y43169291D01*
X60204815Y43172748D01*
X60204821Y43172753D01*
X60300794Y43325493D01*
X60360373Y43495760D01*
X60370955Y43589679D01*
X60380570Y43675012D01*
X60380570Y43675019D01*
X60360374Y43854265D01*
X60360373Y43854270D01*
X60300794Y44024537D01*
X60204821Y44177277D01*
X60077267Y44304831D01*
X59964765Y44375521D01*
X59924528Y44400804D01*
X59754259Y44460384D01*
X59754254Y44460385D01*
X59575009Y44480580D01*
X59575001Y44480580D01*
X59395755Y44460385D01*
X59395750Y44460384D01*
X59225481Y44400804D01*
X59072742Y44304831D01*
X58945189Y44177278D01*
X58849217Y44024540D01*
X58849215Y44024537D01*
X58825951Y43958050D01*
X58785230Y43901274D01*
X58720277Y43875527D01*
X58708910Y43875005D01*
X58041100Y43875005D01*
X57974061Y43894690D01*
X57928306Y43947494D01*
X57924059Y43958050D01*
X57900794Y44024537D01*
X57900792Y44024540D01*
X57804820Y44177278D01*
X57677267Y44304831D01*
X57524528Y44400804D01*
X57354259Y44460384D01*
X57354254Y44460385D01*
X57175009Y44480580D01*
X57175001Y44480580D01*
X56995755Y44460385D01*
X56995750Y44460384D01*
X56825481Y44400804D01*
X56672742Y44304831D01*
X56662686Y44294774D01*
X56601363Y44261289D01*
X56531671Y44266273D01*
X56487324Y44294774D01*
X56477267Y44304831D01*
X56324528Y44400804D01*
X56154259Y44460384D01*
X56154254Y44460385D01*
X55975009Y44480580D01*
X55975001Y44480580D01*
X55795755Y44460385D01*
X55795750Y44460384D01*
X55625481Y44400804D01*
X55472742Y44304831D01*
X55462686Y44294774D01*
X55401363Y44261289D01*
X55331671Y44266273D01*
X55287324Y44294774D01*
X55277267Y44304831D01*
X55124528Y44400804D01*
X54954259Y44460384D01*
X54954254Y44460385D01*
X54775009Y44480580D01*
X54775001Y44480580D01*
X54595755Y44460385D01*
X54595750Y44460384D01*
X54425481Y44400804D01*
X54272742Y44304831D01*
X54262686Y44294774D01*
X54201363Y44261289D01*
X54131671Y44266273D01*
X54087324Y44294774D01*
X54077267Y44304831D01*
X53924526Y44400805D01*
X53754254Y44460385D01*
X53667335Y44470178D01*
X53602921Y44497245D01*
X53593538Y44505717D01*
X52137610Y45961645D01*
X52137608Y45961648D01*
X52018737Y46080519D01*
X52018736Y46080520D01*
X51931924Y46130640D01*
X51931924Y46130641D01*
X51931920Y46130642D01*
X51881805Y46159577D01*
X51729077Y46200501D01*
X51570963Y46200501D01*
X51563367Y46200501D01*
X51563351Y46200500D01*
X36000097Y46200500D01*
X35933058Y46220185D01*
X35912416Y46236819D01*
X35541779Y46607456D01*
X35508294Y46668779D01*
X35505460Y46695137D01*
X35505460Y46699998D01*
X35505460Y46700000D01*
X59394540Y46700000D01*
X59414326Y46511744D01*
X59414327Y46511741D01*
X59472818Y46331723D01*
X59472821Y46331716D01*
X59567467Y46167784D01*
X59646039Y46080521D01*
X59694129Y46027112D01*
X59847265Y45915852D01*
X59847270Y45915849D01*
X60020192Y45838858D01*
X60020197Y45838856D01*
X60205354Y45799500D01*
X60205355Y45799500D01*
X60394644Y45799500D01*
X60394646Y45799500D01*
X60579803Y45838856D01*
X60752730Y45915849D01*
X60905871Y46027112D01*
X61032533Y46167784D01*
X61127179Y46331716D01*
X61185674Y46511744D01*
X61205460Y46700000D01*
X61185674Y46888256D01*
X61127179Y47068284D01*
X61032533Y47232216D01*
X60905871Y47372888D01*
X60883513Y47389132D01*
X60752734Y47484149D01*
X60752729Y47484152D01*
X60579807Y47561143D01*
X60579802Y47561145D01*
X60434001Y47592135D01*
X60394646Y47600500D01*
X60205354Y47600500D01*
X60172897Y47593602D01*
X60020197Y47561145D01*
X60020192Y47561143D01*
X59847270Y47484152D01*
X59847265Y47484149D01*
X59694129Y47372889D01*
X59567466Y47232215D01*
X59472821Y47068285D01*
X59472818Y47068278D01*
X59414327Y46888260D01*
X59414326Y46888256D01*
X59394540Y46700000D01*
X35505460Y46700000D01*
X35485674Y46888256D01*
X35427179Y47068284D01*
X35332533Y47232216D01*
X35205871Y47372888D01*
X35183513Y47389132D01*
X35052734Y47484149D01*
X35052729Y47484152D01*
X34879807Y47561143D01*
X34879802Y47561145D01*
X34734001Y47592135D01*
X34694646Y47600500D01*
X34505354Y47600500D01*
X34472897Y47593602D01*
X34320197Y47561145D01*
X34320192Y47561143D01*
X34147270Y47484152D01*
X34147265Y47484149D01*
X33994129Y47372889D01*
X33867466Y47232215D01*
X33772821Y47068285D01*
X33772818Y47068278D01*
X33714327Y46888260D01*
X33714326Y46888256D01*
X33694540Y46700000D01*
X33714326Y46511744D01*
X33714327Y46511741D01*
X33772818Y46331723D01*
X33772821Y46331716D01*
X33867467Y46167784D01*
X33946039Y46080521D01*
X33994129Y46027112D01*
X34147265Y45915852D01*
X34147270Y45915849D01*
X34320192Y45838858D01*
X34320197Y45838856D01*
X34505354Y45799500D01*
X34599903Y45799500D01*
X34666942Y45779815D01*
X34687584Y45763181D01*
X35215139Y45235626D01*
X35215149Y45235615D01*
X35219479Y45231285D01*
X35219480Y45231284D01*
X35331284Y45119480D01*
X35418095Y45069361D01*
X35418097Y45069359D01*
X35456151Y45047389D01*
X35468215Y45040423D01*
X35620943Y44999499D01*
X35620946Y44999499D01*
X35786653Y44999499D01*
X35786669Y44999500D01*
X51349923Y44999500D01*
X51416962Y44979815D01*
X51437604Y44963181D01*
X51899869Y44500916D01*
X51933354Y44439593D01*
X51928370Y44369901D01*
X51886498Y44313968D01*
X51878164Y44308244D01*
X51872736Y44304834D01*
X51872730Y44304829D01*
X51862676Y44294774D01*
X51801353Y44261289D01*
X51731661Y44266273D01*
X51687314Y44294774D01*
X51677257Y44304831D01*
X51524518Y44400804D01*
X51354249Y44460384D01*
X51354244Y44460385D01*
X51174999Y44480580D01*
X51174991Y44480580D01*
X50995745Y44460385D01*
X50995740Y44460384D01*
X50825471Y44400804D01*
X50672732Y44304831D01*
X50662676Y44294774D01*
X50601353Y44261289D01*
X50531661Y44266273D01*
X50487314Y44294774D01*
X50477257Y44304831D01*
X50324518Y44400804D01*
X50154249Y44460384D01*
X50154244Y44460385D01*
X49974999Y44480580D01*
X49974991Y44480580D01*
X49795745Y44460385D01*
X49795740Y44460384D01*
X49625471Y44400804D01*
X49472732Y44304831D01*
X49462676Y44294774D01*
X49401353Y44261289D01*
X49331661Y44266273D01*
X49287314Y44294774D01*
X49277257Y44304831D01*
X49124518Y44400804D01*
X48954249Y44460384D01*
X48954244Y44460385D01*
X48774999Y44480580D01*
X48774991Y44480580D01*
X48595745Y44460385D01*
X48595740Y44460384D01*
X48425471Y44400804D01*
X48272732Y44304831D01*
X48262676Y44294774D01*
X48201353Y44261289D01*
X48131661Y44266273D01*
X48087314Y44294774D01*
X48077257Y44304831D01*
X47924518Y44400804D01*
X47754249Y44460384D01*
X47754244Y44460385D01*
X47574999Y44480580D01*
X47574991Y44480580D01*
X47395745Y44460385D01*
X47395740Y44460384D01*
X47225471Y44400804D01*
X47072732Y44304831D01*
X47062676Y44294774D01*
X47001353Y44261289D01*
X46931661Y44266273D01*
X46887314Y44294774D01*
X46877257Y44304831D01*
X46724518Y44400804D01*
X46554249Y44460384D01*
X46554244Y44460385D01*
X46374999Y44480580D01*
X46374991Y44480580D01*
X46195745Y44460385D01*
X46195740Y44460384D01*
X46025471Y44400804D01*
X45872732Y44304831D01*
X45862676Y44294774D01*
X45801353Y44261289D01*
X45731661Y44266273D01*
X45687314Y44294774D01*
X45677257Y44304831D01*
X45524518Y44400804D01*
X45354249Y44460384D01*
X45354244Y44460385D01*
X45174999Y44480580D01*
X45174991Y44480580D01*
X44995745Y44460385D01*
X44995740Y44460384D01*
X44825471Y44400804D01*
X44672732Y44304831D01*
X44662676Y44294774D01*
X44601353Y44261289D01*
X44531661Y44266273D01*
X44487314Y44294774D01*
X44477257Y44304831D01*
X44324518Y44400804D01*
X44154249Y44460384D01*
X44154244Y44460385D01*
X43974999Y44480580D01*
X43974991Y44480580D01*
X43795745Y44460385D01*
X43795740Y44460384D01*
X43625471Y44400804D01*
X43472732Y44304831D01*
X43462676Y44294774D01*
X43401353Y44261289D01*
X43331661Y44266273D01*
X43287314Y44294774D01*
X43277257Y44304831D01*
X43124518Y44400804D01*
X42954249Y44460384D01*
X42954244Y44460385D01*
X42774999Y44480580D01*
X42774991Y44480580D01*
X42595745Y44460385D01*
X42595740Y44460384D01*
X42425471Y44400804D01*
X42272732Y44304831D01*
X42262676Y44294774D01*
X42201353Y44261289D01*
X42131661Y44266273D01*
X42087314Y44294774D01*
X42077257Y44304831D01*
X41924518Y44400804D01*
X41754249Y44460384D01*
X41754244Y44460385D01*
X41574999Y44480580D01*
X41574991Y44480580D01*
X41395745Y44460385D01*
X41395740Y44460384D01*
X41225471Y44400804D01*
X41072732Y44304831D01*
X41062676Y44294774D01*
X41001353Y44261289D01*
X40931661Y44266273D01*
X40887314Y44294774D01*
X40877257Y44304831D01*
X40724518Y44400804D01*
X40554249Y44460384D01*
X40554244Y44460385D01*
X40374999Y44480580D01*
X40374991Y44480580D01*
X40195745Y44460385D01*
X40195740Y44460384D01*
X40025471Y44400804D01*
X39872732Y44304831D01*
X39862676Y44294774D01*
X39801353Y44261289D01*
X39731661Y44266273D01*
X39687314Y44294774D01*
X39677257Y44304831D01*
X39524518Y44400804D01*
X39354249Y44460384D01*
X39354244Y44460385D01*
X39174999Y44480580D01*
X39174991Y44480580D01*
X38995745Y44460385D01*
X38995740Y44460384D01*
X38825471Y44400804D01*
X38672732Y44304831D01*
X38662676Y44294774D01*
X38601353Y44261289D01*
X38531661Y44266273D01*
X38487314Y44294774D01*
X38477257Y44304831D01*
X38324518Y44400804D01*
X38154249Y44460384D01*
X38154244Y44460385D01*
X37974999Y44480580D01*
X37974991Y44480580D01*
X37795745Y44460385D01*
X37795740Y44460384D01*
X37625471Y44400804D01*
X37472732Y44304831D01*
X37462676Y44294774D01*
X37401353Y44261289D01*
X37331661Y44266273D01*
X37287314Y44294774D01*
X37277257Y44304831D01*
X37124518Y44400804D01*
X36954249Y44460384D01*
X36954244Y44460385D01*
X36774999Y44480580D01*
X36774991Y44480580D01*
X36595745Y44460385D01*
X36595740Y44460384D01*
X36425471Y44400804D01*
X36272732Y44304831D01*
X36262676Y44294774D01*
X36201353Y44261289D01*
X36131661Y44266273D01*
X36087314Y44294774D01*
X36077257Y44304831D01*
X35924518Y44400804D01*
X35754249Y44460384D01*
X35754244Y44460385D01*
X35574999Y44480580D01*
X35574991Y44480580D01*
X35395745Y44460385D01*
X35395740Y44460384D01*
X35225471Y44400804D01*
X35072732Y44304831D01*
X35062676Y44294774D01*
X35001353Y44261289D01*
X34931661Y44266273D01*
X34887314Y44294774D01*
X34877257Y44304831D01*
X34724518Y44400804D01*
X34554249Y44460384D01*
X34554244Y44460385D01*
X34374999Y44480580D01*
X34374991Y44480580D01*
X34195745Y44460385D01*
X34195740Y44460384D01*
X34025471Y44400804D01*
X33872732Y44304831D01*
X33862671Y44294769D01*
X33801348Y44261284D01*
X33731656Y44266268D01*
X33687309Y44294769D01*
X33677247Y44304831D01*
X33524508Y44400804D01*
X33354239Y44460384D01*
X33354234Y44460385D01*
X33174989Y44480580D01*
X33174981Y44480580D01*
X32995735Y44460385D01*
X32995730Y44460384D01*
X32825461Y44400804D01*
X32672722Y44304831D01*
X32545169Y44177278D01*
X32449197Y44024540D01*
X32449195Y44024537D01*
X32425931Y43958050D01*
X32385210Y43901274D01*
X32320257Y43875527D01*
X32308890Y43875005D01*
X26375005Y43875005D01*
X26375005Y38041097D01*
X26355320Y37974058D01*
X26302516Y37928303D01*
X26291961Y37924056D01*
X26225481Y37900794D01*
X26225480Y37900793D01*
X26072742Y37804821D01*
X25945189Y37677268D01*
X25849216Y37524529D01*
X25789636Y37354260D01*
X25789635Y37354255D01*
X25769440Y37175009D01*
X25769440Y37175002D01*
X25789635Y36995756D01*
X25789636Y36995751D01*
X25849216Y36825482D01*
X25945189Y36672743D01*
X26072743Y36545189D01*
X26225483Y36449216D01*
X26291959Y36425955D01*
X26348735Y36385233D01*
X26374483Y36320281D01*
X26375005Y36308913D01*
X26375005Y33741101D01*
X26355320Y33674062D01*
X26302516Y33628307D01*
X26291961Y33624060D01*
X26225471Y33600794D01*
X26225470Y33600793D01*
X26072732Y33504821D01*
X25945179Y33377268D01*
X25849206Y33224529D01*
X25789626Y33054260D01*
X25789625Y33054255D01*
X25769430Y32875009D01*
X25769430Y32875002D01*
X25789625Y32695756D01*
X25789628Y32695743D01*
X25851505Y32518911D01*
X25849360Y32518161D01*
X25858951Y32459846D01*
X25850605Y32431424D01*
X25851505Y32431109D01*
X25789628Y32254278D01*
X25789625Y32254265D01*
X25769430Y32075019D01*
X25769430Y32075012D01*
X25789625Y31895766D01*
X25789628Y31895753D01*
X25851505Y31718921D01*
X25849362Y31718172D01*
X25858957Y31659852D01*
X25850606Y31631414D01*
X25851505Y31631099D01*
X25789628Y31454268D01*
X25789625Y31454255D01*
X25769430Y31275009D01*
X25769430Y31275002D01*
X25776372Y31213388D01*
X25764317Y31144566D01*
X25716968Y31093187D01*
X25653152Y31075505D01*
X24354062Y31075505D01*
X24195947Y31075505D01*
X24043220Y31034582D01*
X24043219Y31034582D01*
X24043217Y31034581D01*
X24043214Y31034580D01*
X23993101Y31005646D01*
X23993100Y31005645D01*
X23949694Y30980585D01*
X23906290Y30955526D01*
X23906287Y30955524D01*
X23119481Y30168718D01*
X23119477Y30168713D01*
X23072494Y30087334D01*
X23040424Y30031789D01*
X23040423Y30031788D01*
X23019734Y29954575D01*
X22999499Y29879057D01*
X22999499Y29879055D01*
X22999499Y29710954D01*
X22999500Y29710941D01*
X22999500Y21600097D01*
X22979815Y21533058D01*
X22963181Y21512416D01*
X22662181Y21211416D01*
X22600858Y21177931D01*
X22531166Y21182915D01*
X22475233Y21224787D01*
X22450816Y21290251D01*
X22450500Y21299097D01*
X22450500Y41137770D01*
X22470185Y41204809D01*
X22486819Y41225451D01*
X26982947Y45721579D01*
X26982952Y45721584D01*
X27056584Y45831784D01*
X27065084Y45844505D01*
X27113605Y45961645D01*
X27116533Y45968713D01*
X27116535Y45968717D01*
X27121656Y45981081D01*
X27121655Y45981081D01*
X27121659Y45981088D01*
X27150500Y46126083D01*
X27150500Y46273918D01*
X27150500Y47337770D01*
X27170185Y47404809D01*
X27186819Y47425451D01*
X28441890Y48680522D01*
X34482952Y54721584D01*
X34532186Y54795271D01*
X34565084Y54844505D01*
X34588518Y54901080D01*
X34621659Y54981088D01*
X34650500Y55126083D01*
X34650500Y55273918D01*
X34650500Y61473918D01*
X34650500Y61473921D01*
X34621659Y61618908D01*
X34621658Y61618909D01*
X34621658Y61618913D01*
X34580004Y61719476D01*
X34565087Y61755489D01*
X34565080Y61755502D01*
X34482951Y61878416D01*
X34482948Y61878420D01*
X34378419Y61982949D01*
X34378415Y61982952D01*
X34255501Y62065081D01*
X34255488Y62065088D01*
X34118917Y62121657D01*
X34118907Y62121660D01*
X33973920Y62150500D01*
X33973918Y62150500D01*
X32987229Y62150500D01*
X32920190Y62170185D01*
X32899548Y62186819D01*
X32130920Y62955447D01*
X32097435Y63016770D01*
X32102419Y63086462D01*
X32144291Y63142395D01*
X32159573Y63152177D01*
X32359788Y63260527D01*
X32552754Y63410719D01*
X32718368Y63590623D01*
X32852111Y63795333D01*
X32936444Y63987595D01*
X32981400Y64041080D01*
X33048136Y64061770D01*
X33115464Y64043096D01*
X33162007Y63990985D01*
X33163556Y63987594D01*
X33247888Y63795334D01*
X33381632Y63590622D01*
X33547242Y63410723D01*
X33547252Y63410714D01*
X33740208Y63260530D01*
X33740212Y63260527D01*
X33950608Y63146666D01*
X33955267Y63144145D01*
X33955270Y63144144D01*
X34186541Y63064749D01*
X34186543Y63064749D01*
X34186545Y63064748D01*
X34427737Y63024500D01*
X34427738Y63024500D01*
X34672262Y63024500D01*
X34672263Y63024500D01*
X34913455Y63064748D01*
X35144733Y63144145D01*
X35359788Y63260527D01*
X35552754Y63410719D01*
X35718368Y63590623D01*
X35852111Y63795333D01*
X35936444Y63987595D01*
X35981400Y64041080D01*
X36048136Y64061770D01*
X36115464Y64043096D01*
X36162007Y63990985D01*
X36163556Y63987594D01*
X36247888Y63795334D01*
X36381632Y63590622D01*
X36547242Y63410723D01*
X36547252Y63410714D01*
X36740208Y63260530D01*
X36740212Y63260527D01*
X36950608Y63146666D01*
X36955267Y63144145D01*
X36955270Y63144144D01*
X37186541Y63064749D01*
X37186543Y63064749D01*
X37186545Y63064748D01*
X37427737Y63024500D01*
X37427738Y63024500D01*
X37672262Y63024500D01*
X37672263Y63024500D01*
X37913455Y63064748D01*
X38144733Y63144145D01*
X38359788Y63260527D01*
X38552754Y63410719D01*
X38718368Y63590623D01*
X38852111Y63795333D01*
X38936444Y63987595D01*
X38981400Y64041080D01*
X39048136Y64061770D01*
X39115464Y64043096D01*
X39162007Y63990985D01*
X39163556Y63987594D01*
X39247888Y63795334D01*
X39381632Y63590622D01*
X39547242Y63410723D01*
X39547252Y63410714D01*
X39740208Y63260530D01*
X39740212Y63260527D01*
X39950608Y63146666D01*
X39955267Y63144145D01*
X39955270Y63144144D01*
X40186541Y63064749D01*
X40186543Y63064749D01*
X40186545Y63064748D01*
X40427737Y63024500D01*
X40427738Y63024500D01*
X40672262Y63024500D01*
X40672263Y63024500D01*
X40913455Y63064748D01*
X41144733Y63144145D01*
X41359788Y63260527D01*
X41552754Y63410719D01*
X41718368Y63590623D01*
X41846692Y63787040D01*
X41899837Y63832395D01*
X41969068Y63841819D01*
X42032404Y63812318D01*
X42069736Y63753257D01*
X42074500Y63719218D01*
X42074500Y63477130D01*
X42074501Y63477124D01*
X42080908Y63417517D01*
X42131202Y63282672D01*
X42131206Y63282665D01*
X42217452Y63167456D01*
X42217455Y63167453D01*
X42332664Y63081207D01*
X42332671Y63081203D01*
X42467517Y63030909D01*
X42467516Y63030909D01*
X42474444Y63030165D01*
X42527127Y63024500D01*
X44572872Y63024501D01*
X44632483Y63030909D01*
X44767331Y63081204D01*
X44882546Y63167454D01*
X44968796Y63282669D01*
X45019091Y63417517D01*
X45025500Y63477127D01*
X45025499Y65522872D01*
X45019091Y65582483D01*
X45016553Y65589287D01*
X44968797Y65717329D01*
X44968793Y65717336D01*
X44882547Y65832545D01*
X44882544Y65832548D01*
X44767335Y65918794D01*
X44767328Y65918798D01*
X44632482Y65969092D01*
X44632483Y65969092D01*
X44572883Y65975499D01*
X44572881Y65975500D01*
X44572873Y65975500D01*
X44572865Y65975500D01*
X43372286Y65975500D01*
X43305247Y65995185D01*
X43259492Y66047989D01*
X43249548Y66117147D01*
X43268477Y66167321D01*
X43352110Y66295332D01*
X43352111Y66295333D01*
X43450336Y66519264D01*
X43510364Y66756308D01*
X43530557Y67000000D01*
X43510364Y67243692D01*
X43450336Y67480736D01*
X43352111Y67704667D01*
X43218368Y67909377D01*
X43218367Y67909379D01*
X43052757Y68089278D01*
X43052747Y68089287D01*
X42859791Y68239471D01*
X42859787Y68239474D01*
X42644734Y68355855D01*
X42644725Y68355858D01*
X42566481Y68382719D01*
X42509465Y68423104D01*
X42483334Y68487903D01*
X42496385Y68556543D01*
X42544474Y68607231D01*
X42566481Y68617281D01*
X42590864Y68625653D01*
X42644733Y68644145D01*
X42859788Y68760527D01*
X43052754Y68910719D01*
X43218368Y69090623D01*
X43352111Y69295333D01*
X43450336Y69519264D01*
X43510364Y69756308D01*
X43515952Y69823739D01*
X43541105Y69888924D01*
X43597507Y69930162D01*
X43667250Y69934360D01*
X43728192Y69900186D01*
X43731678Y69896471D01*
X43794129Y69827112D01*
X43947265Y69715852D01*
X43947270Y69715849D01*
X44120192Y69638858D01*
X44120197Y69638856D01*
X44305354Y69599500D01*
X44305355Y69599500D01*
X44494644Y69599500D01*
X44494646Y69599500D01*
X44679803Y69638856D01*
X44852730Y69715849D01*
X45005871Y69827112D01*
X45132533Y69967784D01*
X45227179Y70131716D01*
X45285674Y70311744D01*
X45305460Y70500000D01*
X45285674Y70688256D01*
X45249366Y70800000D01*
X56794540Y70800000D01*
X56814326Y70611744D01*
X56814327Y70611741D01*
X56872818Y70431723D01*
X56872821Y70431716D01*
X56967467Y70267784D01*
X57089977Y70131723D01*
X57094129Y70127112D01*
X57247265Y70015852D01*
X57247270Y70015849D01*
X57420192Y69938858D01*
X57420197Y69938856D01*
X57605354Y69899500D01*
X57605355Y69899500D01*
X57794644Y69899500D01*
X57794646Y69899500D01*
X57979803Y69938856D01*
X58152730Y70015849D01*
X58305871Y70127112D01*
X58432533Y70267784D01*
X58527179Y70431716D01*
X58585674Y70611744D01*
X58605460Y70800000D01*
X58585674Y70988256D01*
X58527179Y71168284D01*
X58432533Y71332216D01*
X58305871Y71472888D01*
X58302276Y71475500D01*
X58152734Y71584149D01*
X58152729Y71584152D01*
X57979807Y71661143D01*
X57979802Y71661145D01*
X57834001Y71692135D01*
X57794646Y71700500D01*
X57605354Y71700500D01*
X57572897Y71693602D01*
X57420197Y71661145D01*
X57420192Y71661143D01*
X57247270Y71584152D01*
X57247265Y71584149D01*
X57094129Y71472889D01*
X56967466Y71332215D01*
X56872821Y71168285D01*
X56872818Y71168278D01*
X56814327Y70988260D01*
X56814326Y70988256D01*
X56794540Y70800000D01*
X45249366Y70800000D01*
X45227179Y70868284D01*
X45132533Y71032216D01*
X45005871Y71172888D01*
X45005870Y71172889D01*
X44852734Y71284149D01*
X44852729Y71284152D01*
X44715055Y71345449D01*
X44661818Y71390699D01*
X44641497Y71457548D01*
X44660543Y71524772D01*
X44674262Y71542711D01*
X44718367Y71590622D01*
X44760893Y71655713D01*
X44852111Y71795333D01*
X44950336Y72019264D01*
X45010364Y72256308D01*
X45030557Y72500000D01*
X45022312Y72599500D01*
X45010365Y72743684D01*
X45010363Y72743696D01*
X44961100Y72938231D01*
X44950336Y72980736D01*
X44852111Y73204667D01*
X44810874Y73267786D01*
X44718367Y73409379D01*
X44552757Y73589278D01*
X44552747Y73589287D01*
X44359791Y73739471D01*
X44359787Y73739474D01*
X44144734Y73855855D01*
X44144729Y73855857D01*
X43913458Y73935252D01*
X43718490Y73967786D01*
X43672263Y73975500D01*
X43427737Y73975500D01*
X43381510Y73967786D01*
X43186541Y73935252D01*
X42955270Y73855857D01*
X42955265Y73855855D01*
X42740212Y73739474D01*
X42740208Y73739471D01*
X42547252Y73589287D01*
X42547242Y73589278D01*
X42381632Y73409379D01*
X42247888Y73204667D01*
X42163556Y73012407D01*
X42118600Y72958921D01*
X42051864Y72938231D01*
X41984536Y72956906D01*
X41937993Y73009016D01*
X41936444Y73012407D01*
X41852111Y73204667D01*
X41718367Y73409379D01*
X41552757Y73589278D01*
X41552747Y73589287D01*
X41359791Y73739471D01*
X41359787Y73739474D01*
X41144734Y73855855D01*
X41144729Y73855857D01*
X40913458Y73935252D01*
X40718490Y73967786D01*
X40672263Y73975500D01*
X40427737Y73975500D01*
X40381510Y73967786D01*
X40186541Y73935252D01*
X39955270Y73855857D01*
X39955265Y73855855D01*
X39740212Y73739474D01*
X39740208Y73739471D01*
X39547252Y73589287D01*
X39547242Y73589278D01*
X39381632Y73409379D01*
X39247888Y73204667D01*
X39163556Y73012407D01*
X39118600Y72958921D01*
X39051864Y72938231D01*
X38984536Y72956906D01*
X38937993Y73009016D01*
X38936444Y73012407D01*
X38852111Y73204667D01*
X38718367Y73409379D01*
X38552757Y73589278D01*
X38552747Y73589287D01*
X38359791Y73739471D01*
X38359787Y73739474D01*
X38144734Y73855855D01*
X38144729Y73855857D01*
X37913458Y73935252D01*
X37718490Y73967786D01*
X37672263Y73975500D01*
X37427737Y73975500D01*
X37381510Y73967786D01*
X37186541Y73935252D01*
X36955270Y73855857D01*
X36955265Y73855855D01*
X36740212Y73739474D01*
X36740208Y73739471D01*
X36547252Y73589287D01*
X36547242Y73589278D01*
X36381632Y73409379D01*
X36247888Y73204667D01*
X36163556Y73012407D01*
X36118600Y72958921D01*
X36051864Y72938231D01*
X35984536Y72956906D01*
X35937993Y73009016D01*
X35936444Y73012407D01*
X35852111Y73204667D01*
X35718367Y73409379D01*
X35552757Y73589278D01*
X35552747Y73589287D01*
X35359791Y73739471D01*
X35359787Y73739474D01*
X35144734Y73855855D01*
X35144729Y73855857D01*
X34913458Y73935252D01*
X34718490Y73967786D01*
X34672263Y73975500D01*
X34427737Y73975500D01*
X34381510Y73967786D01*
X34186541Y73935252D01*
X33955270Y73855857D01*
X33955265Y73855855D01*
X33740212Y73739474D01*
X33740208Y73739471D01*
X33547252Y73589287D01*
X33547242Y73589278D01*
X33381632Y73409379D01*
X33247888Y73204667D01*
X33163556Y73012407D01*
X33118600Y72958921D01*
X33051864Y72938231D01*
X32984536Y72956906D01*
X32937993Y73009016D01*
X32936444Y73012407D01*
X32852111Y73204667D01*
X32718367Y73409379D01*
X32552757Y73589278D01*
X32552747Y73589287D01*
X32359791Y73739471D01*
X32359787Y73739474D01*
X32144734Y73855855D01*
X32144729Y73855857D01*
X31913458Y73935252D01*
X31718490Y73967786D01*
X31672263Y73975500D01*
X31427737Y73975500D01*
X31381510Y73967786D01*
X31186541Y73935252D01*
X30955270Y73855857D01*
X30955265Y73855855D01*
X30740212Y73739474D01*
X30740208Y73739471D01*
X30547252Y73589287D01*
X30547242Y73589278D01*
X30381632Y73409379D01*
X30247888Y73204667D01*
X30163556Y73012407D01*
X30118600Y72958921D01*
X30051864Y72938231D01*
X29984536Y72956906D01*
X29937993Y73009016D01*
X29936444Y73012407D01*
X29852111Y73204667D01*
X29718367Y73409379D01*
X29552757Y73589278D01*
X29552747Y73589287D01*
X29359791Y73739471D01*
X29359787Y73739474D01*
X29144734Y73855855D01*
X29144729Y73855857D01*
X28913458Y73935252D01*
X28718490Y73967786D01*
X28672263Y73975500D01*
X28427737Y73975500D01*
X28381510Y73967786D01*
X28186541Y73935252D01*
X27955270Y73855857D01*
X27955265Y73855855D01*
X27740212Y73739474D01*
X27740208Y73739471D01*
X27547252Y73589287D01*
X27547242Y73589278D01*
X27381632Y73409379D01*
X27247888Y73204667D01*
X27163556Y73012407D01*
X27118600Y72958921D01*
X27051864Y72938231D01*
X26984536Y72956906D01*
X26937993Y73009016D01*
X26936444Y73012407D01*
X26852111Y73204667D01*
X26718367Y73409379D01*
X26552757Y73589278D01*
X26552747Y73589287D01*
X26359791Y73739471D01*
X26359787Y73739474D01*
X26144734Y73855855D01*
X26144729Y73855857D01*
X25913458Y73935252D01*
X25718490Y73967786D01*
X25672263Y73975500D01*
X25427737Y73975500D01*
X25381510Y73967786D01*
X25186541Y73935252D01*
X24955270Y73855857D01*
X24955265Y73855855D01*
X24740212Y73739474D01*
X24740208Y73739471D01*
X24547252Y73589287D01*
X24547242Y73589278D01*
X24381632Y73409379D01*
X24247888Y73204667D01*
X24163556Y73012407D01*
X24118600Y72958921D01*
X24051864Y72938231D01*
X23984536Y72956906D01*
X23937993Y73009016D01*
X23936444Y73012407D01*
X23852111Y73204667D01*
X23718367Y73409379D01*
X23552757Y73589278D01*
X23552747Y73589287D01*
X23359791Y73739471D01*
X23359787Y73739474D01*
X23144734Y73855855D01*
X23144729Y73855857D01*
X22913458Y73935252D01*
X22718490Y73967786D01*
X22672263Y73975500D01*
X22427737Y73975500D01*
X22381510Y73967786D01*
X22186541Y73935252D01*
X21955270Y73855857D01*
X21955265Y73855855D01*
X21740212Y73739474D01*
X21740208Y73739471D01*
X21547252Y73589287D01*
X21547242Y73589278D01*
X21381632Y73409379D01*
X21247888Y73204667D01*
X21163556Y73012407D01*
X21118600Y72958921D01*
X21051864Y72938231D01*
X20984536Y72956906D01*
X20937993Y73009016D01*
X20936444Y73012407D01*
X20852111Y73204667D01*
X20718367Y73409379D01*
X20552757Y73589278D01*
X20552747Y73589287D01*
X20359791Y73739471D01*
X20359787Y73739474D01*
X20144734Y73855855D01*
X20144729Y73855857D01*
X19913458Y73935252D01*
X19718490Y73967786D01*
X19672263Y73975500D01*
X19427737Y73975500D01*
X19381510Y73967786D01*
X19186541Y73935252D01*
X18955270Y73855857D01*
X18955265Y73855855D01*
X18740212Y73739474D01*
X18740208Y73739471D01*
X18547252Y73589287D01*
X18547242Y73589278D01*
X18381632Y73409379D01*
X18247888Y73204667D01*
X18149663Y72980735D01*
X18089636Y72743696D01*
X18089634Y72743684D01*
X18069443Y72500006D01*
X18069443Y72499995D01*
X18089634Y72256317D01*
X18089636Y72256305D01*
X18149663Y72019266D01*
X18247888Y71795334D01*
X18381632Y71590622D01*
X18547242Y71410723D01*
X18547252Y71410714D01*
X18740208Y71260530D01*
X18740212Y71260527D01*
X18902154Y71172888D01*
X18955267Y71144145D01*
X18955270Y71144144D01*
X19186541Y71064749D01*
X19186543Y71064749D01*
X19186545Y71064748D01*
X19427737Y71024500D01*
X19427738Y71024500D01*
X19672262Y71024500D01*
X19672263Y71024500D01*
X19913455Y71064748D01*
X20144733Y71144145D01*
X20359788Y71260527D01*
X20552754Y71410719D01*
X20718368Y71590623D01*
X20852111Y71795333D01*
X20936444Y71987595D01*
X20981400Y72041080D01*
X21048136Y72061770D01*
X21115464Y72043096D01*
X21162007Y71990985D01*
X21163556Y71987594D01*
X21247888Y71795334D01*
X21381632Y71590622D01*
X21547242Y71410723D01*
X21547252Y71410714D01*
X21740208Y71260530D01*
X21740212Y71260527D01*
X21902154Y71172888D01*
X21955267Y71144145D01*
X21955270Y71144144D01*
X22186541Y71064749D01*
X22186543Y71064749D01*
X22186545Y71064748D01*
X22427737Y71024500D01*
X22427738Y71024500D01*
X22672262Y71024500D01*
X22672263Y71024500D01*
X22712832Y71031270D01*
X22782196Y71022888D01*
X22836018Y70978336D01*
X22857209Y70911757D01*
X22839042Y70844291D01*
X22837050Y70841140D01*
X22747888Y70704667D01*
X22649663Y70480735D01*
X22589636Y70243696D01*
X22589634Y70243684D01*
X22569443Y70000006D01*
X22569443Y69999995D01*
X22589634Y69756317D01*
X22589636Y69756305D01*
X22649663Y69519266D01*
X22747888Y69295334D01*
X22881632Y69090622D01*
X23011082Y68950003D01*
X23047246Y68910719D01*
X23240212Y68760527D01*
X23455267Y68644145D01*
X23455270Y68644144D01*
X23533519Y68617281D01*
X23590534Y68576896D01*
X23616665Y68512096D01*
X23603614Y68443456D01*
X23555525Y68392768D01*
X23533519Y68382719D01*
X23455270Y68355857D01*
X23455265Y68355855D01*
X23240212Y68239474D01*
X23240208Y68239471D01*
X23047252Y68089287D01*
X23047242Y68089278D01*
X22881632Y67909379D01*
X22747888Y67704667D01*
X22663556Y67512407D01*
X22618600Y67458921D01*
X22551864Y67438231D01*
X22484536Y67456906D01*
X22437993Y67509016D01*
X22436444Y67512407D01*
X22352111Y67704667D01*
X22218367Y67909379D01*
X22052757Y68089278D01*
X22052747Y68089287D01*
X21859791Y68239471D01*
X21859787Y68239474D01*
X21644734Y68355855D01*
X21644729Y68355857D01*
X21413458Y68435252D01*
X21232561Y68465438D01*
X21172263Y68475500D01*
X20927737Y68475500D01*
X20879498Y68467451D01*
X20686541Y68435252D01*
X20455270Y68355857D01*
X20455265Y68355855D01*
X20240212Y68239474D01*
X20240208Y68239471D01*
X20047252Y68089287D01*
X20047242Y68089278D01*
X19881632Y67909379D01*
X19747888Y67704667D01*
X19649663Y67480735D01*
X19589636Y67243696D01*
X19589634Y67243684D01*
X19569443Y67000006D01*
X19569443Y66999995D01*
X19589634Y66756317D01*
X19589636Y66756305D01*
X19649663Y66519266D01*
X19747888Y66295334D01*
X19837050Y66158861D01*
X19857237Y66091972D01*
X19838057Y66024786D01*
X19785599Y65978636D01*
X19716517Y65968173D01*
X19712833Y65968731D01*
X19672264Y65975500D01*
X19672263Y65975500D01*
X19427737Y65975500D01*
X19389336Y65969092D01*
X19186541Y65935252D01*
X18955270Y65855857D01*
X18955265Y65855855D01*
X18740212Y65739474D01*
X18740208Y65739471D01*
X18547252Y65589287D01*
X18547242Y65589278D01*
X18381632Y65409379D01*
X18247888Y65204667D01*
X18149663Y64980735D01*
X18089636Y64743696D01*
X18089634Y64743684D01*
X18069443Y64500006D01*
X18069443Y64499995D01*
X18089634Y64256317D01*
X18089636Y64256305D01*
X18149663Y64019266D01*
X18247888Y63795334D01*
X18381632Y63590622D01*
X18547242Y63410723D01*
X18547252Y63410714D01*
X18740208Y63260530D01*
X18740212Y63260527D01*
X18950608Y63146666D01*
X18955267Y63144145D01*
X18955270Y63144144D01*
X19186541Y63064749D01*
X19186543Y63064749D01*
X19186545Y63064748D01*
X19290430Y63047413D01*
X19294047Y63046809D01*
X19356932Y63016358D01*
X19393372Y62956744D01*
X19391796Y62886892D01*
X19352706Y62828980D01*
X19288512Y62801395D01*
X19273637Y62800500D01*
X17400097Y62800500D01*
X17333058Y62820185D01*
X17312416Y62836819D01*
X16236819Y63912416D01*
X16203334Y63973739D01*
X16200500Y64000097D01*
X16200500Y76924429D01*
X16220185Y76991468D01*
X16272989Y77037223D01*
X16342147Y77047167D01*
X16397381Y77024749D01*
X16531768Y76927112D01*
X16547270Y76915849D01*
X16720192Y76838858D01*
X16720197Y76838856D01*
X16905354Y76799500D01*
X16905355Y76799500D01*
X17094644Y76799500D01*
X17094646Y76799500D01*
X17279803Y76838856D01*
X17452730Y76915849D01*
X17605871Y77027112D01*
X17732533Y77167784D01*
X17827179Y77331716D01*
X17885674Y77511744D01*
X17894950Y77600000D01*
X21694540Y77600000D01*
X21714326Y77411744D01*
X21714327Y77411741D01*
X21772818Y77231723D01*
X21772821Y77231716D01*
X21867467Y77067784D01*
X21957506Y76967786D01*
X21994129Y76927112D01*
X22147265Y76815852D01*
X22147270Y76815849D01*
X22320192Y76738858D01*
X22320197Y76738856D01*
X22505354Y76699500D01*
X22505355Y76699500D01*
X22694644Y76699500D01*
X22694646Y76699500D01*
X22879803Y76738856D01*
X23052730Y76815849D01*
X23205871Y76927112D01*
X23332533Y77067784D01*
X23427179Y77231716D01*
X23485674Y77411744D01*
X23494950Y77500000D01*
X27694540Y77500000D01*
X27714326Y77311744D01*
X27714327Y77311741D01*
X27772818Y77131723D01*
X27772821Y77131716D01*
X27867467Y76967784D01*
X27914227Y76915852D01*
X27994129Y76827112D01*
X28147265Y76715852D01*
X28147270Y76715849D01*
X28320192Y76638858D01*
X28320197Y76638856D01*
X28505354Y76599500D01*
X28505355Y76599500D01*
X28694644Y76599500D01*
X28694646Y76599500D01*
X28879803Y76638856D01*
X29052730Y76715849D01*
X29205871Y76827112D01*
X29332533Y76967784D01*
X29427179Y77131716D01*
X29485674Y77311744D01*
X29494950Y77400000D01*
X33694540Y77400000D01*
X33714326Y77211744D01*
X33714327Y77211741D01*
X33772818Y77031723D01*
X33772821Y77031716D01*
X33867467Y76867784D01*
X33983553Y76738858D01*
X33994129Y76727112D01*
X34147265Y76615852D01*
X34147270Y76615849D01*
X34320192Y76538858D01*
X34320197Y76538856D01*
X34505354Y76499500D01*
X34505355Y76499500D01*
X34694644Y76499500D01*
X34694646Y76499500D01*
X34879803Y76538856D01*
X35052730Y76615849D01*
X35205871Y76727112D01*
X35332533Y76867784D01*
X35427179Y77031716D01*
X35485674Y77211744D01*
X35505460Y77400000D01*
X39594540Y77400000D01*
X39614326Y77211744D01*
X39614327Y77211741D01*
X39672818Y77031723D01*
X39672821Y77031716D01*
X39767467Y76867784D01*
X39883553Y76738858D01*
X39894129Y76727112D01*
X40047265Y76615852D01*
X40047270Y76615849D01*
X40220192Y76538858D01*
X40220197Y76538856D01*
X40405354Y76499500D01*
X40405355Y76499500D01*
X40594644Y76499500D01*
X40594646Y76499500D01*
X40779803Y76538856D01*
X40952730Y76615849D01*
X41105871Y76727112D01*
X41232533Y76867784D01*
X41327179Y77031716D01*
X41385674Y77211744D01*
X41405460Y77400000D01*
X41385674Y77588256D01*
X41331112Y77756177D01*
X41327181Y77768278D01*
X41327180Y77768279D01*
X41327179Y77768284D01*
X41232533Y77932216D01*
X41105871Y78072888D01*
X41105870Y78072889D01*
X40952734Y78184149D01*
X40952729Y78184152D01*
X40779807Y78261143D01*
X40779802Y78261145D01*
X40634001Y78292135D01*
X40596998Y78300000D01*
X45294540Y78300000D01*
X45314326Y78111744D01*
X45314327Y78111741D01*
X45372818Y77931723D01*
X45372821Y77931716D01*
X45467467Y77767784D01*
X45539071Y77688260D01*
X45594129Y77627112D01*
X45747265Y77515852D01*
X45747270Y77515849D01*
X45920192Y77438858D01*
X45920197Y77438856D01*
X46105354Y77399500D01*
X46105355Y77399500D01*
X46294644Y77399500D01*
X46294646Y77399500D01*
X46479803Y77438856D01*
X46652730Y77515849D01*
X46805871Y77627112D01*
X46932533Y77767784D01*
X47027179Y77931716D01*
X47085674Y78111744D01*
X47105460Y78300000D01*
X47085674Y78488256D01*
X47027179Y78668284D01*
X46932533Y78832216D01*
X46805871Y78972888D01*
X46805870Y78972889D01*
X46652734Y79084149D01*
X46652729Y79084152D01*
X46575224Y79118660D01*
X48989500Y79118660D01*
X48989500Y78881341D01*
X48989501Y78881324D01*
X49020476Y78646042D01*
X49020477Y78646037D01*
X49020478Y78646031D01*
X49020479Y78646029D01*
X49081903Y78416787D01*
X49172725Y78197525D01*
X49172729Y78197515D01*
X49291393Y77991983D01*
X49435871Y77803695D01*
X49435877Y77803688D01*
X49603687Y77635878D01*
X49603694Y77635872D01*
X49791982Y77491394D01*
X49997514Y77372730D01*
X49997515Y77372730D01*
X49997518Y77372728D01*
X50216785Y77281904D01*
X50446031Y77220478D01*
X50681334Y77189500D01*
X50681341Y77189500D01*
X50918659Y77189500D01*
X50918666Y77189500D01*
X51153969Y77220478D01*
X51383215Y77281904D01*
X51602482Y77372728D01*
X51808018Y77491394D01*
X51996307Y77635873D01*
X52164127Y77803693D01*
X52308606Y77991982D01*
X52427272Y78197518D01*
X52518096Y78416785D01*
X52579522Y78646031D01*
X52610500Y78881334D01*
X52610500Y79118666D01*
X52579522Y79353969D01*
X52518096Y79583215D01*
X52427272Y79802482D01*
X52410865Y79830899D01*
X52308606Y80008018D01*
X52164128Y80196306D01*
X52164122Y80196313D01*
X51996312Y80364123D01*
X51996305Y80364129D01*
X51808017Y80508607D01*
X51602485Y80627271D01*
X51602475Y80627275D01*
X51383213Y80718097D01*
X51268592Y80748809D01*
X51153969Y80779522D01*
X51153963Y80779523D01*
X51153958Y80779524D01*
X50918676Y80810499D01*
X50918671Y80810500D01*
X50918666Y80810500D01*
X50681334Y80810500D01*
X50681328Y80810500D01*
X50681323Y80810499D01*
X50446041Y80779524D01*
X50446034Y80779523D01*
X50446031Y80779522D01*
X50404094Y80768285D01*
X50216786Y80718097D01*
X49997524Y80627275D01*
X49997514Y80627271D01*
X49791982Y80508607D01*
X49603694Y80364129D01*
X49603687Y80364123D01*
X49435877Y80196313D01*
X49435871Y80196306D01*
X49291393Y80008018D01*
X49172729Y79802486D01*
X49172725Y79802476D01*
X49081903Y79583214D01*
X49020479Y79353972D01*
X49020476Y79353959D01*
X48989501Y79118677D01*
X48989500Y79118660D01*
X46575224Y79118660D01*
X46479807Y79161143D01*
X46479802Y79161145D01*
X46334001Y79192135D01*
X46294646Y79200500D01*
X46105354Y79200500D01*
X46072897Y79193602D01*
X45920197Y79161145D01*
X45920192Y79161143D01*
X45747270Y79084152D01*
X45747265Y79084149D01*
X45594129Y78972889D01*
X45467466Y78832215D01*
X45372821Y78668285D01*
X45372818Y78668278D01*
X45329951Y78536346D01*
X45314326Y78488256D01*
X45294540Y78300000D01*
X40596998Y78300000D01*
X40594646Y78300500D01*
X40405354Y78300500D01*
X40372897Y78293602D01*
X40220197Y78261145D01*
X40220192Y78261143D01*
X40047270Y78184152D01*
X40047265Y78184149D01*
X39894129Y78072889D01*
X39767466Y77932215D01*
X39672821Y77768285D01*
X39672818Y77768278D01*
X39629797Y77635872D01*
X39614326Y77588256D01*
X39594540Y77400000D01*
X35505460Y77400000D01*
X35485674Y77588256D01*
X35431112Y77756177D01*
X35427181Y77768278D01*
X35427180Y77768279D01*
X35427179Y77768284D01*
X35332533Y77932216D01*
X35205871Y78072888D01*
X35205870Y78072889D01*
X35052734Y78184149D01*
X35052729Y78184152D01*
X34879807Y78261143D01*
X34879802Y78261145D01*
X34734001Y78292135D01*
X34694646Y78300500D01*
X34505354Y78300500D01*
X34472897Y78293602D01*
X34320197Y78261145D01*
X34320192Y78261143D01*
X34147270Y78184152D01*
X34147265Y78184149D01*
X33994129Y78072889D01*
X33867466Y77932215D01*
X33772821Y77768285D01*
X33772818Y77768278D01*
X33729797Y77635872D01*
X33714326Y77588256D01*
X33694540Y77400000D01*
X29494950Y77400000D01*
X29505460Y77500000D01*
X29485674Y77688256D01*
X29427179Y77868284D01*
X29332533Y78032216D01*
X29205871Y78172888D01*
X29190369Y78184151D01*
X29052734Y78284149D01*
X29052729Y78284152D01*
X28879807Y78361143D01*
X28879802Y78361145D01*
X28734001Y78392135D01*
X28694646Y78400500D01*
X28505354Y78400500D01*
X28472897Y78393602D01*
X28320197Y78361145D01*
X28320192Y78361143D01*
X28147270Y78284152D01*
X28147265Y78284149D01*
X27994129Y78172889D01*
X27867466Y78032215D01*
X27772821Y77868285D01*
X27772818Y77868278D01*
X27740166Y77767784D01*
X27714326Y77688256D01*
X27694540Y77500000D01*
X23494950Y77500000D01*
X23505460Y77600000D01*
X23485674Y77788256D01*
X23427179Y77968284D01*
X23332533Y78132216D01*
X23205871Y78272888D01*
X23190369Y78284151D01*
X23052734Y78384149D01*
X23052729Y78384152D01*
X22879807Y78461143D01*
X22879802Y78461145D01*
X22734001Y78492135D01*
X22694646Y78500500D01*
X22505354Y78500500D01*
X22472897Y78493602D01*
X22320197Y78461145D01*
X22320192Y78461143D01*
X22147270Y78384152D01*
X22147265Y78384149D01*
X21994129Y78272889D01*
X21867466Y78132215D01*
X21772821Y77968285D01*
X21772818Y77968278D01*
X21719340Y77803688D01*
X21714326Y77788256D01*
X21694540Y77600000D01*
X17894950Y77600000D01*
X17905460Y77700000D01*
X17885674Y77888256D01*
X17827179Y78068284D01*
X17732533Y78232216D01*
X17605871Y78372888D01*
X17605870Y78372889D01*
X17452734Y78484149D01*
X17452729Y78484152D01*
X17279807Y78561143D01*
X17279802Y78561145D01*
X17134001Y78592135D01*
X17094646Y78600500D01*
X16905354Y78600500D01*
X16872897Y78593602D01*
X16720197Y78561145D01*
X16720192Y78561143D01*
X16547270Y78484152D01*
X16547265Y78484149D01*
X16397385Y78375254D01*
X16331579Y78351774D01*
X16263525Y78367600D01*
X16214830Y78417705D01*
X16200500Y78475572D01*
X16200500Y79824429D01*
X16220185Y79891468D01*
X16272989Y79937223D01*
X16342147Y79947167D01*
X16397381Y79924749D01*
X16526558Y79830897D01*
X16547270Y79815849D01*
X16720192Y79738858D01*
X16720197Y79738856D01*
X16905354Y79699500D01*
X16905355Y79699500D01*
X17094644Y79699500D01*
X17094646Y79699500D01*
X17279803Y79738856D01*
X17452730Y79815849D01*
X17605871Y79927112D01*
X17732533Y80067784D01*
X17827179Y80231716D01*
X17885674Y80411744D01*
X17905460Y80600000D01*
X21694540Y80600000D01*
X21714326Y80411744D01*
X21714327Y80411741D01*
X21772818Y80231723D01*
X21772821Y80231716D01*
X21867467Y80067784D01*
X21899937Y80031723D01*
X21994129Y79927112D01*
X22147265Y79815852D01*
X22147270Y79815849D01*
X22320192Y79738858D01*
X22320197Y79738856D01*
X22505354Y79699500D01*
X22505355Y79699500D01*
X22694644Y79699500D01*
X22694646Y79699500D01*
X22879803Y79738856D01*
X23052730Y79815849D01*
X23205871Y79927112D01*
X23332533Y80067784D01*
X23427179Y80231716D01*
X23485674Y80411744D01*
X23494950Y80500000D01*
X27694540Y80500000D01*
X27714326Y80311744D01*
X27714327Y80311741D01*
X27772818Y80131723D01*
X27772821Y80131716D01*
X27867467Y79967784D01*
X27952318Y79873548D01*
X27994129Y79827112D01*
X28147265Y79715852D01*
X28147270Y79715849D01*
X28320192Y79638858D01*
X28320197Y79638856D01*
X28505354Y79599500D01*
X28505355Y79599500D01*
X28694644Y79599500D01*
X28694646Y79599500D01*
X28879803Y79638856D01*
X29052730Y79715849D01*
X29205871Y79827112D01*
X29332533Y79967784D01*
X29427179Y80131716D01*
X29485674Y80311744D01*
X29494950Y80400000D01*
X33694540Y80400000D01*
X33714326Y80211744D01*
X33714327Y80211741D01*
X33772818Y80031723D01*
X33772821Y80031716D01*
X33867467Y79867784D01*
X33926271Y79802476D01*
X33994129Y79727112D01*
X34147265Y79615852D01*
X34147270Y79615849D01*
X34320192Y79538858D01*
X34320197Y79538856D01*
X34505354Y79499500D01*
X34505355Y79499500D01*
X34694644Y79499500D01*
X34694646Y79499500D01*
X34879803Y79538856D01*
X35052730Y79615849D01*
X35205871Y79727112D01*
X35332533Y79867784D01*
X35427179Y80031716D01*
X35485674Y80211744D01*
X35505460Y80400000D01*
X39594540Y80400000D01*
X39614326Y80211744D01*
X39614327Y80211741D01*
X39672818Y80031723D01*
X39672821Y80031716D01*
X39767467Y79867784D01*
X39826271Y79802476D01*
X39894129Y79727112D01*
X40047265Y79615852D01*
X40047270Y79615849D01*
X40220192Y79538858D01*
X40220197Y79538856D01*
X40405354Y79499500D01*
X40405355Y79499500D01*
X40594644Y79499500D01*
X40594646Y79499500D01*
X40779803Y79538856D01*
X40952730Y79615849D01*
X41105871Y79727112D01*
X41232533Y79867784D01*
X41327179Y80031716D01*
X41385674Y80211744D01*
X41405460Y80400000D01*
X41394950Y80500000D01*
X45294540Y80500000D01*
X45314326Y80311744D01*
X45314327Y80311741D01*
X45372818Y80131723D01*
X45372821Y80131716D01*
X45467467Y79967784D01*
X45552318Y79873548D01*
X45594129Y79827112D01*
X45747265Y79715852D01*
X45747270Y79715849D01*
X45920192Y79638858D01*
X45920197Y79638856D01*
X46105354Y79599500D01*
X46105355Y79599500D01*
X46294644Y79599500D01*
X46294646Y79599500D01*
X46479803Y79638856D01*
X46652730Y79715849D01*
X46805871Y79827112D01*
X46932533Y79967784D01*
X47027179Y80131716D01*
X47085674Y80311744D01*
X47105460Y80500000D01*
X47085674Y80688256D01*
X47027179Y80868284D01*
X46932533Y81032216D01*
X46805871Y81172888D01*
X46790369Y81184151D01*
X46652734Y81284149D01*
X46652729Y81284152D01*
X46479807Y81361143D01*
X46479802Y81361145D01*
X46334001Y81392135D01*
X46294646Y81400500D01*
X46105354Y81400500D01*
X46072897Y81393602D01*
X45920197Y81361145D01*
X45920192Y81361143D01*
X45747270Y81284152D01*
X45747265Y81284149D01*
X45594129Y81172889D01*
X45467466Y81032215D01*
X45372821Y80868285D01*
X45372818Y80868278D01*
X45315719Y80692544D01*
X45314326Y80688256D01*
X45294540Y80500000D01*
X41394950Y80500000D01*
X41385674Y80588256D01*
X41327179Y80768284D01*
X41232533Y80932216D01*
X41105871Y81072888D01*
X41105870Y81072889D01*
X40952734Y81184149D01*
X40952729Y81184152D01*
X40779807Y81261143D01*
X40779802Y81261145D01*
X40634001Y81292135D01*
X40594646Y81300500D01*
X40405354Y81300500D01*
X40372897Y81293602D01*
X40220197Y81261145D01*
X40220192Y81261143D01*
X40047270Y81184152D01*
X40047265Y81184149D01*
X39894129Y81072889D01*
X39767466Y80932215D01*
X39672821Y80768285D01*
X39672818Y80768278D01*
X39619722Y80604863D01*
X39614326Y80588256D01*
X39594540Y80400000D01*
X35505460Y80400000D01*
X35485674Y80588256D01*
X35427179Y80768284D01*
X35332533Y80932216D01*
X35205871Y81072888D01*
X35205870Y81072889D01*
X35052734Y81184149D01*
X35052729Y81184152D01*
X34879807Y81261143D01*
X34879802Y81261145D01*
X34734001Y81292135D01*
X34694646Y81300500D01*
X34505354Y81300500D01*
X34472897Y81293602D01*
X34320197Y81261145D01*
X34320192Y81261143D01*
X34147270Y81184152D01*
X34147265Y81184149D01*
X33994129Y81072889D01*
X33867466Y80932215D01*
X33772821Y80768285D01*
X33772818Y80768278D01*
X33719722Y80604863D01*
X33714326Y80588256D01*
X33694540Y80400000D01*
X29494950Y80400000D01*
X29505460Y80500000D01*
X29485674Y80688256D01*
X29427179Y80868284D01*
X29332533Y81032216D01*
X29205871Y81172888D01*
X29190369Y81184151D01*
X29052734Y81284149D01*
X29052729Y81284152D01*
X28879807Y81361143D01*
X28879802Y81361145D01*
X28734001Y81392135D01*
X28694646Y81400500D01*
X28505354Y81400500D01*
X28472897Y81393602D01*
X28320197Y81361145D01*
X28320192Y81361143D01*
X28147270Y81284152D01*
X28147265Y81284149D01*
X27994129Y81172889D01*
X27867466Y81032215D01*
X27772821Y80868285D01*
X27772818Y80868278D01*
X27715719Y80692544D01*
X27714326Y80688256D01*
X27694540Y80500000D01*
X23494950Y80500000D01*
X23505460Y80600000D01*
X23485674Y80788256D01*
X23427179Y80968284D01*
X23332533Y81132216D01*
X23205871Y81272888D01*
X23205870Y81272889D01*
X23052734Y81384149D01*
X23052729Y81384152D01*
X22879807Y81461143D01*
X22879802Y81461145D01*
X22721839Y81494720D01*
X22694646Y81500500D01*
X22505354Y81500500D01*
X22478161Y81494720D01*
X22320197Y81461145D01*
X22320192Y81461143D01*
X22147270Y81384152D01*
X22147265Y81384149D01*
X21994129Y81272889D01*
X21867466Y81132215D01*
X21772821Y80968285D01*
X21772818Y80968278D01*
X21721553Y80810499D01*
X21714326Y80788256D01*
X21694540Y80600000D01*
X17905460Y80600000D01*
X17885674Y80788256D01*
X17827179Y80968284D01*
X17732533Y81132216D01*
X17605871Y81272888D01*
X17605870Y81272889D01*
X17452734Y81384149D01*
X17452729Y81384152D01*
X17279807Y81461143D01*
X17279802Y81461145D01*
X17121839Y81494720D01*
X17094646Y81500500D01*
X16905354Y81500500D01*
X16878161Y81494720D01*
X16720197Y81461145D01*
X16720192Y81461143D01*
X16547270Y81384152D01*
X16547265Y81384149D01*
X16397385Y81275254D01*
X16331579Y81251774D01*
X16263525Y81267600D01*
X16214830Y81317705D01*
X16200500Y81375572D01*
X16200500Y81673547D01*
X16220185Y81740586D01*
X16232362Y81756533D01*
X16234121Y81758486D01*
X16293613Y81795125D01*
X16326259Y81799500D01*
X20573742Y81799500D01*
X20640781Y81779815D01*
X20665891Y81758473D01*
X20694128Y81727113D01*
X20694135Y81727107D01*
X20847265Y81615852D01*
X20847270Y81615849D01*
X21020192Y81538858D01*
X21020197Y81538856D01*
X21205354Y81499500D01*
X21205355Y81499500D01*
X21394644Y81499500D01*
X21394646Y81499500D01*
X21579803Y81538856D01*
X21752730Y81615849D01*
X21905871Y81727112D01*
X21934109Y81758473D01*
X21993595Y81795121D01*
X22026258Y81799500D01*
X26573742Y81799500D01*
X26640781Y81779815D01*
X26665891Y81758473D01*
X26694128Y81727113D01*
X26694135Y81727107D01*
X26847265Y81615852D01*
X26847270Y81615849D01*
X27020192Y81538858D01*
X27020197Y81538856D01*
X27205354Y81499500D01*
X27205355Y81499500D01*
X27394644Y81499500D01*
X27394646Y81499500D01*
X27579803Y81538856D01*
X27752730Y81615849D01*
X27905871Y81727112D01*
X27934109Y81758473D01*
X27993595Y81795121D01*
X28026258Y81799500D01*
X32319829Y81799500D01*
X32386868Y81779815D01*
X32427216Y81737500D01*
X32467466Y81667786D01*
X32467465Y81667786D01*
X32594129Y81527112D01*
X32747265Y81415852D01*
X32747270Y81415849D01*
X32920192Y81338858D01*
X32920197Y81338856D01*
X33105354Y81299500D01*
X33105355Y81299500D01*
X33294644Y81299500D01*
X33294646Y81299500D01*
X33479803Y81338856D01*
X33652730Y81415849D01*
X33805871Y81527112D01*
X33924148Y81658473D01*
X33983635Y81695121D01*
X34016298Y81699500D01*
X38473742Y81699500D01*
X38540781Y81679815D01*
X38565891Y81658473D01*
X38594128Y81627113D01*
X38594135Y81627107D01*
X38747265Y81515852D01*
X38747270Y81515849D01*
X38920192Y81438858D01*
X38920197Y81438856D01*
X39105354Y81399500D01*
X39105355Y81399500D01*
X39294644Y81399500D01*
X39294646Y81399500D01*
X39479803Y81438856D01*
X39652730Y81515849D01*
X39805871Y81627112D01*
X39834109Y81658473D01*
X39893595Y81695121D01*
X39926258Y81699500D01*
X44291844Y81699500D01*
X44358883Y81679815D01*
X44364729Y81675818D01*
X44447265Y81615852D01*
X44447270Y81615849D01*
X44620192Y81538858D01*
X44620197Y81538856D01*
X44805354Y81499500D01*
X44805355Y81499500D01*
X44994644Y81499500D01*
X44994646Y81499500D01*
X45179803Y81538856D01*
X45352730Y81615849D01*
X45505871Y81727112D01*
X45534109Y81758473D01*
X45593595Y81795121D01*
X45626258Y81799500D01*
X52699903Y81799500D01*
X52766942Y81779815D01*
X52787584Y81763181D01*
X53858221Y80692544D01*
X53891706Y80631221D01*
X53894540Y80604863D01*
X53894540Y80600003D01*
X53894540Y80600000D01*
X53914326Y80411744D01*
X53914327Y80411741D01*
X53972818Y80231723D01*
X53972821Y80231716D01*
X54067467Y80067784D01*
X54099937Y80031723D01*
X54167650Y79956520D01*
X54197880Y79893529D01*
X54199500Y79873548D01*
X54199500Y75226453D01*
X54179815Y75159414D01*
X54167650Y75143481D01*
X54067466Y75032215D01*
X53972821Y74868285D01*
X53972818Y74868278D01*
X53918304Y74700500D01*
X53914326Y74688256D01*
X53894540Y74500000D01*
X53914326Y74311744D01*
X53914327Y74311741D01*
X53972818Y74131723D01*
X53972821Y74131716D01*
X54067467Y73967784D01*
X54157063Y73868278D01*
X54194129Y73827112D01*
X54347265Y73715852D01*
X54347270Y73715849D01*
X54520192Y73638858D01*
X54520197Y73638856D01*
X54705354Y73599500D01*
X54705355Y73599500D01*
X54894644Y73599500D01*
X54894646Y73599500D01*
X55079803Y73638856D01*
X55252730Y73715849D01*
X55368554Y73800000D01*
X56794540Y73800000D01*
X56814326Y73611744D01*
X56814327Y73611741D01*
X56872818Y73431723D01*
X56872821Y73431716D01*
X56967467Y73267784D01*
X57024298Y73204667D01*
X57094129Y73127112D01*
X57247265Y73015852D01*
X57247270Y73015849D01*
X57420192Y72938858D01*
X57420197Y72938856D01*
X57605354Y72899500D01*
X57605355Y72899500D01*
X57794644Y72899500D01*
X57794646Y72899500D01*
X57979803Y72938856D01*
X58152730Y73015849D01*
X58305871Y73127112D01*
X58432533Y73267784D01*
X58527179Y73431716D01*
X58585674Y73611744D01*
X58605460Y73800000D01*
X58585674Y73988256D01*
X58527179Y74168284D01*
X58432533Y74332216D01*
X58305871Y74472888D01*
X58305870Y74472889D01*
X58152734Y74584149D01*
X58152729Y74584152D01*
X57979807Y74661143D01*
X57979802Y74661145D01*
X57834001Y74692135D01*
X57794646Y74700500D01*
X57605354Y74700500D01*
X57572897Y74693602D01*
X57420197Y74661145D01*
X57420192Y74661143D01*
X57247270Y74584152D01*
X57247265Y74584149D01*
X57094129Y74472889D01*
X56967466Y74332215D01*
X56872821Y74168285D01*
X56872818Y74168278D01*
X56828609Y74032215D01*
X56814326Y73988256D01*
X56794540Y73800000D01*
X55368554Y73800000D01*
X55405871Y73827112D01*
X55532533Y73967784D01*
X55627179Y74131716D01*
X55685674Y74311744D01*
X55705460Y74500000D01*
X55685674Y74688256D01*
X55627179Y74868284D01*
X55532533Y75032216D01*
X55477628Y75093194D01*
X55432350Y75143481D01*
X55402120Y75206473D01*
X55400500Y75226453D01*
X55400500Y77700000D01*
X56694540Y77700000D01*
X56714326Y77511744D01*
X56714327Y77511741D01*
X56772818Y77331723D01*
X56772821Y77331716D01*
X56867467Y77167784D01*
X56899937Y77131723D01*
X56994129Y77027112D01*
X57147265Y76915852D01*
X57147270Y76915849D01*
X57320192Y76838858D01*
X57320197Y76838856D01*
X57505354Y76799500D01*
X57505355Y76799500D01*
X57694644Y76799500D01*
X57694646Y76799500D01*
X57879803Y76838856D01*
X58052730Y76915849D01*
X58205871Y77027112D01*
X58332533Y77167784D01*
X58427179Y77331716D01*
X58485674Y77511744D01*
X58505460Y77700000D01*
X58485674Y77888256D01*
X58427179Y78068284D01*
X58332533Y78232216D01*
X58205871Y78372888D01*
X58205870Y78372889D01*
X58052734Y78484149D01*
X58052729Y78484152D01*
X57879807Y78561143D01*
X57879802Y78561145D01*
X57734001Y78592135D01*
X57694646Y78600500D01*
X57505354Y78600500D01*
X57472897Y78593602D01*
X57320197Y78561145D01*
X57320192Y78561143D01*
X57147270Y78484152D01*
X57147265Y78484149D01*
X56994129Y78372889D01*
X56867466Y78232215D01*
X56772821Y78068285D01*
X56772818Y78068278D01*
X56728609Y77932215D01*
X56714326Y77888256D01*
X56694540Y77700000D01*
X55400500Y77700000D01*
X55400500Y79873548D01*
X55420185Y79940587D01*
X55432350Y79956520D01*
X55442494Y79967786D01*
X55532533Y80067784D01*
X55627179Y80231716D01*
X55685674Y80411744D01*
X55705460Y80600000D01*
X56694540Y80600000D01*
X56714326Y80411744D01*
X56714327Y80411741D01*
X56772818Y80231723D01*
X56772821Y80231716D01*
X56867467Y80067784D01*
X56899937Y80031723D01*
X56994129Y79927112D01*
X57147265Y79815852D01*
X57147270Y79815849D01*
X57320192Y79738858D01*
X57320197Y79738856D01*
X57505354Y79699500D01*
X57505355Y79699500D01*
X57694644Y79699500D01*
X57694646Y79699500D01*
X57879803Y79738856D01*
X58052730Y79815849D01*
X58205871Y79927112D01*
X58332533Y80067784D01*
X58427179Y80231716D01*
X58485674Y80411744D01*
X58505460Y80600000D01*
X58485674Y80788256D01*
X58427179Y80968284D01*
X58332533Y81132216D01*
X58205871Y81272888D01*
X58205870Y81272889D01*
X58052734Y81384149D01*
X58052729Y81384152D01*
X57879807Y81461143D01*
X57879802Y81461145D01*
X57721839Y81494720D01*
X57694646Y81500500D01*
X57505354Y81500500D01*
X57478161Y81494720D01*
X57320197Y81461145D01*
X57320192Y81461143D01*
X57147270Y81384152D01*
X57147265Y81384149D01*
X56994129Y81272889D01*
X56867466Y81132215D01*
X56772821Y80968285D01*
X56772818Y80968278D01*
X56721553Y80810499D01*
X56714326Y80788256D01*
X56694540Y80600000D01*
X55705460Y80600000D01*
X55685674Y80788256D01*
X55627179Y80968284D01*
X55532533Y81132216D01*
X55405871Y81272888D01*
X55405870Y81272889D01*
X55252734Y81384149D01*
X55252729Y81384152D01*
X55079807Y81461143D01*
X55079802Y81461145D01*
X54921839Y81494720D01*
X54894646Y81500500D01*
X54894645Y81500500D01*
X54800097Y81500500D01*
X54733058Y81520185D01*
X54712416Y81536819D01*
X53561416Y82687819D01*
X53527931Y82749142D01*
X53532915Y82818834D01*
X53574787Y82874767D01*
X53640251Y82899184D01*
X53649097Y82899500D01*
X60965588Y82899500D01*
X61032627Y82879815D01*
G37*
G04 #@! TD.AperFunction*
G04 #@! TA.AperFunction,Conductor*
G36*
X22806045Y9581880D02*
G01*
X22814208Y9574414D01*
X26876441Y5512181D01*
X26909926Y5450858D01*
X26904942Y5381166D01*
X26863070Y5325233D01*
X26797606Y5300816D01*
X26788760Y5300500D01*
X12927821Y5300500D01*
X12860782Y5320185D01*
X12815027Y5372989D01*
X12805083Y5442147D01*
X12834108Y5505703D01*
X12877385Y5537779D01*
X12962905Y5575857D01*
X13052730Y5615849D01*
X13054776Y5617336D01*
X13066452Y5625818D01*
X13132258Y5649298D01*
X13139337Y5649500D01*
X19473920Y5649500D01*
X19571462Y5668904D01*
X19618913Y5678342D01*
X19755495Y5734916D01*
X19824595Y5781087D01*
X19878416Y5817048D01*
X22478413Y8417047D01*
X22478416Y8417048D01*
X22582952Y8521584D01*
X22651735Y8624527D01*
X22665084Y8644505D01*
X22721658Y8781087D01*
X22746273Y8904831D01*
X22750500Y8926080D01*
X22750500Y9073920D01*
X22721659Y9218907D01*
X22721658Y9218908D01*
X22721658Y9218912D01*
X22665084Y9355494D01*
X22649818Y9378342D01*
X22623423Y9417846D01*
X22602547Y9484521D01*
X22621032Y9551901D01*
X22673011Y9598590D01*
X22741981Y9609766D01*
X22806045Y9581880D01*
G37*
G04 #@! TD.AperFunction*
G04 #@! TA.AperFunction,Conductor*
G36*
X37375956Y8055320D02*
G01*
X37421711Y8002516D01*
X37425958Y7991960D01*
X37449215Y7925494D01*
X37449217Y7925491D01*
X37545189Y7772753D01*
X37672743Y7645199D01*
X37763085Y7588433D01*
X37825261Y7549365D01*
X37825483Y7549226D01*
X37904125Y7521708D01*
X37995750Y7489647D01*
X37995755Y7489646D01*
X38175001Y7469450D01*
X38175005Y7469450D01*
X38175009Y7469450D01*
X38354254Y7489646D01*
X38354256Y7489647D01*
X38354260Y7489647D01*
X38354263Y7489649D01*
X38354267Y7489649D01*
X38531100Y7551526D01*
X38531851Y7549378D01*
X38590133Y7558980D01*
X38618593Y7550623D01*
X38618910Y7551526D01*
X38795742Y7489649D01*
X38795748Y7489648D01*
X38795750Y7489647D01*
X38795751Y7489647D01*
X38795755Y7489646D01*
X38975001Y7469450D01*
X38975005Y7469450D01*
X38975009Y7469450D01*
X39154254Y7489646D01*
X39154256Y7489647D01*
X39154260Y7489647D01*
X39154263Y7489649D01*
X39154267Y7489649D01*
X39331100Y7551526D01*
X39331855Y7549369D01*
X39390093Y7558976D01*
X39418583Y7550613D01*
X39418900Y7551516D01*
X39595732Y7489639D01*
X39595738Y7489638D01*
X39595740Y7489637D01*
X39595741Y7489637D01*
X39595745Y7489636D01*
X39774991Y7469440D01*
X39774995Y7469440D01*
X39774999Y7469440D01*
X39954244Y7489636D01*
X39954247Y7489637D01*
X39954250Y7489637D01*
X40124517Y7549216D01*
X40124517Y7549217D01*
X40131090Y7551516D01*
X40131842Y7549365D01*
X40190108Y7558974D01*
X40218593Y7550611D01*
X40218910Y7551516D01*
X40395750Y7489637D01*
X40395755Y7489636D01*
X40575001Y7469440D01*
X40575005Y7469440D01*
X40575009Y7469440D01*
X40754254Y7489636D01*
X40754256Y7489637D01*
X40754260Y7489637D01*
X40754263Y7489639D01*
X40754267Y7489639D01*
X40931100Y7551516D01*
X40931851Y7549368D01*
X40990133Y7558970D01*
X41018593Y7550613D01*
X41018910Y7551516D01*
X41195742Y7489639D01*
X41195748Y7489638D01*
X41195750Y7489637D01*
X41195751Y7489637D01*
X41195755Y7489636D01*
X41375001Y7469440D01*
X41375005Y7469440D01*
X41375009Y7469440D01*
X41554254Y7489636D01*
X41554256Y7489637D01*
X41554260Y7489637D01*
X41554263Y7489639D01*
X41554267Y7489639D01*
X41731100Y7551516D01*
X41731851Y7549368D01*
X41790133Y7558970D01*
X41818593Y7550613D01*
X41818910Y7551516D01*
X41995742Y7489639D01*
X41995748Y7489638D01*
X41995750Y7489637D01*
X41995751Y7489637D01*
X41995755Y7489636D01*
X42175001Y7469440D01*
X42175005Y7469440D01*
X42175009Y7469440D01*
X42354254Y7489636D01*
X42354256Y7489637D01*
X42354260Y7489637D01*
X42354263Y7489639D01*
X42354267Y7489639D01*
X42531100Y7551516D01*
X42531851Y7549368D01*
X42590133Y7558970D01*
X42618593Y7550613D01*
X42618910Y7551516D01*
X42795742Y7489639D01*
X42795748Y7489638D01*
X42795750Y7489637D01*
X42795751Y7489637D01*
X42795755Y7489636D01*
X42975001Y7469440D01*
X42975005Y7469440D01*
X42975009Y7469440D01*
X43154254Y7489636D01*
X43154256Y7489637D01*
X43154260Y7489637D01*
X43154263Y7489639D01*
X43154267Y7489639D01*
X43331100Y7551516D01*
X43331852Y7549367D01*
X43390119Y7558978D01*
X43418592Y7550619D01*
X43418910Y7551526D01*
X43595750Y7489647D01*
X43595755Y7489646D01*
X43775001Y7469450D01*
X43775005Y7469450D01*
X43775009Y7469450D01*
X43954254Y7489646D01*
X43954256Y7489647D01*
X43954260Y7489647D01*
X43954263Y7489649D01*
X43954267Y7489649D01*
X44131100Y7551526D01*
X44131851Y7549378D01*
X44190133Y7558980D01*
X44218593Y7550623D01*
X44218910Y7551526D01*
X44395742Y7489649D01*
X44395748Y7489648D01*
X44395750Y7489647D01*
X44395751Y7489647D01*
X44395755Y7489646D01*
X44575001Y7469450D01*
X44575005Y7469450D01*
X44575009Y7469450D01*
X44754254Y7489646D01*
X44754257Y7489647D01*
X44754260Y7489647D01*
X44924527Y7549226D01*
X45077267Y7645199D01*
X45204821Y7772753D01*
X45300794Y7925493D01*
X45324052Y7991961D01*
X45364773Y8048736D01*
X45429726Y8074483D01*
X45441093Y8075005D01*
X48008917Y8075005D01*
X48075956Y8055320D01*
X48121711Y8002516D01*
X48125958Y7991960D01*
X48149215Y7925494D01*
X48149217Y7925491D01*
X48245189Y7772753D01*
X48372743Y7645199D01*
X48463085Y7588433D01*
X48525261Y7549365D01*
X48525483Y7549226D01*
X48604125Y7521708D01*
X48695750Y7489647D01*
X48695755Y7489646D01*
X48875001Y7469450D01*
X48875005Y7469450D01*
X48875009Y7469450D01*
X49054254Y7489646D01*
X49054257Y7489647D01*
X49054260Y7489647D01*
X49224527Y7549226D01*
X49377267Y7645199D01*
X49504821Y7772753D01*
X49600794Y7925493D01*
X49624052Y7991961D01*
X49664773Y8048736D01*
X49729726Y8074483D01*
X49741093Y8075005D01*
X50708917Y8075005D01*
X50775956Y8055320D01*
X50821711Y8002516D01*
X50825958Y7991960D01*
X50849215Y7925494D01*
X50849217Y7925491D01*
X50918114Y7815843D01*
X50937114Y7748607D01*
X50916746Y7681771D01*
X50900801Y7662190D01*
X50025431Y6786819D01*
X49964108Y6753334D01*
X49937750Y6750500D01*
X27812220Y6750500D01*
X27745181Y6770185D01*
X27724539Y6786819D01*
X27195618Y7315740D01*
X27162133Y7377063D01*
X27167117Y7446755D01*
X27208989Y7502688D01*
X27242344Y7520462D01*
X27331090Y7551516D01*
X27331841Y7549368D01*
X27390123Y7558970D01*
X27418583Y7550613D01*
X27418900Y7551516D01*
X27595732Y7489639D01*
X27595738Y7489638D01*
X27595740Y7489637D01*
X27595741Y7489637D01*
X27595745Y7489636D01*
X27774991Y7469440D01*
X27774995Y7469440D01*
X27774999Y7469440D01*
X27954244Y7489636D01*
X27954246Y7489637D01*
X27954250Y7489637D01*
X27954253Y7489639D01*
X27954257Y7489639D01*
X28131090Y7551516D01*
X28131841Y7549368D01*
X28190123Y7558970D01*
X28218583Y7550613D01*
X28218900Y7551516D01*
X28395732Y7489639D01*
X28395738Y7489638D01*
X28395740Y7489637D01*
X28395741Y7489637D01*
X28395745Y7489636D01*
X28574991Y7469440D01*
X28574995Y7469440D01*
X28574999Y7469440D01*
X28754244Y7489636D01*
X28754247Y7489637D01*
X28754250Y7489637D01*
X28924517Y7549216D01*
X28924517Y7549217D01*
X28931090Y7551516D01*
X28931842Y7549365D01*
X28990108Y7558974D01*
X29018593Y7550611D01*
X29018910Y7551516D01*
X29195750Y7489637D01*
X29195755Y7489636D01*
X29375001Y7469440D01*
X29375005Y7469440D01*
X29375009Y7469440D01*
X29554254Y7489636D01*
X29554256Y7489637D01*
X29554260Y7489637D01*
X29554263Y7489639D01*
X29554267Y7489639D01*
X29731100Y7551516D01*
X29731853Y7549364D01*
X29790114Y7558969D01*
X29818583Y7550611D01*
X29818900Y7551516D01*
X29995732Y7489639D01*
X29995738Y7489638D01*
X29995740Y7489637D01*
X29995741Y7489637D01*
X29995745Y7489636D01*
X30174991Y7469440D01*
X30174995Y7469440D01*
X30174999Y7469440D01*
X30354244Y7489636D01*
X30354246Y7489637D01*
X30354250Y7489637D01*
X30354253Y7489639D01*
X30354257Y7489639D01*
X30531090Y7551516D01*
X30531841Y7549368D01*
X30590123Y7558970D01*
X30618583Y7550613D01*
X30618900Y7551516D01*
X30795732Y7489639D01*
X30795738Y7489638D01*
X30795740Y7489637D01*
X30795741Y7489637D01*
X30795745Y7489636D01*
X30974991Y7469440D01*
X30974995Y7469440D01*
X30974999Y7469440D01*
X31154244Y7489636D01*
X31154246Y7489637D01*
X31154250Y7489637D01*
X31154253Y7489639D01*
X31154257Y7489639D01*
X31331090Y7551516D01*
X31331841Y7549368D01*
X31390123Y7558970D01*
X31418583Y7550613D01*
X31418900Y7551516D01*
X31595732Y7489639D01*
X31595738Y7489638D01*
X31595740Y7489637D01*
X31595741Y7489637D01*
X31595745Y7489636D01*
X31774991Y7469440D01*
X31774995Y7469440D01*
X31774999Y7469440D01*
X31954244Y7489636D01*
X31954247Y7489637D01*
X31954250Y7489637D01*
X32124517Y7549216D01*
X32124517Y7549217D01*
X32131090Y7551516D01*
X32131842Y7549365D01*
X32190108Y7558974D01*
X32218593Y7550611D01*
X32218910Y7551516D01*
X32395750Y7489637D01*
X32395755Y7489636D01*
X32575001Y7469440D01*
X32575005Y7469440D01*
X32575009Y7469440D01*
X32754254Y7489636D01*
X32754256Y7489637D01*
X32754260Y7489637D01*
X32754263Y7489639D01*
X32754267Y7489639D01*
X32931100Y7551516D01*
X32931851Y7549369D01*
X32990134Y7558972D01*
X33018583Y7550621D01*
X33018900Y7551526D01*
X33195740Y7489647D01*
X33195745Y7489646D01*
X33374991Y7469450D01*
X33374995Y7469450D01*
X33374999Y7469450D01*
X33554244Y7489646D01*
X33554246Y7489647D01*
X33554250Y7489647D01*
X33554253Y7489649D01*
X33554257Y7489649D01*
X33731090Y7551526D01*
X33731841Y7549378D01*
X33790123Y7558980D01*
X33818583Y7550623D01*
X33818900Y7551526D01*
X33995732Y7489649D01*
X33995738Y7489648D01*
X33995740Y7489647D01*
X33995741Y7489647D01*
X33995745Y7489646D01*
X34174991Y7469450D01*
X34174995Y7469450D01*
X34174999Y7469450D01*
X34354244Y7489646D01*
X34354246Y7489647D01*
X34354250Y7489647D01*
X34354253Y7489649D01*
X34354257Y7489649D01*
X34531090Y7551526D01*
X34531841Y7549378D01*
X34590123Y7558980D01*
X34618583Y7550623D01*
X34618900Y7551526D01*
X34795732Y7489649D01*
X34795738Y7489648D01*
X34795740Y7489647D01*
X34795741Y7489647D01*
X34795745Y7489646D01*
X34974991Y7469450D01*
X34974995Y7469450D01*
X34974999Y7469450D01*
X35154244Y7489646D01*
X35154246Y7489647D01*
X35154250Y7489647D01*
X35154253Y7489649D01*
X35154257Y7489649D01*
X35331090Y7551526D01*
X35331841Y7549378D01*
X35390123Y7558980D01*
X35418583Y7550623D01*
X35418900Y7551526D01*
X35595732Y7489649D01*
X35595738Y7489648D01*
X35595740Y7489647D01*
X35595741Y7489647D01*
X35595745Y7489646D01*
X35774991Y7469450D01*
X35774995Y7469450D01*
X35774999Y7469450D01*
X35954244Y7489646D01*
X35954247Y7489647D01*
X35954250Y7489647D01*
X36124517Y7549226D01*
X36277257Y7645199D01*
X36404811Y7772753D01*
X36500784Y7925493D01*
X36524042Y7991961D01*
X36564763Y8048736D01*
X36629716Y8074483D01*
X36641083Y8075005D01*
X37308917Y8075005D01*
X37375956Y8055320D01*
G37*
G04 #@! TD.AperFunction*
G04 #@! TA.AperFunction,Conductor*
G36*
X20292539Y19879815D02*
G01*
X20338294Y19827011D01*
X20349500Y19775500D01*
X20349500Y19194711D01*
X20349500Y19194709D01*
X20349499Y19194709D01*
X20378340Y19049722D01*
X20378343Y19049712D01*
X20434914Y18913137D01*
X20467238Y18864761D01*
X20467239Y18864758D01*
X20517046Y18790215D01*
X20517052Y18790208D01*
X21213181Y18094081D01*
X21246666Y18032758D01*
X21249500Y18006400D01*
X21249500Y15993601D01*
X21229815Y15926562D01*
X21213181Y15905920D01*
X20317049Y15009789D01*
X20292296Y14972742D01*
X20234913Y14886863D01*
X20178343Y14750289D01*
X20178340Y14750279D01*
X20149500Y14605292D01*
X20149500Y14605289D01*
X20149500Y10026082D01*
X20149500Y10026080D01*
X20149499Y10026080D01*
X20178340Y9881093D01*
X20178343Y9881083D01*
X20234914Y9744508D01*
X20267812Y9695273D01*
X20267813Y9695270D01*
X20317046Y9621586D01*
X20317052Y9621579D01*
X20850950Y9087681D01*
X20884435Y9026358D01*
X20879451Y8956666D01*
X20850950Y8912319D01*
X19125451Y7186819D01*
X19064128Y7153334D01*
X19037770Y7150500D01*
X13139337Y7150500D01*
X13072298Y7170185D01*
X13066452Y7174182D01*
X13052734Y7184149D01*
X13052729Y7184152D01*
X12879807Y7261143D01*
X12879802Y7261145D01*
X12734001Y7292135D01*
X12694646Y7300500D01*
X12505354Y7300500D01*
X12472897Y7293602D01*
X12320197Y7261145D01*
X12320192Y7261143D01*
X12147270Y7184152D01*
X12147265Y7184149D01*
X12133548Y7174182D01*
X12067742Y7150702D01*
X12060663Y7150500D01*
X2462229Y7150500D01*
X2395190Y7170185D01*
X2374548Y7186819D01*
X2186819Y7374549D01*
X2153334Y7435872D01*
X2150500Y7462230D01*
X2150500Y8700999D01*
X2170185Y8768038D01*
X2222989Y8813793D01*
X2274500Y8824999D01*
X2324999Y8824999D01*
X2347533Y8824999D01*
X2399937Y8813382D01*
X2545668Y8745426D01*
X2757021Y8688794D01*
X2939924Y8672793D01*
X2974996Y8669724D01*
X2974998Y8669724D01*
X2975000Y8669724D01*
X3003252Y8672196D01*
X3192975Y8688794D01*
X3404328Y8745426D01*
X3550058Y8813382D01*
X3602463Y8824999D01*
X19125002Y8824999D01*
X19125002Y11458912D01*
X19144687Y11525951D01*
X19197491Y11571706D01*
X19208048Y11575954D01*
X19274516Y11599212D01*
X19427256Y11695185D01*
X19554810Y11822739D01*
X19650783Y11975479D01*
X19710362Y12145746D01*
X19710363Y12145752D01*
X19730559Y12324998D01*
X19730559Y12325005D01*
X19710363Y12504251D01*
X19710362Y12504256D01*
X19650783Y12674523D01*
X19597683Y12759031D01*
X19578683Y12826267D01*
X19597683Y12890974D01*
X19650783Y12975480D01*
X19710362Y13145747D01*
X19711322Y13154265D01*
X19730559Y13324999D01*
X19730559Y13325006D01*
X19710363Y13504252D01*
X19710362Y13504257D01*
X19681294Y13587329D01*
X19650783Y13674524D01*
X19617383Y13727679D01*
X19554809Y13827265D01*
X19427256Y13954818D01*
X19274518Y14050790D01*
X19274514Y14050792D01*
X19208047Y14074050D01*
X19151271Y14114772D01*
X19125524Y14179725D01*
X19125002Y14191091D01*
X19125002Y14589010D01*
X19144687Y14656049D01*
X19177879Y14690585D01*
X19186888Y14696893D01*
X19281872Y14763401D01*
X19436593Y14918122D01*
X19562097Y15097360D01*
X19654570Y15295669D01*
X19711202Y15507022D01*
X19730272Y15724999D01*
X19711202Y15942976D01*
X19654570Y16154329D01*
X19562097Y16352637D01*
X19562095Y16352640D01*
X19562094Y16352642D01*
X19436594Y16531875D01*
X19436593Y16531876D01*
X19281872Y16686597D01*
X19226323Y16725493D01*
X19177877Y16759416D01*
X19134253Y16813993D01*
X19125002Y16860990D01*
X19125002Y18889010D01*
X19144687Y18956049D01*
X19177879Y18990585D01*
X19226368Y19024537D01*
X19281872Y19063401D01*
X19436593Y19218122D01*
X19562097Y19397360D01*
X19654570Y19595669D01*
X19711202Y19807022D01*
X19711201Y19807022D01*
X19711355Y19807593D01*
X19747720Y19867254D01*
X19810567Y19897783D01*
X19831130Y19899500D01*
X20225500Y19899500D01*
X20292539Y19879815D01*
G37*
G04 #@! TD.AperFunction*
G04 #@! TA.AperFunction,Conductor*
G36*
X25720191Y29854820D02*
G01*
X25765946Y29802016D01*
X25776372Y29736622D01*
X25769430Y29675009D01*
X25769430Y29675002D01*
X25789625Y29495756D01*
X25789628Y29495743D01*
X25851505Y29318911D01*
X25849359Y29318161D01*
X25858957Y29259861D01*
X25850604Y29231415D01*
X25851505Y29231099D01*
X25789628Y29054268D01*
X25789625Y29054255D01*
X25769430Y28875009D01*
X25769430Y28875002D01*
X25789625Y28695756D01*
X25789628Y28695743D01*
X25851505Y28518911D01*
X25849359Y28518161D01*
X25858957Y28459861D01*
X25850604Y28431415D01*
X25851505Y28431099D01*
X25789628Y28254268D01*
X25789625Y28254255D01*
X25769430Y28075009D01*
X25769430Y28075002D01*
X25789625Y27895756D01*
X25789628Y27895743D01*
X25851505Y27718911D01*
X25849359Y27718161D01*
X25858957Y27659861D01*
X25850604Y27631415D01*
X25851505Y27631099D01*
X25789628Y27454268D01*
X25789625Y27454255D01*
X25769430Y27275009D01*
X25769430Y27275002D01*
X25789625Y27095756D01*
X25789628Y27095743D01*
X25851505Y26918911D01*
X25849359Y26918161D01*
X25858957Y26859861D01*
X25850604Y26831415D01*
X25851505Y26831099D01*
X25789628Y26654268D01*
X25789625Y26654255D01*
X25769430Y26475009D01*
X25769430Y26475002D01*
X25789625Y26295756D01*
X25789628Y26295743D01*
X25851505Y26118911D01*
X25849359Y26118161D01*
X25858957Y26059861D01*
X25850604Y26031415D01*
X25851505Y26031099D01*
X25789628Y25854268D01*
X25789625Y25854255D01*
X25769430Y25675009D01*
X25769430Y25675002D01*
X25789625Y25495756D01*
X25789628Y25495743D01*
X25851505Y25318911D01*
X25849359Y25318161D01*
X25858957Y25259861D01*
X25850604Y25231415D01*
X25851505Y25231099D01*
X25789628Y25054268D01*
X25789625Y25054255D01*
X25769430Y24875009D01*
X25769430Y24875002D01*
X25789625Y24695756D01*
X25789628Y24695743D01*
X25851505Y24518911D01*
X25849359Y24518161D01*
X25858957Y24459861D01*
X25850604Y24431415D01*
X25851505Y24431099D01*
X25789628Y24254268D01*
X25789625Y24254255D01*
X25769430Y24075009D01*
X25769430Y24075002D01*
X25789625Y23895756D01*
X25789628Y23895743D01*
X25851505Y23718911D01*
X25849359Y23718161D01*
X25858957Y23659861D01*
X25850604Y23631415D01*
X25851505Y23631099D01*
X25789628Y23454268D01*
X25789625Y23454255D01*
X25769430Y23275009D01*
X25769430Y23275002D01*
X25789625Y23095756D01*
X25789628Y23095743D01*
X25851505Y22918911D01*
X25849359Y22918161D01*
X25858957Y22859861D01*
X25850604Y22831415D01*
X25851505Y22831099D01*
X25789628Y22654268D01*
X25789625Y22654255D01*
X25769430Y22475009D01*
X25769430Y22475002D01*
X25789625Y22295756D01*
X25789626Y22295751D01*
X25851506Y22118910D01*
X25849360Y22118160D01*
X25858959Y22059859D01*
X25850613Y22031425D01*
X25851515Y22031109D01*
X25789638Y21854278D01*
X25789635Y21854265D01*
X25769440Y21675019D01*
X25769440Y21675012D01*
X25789635Y21495766D01*
X25789638Y21495753D01*
X25851515Y21318921D01*
X25849368Y21318170D01*
X25858963Y21259873D01*
X25850608Y21231413D01*
X25851505Y21231099D01*
X25789628Y21054268D01*
X25789625Y21054255D01*
X25769430Y20875009D01*
X25769430Y20875002D01*
X25789625Y20695756D01*
X25789626Y20695751D01*
X25849206Y20525482D01*
X25945179Y20372743D01*
X26055236Y20262686D01*
X26088721Y20201363D01*
X26083737Y20131671D01*
X26055236Y20087324D01*
X25945179Y19977268D01*
X25849206Y19824529D01*
X25789626Y19654260D01*
X25789625Y19654255D01*
X25769430Y19475009D01*
X25769430Y19475002D01*
X25789625Y19295756D01*
X25789628Y19295743D01*
X25851505Y19118911D01*
X25849360Y19118161D01*
X25858951Y19059846D01*
X25850605Y19031424D01*
X25851505Y19031109D01*
X25789628Y18854278D01*
X25789625Y18854265D01*
X25769430Y18675019D01*
X25769430Y18675012D01*
X25789625Y18495766D01*
X25789628Y18495753D01*
X25851505Y18318921D01*
X25849359Y18318171D01*
X25858957Y18259871D01*
X25850604Y18231425D01*
X25851505Y18231109D01*
X25789628Y18054278D01*
X25789625Y18054265D01*
X25769430Y17875019D01*
X25769430Y17875012D01*
X25789625Y17695766D01*
X25789628Y17695753D01*
X25851505Y17518921D01*
X25849359Y17518171D01*
X25858957Y17459871D01*
X25850604Y17431425D01*
X25851505Y17431109D01*
X25789628Y17254278D01*
X25789625Y17254265D01*
X25769430Y17075019D01*
X25769430Y17075012D01*
X25789625Y16895766D01*
X25789628Y16895753D01*
X25851505Y16718921D01*
X25849359Y16718171D01*
X25858957Y16659871D01*
X25850604Y16631425D01*
X25851505Y16631109D01*
X25789628Y16454278D01*
X25789625Y16454265D01*
X25769430Y16275019D01*
X25769430Y16275012D01*
X25789625Y16095766D01*
X25789628Y16095753D01*
X25851505Y15918921D01*
X25849362Y15918172D01*
X25858957Y15859852D01*
X25850606Y15831414D01*
X25851505Y15831099D01*
X25789628Y15654268D01*
X25789625Y15654255D01*
X25769430Y15475009D01*
X25769430Y15475002D01*
X25789625Y15295756D01*
X25789626Y15295751D01*
X25849206Y15125482D01*
X25921901Y15009789D01*
X25945179Y14972743D01*
X26072733Y14845189D01*
X26163075Y14788423D01*
X26202897Y14763401D01*
X26225473Y14749216D01*
X26291959Y14725952D01*
X26348735Y14685230D01*
X26374483Y14620278D01*
X26375005Y14608910D01*
X26375005Y8858057D01*
X26355320Y8791018D01*
X26347952Y8780745D01*
X26345182Y8777273D01*
X26249204Y8624526D01*
X26220451Y8542354D01*
X26179729Y8485579D01*
X26114776Y8459832D01*
X26046215Y8473289D01*
X26015729Y8495629D01*
X22486819Y12024539D01*
X22453334Y12085862D01*
X22450500Y12112220D01*
X22450500Y13665679D01*
X22467113Y13727679D01*
X22527179Y13831716D01*
X22585674Y14011744D01*
X22605460Y14200000D01*
X22585674Y14388256D01*
X22527179Y14568284D01*
X22432533Y14732216D01*
X22383191Y14787016D01*
X22352963Y14850004D01*
X22361588Y14919339D01*
X22387659Y14957663D01*
X22582952Y15152955D01*
X22649818Y15253029D01*
X22665084Y15275876D01*
X22721658Y15412458D01*
X22734100Y15475005D01*
X22750500Y15557451D01*
X22750500Y18442550D01*
X22721659Y18587537D01*
X22721658Y18587538D01*
X22721658Y18587542D01*
X22685424Y18675019D01*
X22665087Y18724118D01*
X22665080Y18724131D01*
X22582951Y18847046D01*
X22579452Y18851309D01*
X22552139Y18915619D01*
X22563930Y18984486D01*
X22583149Y19012938D01*
X22632533Y19067784D01*
X22727179Y19231716D01*
X22785674Y19411744D01*
X22805460Y19600000D01*
X22805460Y19600003D01*
X22805460Y19604864D01*
X22825145Y19671903D01*
X22841779Y19692545D01*
X23394423Y20245189D01*
X23968713Y20819479D01*
X23968716Y20819480D01*
X24080520Y20931284D01*
X24130639Y21018096D01*
X24159577Y21068215D01*
X24200500Y21220943D01*
X24200500Y21379057D01*
X24200500Y29499903D01*
X24220185Y29566942D01*
X24236819Y29587584D01*
X24487421Y29838186D01*
X24548744Y29871671D01*
X24575102Y29874505D01*
X25653152Y29874505D01*
X25720191Y29854820D01*
G37*
G04 #@! TD.AperFunction*
G04 #@! TA.AperFunction,Conductor*
G36*
X9255809Y63129815D02*
G01*
X9301564Y63077011D01*
X9311508Y63007853D01*
X9282483Y62944297D01*
X9276451Y62937819D01*
X5947228Y59608598D01*
X5885905Y59575113D01*
X5885329Y59574989D01*
X5820196Y59561144D01*
X5820192Y59561143D01*
X5647270Y59484152D01*
X5647265Y59484149D01*
X5494129Y59372889D01*
X5367466Y59232215D01*
X5272821Y59068285D01*
X5272818Y59068278D01*
X5246720Y58987955D01*
X5214326Y58888256D01*
X5194540Y58700000D01*
X5214326Y58511744D01*
X5214327Y58511741D01*
X5272818Y58331723D01*
X5272821Y58331716D01*
X5367467Y58167784D01*
X5426966Y58101704D01*
X5494129Y58027112D01*
X5647265Y57915852D01*
X5647270Y57915849D01*
X5820192Y57838858D01*
X5820197Y57838856D01*
X6005354Y57799500D01*
X6005355Y57799500D01*
X6194644Y57799500D01*
X6194646Y57799500D01*
X6379803Y57838856D01*
X6552730Y57915849D01*
X6554776Y57917336D01*
X6566452Y57925818D01*
X6632258Y57949298D01*
X6639337Y57949500D01*
X8828722Y57949500D01*
X8895761Y57929815D01*
X8920872Y57908472D01*
X8994129Y57827112D01*
X9147265Y57715852D01*
X9147270Y57715849D01*
X9320192Y57638858D01*
X9320197Y57638856D01*
X9505354Y57599500D01*
X9505355Y57599500D01*
X9694644Y57599500D01*
X9694646Y57599500D01*
X9879803Y57638856D01*
X10052730Y57715849D01*
X10054776Y57717336D01*
X10066452Y57725818D01*
X10132258Y57749298D01*
X10139337Y57749500D01*
X11569933Y57749500D01*
X11613790Y57740179D01*
X11614014Y57740865D01*
X11620194Y57738858D01*
X11620197Y57738856D01*
X11805354Y57699500D01*
X11805355Y57699500D01*
X11994644Y57699500D01*
X11994646Y57699500D01*
X12179803Y57738856D01*
X12352730Y57815849D01*
X12354776Y57817336D01*
X12366452Y57825818D01*
X12432258Y57849298D01*
X12439337Y57849500D01*
X14860663Y57849500D01*
X14927702Y57829815D01*
X14933548Y57825818D01*
X14947265Y57815852D01*
X14947270Y57815849D01*
X15120192Y57738858D01*
X15120195Y57738857D01*
X15120197Y57738856D01*
X15305354Y57699500D01*
X15305355Y57699500D01*
X15494644Y57699500D01*
X15494646Y57699500D01*
X15679803Y57738856D01*
X15852730Y57815849D01*
X15854776Y57817336D01*
X15866452Y57825818D01*
X15932258Y57849298D01*
X15939337Y57849500D01*
X17023025Y57849500D01*
X17090064Y57829815D01*
X17095910Y57825818D01*
X17247265Y57715852D01*
X17247270Y57715849D01*
X17420192Y57638858D01*
X17420197Y57638856D01*
X17605354Y57599500D01*
X17605355Y57599500D01*
X17794644Y57599500D01*
X17794646Y57599500D01*
X17979803Y57638856D01*
X18152730Y57715849D01*
X18154776Y57717336D01*
X18166452Y57725818D01*
X18232258Y57749298D01*
X18239337Y57749500D01*
X20560663Y57749500D01*
X20627702Y57729815D01*
X20633548Y57725818D01*
X20647265Y57715852D01*
X20647270Y57715849D01*
X20820192Y57638858D01*
X20820197Y57638856D01*
X21005354Y57599500D01*
X21005355Y57599500D01*
X21194644Y57599500D01*
X21194646Y57599500D01*
X21379803Y57638856D01*
X21552730Y57715849D01*
X21554776Y57717336D01*
X21566452Y57725818D01*
X21632258Y57749298D01*
X21639337Y57749500D01*
X22860663Y57749500D01*
X22927702Y57729815D01*
X22933548Y57725818D01*
X22947265Y57715852D01*
X22947270Y57715849D01*
X23120192Y57638858D01*
X23120197Y57638856D01*
X23305354Y57599500D01*
X23305355Y57599500D01*
X23494644Y57599500D01*
X23494646Y57599500D01*
X23679803Y57638856D01*
X23852730Y57715849D01*
X23854776Y57717336D01*
X23866452Y57725818D01*
X23932258Y57749298D01*
X23939337Y57749500D01*
X26360663Y57749500D01*
X26427702Y57729815D01*
X26433548Y57725818D01*
X26447265Y57715852D01*
X26447270Y57715849D01*
X26620192Y57638858D01*
X26620197Y57638856D01*
X26805354Y57599500D01*
X26805355Y57599500D01*
X26994644Y57599500D01*
X26994646Y57599500D01*
X27179803Y57638856D01*
X27352730Y57715849D01*
X27354776Y57717336D01*
X27366452Y57725818D01*
X27432258Y57749298D01*
X27439337Y57749500D01*
X28660663Y57749500D01*
X28727702Y57729815D01*
X28733548Y57725818D01*
X28747265Y57715852D01*
X28747270Y57715849D01*
X28920192Y57638858D01*
X28920197Y57638856D01*
X29105354Y57599500D01*
X29105355Y57599500D01*
X29294644Y57599500D01*
X29294646Y57599500D01*
X29463782Y57635451D01*
X29533448Y57630135D01*
X29589182Y57587998D01*
X29613287Y57522418D01*
X29598110Y57454217D01*
X29577243Y57426480D01*
X20831286Y48680522D01*
X20719481Y48568718D01*
X20719479Y48568715D01*
X20669361Y48481906D01*
X20669359Y48481904D01*
X20640425Y48431791D01*
X20640424Y48431790D01*
X20640423Y48431785D01*
X20599499Y48279057D01*
X20599499Y48279055D01*
X20599499Y48110954D01*
X20599500Y48110941D01*
X20599500Y21224500D01*
X20579815Y21157461D01*
X20527011Y21111706D01*
X20475500Y21100500D01*
X20200094Y21100500D01*
X20133055Y21120185D01*
X20112413Y21136819D01*
X19726112Y21523120D01*
X19692627Y21584443D01*
X19694018Y21642895D01*
X19711202Y21707025D01*
X19730272Y21925002D01*
X19729192Y21937342D01*
X19720961Y22031425D01*
X19711202Y22142979D01*
X19654570Y22354332D01*
X19562097Y22552640D01*
X19562095Y22552643D01*
X19562094Y22552645D01*
X19436594Y22731878D01*
X19436593Y22731879D01*
X19281872Y22886600D01*
X19226342Y22925483D01*
X19177877Y22959419D01*
X19134253Y23013996D01*
X19125002Y23060993D01*
X19125002Y27189010D01*
X19144687Y27256049D01*
X19177879Y27290585D01*
X19185270Y27295760D01*
X19281872Y27363401D01*
X19436593Y27518122D01*
X19562097Y27697360D01*
X19654570Y27895669D01*
X19711202Y28107022D01*
X19730272Y28324999D01*
X19711202Y28542976D01*
X19654570Y28754329D01*
X19562097Y28952637D01*
X19562095Y28952640D01*
X19562094Y28952642D01*
X19436594Y29131875D01*
X19436593Y29131876D01*
X19281872Y29286597D01*
X19226337Y29325483D01*
X19177877Y29359416D01*
X19161964Y29379324D01*
X19161321Y29378680D01*
X19125002Y29414999D01*
X19123909Y29414999D01*
X19071504Y29426617D01*
X19054204Y29434684D01*
X18904325Y29504574D01*
X18904321Y29504575D01*
X18904317Y29504577D01*
X18692972Y29561206D01*
X18474997Y29580276D01*
X18474993Y29580276D01*
X18329677Y29567563D01*
X18257018Y29561206D01*
X18257015Y29561206D01*
X18045672Y29504577D01*
X18045665Y29504575D01*
X18045665Y29504574D01*
X17895787Y29434684D01*
X17878487Y29426617D01*
X17826082Y29414999D01*
X15760386Y29414999D01*
X15693347Y29434684D01*
X15647592Y29487488D01*
X15637648Y29556646D01*
X15666673Y29620202D01*
X15709950Y29652278D01*
X15783490Y29685022D01*
X15852730Y29715849D01*
X16005871Y29827112D01*
X16132533Y29967784D01*
X16227179Y30131716D01*
X16285674Y30311744D01*
X16305460Y30500000D01*
X16285674Y30688256D01*
X16227179Y30868284D01*
X16132533Y31032216D01*
X16005871Y31172888D01*
X16005870Y31172889D01*
X15852734Y31284149D01*
X15852729Y31284152D01*
X15679807Y31361143D01*
X15679802Y31361145D01*
X15534001Y31392135D01*
X15494646Y31400500D01*
X15305354Y31400500D01*
X15272897Y31393602D01*
X15120197Y31361145D01*
X15120192Y31361143D01*
X14947270Y31284152D01*
X14947265Y31284149D01*
X14794129Y31172889D01*
X14667466Y31032215D01*
X14572821Y30868285D01*
X14572818Y30868278D01*
X14514327Y30688260D01*
X14514326Y30688256D01*
X14494540Y30500000D01*
X14514326Y30311744D01*
X14514327Y30311741D01*
X14572818Y30131723D01*
X14572821Y30131716D01*
X14667467Y29967784D01*
X14747359Y29879055D01*
X14794129Y29827112D01*
X14947265Y29715852D01*
X14947270Y29715849D01*
X15090050Y29652278D01*
X15143287Y29607028D01*
X15163608Y29540179D01*
X15144562Y29472955D01*
X15092196Y29426700D01*
X15039614Y29414999D01*
X4117996Y29414999D01*
X4050957Y29434684D01*
X4016421Y29467876D01*
X3936597Y29581877D01*
X3864204Y29654270D01*
X3781875Y29736599D01*
X3613838Y29854260D01*
X3602636Y29862104D01*
X3503482Y29908340D01*
X3404328Y29954576D01*
X3404324Y29954577D01*
X3404320Y29954579D01*
X3192975Y30011208D01*
X3039927Y30024598D01*
X2974858Y30050050D01*
X2963053Y30060445D01*
X2336819Y30686680D01*
X2303334Y30748003D01*
X2300500Y30774361D01*
X2300500Y32000000D01*
X17794540Y32000000D01*
X17814326Y31811744D01*
X17814327Y31811741D01*
X17872818Y31631723D01*
X17872821Y31631716D01*
X17967467Y31467784D01*
X18063487Y31361143D01*
X18094129Y31327112D01*
X18247265Y31215852D01*
X18247270Y31215849D01*
X18420192Y31138858D01*
X18420197Y31138856D01*
X18605354Y31099500D01*
X18605355Y31099500D01*
X18794644Y31099500D01*
X18794646Y31099500D01*
X18979803Y31138856D01*
X19152730Y31215849D01*
X19305871Y31327112D01*
X19432533Y31467784D01*
X19527179Y31631716D01*
X19585674Y31811744D01*
X19605460Y32000000D01*
X19585674Y32188256D01*
X19527179Y32368284D01*
X19432533Y32532216D01*
X19305871Y32672888D01*
X19274414Y32695743D01*
X19152734Y32784149D01*
X19152729Y32784152D01*
X18979807Y32861143D01*
X18979802Y32861145D01*
X18834001Y32892135D01*
X18794646Y32900500D01*
X18605354Y32900500D01*
X18572897Y32893602D01*
X18420197Y32861145D01*
X18420192Y32861143D01*
X18247270Y32784152D01*
X18247265Y32784149D01*
X18094129Y32672889D01*
X17967466Y32532215D01*
X17872821Y32368285D01*
X17872818Y32368278D01*
X17814327Y32188260D01*
X17814326Y32188256D01*
X17794540Y32000000D01*
X2300500Y32000000D01*
X2300500Y34161611D01*
X5299500Y34161611D01*
X5299500Y33438389D01*
X5326598Y33267299D01*
X5380127Y33102555D01*
X5458768Y32948212D01*
X5560586Y32808072D01*
X5683072Y32685586D01*
X5823212Y32583768D01*
X5977555Y32505127D01*
X6142299Y32451598D01*
X6313389Y32424500D01*
X6313390Y32424500D01*
X6486610Y32424500D01*
X6486611Y32424500D01*
X6657701Y32451598D01*
X6822445Y32505127D01*
X6976788Y32583768D01*
X7116928Y32685586D01*
X7239414Y32808072D01*
X7299682Y32891025D01*
X7355012Y32933689D01*
X7424626Y32939668D01*
X7486421Y32907062D01*
X7500315Y32891027D01*
X7560586Y32808072D01*
X7683072Y32685586D01*
X7823212Y32583768D01*
X7977555Y32505127D01*
X8142299Y32451598D01*
X8313389Y32424500D01*
X8313390Y32424500D01*
X8486610Y32424500D01*
X8486611Y32424500D01*
X8657701Y32451598D01*
X8822445Y32505127D01*
X8976788Y32583768D01*
X9116928Y32685586D01*
X9239414Y32808072D01*
X9299682Y32891025D01*
X9355012Y32933689D01*
X9424626Y32939668D01*
X9486421Y32907062D01*
X9500315Y32891027D01*
X9560586Y32808072D01*
X9683072Y32685586D01*
X9823212Y32583768D01*
X9977555Y32505127D01*
X10142299Y32451598D01*
X10313389Y32424500D01*
X10313390Y32424500D01*
X10486610Y32424500D01*
X10486611Y32424500D01*
X10657701Y32451598D01*
X10822445Y32505127D01*
X10976788Y32583768D01*
X11116928Y32685586D01*
X11224836Y32793495D01*
X11286155Y32826977D01*
X11355847Y32821993D01*
X11411781Y32780122D01*
X11418053Y32770907D01*
X11457682Y32706657D01*
X11581654Y32582685D01*
X11730875Y32490644D01*
X11730880Y32490642D01*
X11897302Y32435495D01*
X11897309Y32435494D01*
X12000019Y32425001D01*
X12149999Y32425001D01*
X12150000Y32425002D01*
X12150000Y33519670D01*
X12169745Y33499925D01*
X12255255Y33450556D01*
X12350630Y33425000D01*
X12449370Y33425000D01*
X12544745Y33450556D01*
X12630255Y33499925D01*
X12650000Y33519670D01*
X12650000Y32425001D01*
X12799972Y32425001D01*
X12799986Y32425002D01*
X12902697Y32435495D01*
X13069119Y32490642D01*
X13069124Y32490644D01*
X13218345Y32582685D01*
X13342315Y32706655D01*
X13434356Y32855876D01*
X13434358Y32855881D01*
X13489505Y33022303D01*
X13489506Y33022310D01*
X13499999Y33125014D01*
X13500000Y33125027D01*
X13500000Y33550000D01*
X12680330Y33550000D01*
X12700075Y33569745D01*
X12749444Y33655255D01*
X12775000Y33750630D01*
X12775000Y33849370D01*
X12749444Y33944745D01*
X12700075Y34030255D01*
X12680330Y34050000D01*
X13499999Y34050000D01*
X13499999Y34474972D01*
X13499998Y34474987D01*
X13489505Y34577698D01*
X13434358Y34744120D01*
X13434356Y34744125D01*
X13342315Y34893346D01*
X13218345Y35017316D01*
X13069124Y35109357D01*
X13069119Y35109359D01*
X12902697Y35164506D01*
X12902690Y35164507D01*
X12799986Y35175000D01*
X12650000Y35175000D01*
X12650000Y34080330D01*
X12630255Y34100075D01*
X12544745Y34149444D01*
X12449370Y34175000D01*
X12350630Y34175000D01*
X12255255Y34149444D01*
X12169745Y34100075D01*
X12150000Y34080330D01*
X12150000Y35175000D01*
X12000027Y35175000D01*
X12000012Y35174999D01*
X11897302Y35164506D01*
X11730880Y35109359D01*
X11730875Y35109357D01*
X11581654Y35017316D01*
X11457684Y34893346D01*
X11418053Y34829093D01*
X11366105Y34782369D01*
X11297142Y34771147D01*
X11233060Y34798990D01*
X11224833Y34806509D01*
X11116930Y34914412D01*
X11116928Y34914414D01*
X10976788Y35016232D01*
X10822445Y35094873D01*
X10657701Y35148402D01*
X10657699Y35148403D01*
X10657698Y35148403D01*
X10526271Y35169219D01*
X10486611Y35175500D01*
X10313389Y35175500D01*
X10273728Y35169219D01*
X10142302Y35148403D01*
X9977552Y35094872D01*
X9823211Y35016232D01*
X9743256Y34958141D01*
X9683072Y34914414D01*
X9683070Y34914412D01*
X9683069Y34914412D01*
X9560588Y34791931D01*
X9560581Y34791922D01*
X9500317Y34708977D01*
X9444987Y34666311D01*
X9375374Y34660333D01*
X9313579Y34692939D01*
X9299683Y34708977D01*
X9239418Y34791922D01*
X9239414Y34791928D01*
X9116928Y34914414D01*
X8976788Y35016232D01*
X8822445Y35094873D01*
X8657701Y35148402D01*
X8657699Y35148403D01*
X8657698Y35148403D01*
X8526271Y35169219D01*
X8486611Y35175500D01*
X8313389Y35175500D01*
X8273728Y35169219D01*
X8142302Y35148403D01*
X7977552Y35094872D01*
X7823211Y35016232D01*
X7743256Y34958141D01*
X7683072Y34914414D01*
X7683070Y34914412D01*
X7683069Y34914412D01*
X7560588Y34791931D01*
X7560581Y34791922D01*
X7500317Y34708977D01*
X7444987Y34666311D01*
X7375374Y34660333D01*
X7313579Y34692939D01*
X7299683Y34708977D01*
X7239418Y34791922D01*
X7239414Y34791928D01*
X7116928Y34914414D01*
X6976788Y35016232D01*
X6822445Y35094873D01*
X6657701Y35148402D01*
X6657699Y35148403D01*
X6657698Y35148403D01*
X6526271Y35169219D01*
X6486611Y35175500D01*
X6313389Y35175500D01*
X6273728Y35169219D01*
X6142302Y35148403D01*
X5977552Y35094872D01*
X5823211Y35016232D01*
X5743256Y34958141D01*
X5683072Y34914414D01*
X5683070Y34914412D01*
X5683069Y34914412D01*
X5560588Y34791931D01*
X5560588Y34791930D01*
X5560586Y34791928D01*
X5560582Y34791922D01*
X5458768Y34651789D01*
X5380128Y34497448D01*
X5326597Y34332698D01*
X5301621Y34175000D01*
X5299500Y34161611D01*
X2300500Y34161611D01*
X2300500Y43589683D01*
X7589631Y43589683D01*
X7589631Y43410318D01*
X7624618Y43234422D01*
X7624621Y43234413D01*
X7693254Y43068716D01*
X7693255Y43068714D01*
X7792901Y42919584D01*
X7792904Y42919580D01*
X7919721Y42792763D01*
X7919725Y42792760D01*
X8068853Y42693115D01*
X8068854Y42693115D01*
X8068855Y42693114D01*
X8068857Y42693113D01*
X8144290Y42661868D01*
X8234556Y42624479D01*
X8234558Y42624479D01*
X8234563Y42624477D01*
X8410459Y42589490D01*
X8410463Y42589489D01*
X8410464Y42589489D01*
X8589821Y42589489D01*
X8589822Y42589490D01*
X8648456Y42601153D01*
X8765720Y42624477D01*
X8765723Y42624479D01*
X8765728Y42624479D01*
X8931431Y42693115D01*
X9080559Y42792760D01*
X9207382Y42919583D01*
X9307027Y43068711D01*
X9375663Y43234414D01*
X9410653Y43410322D01*
X9410653Y43589678D01*
X9410652Y43589683D01*
X15089489Y43589683D01*
X15089489Y43410318D01*
X15124476Y43234422D01*
X15124479Y43234413D01*
X15193112Y43068716D01*
X15193113Y43068714D01*
X15292759Y42919584D01*
X15292762Y42919580D01*
X15419579Y42792763D01*
X15419583Y42792760D01*
X15568711Y42693115D01*
X15568712Y42693115D01*
X15568713Y42693114D01*
X15568715Y42693113D01*
X15644148Y42661868D01*
X15734414Y42624479D01*
X15734416Y42624479D01*
X15734421Y42624477D01*
X15910317Y42589490D01*
X15910321Y42589489D01*
X15910322Y42589489D01*
X16089679Y42589489D01*
X16089680Y42589490D01*
X16148314Y42601153D01*
X16265578Y42624477D01*
X16265581Y42624479D01*
X16265586Y42624479D01*
X16431289Y42693115D01*
X16580417Y42792760D01*
X16707240Y42919583D01*
X16806885Y43068711D01*
X16875521Y43234414D01*
X16910511Y43410322D01*
X16910511Y43589678D01*
X16893536Y43675019D01*
X16875523Y43765579D01*
X16875520Y43765588D01*
X16806887Y43931285D01*
X16806886Y43931287D01*
X16789003Y43958050D01*
X16707240Y44080417D01*
X16707237Y44080421D01*
X16580420Y44207238D01*
X16580416Y44207241D01*
X16431286Y44306887D01*
X16431284Y44306888D01*
X16265587Y44375521D01*
X16265578Y44375524D01*
X16089682Y44410511D01*
X16089678Y44410511D01*
X15910322Y44410511D01*
X15910317Y44410511D01*
X15734421Y44375524D01*
X15734412Y44375521D01*
X15568715Y44306888D01*
X15568713Y44306887D01*
X15419583Y44207241D01*
X15419579Y44207238D01*
X15292762Y44080421D01*
X15292759Y44080417D01*
X15193113Y43931287D01*
X15193112Y43931285D01*
X15124479Y43765588D01*
X15124476Y43765579D01*
X15089489Y43589683D01*
X9410652Y43589683D01*
X9393678Y43675019D01*
X9375665Y43765579D01*
X9375662Y43765588D01*
X9307029Y43931285D01*
X9307028Y43931287D01*
X9289145Y43958050D01*
X9207382Y44080417D01*
X9207379Y44080421D01*
X9080562Y44207238D01*
X9080558Y44207241D01*
X8931428Y44306887D01*
X8931426Y44306888D01*
X8765729Y44375521D01*
X8765720Y44375524D01*
X8589824Y44410511D01*
X8589820Y44410511D01*
X8410464Y44410511D01*
X8410459Y44410511D01*
X8234563Y44375524D01*
X8234554Y44375521D01*
X8068857Y44306888D01*
X8068855Y44306887D01*
X7919725Y44207241D01*
X7919721Y44207238D01*
X7792904Y44080421D01*
X7792901Y44080417D01*
X7693255Y43931287D01*
X7693254Y43931285D01*
X7624621Y43765588D01*
X7624618Y43765579D01*
X7589631Y43589683D01*
X2300500Y43589683D01*
X2300500Y56775638D01*
X2320185Y56842677D01*
X2336819Y56863319D01*
X8586681Y63113181D01*
X8648004Y63146666D01*
X8674362Y63149500D01*
X9188770Y63149500D01*
X9255809Y63129815D01*
G37*
G04 #@! TD.AperFunction*
G04 #@! TA.AperFunction,Conductor*
G36*
X27115464Y64043096D02*
G01*
X27162007Y63990985D01*
X27163556Y63987594D01*
X27247888Y63795334D01*
X27381632Y63590622D01*
X27547242Y63410723D01*
X27547252Y63410714D01*
X27740208Y63260530D01*
X27740212Y63260527D01*
X27950608Y63146666D01*
X27955267Y63144145D01*
X27955270Y63144144D01*
X28186541Y63064749D01*
X28186543Y63064749D01*
X28186545Y63064748D01*
X28427737Y63024500D01*
X28427738Y63024500D01*
X28672262Y63024500D01*
X28672263Y63024500D01*
X28913455Y63064748D01*
X29144733Y63144145D01*
X29359788Y63260527D01*
X29466433Y63343533D01*
X29531423Y63369174D01*
X29599963Y63355608D01*
X29630273Y63333359D01*
X30841973Y62121660D01*
X32042049Y60921584D01*
X32146584Y60817049D01*
X32146587Y60817047D01*
X32146588Y60817046D01*
X32269503Y60734917D01*
X32269506Y60734915D01*
X32326079Y60711482D01*
X32326080Y60711482D01*
X32406088Y60678341D01*
X32522241Y60655237D01*
X32541468Y60651413D01*
X32551081Y60649500D01*
X32551082Y60649500D01*
X32551083Y60649500D01*
X32698918Y60649500D01*
X33025500Y60649500D01*
X33092539Y60629815D01*
X33138294Y60577011D01*
X33149500Y60525500D01*
X33149500Y55562230D01*
X33129815Y55495191D01*
X33113181Y55474549D01*
X25817048Y48178417D01*
X25797784Y48149585D01*
X25778647Y48120943D01*
X25734919Y48055501D01*
X25734912Y48055489D01*
X25678343Y47918918D01*
X25678340Y47918908D01*
X25649500Y47773921D01*
X25649500Y46562230D01*
X25629815Y46495191D01*
X25613181Y46474549D01*
X22012181Y42873549D01*
X21950858Y42840064D01*
X21881166Y42845048D01*
X21825233Y42886920D01*
X21800816Y42952384D01*
X21800500Y42961230D01*
X21800500Y47899903D01*
X21820185Y47966942D01*
X21836819Y47987584D01*
X30962417Y57113181D01*
X31023740Y57146666D01*
X31050098Y57149500D01*
X31082570Y57149500D01*
X31082586Y57149499D01*
X31090182Y57149499D01*
X31248293Y57149499D01*
X31248296Y57149499D01*
X31401024Y57190423D01*
X31451143Y57219361D01*
X31537955Y57269480D01*
X31649759Y57381284D01*
X31649759Y57381286D01*
X31659967Y57391493D01*
X31659969Y57391496D01*
X31958506Y57690033D01*
X31958511Y57690037D01*
X31968714Y57700241D01*
X31968716Y57700241D01*
X32080520Y57812045D01*
X32143762Y57921584D01*
X32159577Y57948976D01*
X32200501Y58101704D01*
X32200501Y58259818D01*
X32200501Y58267413D01*
X32200500Y58267431D01*
X32200500Y58530179D01*
X32200501Y58530192D01*
X32200501Y58698295D01*
X32159576Y58851025D01*
X32159573Y58851030D01*
X32080524Y58987949D01*
X32080518Y58987957D01*
X28506829Y62561645D01*
X28506827Y62561648D01*
X28387956Y62680519D01*
X28387955Y62680520D01*
X28301143Y62730640D01*
X28301143Y62730641D01*
X28301139Y62730642D01*
X28251024Y62759577D01*
X28098296Y62800501D01*
X27940182Y62800501D01*
X27932586Y62800501D01*
X27932570Y62800500D01*
X25826363Y62800500D01*
X25759324Y62820185D01*
X25713569Y62872989D01*
X25703625Y62942147D01*
X25732650Y63005703D01*
X25791428Y63043477D01*
X25805953Y63046809D01*
X25808388Y63047216D01*
X25913455Y63064748D01*
X26144733Y63144145D01*
X26359788Y63260527D01*
X26552754Y63410719D01*
X26718368Y63590623D01*
X26852111Y63795333D01*
X26936444Y63987595D01*
X26981400Y64041080D01*
X27048136Y64061770D01*
X27115464Y64043096D01*
G37*
G04 #@! TD.AperFunction*
G04 #@! TA.AperFunction,Conductor*
G36*
X14711823Y82879815D02*
G01*
X14757578Y82827011D01*
X14767522Y82757853D01*
X14762715Y82737182D01*
X14714326Y82588256D01*
X14694540Y82400000D01*
X14714326Y82211744D01*
X14714327Y82211741D01*
X14772818Y82031723D01*
X14772821Y82031716D01*
X14867467Y81867784D01*
X14967638Y81756533D01*
X14967650Y81756520D01*
X14997880Y81693529D01*
X14999500Y81673548D01*
X14999500Y63786670D01*
X14999499Y63786652D01*
X14999499Y63620946D01*
X14999498Y63620946D01*
X15040424Y63468211D01*
X15040425Y63468210D01*
X15060298Y63433790D01*
X15060299Y63433788D01*
X15119475Y63331291D01*
X15119481Y63331283D01*
X15238349Y63212415D01*
X15238355Y63212410D01*
X16615139Y61835626D01*
X16615149Y61835615D01*
X16619479Y61831285D01*
X16619480Y61831284D01*
X16731284Y61719480D01*
X16731286Y61719479D01*
X16731290Y61719476D01*
X16868209Y61640427D01*
X16868216Y61640423D01*
X16980019Y61610466D01*
X17020942Y61599500D01*
X17020943Y61599500D01*
X27719142Y61599500D01*
X27786181Y61579815D01*
X27806823Y61563181D01*
X30007822Y59362181D01*
X30041307Y59300858D01*
X30036323Y59231166D01*
X29994451Y59175233D01*
X29928987Y59150816D01*
X29920141Y59150500D01*
X29876975Y59150500D01*
X29809936Y59170185D01*
X29804090Y59174182D01*
X29652734Y59284149D01*
X29652729Y59284152D01*
X29479807Y59361143D01*
X29479802Y59361145D01*
X29334001Y59392135D01*
X29294646Y59400500D01*
X29105354Y59400500D01*
X29072897Y59393602D01*
X28920197Y59361145D01*
X28920192Y59361143D01*
X28747270Y59284152D01*
X28747265Y59284149D01*
X28733548Y59274182D01*
X28667742Y59250702D01*
X28660663Y59250500D01*
X27439337Y59250500D01*
X27372298Y59270185D01*
X27366452Y59274182D01*
X27352734Y59284149D01*
X27352729Y59284152D01*
X27179807Y59361143D01*
X27179802Y59361145D01*
X27034001Y59392135D01*
X26994646Y59400500D01*
X26805354Y59400500D01*
X26772897Y59393602D01*
X26620197Y59361145D01*
X26620192Y59361143D01*
X26447270Y59284152D01*
X26447265Y59284149D01*
X26433548Y59274182D01*
X26367742Y59250702D01*
X26360663Y59250500D01*
X23939337Y59250500D01*
X23872298Y59270185D01*
X23866452Y59274182D01*
X23852734Y59284149D01*
X23852729Y59284152D01*
X23679807Y59361143D01*
X23679802Y59361145D01*
X23534001Y59392135D01*
X23494646Y59400500D01*
X23305354Y59400500D01*
X23272897Y59393602D01*
X23120197Y59361145D01*
X23120192Y59361143D01*
X22947270Y59284152D01*
X22947265Y59284149D01*
X22933548Y59274182D01*
X22867742Y59250702D01*
X22860663Y59250500D01*
X21639337Y59250500D01*
X21572298Y59270185D01*
X21566452Y59274182D01*
X21552734Y59284149D01*
X21552729Y59284152D01*
X21379807Y59361143D01*
X21379802Y59361145D01*
X21234001Y59392135D01*
X21194646Y59400500D01*
X21005354Y59400500D01*
X20972897Y59393602D01*
X20820197Y59361145D01*
X20820192Y59361143D01*
X20647270Y59284152D01*
X20647265Y59284149D01*
X20633548Y59274182D01*
X20567742Y59250702D01*
X20560663Y59250500D01*
X18239337Y59250500D01*
X18172298Y59270185D01*
X18166452Y59274182D01*
X18152734Y59284149D01*
X18152729Y59284152D01*
X17979807Y59361143D01*
X17979802Y59361145D01*
X17834001Y59392135D01*
X17794646Y59400500D01*
X17605354Y59400500D01*
X17565999Y59392135D01*
X17420198Y59361145D01*
X17414014Y59359135D01*
X17413790Y59359822D01*
X17369933Y59350500D01*
X15939337Y59350500D01*
X15872298Y59370185D01*
X15866452Y59374182D01*
X15852734Y59384149D01*
X15852729Y59384152D01*
X15679807Y59461143D01*
X15679802Y59461145D01*
X15534001Y59492135D01*
X15494646Y59500500D01*
X15305354Y59500500D01*
X15272897Y59493602D01*
X15120197Y59461145D01*
X15120192Y59461143D01*
X14947270Y59384152D01*
X14947265Y59384149D01*
X14933548Y59374182D01*
X14867742Y59350702D01*
X14860663Y59350500D01*
X12439337Y59350500D01*
X12372298Y59370185D01*
X12366452Y59374182D01*
X12352734Y59384149D01*
X12352729Y59384152D01*
X12179807Y59461143D01*
X12179802Y59461145D01*
X12034001Y59492135D01*
X11994646Y59500500D01*
X11805354Y59500500D01*
X11772897Y59493602D01*
X11620197Y59461145D01*
X11620192Y59461143D01*
X11447270Y59384152D01*
X11447265Y59384149D01*
X11295910Y59274182D01*
X11230104Y59250702D01*
X11223025Y59250500D01*
X10139337Y59250500D01*
X10072298Y59270185D01*
X10066452Y59274182D01*
X10052734Y59284149D01*
X10052729Y59284152D01*
X9879807Y59361143D01*
X9879802Y59361145D01*
X9694644Y59400501D01*
X9688178Y59401180D01*
X9688240Y59401777D01*
X9647206Y59409939D01*
X9618917Y59421657D01*
X9618907Y59421660D01*
X9473920Y59450500D01*
X9473918Y59450500D01*
X8211230Y59450500D01*
X8144191Y59470185D01*
X8098436Y59522989D01*
X8088492Y59592147D01*
X8117517Y59655703D01*
X8123549Y59662181D01*
X10782949Y62321582D01*
X10782948Y62321582D01*
X10782952Y62321585D01*
X10856584Y62431784D01*
X10865084Y62444505D01*
X10913605Y62561645D01*
X10916533Y62568713D01*
X10916535Y62568717D01*
X10921656Y62581081D01*
X10921655Y62581081D01*
X10921659Y62581088D01*
X10950500Y62726083D01*
X10950500Y62873918D01*
X10950500Y62969727D01*
X10970185Y63036766D01*
X11003380Y63071304D01*
X11014620Y63079174D01*
X11170826Y63235380D01*
X11297534Y63416338D01*
X11390894Y63616550D01*
X11448070Y63829932D01*
X11467323Y64050000D01*
X11466293Y64061770D01*
X11449274Y64256305D01*
X11448070Y64270068D01*
X11390894Y64483450D01*
X11297534Y64683661D01*
X11223819Y64788937D01*
X11170827Y64864619D01*
X11097215Y64938231D01*
X11014620Y65020826D01*
X11014616Y65020829D01*
X11014615Y65020830D01*
X10833666Y65147532D01*
X10833662Y65147534D01*
X10833660Y65147535D01*
X10633450Y65240894D01*
X10633447Y65240895D01*
X10633445Y65240896D01*
X10420070Y65298070D01*
X10420062Y65298071D01*
X10200002Y65317323D01*
X10199998Y65317323D01*
X9979937Y65298071D01*
X9979929Y65298070D01*
X9766554Y65240896D01*
X9766548Y65240893D01*
X9566340Y65147535D01*
X9566338Y65147534D01*
X9385378Y65020826D01*
X9351374Y64986820D01*
X9290052Y64953334D01*
X9263692Y64950500D01*
X8161303Y64950500D01*
X7987341Y64915897D01*
X7987329Y64915894D01*
X7905392Y64881955D01*
X7905393Y64881954D01*
X7823455Y64848015D01*
X7735040Y64788937D01*
X7735039Y64788936D01*
X7675961Y64749463D01*
X700540Y57774042D01*
X700534Y57774035D01*
X677030Y57738857D01*
X677030Y57738856D01*
X601988Y57626551D01*
X582815Y57580261D01*
X539061Y57474631D01*
X495219Y57420227D01*
X428925Y57398163D01*
X361226Y57415443D01*
X313616Y57466580D01*
X300500Y57522084D01*
X300500Y68950003D01*
X8932677Y68950003D01*
X8932677Y68949998D01*
X8951929Y68729938D01*
X8951930Y68729930D01*
X9009104Y68516555D01*
X9009105Y68516553D01*
X9009106Y68516550D01*
X9066826Y68392768D01*
X9102466Y68316338D01*
X9102468Y68316334D01*
X9229170Y68135385D01*
X9229175Y68135379D01*
X9385378Y67979176D01*
X9385384Y67979171D01*
X9566333Y67852469D01*
X9566335Y67852468D01*
X9566338Y67852466D01*
X9766550Y67759106D01*
X9979932Y67701930D01*
X10137123Y67688178D01*
X10199998Y67682677D01*
X10200000Y67682677D01*
X10200002Y67682677D01*
X10255017Y67687491D01*
X10420068Y67701930D01*
X10633450Y67759106D01*
X10833662Y67852466D01*
X11014620Y67979174D01*
X11170826Y68135380D01*
X11297534Y68316338D01*
X11390894Y68516550D01*
X11448070Y68729932D01*
X11467323Y68950000D01*
X11448070Y69170068D01*
X11390894Y69383450D01*
X11297534Y69583661D01*
X11204976Y69715849D01*
X11170827Y69764619D01*
X11108334Y69827112D01*
X11014620Y69920826D01*
X11014616Y69920829D01*
X11014615Y69920830D01*
X10833666Y70047532D01*
X10833662Y70047534D01*
X10833660Y70047535D01*
X10633450Y70140894D01*
X10633447Y70140895D01*
X10633445Y70140896D01*
X10420070Y70198070D01*
X10420062Y70198071D01*
X10200002Y70217323D01*
X10199998Y70217323D01*
X9979937Y70198071D01*
X9979929Y70198070D01*
X9766554Y70140896D01*
X9766548Y70140893D01*
X9566340Y70047535D01*
X9566338Y70047534D01*
X9385377Y69920825D01*
X9229175Y69764623D01*
X9102466Y69583662D01*
X9102465Y69583660D01*
X9009107Y69383452D01*
X9009104Y69383446D01*
X8951930Y69170071D01*
X8951929Y69170063D01*
X8932677Y68950003D01*
X300500Y68950003D01*
X300500Y73500000D01*
X12394540Y73500000D01*
X12414326Y73311744D01*
X12414327Y73311741D01*
X12472818Y73131723D01*
X12472821Y73131716D01*
X12567467Y72967784D01*
X12694129Y72827112D01*
X12847265Y72715852D01*
X12847270Y72715849D01*
X13020192Y72638858D01*
X13020197Y72638856D01*
X13205354Y72599500D01*
X13205355Y72599500D01*
X13394644Y72599500D01*
X13394646Y72599500D01*
X13579803Y72638856D01*
X13752730Y72715849D01*
X13905871Y72827112D01*
X14032533Y72967784D01*
X14127179Y73131716D01*
X14185674Y73311744D01*
X14205460Y73500000D01*
X14185674Y73688256D01*
X14127179Y73868284D01*
X14032533Y74032216D01*
X13905871Y74172888D01*
X13905870Y74172889D01*
X13752734Y74284149D01*
X13752729Y74284152D01*
X13579807Y74361143D01*
X13579802Y74361145D01*
X13434001Y74392135D01*
X13394646Y74400500D01*
X13205354Y74400500D01*
X13172897Y74393602D01*
X13020197Y74361145D01*
X13020192Y74361143D01*
X12847270Y74284152D01*
X12847265Y74284149D01*
X12694129Y74172889D01*
X12567466Y74032215D01*
X12472821Y73868285D01*
X12472818Y73868278D01*
X12414327Y73688260D01*
X12414326Y73688256D01*
X12394540Y73500000D01*
X300500Y73500000D01*
X300500Y80100005D01*
X1294451Y80100005D01*
X1294451Y80099996D01*
X1314616Y79830899D01*
X1371149Y79583214D01*
X1374666Y79567805D01*
X1473257Y79316602D01*
X1608185Y79082898D01*
X1731405Y78928386D01*
X1776442Y78871911D01*
X1834141Y78818375D01*
X1974259Y78688365D01*
X2197226Y78536349D01*
X2440359Y78419262D01*
X2698228Y78339720D01*
X2698229Y78339720D01*
X2698232Y78339719D01*
X2965063Y78299501D01*
X2965068Y78299501D01*
X2965071Y78299500D01*
X2965072Y78299500D01*
X3234928Y78299500D01*
X3234929Y78299500D01*
X3234936Y78299501D01*
X3501767Y78339719D01*
X3501768Y78339720D01*
X3501772Y78339720D01*
X3759641Y78419262D01*
X4002775Y78536349D01*
X4225741Y78688365D01*
X4423561Y78871915D01*
X4591815Y79082898D01*
X4612462Y79118660D01*
X10489500Y79118660D01*
X10489500Y78881341D01*
X10489501Y78881324D01*
X10520476Y78646042D01*
X10520477Y78646037D01*
X10520478Y78646031D01*
X10520479Y78646029D01*
X10581903Y78416787D01*
X10672725Y78197525D01*
X10672729Y78197515D01*
X10791393Y77991983D01*
X10935871Y77803695D01*
X10935877Y77803688D01*
X11103687Y77635878D01*
X11103694Y77635872D01*
X11291982Y77491394D01*
X11497514Y77372730D01*
X11497515Y77372730D01*
X11497518Y77372728D01*
X11716785Y77281904D01*
X11946031Y77220478D01*
X12181334Y77189500D01*
X12181341Y77189500D01*
X12418659Y77189500D01*
X12418666Y77189500D01*
X12653969Y77220478D01*
X12883215Y77281904D01*
X13102482Y77372728D01*
X13308018Y77491394D01*
X13496307Y77635873D01*
X13664127Y77803693D01*
X13808606Y77991982D01*
X13927272Y78197518D01*
X14018096Y78416785D01*
X14079522Y78646031D01*
X14110500Y78881334D01*
X14110500Y79118666D01*
X14079522Y79353969D01*
X14018096Y79583215D01*
X13927272Y79802482D01*
X13910865Y79830899D01*
X13808606Y80008018D01*
X13664128Y80196306D01*
X13664122Y80196313D01*
X13496312Y80364123D01*
X13496305Y80364129D01*
X13308017Y80508607D01*
X13102485Y80627271D01*
X13102475Y80627275D01*
X12883213Y80718097D01*
X12768592Y80748809D01*
X12653969Y80779522D01*
X12653963Y80779523D01*
X12653958Y80779524D01*
X12418676Y80810499D01*
X12418671Y80810500D01*
X12418666Y80810500D01*
X12181334Y80810500D01*
X12181328Y80810500D01*
X12181323Y80810499D01*
X11946041Y80779524D01*
X11946034Y80779523D01*
X11946031Y80779522D01*
X11904094Y80768285D01*
X11716786Y80718097D01*
X11497524Y80627275D01*
X11497514Y80627271D01*
X11291982Y80508607D01*
X11103694Y80364129D01*
X11103687Y80364123D01*
X10935877Y80196313D01*
X10935871Y80196306D01*
X10791393Y80008018D01*
X10672729Y79802486D01*
X10672725Y79802476D01*
X10581903Y79583214D01*
X10520479Y79353972D01*
X10520476Y79353959D01*
X10489501Y79118677D01*
X10489500Y79118660D01*
X4612462Y79118660D01*
X4726743Y79316602D01*
X4825334Y79567805D01*
X4885383Y79830897D01*
X4900432Y80031716D01*
X4905549Y80099996D01*
X4905549Y80100005D01*
X4885383Y80369102D01*
X4875650Y80411744D01*
X4825334Y80632195D01*
X4726743Y80883398D01*
X4591815Y81117102D01*
X4423561Y81328085D01*
X4423560Y81328086D01*
X4423557Y81328090D01*
X4225741Y81511635D01*
X4072887Y81615849D01*
X4002775Y81663651D01*
X4002769Y81663654D01*
X4002768Y81663655D01*
X4002767Y81663656D01*
X3759643Y81780737D01*
X3759645Y81780737D01*
X3501773Y81860280D01*
X3501767Y81860282D01*
X3234936Y81900500D01*
X3234929Y81900500D01*
X2965071Y81900500D01*
X2965063Y81900500D01*
X2698232Y81860282D01*
X2698226Y81860280D01*
X2440358Y81780738D01*
X2197230Y81663654D01*
X1974258Y81511635D01*
X1776442Y81328090D01*
X1608185Y81117102D01*
X1473258Y80883401D01*
X1473256Y80883397D01*
X1374666Y80632196D01*
X1374664Y80632189D01*
X1314616Y80369102D01*
X1294451Y80100005D01*
X300500Y80100005D01*
X300500Y80965588D01*
X320185Y81032627D01*
X336819Y81053269D01*
X2146731Y82863181D01*
X2208054Y82896666D01*
X2234412Y82899500D01*
X14644784Y82899500D01*
X14711823Y82879815D01*
G37*
G04 #@! TD.AperFunction*
G04 #@! TD*
M02*
