G04 #@! TF.GenerationSoftware,KiCad,Pcbnew,8.0.4-8.0.4-0~ubuntu22.04.1*
G04 #@! TF.CreationDate,2024-07-19T04:30:51+00:00*
G04 #@! TF.ProjectId,PRODashController,50524f44-6173-4684-936f-6e74726f6c6c,rev?*
G04 #@! TF.SameCoordinates,Original*
G04 #@! TF.FileFunction,Soldermask,Bot*
G04 #@! TF.FilePolarity,Negative*
%FSLAX46Y46*%
G04 Gerber Fmt 4.6, Leading zero omitted, Abs format (unit mm)*
G04 Created by KiCad (PCBNEW 8.0.4-8.0.4-0~ubuntu22.04.1) date 2024-07-19 04:30:51*
%MOMM*%
%LPD*%
G01*
G04 APERTURE LIST*
%ADD10O,1.200000X1.750000*%
%ADD11C,3.300000*%
%ADD12C,2.154000*%
%ADD13C,1.500000*%
%ADD14C,0.600000*%
%ADD15C,1.524000*%
%ADD16R,1.000000X1.500000*%
%ADD17R,4.399991X2.299995*%
%ADD18R,3.999992X2.299995*%
%ADD19C,1.000000*%
G04 APERTURE END LIST*
G04 #@! TO.C,J2*
G36*
G01*
X13000000Y34425000D02*
X13000000Y33175000D01*
G75*
G02*
X12750000Y32925000I-250000J0D01*
G01*
X12050000Y32925000D01*
G75*
G02*
X11800000Y33175000I0J250000D01*
G01*
X11800000Y34425000D01*
G75*
G02*
X12050000Y34675000I250000J0D01*
G01*
X12750000Y34675000D01*
G75*
G02*
X13000000Y34425000I0J-250000D01*
G01*
G37*
D10*
X10400000Y33800000D03*
X8400000Y33800000D03*
X6400000Y33800000D03*
G04 #@! TD*
D11*
G04 #@! TO.C,J1*
X50800000Y79000000D03*
X12300000Y79000000D03*
G36*
G01*
X44627000Y65475000D02*
X44627000Y63525000D01*
G75*
G02*
X44525000Y63423000I-102000J0D01*
G01*
X42575000Y63423000D01*
G75*
G02*
X42473000Y63525000I0J102000D01*
G01*
X42473000Y65475000D01*
G75*
G02*
X42575000Y65577000I102000J0D01*
G01*
X44525000Y65577000D01*
G75*
G02*
X44627000Y65475000I0J-102000D01*
G01*
G37*
D12*
X40550000Y64500000D03*
X37550000Y64500000D03*
X34550000Y64500000D03*
X31550000Y64500000D03*
X28550000Y64500000D03*
X25550000Y64500000D03*
X22550000Y64500000D03*
X19550000Y64500000D03*
X42050000Y67000000D03*
X39050000Y67000000D03*
X36050000Y67000000D03*
X33050000Y67000000D03*
X30050000Y67000000D03*
X27050000Y67000000D03*
X24050000Y67000000D03*
X21050000Y67000000D03*
X42050000Y70000000D03*
X39050000Y70000000D03*
X36050000Y70000000D03*
X33050000Y70000000D03*
X30050000Y70000000D03*
X27050000Y70000000D03*
X24050000Y70000000D03*
X21050000Y70000000D03*
X43550000Y72500000D03*
X40550000Y72500000D03*
X37550000Y72500000D03*
X34550000Y72500000D03*
X31550000Y72500000D03*
X28550000Y72500000D03*
X25550000Y72500000D03*
X22550000Y72500000D03*
X19550000Y72500000D03*
G04 #@! TD*
D13*
G04 #@! TO.C,M2*
X18474995Y28324999D03*
X18474995Y21925002D03*
X18474995Y20024999D03*
X18474995Y15724999D03*
D14*
X18924994Y13325002D03*
X18924994Y12325001D03*
D13*
X18474995Y9474999D03*
X2974998Y28775001D03*
X2974998Y26925002D03*
X2974998Y21974999D03*
X2974998Y9925001D03*
G04 #@! TD*
D15*
G04 #@! TO.C,F1*
X10200000Y68950000D03*
X10200000Y64050000D03*
G04 #@! TD*
D16*
G04 #@! TO.C,JP7*
X23900000Y77600000D03*
X22600000Y77600000D03*
X21300000Y77600000D03*
G04 #@! TD*
D13*
G04 #@! TO.C,BT1*
X16000000Y43500000D03*
X8500142Y43500000D03*
D17*
X20100094Y43500000D03*
D18*
X4100075Y43500000D03*
G04 #@! TD*
D16*
G04 #@! TO.C,JP6*
X23900000Y80530000D03*
X22600000Y80530000D03*
X21300000Y80530000D03*
G04 #@! TD*
G04 #@! TO.C,JP15*
X47500000Y77500000D03*
X46200000Y77500000D03*
X44900000Y77500000D03*
G04 #@! TD*
G04 #@! TO.C,JP10*
X59000000Y73730000D03*
X57700000Y73730000D03*
X56400000Y73730000D03*
G04 #@! TD*
G04 #@! TO.C,JP2*
X35850000Y80357500D03*
X34550000Y80357500D03*
X33250000Y80357500D03*
G04 #@! TD*
G04 #@! TO.C,JP11*
X59000000Y70800000D03*
X57700000Y70800000D03*
X56400000Y70800000D03*
G04 #@! TD*
G04 #@! TO.C,JP3*
X35900000Y77400000D03*
X34600000Y77400000D03*
X33300000Y77400000D03*
G04 #@! TD*
D19*
G04 #@! TO.C,TP10*
X57000000Y67400000D03*
G04 #@! TD*
D16*
G04 #@! TO.C,JP8*
X18250000Y80600000D03*
X16950000Y80600000D03*
X15650000Y80600000D03*
G04 #@! TD*
G04 #@! TO.C,JP9*
X18250000Y77657500D03*
X16950000Y77657500D03*
X15650000Y77657500D03*
G04 #@! TD*
G04 #@! TO.C,JP16*
X41800000Y80442500D03*
X40500000Y80442500D03*
X39200000Y80442500D03*
G04 #@! TD*
G04 #@! TO.C,JP17*
X41800000Y77500000D03*
X40500000Y77500000D03*
X39200000Y77500000D03*
G04 #@! TD*
G04 #@! TO.C,JP5*
X29900000Y77500000D03*
X28600000Y77500000D03*
X27300000Y77500000D03*
G04 #@! TD*
G04 #@! TO.C,JP14*
X47500000Y80472500D03*
X46200000Y80472500D03*
X44900000Y80472500D03*
G04 #@! TD*
G04 #@! TO.C,JP4*
X29900000Y80442500D03*
X28600000Y80442500D03*
X27300000Y80442500D03*
G04 #@! TD*
G04 #@! TO.C,JP13*
X58900000Y77700000D03*
X57600000Y77700000D03*
X56300000Y77700000D03*
G04 #@! TD*
G04 #@! TO.C,JP12*
X58900000Y80600000D03*
X57600000Y80600000D03*
X56300000Y80600000D03*
G04 #@! TD*
D19*
G04 #@! TO.C,TP9*
X56900000Y62500000D03*
G04 #@! TD*
M02*
