M48
; DRILL file {KiCad 8.0.2-8.0.2-0~ubuntu22.04.1} date 2024-05-24T23:59:45+0000
; FORMAT={2:4/ absolute / inch / suppress leading zeros}
; #@! TF.CreationDate,2024-05-24T23:59:45+00:00
; #@! TF.GenerationSoftware,Kicad,Pcbnew,8.0.2-8.0.2-0~ubuntu22.04.1
; #@! TF.FileFunction,MixedPlating,1,4
FMAT,2
INCH,TZ
; #@! TA.AperFunction,Plated,PTH,ComponentDrill
T1C0.0118
; #@! TA.AperFunction,Plated,PTH,ViaDrill
T2C0.0157
; #@! TA.AperFunction,Plated,PTH,ComponentDrill
T3C0.0295
; #@! TA.AperFunction,Plated,PTH,ComponentDrill
T4C0.0320
; #@! TA.AperFunction,Plated,PTH,ComponentDrill
T5C0.0394
; #@! TA.AperFunction,Plated,PTH,ComponentDrill
T6C0.0512
; #@! TA.AperFunction,NonPlated,NPTH,ComponentDrill
T7C0.0591
; #@! TA.AperFunction,NonPlated,NPTH,ComponentDrill
T8C0.1299
%
G90
G05
T1
X7451Y5246
X7451Y4852
X10463Y12943
X10463Y12628
X10463Y12313
X10463Y11998
X10463Y11683
X10463Y11368
X10463Y11053
X10463Y10738
X10463Y10423
X10463Y10108
X10463Y9793
X10463Y9478
X10463Y9163
X10463Y8848
X10463Y8219
X10463Y7667
X10463Y7352
X10463Y7037
X10463Y6722
X10463Y6407
X10463Y6093
X10463Y14636
X10463Y8533
X10620Y3258
X10935Y3258
X11250Y3258
X11565Y3258
X11880Y3258
X12195Y3258
X12510Y3258
X12825Y3258
X13061Y17195
X13140Y3258
X13455Y3258
X13533Y17195
X13770Y3258
X14006Y17195
X14085Y3258
X14478Y17195
X14951Y17195
X15030Y3258
X15344Y3258
X15423Y17195
X15659Y3258
X15896Y17195
X15974Y3258
X16289Y3258
X16368Y17195
X16604Y3258
X16841Y17195
X16919Y3258
X17234Y3258
X17313Y17195
X17549Y3258
X17785Y17195
X18258Y17195
X18730Y17195
X19203Y17195
X19242Y3258
X19675Y17195
X20148Y17195
X20305Y3258
X20620Y17195
X20699Y3258
X21093Y17195
X21565Y17195
X22037Y17195
X22510Y17195
X23455Y17195
X23612Y16211
X23612Y15817
X23612Y11604
X23612Y11211
X23612Y10817
X23612Y10423
X23612Y10030
X23612Y9636
X23612Y9242
X23612Y8848
X23612Y7825
X23612Y7510
X23612Y5659
X23612Y5108
X23612Y3258
T2
X551Y7913
X551Y7283
X551Y5079
X551Y4488
X2205Y3110
X2402Y23110
X2913Y31496
X3780Y23031
X4488Y27953
X4685Y23071
X4882Y12126
X4961Y18228
X4961Y2520
X5236Y28937
X5394Y32126
X5551Y29724
X6063Y23071
X6063Y12008
X6102Y13465
X6142Y32441
X6614Y27520
X6614Y26929
X6693Y31732
X6693Y30591
X6693Y3110
X6772Y25866
X6890Y18346
X6969Y23031
X7087Y27520
X7087Y26929
X7283Y29409
X7362Y12598
X7559Y27520
X7559Y26929
X7756Y30906
X7795Y31732
X7874Y9016
X7874Y5669
X8189Y6969
X8307Y23031
X8386Y32441
X8543Y5591
X8622Y7717
X8858Y18150
X8898Y31732
X8898Y30551
X9094Y2992
X9213Y23031
X9685Y18228
X9961Y5669
X10000Y4094
X10039Y31614
X10039Y30591
X10039Y7992
X10157Y13976
X10591Y23031
X10748Y32441
X11260Y31693
X11260Y30512
X11299Y18268
X11496Y23031
X12165Y22992
X12165Y22323
X12441Y31614
X12992Y17953
X13071Y32362
X13622Y31654
X13622Y30472
X13622Y18386
X13661Y20984
X14606Y2795
X14685Y22717
X14764Y31732
X14764Y20787
X15433Y32402
X15945Y31654
X15945Y30472
X15984Y20551
X16732Y20945
X17047Y31772
X17480Y27756
X17677Y32441
X17874Y2756
X18189Y31693
X18189Y30827
X18543Y18425
X18740Y20354
X19409Y26339
X19449Y31929
X20079Y25551
X20748Y26024
X21063Y30591
X21299Y17756
X21575Y31732
X21575Y29331
X22598Y23976
X22677Y31732
X22677Y30591
X22717Y29055
X22717Y27874
X23189Y20157
X23346Y29764
X23386Y26772
X23740Y18386
X23819Y29764
X24016Y13740
X24213Y5394
T3
X2520Y13307
X3307Y13307
X4094Y13307
X4882Y13307
T4
X4016Y27146
X4016Y25217
T5
X1171Y11329
X1171Y10600
X1171Y8652
X1171Y3907
X7274Y11152
X7274Y8632
X7274Y7884
X7274Y6191
X7274Y3730
T6
X7697Y28543
X7697Y25394
X8287Y27559
X8287Y26378
X8878Y28543
X8878Y25394
X9469Y27559
X9469Y26378
X10059Y28543
X10059Y25394
X10650Y27559
X10650Y26378
X11240Y28543
X11240Y25394
X11831Y27559
X11831Y26378
X12421Y28543
X12421Y25394
X13012Y27559
X13012Y26378
X13602Y28543
X13602Y25394
X14193Y27559
X14193Y26378
X14783Y28543
X14783Y25394
X15374Y27559
X15374Y26378
X15965Y28543
X15965Y25394
X16555Y27559
X16555Y26378
X17146Y28543
X17146Y25394
T7
X3347Y17126
X6299Y17126
T8
X4843Y31102
X20000Y31102
M30
