G04 #@! TF.GenerationSoftware,KiCad,Pcbnew,8.0.4-8.0.4-0~ubuntu22.04.1*
G04 #@! TF.CreationDate,2024-07-19T03:37:34+00:00*
G04 #@! TF.ProjectId,PRODashController,50524f44-6173-4684-936f-6e74726f6c6c,rev?*
G04 #@! TF.SameCoordinates,Original*
G04 #@! TF.FileFunction,Legend,Top*
G04 #@! TF.FilePolarity,Positive*
%FSLAX46Y46*%
G04 Gerber Fmt 4.6, Leading zero omitted, Abs format (unit mm)*
G04 Created by KiCad (PCBNEW 8.0.4-8.0.4-0~ubuntu22.04.1) date 2024-07-19 03:37:34*
%MOMM*%
%LPD*%
G01*
G04 APERTURE LIST*
%ADD10C,0.250000*%
%ADD11C,0.120000*%
%ADD12C,0.170000*%
%ADD13C,0.200000*%
%ADD14C,0.127000*%
%ADD15C,0.400000*%
%ADD16C,0.203200*%
%ADD17C,0.000000*%
%ADD18C,0.150000*%
G04 APERTURE END LIST*
D10*
X45954949Y45083000D02*
X46097806Y45035381D01*
X46097806Y45035381D02*
X46335901Y45035381D01*
X46335901Y45035381D02*
X46431139Y45083000D01*
X46431139Y45083000D02*
X46478758Y45130620D01*
X46478758Y45130620D02*
X46526377Y45225858D01*
X46526377Y45225858D02*
X46526377Y45321096D01*
X46526377Y45321096D02*
X46478758Y45416334D01*
X46478758Y45416334D02*
X46431139Y45463953D01*
X46431139Y45463953D02*
X46335901Y45511572D01*
X46335901Y45511572D02*
X46145425Y45559191D01*
X46145425Y45559191D02*
X46050187Y45606810D01*
X46050187Y45606810D02*
X46002568Y45654429D01*
X46002568Y45654429D02*
X45954949Y45749667D01*
X45954949Y45749667D02*
X45954949Y45844905D01*
X45954949Y45844905D02*
X46002568Y45940143D01*
X46002568Y45940143D02*
X46050187Y45987762D01*
X46050187Y45987762D02*
X46145425Y46035381D01*
X46145425Y46035381D02*
X46383520Y46035381D01*
X46383520Y46035381D02*
X46526377Y45987762D01*
X46859711Y46035381D02*
X47097806Y45035381D01*
X47097806Y45035381D02*
X47288282Y45749667D01*
X47288282Y45749667D02*
X47478758Y45035381D01*
X47478758Y45035381D02*
X47716854Y46035381D01*
X23478758Y16135381D02*
X23002568Y16135381D01*
X23002568Y16135381D02*
X22954949Y15659191D01*
X22954949Y15659191D02*
X23002568Y15706810D01*
X23002568Y15706810D02*
X23097806Y15754429D01*
X23097806Y15754429D02*
X23335901Y15754429D01*
X23335901Y15754429D02*
X23431139Y15706810D01*
X23431139Y15706810D02*
X23478758Y15659191D01*
X23478758Y15659191D02*
X23526377Y15563953D01*
X23526377Y15563953D02*
X23526377Y15325858D01*
X23526377Y15325858D02*
X23478758Y15230620D01*
X23478758Y15230620D02*
X23431139Y15183000D01*
X23431139Y15183000D02*
X23335901Y15135381D01*
X23335901Y15135381D02*
X23097806Y15135381D01*
X23097806Y15135381D02*
X23002568Y15183000D01*
X23002568Y15183000D02*
X22954949Y15230620D01*
X23812092Y16135381D02*
X24145425Y15135381D01*
X24145425Y15135381D02*
X24478758Y16135381D01*
X49507330Y7035381D02*
X50126377Y7035381D01*
X50126377Y7035381D02*
X49793044Y6654429D01*
X49793044Y6654429D02*
X49935901Y6654429D01*
X49935901Y6654429D02*
X50031139Y6606810D01*
X50031139Y6606810D02*
X50078758Y6559191D01*
X50078758Y6559191D02*
X50126377Y6463953D01*
X50126377Y6463953D02*
X50126377Y6225858D01*
X50126377Y6225858D02*
X50078758Y6130620D01*
X50078758Y6130620D02*
X50031139Y6083000D01*
X50031139Y6083000D02*
X49935901Y6035381D01*
X49935901Y6035381D02*
X49650187Y6035381D01*
X49650187Y6035381D02*
X49554949Y6083000D01*
X49554949Y6083000D02*
X49507330Y6130620D01*
X50412092Y7035381D02*
X50745425Y6035381D01*
X50745425Y6035381D02*
X51078758Y7035381D01*
X51316854Y7035381D02*
X51935901Y7035381D01*
X51935901Y7035381D02*
X51602568Y6654429D01*
X51602568Y6654429D02*
X51745425Y6654429D01*
X51745425Y6654429D02*
X51840663Y6606810D01*
X51840663Y6606810D02*
X51888282Y6559191D01*
X51888282Y6559191D02*
X51935901Y6463953D01*
X51935901Y6463953D02*
X51935901Y6225858D01*
X51935901Y6225858D02*
X51888282Y6130620D01*
X51888282Y6130620D02*
X51840663Y6083000D01*
X51840663Y6083000D02*
X51745425Y6035381D01*
X51745425Y6035381D02*
X51459711Y6035381D01*
X51459711Y6035381D02*
X51364473Y6083000D01*
X51364473Y6083000D02*
X51316854Y6130620D01*
X55426377Y46387762D02*
X55331139Y46435381D01*
X55331139Y46435381D02*
X55188282Y46435381D01*
X55188282Y46435381D02*
X55045425Y46387762D01*
X55045425Y46387762D02*
X54950187Y46292524D01*
X54950187Y46292524D02*
X54902568Y46197286D01*
X54902568Y46197286D02*
X54854949Y46006810D01*
X54854949Y46006810D02*
X54854949Y45863953D01*
X54854949Y45863953D02*
X54902568Y45673477D01*
X54902568Y45673477D02*
X54950187Y45578239D01*
X54950187Y45578239D02*
X55045425Y45483000D01*
X55045425Y45483000D02*
X55188282Y45435381D01*
X55188282Y45435381D02*
X55283520Y45435381D01*
X55283520Y45435381D02*
X55426377Y45483000D01*
X55426377Y45483000D02*
X55473996Y45530620D01*
X55473996Y45530620D02*
X55473996Y45863953D01*
X55473996Y45863953D02*
X55283520Y45863953D01*
X55902568Y45435381D02*
X55902568Y46435381D01*
X55902568Y46435381D02*
X56473996Y45435381D01*
X56473996Y45435381D02*
X56473996Y46435381D01*
X56950187Y45435381D02*
X56950187Y46435381D01*
X56950187Y46435381D02*
X57188282Y46435381D01*
X57188282Y46435381D02*
X57331139Y46387762D01*
X57331139Y46387762D02*
X57426377Y46292524D01*
X57426377Y46292524D02*
X57473996Y46197286D01*
X57473996Y46197286D02*
X57521615Y46006810D01*
X57521615Y46006810D02*
X57521615Y45863953D01*
X57521615Y45863953D02*
X57473996Y45673477D01*
X57473996Y45673477D02*
X57426377Y45578239D01*
X57426377Y45578239D02*
X57331139Y45483000D01*
X57331139Y45483000D02*
X57188282Y45435381D01*
X57188282Y45435381D02*
X56950187Y45435381D01*
X57902568Y45721096D02*
X58378758Y45721096D01*
X57807330Y45435381D02*
X58140663Y46435381D01*
X58140663Y46435381D02*
X58473996Y45435381D01*
X3426377Y64887762D02*
X3331139Y64935381D01*
X3331139Y64935381D02*
X3188282Y64935381D01*
X3188282Y64935381D02*
X3045425Y64887762D01*
X3045425Y64887762D02*
X2950187Y64792524D01*
X2950187Y64792524D02*
X2902568Y64697286D01*
X2902568Y64697286D02*
X2854949Y64506810D01*
X2854949Y64506810D02*
X2854949Y64363953D01*
X2854949Y64363953D02*
X2902568Y64173477D01*
X2902568Y64173477D02*
X2950187Y64078239D01*
X2950187Y64078239D02*
X3045425Y63983000D01*
X3045425Y63983000D02*
X3188282Y63935381D01*
X3188282Y63935381D02*
X3283520Y63935381D01*
X3283520Y63935381D02*
X3426377Y63983000D01*
X3426377Y63983000D02*
X3473996Y64030620D01*
X3473996Y64030620D02*
X3473996Y64363953D01*
X3473996Y64363953D02*
X3283520Y64363953D01*
X3902568Y63935381D02*
X3902568Y64935381D01*
X3902568Y64935381D02*
X4473996Y63935381D01*
X4473996Y63935381D02*
X4473996Y64935381D01*
X4950187Y63935381D02*
X4950187Y64935381D01*
X4950187Y64935381D02*
X5188282Y64935381D01*
X5188282Y64935381D02*
X5331139Y64887762D01*
X5331139Y64887762D02*
X5426377Y64792524D01*
X5426377Y64792524D02*
X5473996Y64697286D01*
X5473996Y64697286D02*
X5521615Y64506810D01*
X5521615Y64506810D02*
X5521615Y64363953D01*
X5521615Y64363953D02*
X5473996Y64173477D01*
X5473996Y64173477D02*
X5426377Y64078239D01*
X5426377Y64078239D02*
X5331139Y63983000D01*
X5331139Y63983000D02*
X5188282Y63935381D01*
X5188282Y63935381D02*
X4950187Y63935381D01*
X62064619Y60702569D02*
X61064619Y60702569D01*
X61064619Y60702569D02*
X61064619Y61083521D01*
X61064619Y61083521D02*
X61112238Y61178759D01*
X61112238Y61178759D02*
X61159857Y61226378D01*
X61159857Y61226378D02*
X61255095Y61273997D01*
X61255095Y61273997D02*
X61397952Y61273997D01*
X61397952Y61273997D02*
X61493190Y61226378D01*
X61493190Y61226378D02*
X61540809Y61178759D01*
X61540809Y61178759D02*
X61588428Y61083521D01*
X61588428Y61083521D02*
X61588428Y60702569D01*
X62064619Y61702569D02*
X61397952Y61702569D01*
X61588428Y61702569D02*
X61493190Y61750188D01*
X61493190Y61750188D02*
X61445571Y61797807D01*
X61445571Y61797807D02*
X61397952Y61893045D01*
X61397952Y61893045D02*
X61397952Y61988283D01*
X62064619Y62464474D02*
X62017000Y62369236D01*
X62017000Y62369236D02*
X61969380Y62321617D01*
X61969380Y62321617D02*
X61874142Y62273998D01*
X61874142Y62273998D02*
X61588428Y62273998D01*
X61588428Y62273998D02*
X61493190Y62321617D01*
X61493190Y62321617D02*
X61445571Y62369236D01*
X61445571Y62369236D02*
X61397952Y62464474D01*
X61397952Y62464474D02*
X61397952Y62607331D01*
X61397952Y62607331D02*
X61445571Y62702569D01*
X61445571Y62702569D02*
X61493190Y62750188D01*
X61493190Y62750188D02*
X61588428Y62797807D01*
X61588428Y62797807D02*
X61874142Y62797807D01*
X61874142Y62797807D02*
X61969380Y62750188D01*
X61969380Y62750188D02*
X62017000Y62702569D01*
X62017000Y62702569D02*
X62064619Y62607331D01*
X62064619Y62607331D02*
X62064619Y62464474D01*
X62064619Y63226379D02*
X61064619Y63226379D01*
X61064619Y63226379D02*
X61064619Y63464474D01*
X61064619Y63464474D02*
X61112238Y63607331D01*
X61112238Y63607331D02*
X61207476Y63702569D01*
X61207476Y63702569D02*
X61302714Y63750188D01*
X61302714Y63750188D02*
X61493190Y63797807D01*
X61493190Y63797807D02*
X61636047Y63797807D01*
X61636047Y63797807D02*
X61826523Y63750188D01*
X61826523Y63750188D02*
X61921761Y63702569D01*
X61921761Y63702569D02*
X62017000Y63607331D01*
X62017000Y63607331D02*
X62064619Y63464474D01*
X62064619Y63464474D02*
X62064619Y63226379D01*
X62064619Y64654950D02*
X61540809Y64654950D01*
X61540809Y64654950D02*
X61445571Y64607331D01*
X61445571Y64607331D02*
X61397952Y64512093D01*
X61397952Y64512093D02*
X61397952Y64321617D01*
X61397952Y64321617D02*
X61445571Y64226379D01*
X62017000Y64654950D02*
X62064619Y64559712D01*
X62064619Y64559712D02*
X62064619Y64321617D01*
X62064619Y64321617D02*
X62017000Y64226379D01*
X62017000Y64226379D02*
X61921761Y64178760D01*
X61921761Y64178760D02*
X61826523Y64178760D01*
X61826523Y64178760D02*
X61731285Y64226379D01*
X61731285Y64226379D02*
X61683666Y64321617D01*
X61683666Y64321617D02*
X61683666Y64559712D01*
X61683666Y64559712D02*
X61636047Y64654950D01*
X62017000Y65083522D02*
X62064619Y65178760D01*
X62064619Y65178760D02*
X62064619Y65369236D01*
X62064619Y65369236D02*
X62017000Y65464474D01*
X62017000Y65464474D02*
X61921761Y65512093D01*
X61921761Y65512093D02*
X61874142Y65512093D01*
X61874142Y65512093D02*
X61778904Y65464474D01*
X61778904Y65464474D02*
X61731285Y65369236D01*
X61731285Y65369236D02*
X61731285Y65226379D01*
X61731285Y65226379D02*
X61683666Y65131141D01*
X61683666Y65131141D02*
X61588428Y65083522D01*
X61588428Y65083522D02*
X61540809Y65083522D01*
X61540809Y65083522D02*
X61445571Y65131141D01*
X61445571Y65131141D02*
X61397952Y65226379D01*
X61397952Y65226379D02*
X61397952Y65369236D01*
X61397952Y65369236D02*
X61445571Y65464474D01*
X62064619Y65940665D02*
X61064619Y65940665D01*
X62064619Y66369236D02*
X61540809Y66369236D01*
X61540809Y66369236D02*
X61445571Y66321617D01*
X61445571Y66321617D02*
X61397952Y66226379D01*
X61397952Y66226379D02*
X61397952Y66083522D01*
X61397952Y66083522D02*
X61445571Y65988284D01*
X61445571Y65988284D02*
X61493190Y65940665D01*
X61969380Y67416855D02*
X62017000Y67369236D01*
X62017000Y67369236D02*
X62064619Y67226379D01*
X62064619Y67226379D02*
X62064619Y67131141D01*
X62064619Y67131141D02*
X62017000Y66988284D01*
X62017000Y66988284D02*
X61921761Y66893046D01*
X61921761Y66893046D02*
X61826523Y66845427D01*
X61826523Y66845427D02*
X61636047Y66797808D01*
X61636047Y66797808D02*
X61493190Y66797808D01*
X61493190Y66797808D02*
X61302714Y66845427D01*
X61302714Y66845427D02*
X61207476Y66893046D01*
X61207476Y66893046D02*
X61112238Y66988284D01*
X61112238Y66988284D02*
X61064619Y67131141D01*
X61064619Y67131141D02*
X61064619Y67226379D01*
X61064619Y67226379D02*
X61112238Y67369236D01*
X61112238Y67369236D02*
X61159857Y67416855D01*
X62064619Y67988284D02*
X62017000Y67893046D01*
X62017000Y67893046D02*
X61969380Y67845427D01*
X61969380Y67845427D02*
X61874142Y67797808D01*
X61874142Y67797808D02*
X61588428Y67797808D01*
X61588428Y67797808D02*
X61493190Y67845427D01*
X61493190Y67845427D02*
X61445571Y67893046D01*
X61445571Y67893046D02*
X61397952Y67988284D01*
X61397952Y67988284D02*
X61397952Y68131141D01*
X61397952Y68131141D02*
X61445571Y68226379D01*
X61445571Y68226379D02*
X61493190Y68273998D01*
X61493190Y68273998D02*
X61588428Y68321617D01*
X61588428Y68321617D02*
X61874142Y68321617D01*
X61874142Y68321617D02*
X61969380Y68273998D01*
X61969380Y68273998D02*
X62017000Y68226379D01*
X62017000Y68226379D02*
X62064619Y68131141D01*
X62064619Y68131141D02*
X62064619Y67988284D01*
X61397952Y68750189D02*
X62064619Y68750189D01*
X61493190Y68750189D02*
X61445571Y68797808D01*
X61445571Y68797808D02*
X61397952Y68893046D01*
X61397952Y68893046D02*
X61397952Y69035903D01*
X61397952Y69035903D02*
X61445571Y69131141D01*
X61445571Y69131141D02*
X61540809Y69178760D01*
X61540809Y69178760D02*
X62064619Y69178760D01*
X61397952Y69512094D02*
X61397952Y69893046D01*
X61064619Y69654951D02*
X61921761Y69654951D01*
X61921761Y69654951D02*
X62017000Y69702570D01*
X62017000Y69702570D02*
X62064619Y69797808D01*
X62064619Y69797808D02*
X62064619Y69893046D01*
X62064619Y70226380D02*
X61397952Y70226380D01*
X61588428Y70226380D02*
X61493190Y70273999D01*
X61493190Y70273999D02*
X61445571Y70321618D01*
X61445571Y70321618D02*
X61397952Y70416856D01*
X61397952Y70416856D02*
X61397952Y70512094D01*
X62064619Y70988285D02*
X62017000Y70893047D01*
X62017000Y70893047D02*
X61969380Y70845428D01*
X61969380Y70845428D02*
X61874142Y70797809D01*
X61874142Y70797809D02*
X61588428Y70797809D01*
X61588428Y70797809D02*
X61493190Y70845428D01*
X61493190Y70845428D02*
X61445571Y70893047D01*
X61445571Y70893047D02*
X61397952Y70988285D01*
X61397952Y70988285D02*
X61397952Y71131142D01*
X61397952Y71131142D02*
X61445571Y71226380D01*
X61445571Y71226380D02*
X61493190Y71273999D01*
X61493190Y71273999D02*
X61588428Y71321618D01*
X61588428Y71321618D02*
X61874142Y71321618D01*
X61874142Y71321618D02*
X61969380Y71273999D01*
X61969380Y71273999D02*
X62017000Y71226380D01*
X62017000Y71226380D02*
X62064619Y71131142D01*
X62064619Y71131142D02*
X62064619Y70988285D01*
X62064619Y71893047D02*
X62017000Y71797809D01*
X62017000Y71797809D02*
X61921761Y71750190D01*
X61921761Y71750190D02*
X61064619Y71750190D01*
X62064619Y72416857D02*
X62017000Y72321619D01*
X62017000Y72321619D02*
X61921761Y72274000D01*
X61921761Y72274000D02*
X61064619Y72274000D01*
X62017000Y73178762D02*
X62064619Y73083524D01*
X62064619Y73083524D02*
X62064619Y72893048D01*
X62064619Y72893048D02*
X62017000Y72797810D01*
X62017000Y72797810D02*
X61921761Y72750191D01*
X61921761Y72750191D02*
X61540809Y72750191D01*
X61540809Y72750191D02*
X61445571Y72797810D01*
X61445571Y72797810D02*
X61397952Y72893048D01*
X61397952Y72893048D02*
X61397952Y73083524D01*
X61397952Y73083524D02*
X61445571Y73178762D01*
X61445571Y73178762D02*
X61540809Y73226381D01*
X61540809Y73226381D02*
X61636047Y73226381D01*
X61636047Y73226381D02*
X61731285Y72750191D01*
X62064619Y73654953D02*
X61397952Y73654953D01*
X61588428Y73654953D02*
X61493190Y73702572D01*
X61493190Y73702572D02*
X61445571Y73750191D01*
X61445571Y73750191D02*
X61397952Y73845429D01*
X61397952Y73845429D02*
X61397952Y73940667D01*
X62064619Y75607334D02*
X61588428Y75274001D01*
X62064619Y75035906D02*
X61064619Y75035906D01*
X61064619Y75035906D02*
X61064619Y75416858D01*
X61064619Y75416858D02*
X61112238Y75512096D01*
X61112238Y75512096D02*
X61159857Y75559715D01*
X61159857Y75559715D02*
X61255095Y75607334D01*
X61255095Y75607334D02*
X61397952Y75607334D01*
X61397952Y75607334D02*
X61493190Y75559715D01*
X61493190Y75559715D02*
X61540809Y75512096D01*
X61540809Y75512096D02*
X61588428Y75416858D01*
X61588428Y75416858D02*
X61588428Y75035906D01*
X61540809Y76035906D02*
X61540809Y76369239D01*
X62064619Y76512096D02*
X62064619Y76035906D01*
X62064619Y76035906D02*
X61064619Y76035906D01*
X61064619Y76035906D02*
X61064619Y76512096D01*
X61064619Y76797811D02*
X62064619Y77131144D01*
X62064619Y77131144D02*
X61064619Y77464477D01*
X61969380Y77797811D02*
X62017000Y77845430D01*
X62017000Y77845430D02*
X62064619Y77797811D01*
X62064619Y77797811D02*
X62017000Y77750192D01*
X62017000Y77750192D02*
X61969380Y77797811D01*
X61969380Y77797811D02*
X62064619Y77797811D01*
X61778904Y78226382D02*
X61778904Y78702572D01*
X62064619Y78131144D02*
X61064619Y78464477D01*
X61064619Y78464477D02*
X62064619Y78797810D01*
X4659711Y39935381D02*
X4993044Y38935381D01*
X4993044Y38935381D02*
X5326377Y39935381D01*
X5993044Y39459191D02*
X6135901Y39411572D01*
X6135901Y39411572D02*
X6183520Y39363953D01*
X6183520Y39363953D02*
X6231139Y39268715D01*
X6231139Y39268715D02*
X6231139Y39125858D01*
X6231139Y39125858D02*
X6183520Y39030620D01*
X6183520Y39030620D02*
X6135901Y38983000D01*
X6135901Y38983000D02*
X6040663Y38935381D01*
X6040663Y38935381D02*
X5659711Y38935381D01*
X5659711Y38935381D02*
X5659711Y39935381D01*
X5659711Y39935381D02*
X5993044Y39935381D01*
X5993044Y39935381D02*
X6088282Y39887762D01*
X6088282Y39887762D02*
X6135901Y39840143D01*
X6135901Y39840143D02*
X6183520Y39744905D01*
X6183520Y39744905D02*
X6183520Y39649667D01*
X6183520Y39649667D02*
X6135901Y39554429D01*
X6135901Y39554429D02*
X6088282Y39506810D01*
X6088282Y39506810D02*
X5993044Y39459191D01*
X5993044Y39459191D02*
X5659711Y39459191D01*
X6659711Y39935381D02*
X6659711Y39125858D01*
X6659711Y39125858D02*
X6707330Y39030620D01*
X6707330Y39030620D02*
X6754949Y38983000D01*
X6754949Y38983000D02*
X6850187Y38935381D01*
X6850187Y38935381D02*
X7040663Y38935381D01*
X7040663Y38935381D02*
X7135901Y38983000D01*
X7135901Y38983000D02*
X7183520Y39030620D01*
X7183520Y39030620D02*
X7231139Y39125858D01*
X7231139Y39125858D02*
X7231139Y39935381D01*
X7659711Y38983000D02*
X7802568Y38935381D01*
X7802568Y38935381D02*
X8040663Y38935381D01*
X8040663Y38935381D02*
X8135901Y38983000D01*
X8135901Y38983000D02*
X8183520Y39030620D01*
X8183520Y39030620D02*
X8231139Y39125858D01*
X8231139Y39125858D02*
X8231139Y39221096D01*
X8231139Y39221096D02*
X8183520Y39316334D01*
X8183520Y39316334D02*
X8135901Y39363953D01*
X8135901Y39363953D02*
X8040663Y39411572D01*
X8040663Y39411572D02*
X7850187Y39459191D01*
X7850187Y39459191D02*
X7754949Y39506810D01*
X7754949Y39506810D02*
X7707330Y39554429D01*
X7707330Y39554429D02*
X7659711Y39649667D01*
X7659711Y39649667D02*
X7659711Y39744905D01*
X7659711Y39744905D02*
X7707330Y39840143D01*
X7707330Y39840143D02*
X7754949Y39887762D01*
X7754949Y39887762D02*
X7850187Y39935381D01*
X7850187Y39935381D02*
X8088282Y39935381D01*
X8088282Y39935381D02*
X8231139Y39887762D01*
X8178758Y7535381D02*
X7702568Y7535381D01*
X7702568Y7535381D02*
X7654949Y7059191D01*
X7654949Y7059191D02*
X7702568Y7106810D01*
X7702568Y7106810D02*
X7797806Y7154429D01*
X7797806Y7154429D02*
X8035901Y7154429D01*
X8035901Y7154429D02*
X8131139Y7106810D01*
X8131139Y7106810D02*
X8178758Y7059191D01*
X8178758Y7059191D02*
X8226377Y6963953D01*
X8226377Y6963953D02*
X8226377Y6725858D01*
X8226377Y6725858D02*
X8178758Y6630620D01*
X8178758Y6630620D02*
X8131139Y6583000D01*
X8131139Y6583000D02*
X8035901Y6535381D01*
X8035901Y6535381D02*
X7797806Y6535381D01*
X7797806Y6535381D02*
X7702568Y6583000D01*
X7702568Y6583000D02*
X7654949Y6630620D01*
X8654949Y6535381D02*
X8654949Y7535381D01*
X8654949Y7535381D02*
X9035901Y7535381D01*
X9035901Y7535381D02*
X9131139Y7487762D01*
X9131139Y7487762D02*
X9178758Y7440143D01*
X9178758Y7440143D02*
X9226377Y7344905D01*
X9226377Y7344905D02*
X9226377Y7202048D01*
X9226377Y7202048D02*
X9178758Y7106810D01*
X9178758Y7106810D02*
X9131139Y7059191D01*
X9131139Y7059191D02*
X9035901Y7011572D01*
X9035901Y7011572D02*
X8654949Y7011572D01*
X9512092Y7535381D02*
X9845425Y6535381D01*
X9845425Y6535381D02*
X10178758Y7535381D01*
D11*
G04 #@! TO.C,D7*
X28200000Y60600000D02*
X28200000Y56700000D01*
D12*
X28850000Y58700000D02*
X29550000Y58700000D01*
X28850000Y58000000D02*
X29550000Y58000000D01*
X29200000Y58900000D02*
X29200000Y58700000D01*
X29200000Y58700000D02*
X28850000Y58000000D01*
X29200000Y58700000D02*
X29550000Y58000000D01*
X29200000Y58000000D02*
X29200000Y57700000D01*
D11*
X30200000Y60600000D02*
X28200000Y60600000D01*
X30200000Y60600000D02*
X30200000Y56700000D01*
G04 #@! TO.C,U4*
X28405000Y52225000D02*
X28405000Y54175000D01*
X28405000Y52225000D02*
X28405000Y50275000D01*
X33525000Y52225000D02*
X33525000Y54175000D01*
X33525000Y52225000D02*
X33525000Y50275000D01*
X28500000Y49525000D02*
X28170000Y49285000D01*
X28170000Y49765000D01*
X28500000Y49525000D01*
G36*
X28500000Y49525000D02*
G01*
X28170000Y49285000D01*
X28170000Y49765000D01*
X28500000Y49525000D01*
G37*
G04 #@! TO.C,J2*
X4340000Y36710000D02*
X4340000Y31990000D01*
X4340000Y34600000D02*
X4950000Y34600000D01*
X4340000Y33300000D02*
X4950000Y33300000D01*
X4340000Y31990000D02*
X14460000Y31990000D01*
X4950000Y36100000D02*
X4950000Y32600000D01*
X4950000Y32600000D02*
X6900000Y32600000D01*
X6900000Y32600000D02*
X6900000Y31990000D01*
X7300000Y35600000D02*
X7300000Y36100000D01*
X7400000Y36100000D02*
X7400000Y35600000D01*
X7500000Y36100000D02*
X7500000Y35600000D01*
X7500000Y35600000D02*
X7300000Y35600000D01*
X9300000Y35600000D02*
X9300000Y36100000D01*
X9400000Y36100000D02*
X9400000Y35600000D01*
X9500000Y36100000D02*
X9500000Y35600000D01*
X9500000Y35600000D02*
X9300000Y35600000D01*
X11300000Y35600000D02*
X11300000Y36100000D01*
X11400000Y36100000D02*
X11400000Y35600000D01*
X11500000Y36100000D02*
X11500000Y35600000D01*
X11500000Y35600000D02*
X11300000Y35600000D01*
X11900000Y32600000D02*
X13850000Y32600000D01*
X11900000Y31990000D02*
X11900000Y32600000D01*
X12700000Y31990000D02*
X12700000Y31790000D01*
X12700000Y31890000D02*
X13000000Y31890000D01*
X12700000Y31790000D02*
X13000000Y31790000D01*
X13000000Y31790000D02*
X13000000Y31990000D01*
X13510000Y31690000D02*
X14760000Y31690000D01*
X13850000Y36100000D02*
X4950000Y36100000D01*
X13850000Y32600000D02*
X13850000Y36100000D01*
X14460000Y36710000D02*
X4340000Y36710000D01*
X14460000Y34600000D02*
X13850000Y34600000D01*
X14460000Y33300000D02*
X13850000Y33300000D01*
X14460000Y31990000D02*
X14460000Y36710000D01*
X14760000Y31690000D02*
X14760000Y32940000D01*
G04 #@! TO.C,TP4*
X12100000Y7100000D02*
G75*
G02*
X10700000Y7100000I-700000J0D01*
G01*
X10700000Y7100000D02*
G75*
G02*
X12100000Y7100000I700000J0D01*
G01*
D13*
G04 #@! TO.C,R21*
X51559999Y58480021D02*
X51559999Y58880021D01*
X52862927Y58475632D02*
X52862927Y58875632D01*
D11*
G04 #@! TO.C,D10*
X8600000Y60600000D02*
X8600000Y56700000D01*
D12*
X9250000Y58700000D02*
X9950000Y58700000D01*
X9250000Y58000000D02*
X9950000Y58000000D01*
X9600000Y58900000D02*
X9600000Y58700000D01*
X9600000Y58700000D02*
X9250000Y58000000D01*
X9600000Y58700000D02*
X9950000Y58000000D01*
X9600000Y58000000D02*
X9600000Y57700000D01*
D11*
X10600000Y60600000D02*
X8600000Y60600000D01*
X10600000Y60600000D02*
X10600000Y56700000D01*
D14*
G04 #@! TO.C,J1*
X8800000Y82500000D02*
X8800000Y75500000D01*
X8800000Y75500000D02*
X12300000Y75500000D01*
X12300000Y98250000D02*
X12300000Y82500000D01*
X12300000Y82500000D02*
X8800000Y82500000D01*
X12300000Y75500000D02*
X12300000Y61750000D01*
X12300000Y61750000D02*
X50800000Y61750000D01*
X50800000Y98250000D02*
X12300000Y98250000D01*
X50800000Y82500000D02*
X50800000Y98250000D01*
X50802600Y75500000D02*
X54300000Y75500000D01*
X50802600Y61752440D02*
X50802600Y75500000D01*
X54300000Y82500000D02*
X50800000Y82500000D01*
X54300000Y75500000D02*
X54300000Y82500000D01*
D15*
X52904500Y64352000D02*
G75*
G02*
X52504500Y64352000I-200000J0D01*
G01*
X52504500Y64352000D02*
G75*
G02*
X52904500Y64352000I200000J0D01*
G01*
D16*
G04 #@! TO.C,R1*
X11998944Y47379160D02*
X12398943Y47379149D01*
X12000000Y48124995D02*
X12400000Y48124985D01*
D13*
G04 #@! TO.C,R16*
X42667927Y58592500D02*
X42667927Y58992500D01*
X43970855Y58588111D02*
X43970855Y58988111D01*
D11*
G04 #@! TO.C,TP11*
X49700000Y45700000D02*
G75*
G02*
X48300000Y45700000I-700000J0D01*
G01*
X48300000Y45700000D02*
G75*
G02*
X49700000Y45700000I700000J0D01*
G01*
G04 #@! TO.C,TP3*
X5300000Y66800000D02*
G75*
G02*
X2900000Y66800000I-1200000J0D01*
G01*
X2900000Y66800000D02*
G75*
G02*
X5300000Y66800000I1200000J0D01*
G01*
D16*
G04 #@! TO.C,R11*
X9229160Y73301056D02*
X9229149Y72901057D01*
X9974995Y73300000D02*
X9974985Y72900000D01*
D11*
G04 #@! TO.C,U3*
X22605000Y52225000D02*
X22605000Y54175000D01*
X22605000Y52225000D02*
X22605000Y50275000D01*
X27725000Y52225000D02*
X27725000Y54175000D01*
X27725000Y52225000D02*
X27725000Y50275000D01*
X22700000Y49525000D02*
X22370000Y49285000D01*
X22370000Y49765000D01*
X22700000Y49525000D01*
G36*
X22700000Y49525000D02*
G01*
X22370000Y49285000D01*
X22370000Y49765000D01*
X22700000Y49525000D01*
G37*
D16*
G04 #@! TO.C,R12*
X10525005Y72900000D02*
X10525015Y73300000D01*
X11270840Y72898944D02*
X11270851Y73298943D01*
D11*
G04 #@! TO.C,U5*
X5305000Y52225000D02*
X5305000Y54175000D01*
X5305000Y52225000D02*
X5305000Y50275000D01*
X10425000Y52225000D02*
X10425000Y54175000D01*
X10425000Y52225000D02*
X10425000Y50275000D01*
X5400000Y49525000D02*
X5070000Y49285000D01*
X5070000Y49765000D01*
X5400000Y49525000D01*
G36*
X5400000Y49525000D02*
G01*
X5070000Y49285000D01*
X5070000Y49765000D01*
X5400000Y49525000D01*
G37*
G04 #@! TO.C,D1*
X10900000Y60600000D02*
X10900000Y56700000D01*
D12*
X11550000Y58700000D02*
X12250000Y58700000D01*
X11550000Y58000000D02*
X12250000Y58000000D01*
X11900000Y58900000D02*
X11900000Y58700000D01*
X11900000Y58700000D02*
X11550000Y58000000D01*
X11900000Y58700000D02*
X12250000Y58000000D01*
X11900000Y58000000D02*
X11900000Y57700000D01*
D11*
X12900000Y60600000D02*
X10900000Y60600000D01*
X12900000Y60600000D02*
X12900000Y56700000D01*
D16*
G04 #@! TO.C,R3*
X17698944Y47379160D02*
X18098943Y47379149D01*
X17700000Y48124995D02*
X18100000Y48124985D01*
D11*
G04 #@! TO.C,D6*
X25900000Y60600000D02*
X25900000Y56700000D01*
D12*
X26550000Y58700000D02*
X27250000Y58700000D01*
X26550000Y58000000D02*
X27250000Y58000000D01*
X26900000Y58900000D02*
X26900000Y58700000D01*
X26900000Y58700000D02*
X26550000Y58000000D01*
X26900000Y58700000D02*
X27250000Y58000000D01*
X26900000Y58000000D02*
X26900000Y57700000D01*
D11*
X27900000Y60600000D02*
X25900000Y60600000D01*
X27900000Y60600000D02*
X27900000Y56700000D01*
D13*
G04 #@! TO.C,M2*
X2324999Y22824999D02*
X2324999Y26025002D01*
X2324999Y10724999D02*
X2324999Y21125001D01*
X2324999Y8824999D02*
X2324999Y9124999D01*
X2324999Y8824999D02*
X17724999Y8824999D01*
X3824999Y29424997D02*
X19124998Y29424999D01*
X19124996Y22725001D02*
X19124996Y27525001D01*
X19124996Y16524999D02*
X19124996Y19224999D01*
X19124996Y13825001D02*
X19124996Y14925004D01*
X19124996Y10274999D02*
X19125001Y11824999D01*
X19124998Y29125001D02*
X19124998Y29424999D01*
D16*
G04 #@! TO.C,R9*
X6198944Y47379160D02*
X6598943Y47379149D01*
X6200000Y48124995D02*
X6600000Y48124985D01*
D11*
G04 #@! TO.C,TP2*
X22400000Y15700000D02*
G75*
G02*
X21000000Y15700000I-700000J0D01*
G01*
X21000000Y15700000D02*
G75*
G02*
X22400000Y15700000I700000J0D01*
G01*
G04 #@! TO.C,TP7*
X53900000Y6600000D02*
G75*
G02*
X52500000Y6600000I-700000J0D01*
G01*
X52500000Y6600000D02*
G75*
G02*
X53900000Y6600000I700000J0D01*
G01*
D13*
G04 #@! TO.C,R15*
X45170855Y58592500D02*
X45170855Y58992500D01*
X46473783Y58588111D02*
X46473783Y58988111D01*
G04 #@! TO.C,R20*
X54062927Y58480021D02*
X54062927Y58880021D01*
X55365855Y58475632D02*
X55365855Y58875632D01*
D17*
G04 #@! TO.C,G2*
G36*
X59565792Y66861776D02*
G01*
X59597874Y66853349D01*
X59647950Y66839750D01*
X59713616Y66821643D01*
X59792472Y66799691D01*
X59882114Y66774561D01*
X59980139Y66746914D01*
X60025413Y66734093D01*
X60493620Y66601345D01*
X60496672Y65864238D01*
X60499726Y65127130D01*
X60472966Y65133970D01*
X60455768Y65138706D01*
X60418487Y65149201D01*
X60363827Y65164690D01*
X60294495Y65184399D01*
X60213195Y65207563D01*
X60122634Y65233411D01*
X60025517Y65261173D01*
X60019486Y65262899D01*
X59592766Y65384989D01*
X59589987Y65555605D01*
X59589022Y65603128D01*
X59587369Y65671040D01*
X59585120Y65756037D01*
X59582370Y65854813D01*
X59579212Y65964064D01*
X59575740Y66080486D01*
X59572046Y66200774D01*
X59569107Y66294056D01*
X59565551Y66407619D01*
X59562354Y66513711D01*
X59559575Y66610027D01*
X59557275Y66694264D01*
X59555515Y66764116D01*
X59554355Y66817280D01*
X59553858Y66851452D01*
X59554081Y66864327D01*
X59554106Y66864367D01*
X59565792Y66861776D01*
G37*
G36*
X58309575Y75536417D02*
G01*
X58419939Y75532562D01*
X58522148Y75526758D01*
X58610910Y75519051D01*
X58620068Y75518039D01*
X58763679Y75499722D01*
X58889540Y75478529D01*
X59001934Y75452696D01*
X59105144Y75420464D01*
X59203454Y75380069D01*
X59301144Y75329751D01*
X59402497Y75267748D01*
X59511797Y75192300D01*
X59633327Y75101645D01*
X59634253Y75100936D01*
X59794374Y74963927D01*
X59936938Y74811585D01*
X60062093Y74643653D01*
X60169988Y74459880D01*
X60260771Y74260011D01*
X60334591Y74043791D01*
X60391598Y73810967D01*
X60392589Y73806034D01*
X60408254Y73726104D01*
X60421594Y73653395D01*
X60432801Y73585119D01*
X60442070Y73518482D01*
X60449595Y73450696D01*
X60455571Y73378967D01*
X60460191Y73300506D01*
X60463649Y73212521D01*
X60466140Y73112223D01*
X60467858Y72996818D01*
X60468997Y72863517D01*
X60469751Y72709528D01*
X60469801Y72695980D01*
X60470109Y72571357D01*
X60470129Y72449139D01*
X60469881Y72332305D01*
X60469383Y72223837D01*
X60468655Y72126714D01*
X60467713Y72043918D01*
X60466576Y71978427D01*
X60465264Y71933224D01*
X60465057Y71928465D01*
X60458060Y71777323D01*
X60155800Y71568732D01*
X60066014Y71506934D01*
X59969173Y71440561D01*
X59870683Y71373302D01*
X59775954Y71308843D01*
X59690396Y71250874D01*
X59625363Y71207069D01*
X59397186Y71053997D01*
X59397186Y71153128D01*
X59397686Y71187688D01*
X59399111Y71242577D01*
X59401347Y71314441D01*
X59404275Y71399923D01*
X59407784Y71495671D01*
X59411756Y71598329D01*
X59416078Y71704542D01*
X59416198Y71707419D01*
X59424701Y71955213D01*
X59428439Y72181475D01*
X59427223Y72387934D01*
X59420868Y72576318D01*
X59409185Y72748356D01*
X59391988Y72905776D01*
X59369089Y73050307D01*
X59340302Y73183678D01*
X59305438Y73307616D01*
X59264312Y73423851D01*
X59218950Y73529397D01*
X59134219Y73684016D01*
X59032479Y73822942D01*
X58914722Y73945154D01*
X58781942Y74049635D01*
X58635131Y74135366D01*
X58621808Y74141867D01*
X58499537Y74195291D01*
X58386302Y74232643D01*
X58275382Y74255566D01*
X58160058Y74265704D01*
X58111611Y74266546D01*
X57952133Y74256648D01*
X57805499Y74227071D01*
X57672007Y74177987D01*
X57551955Y74109567D01*
X57445643Y74021986D01*
X57353372Y73915415D01*
X57275438Y73790028D01*
X57270883Y73781245D01*
X57223735Y73678832D01*
X57183089Y73567277D01*
X57148562Y73444509D01*
X57119770Y73308454D01*
X57096329Y73157039D01*
X57077855Y72988192D01*
X57063963Y72799840D01*
X57055273Y72617637D01*
X57046986Y72397054D01*
X56944891Y72382139D01*
X56790238Y72352839D01*
X56647084Y72312263D01*
X56518344Y72261529D01*
X56406932Y72201756D01*
X56330022Y72146342D01*
X56271374Y72091478D01*
X56212757Y72024037D01*
X56152115Y71941290D01*
X56087391Y71840507D01*
X56042998Y71765493D01*
X56011905Y71711959D01*
X55984595Y71665692D01*
X55963430Y71630631D01*
X55950772Y71610724D01*
X55948693Y71607962D01*
X55945423Y71615976D01*
X55942087Y71644934D01*
X55938781Y71692074D01*
X55935598Y71754633D01*
X55932634Y71829849D01*
X55929983Y71914961D01*
X55927740Y72007205D01*
X55926000Y72103819D01*
X55924856Y72202042D01*
X55924405Y72299111D01*
X55924405Y72316673D01*
X55929142Y72638902D01*
X55942940Y72940008D01*
X55965941Y73220837D01*
X55998290Y73482231D01*
X56040129Y73725037D01*
X56091604Y73950097D01*
X56152858Y74158256D01*
X56224034Y74350357D01*
X56298899Y74514622D01*
X56401484Y74697058D01*
X56517119Y74860737D01*
X56646385Y75006045D01*
X56789866Y75133370D01*
X56948146Y75243098D01*
X57121808Y75335617D01*
X57311434Y75411315D01*
X57517609Y75470577D01*
X57740915Y75513790D01*
X57820694Y75524878D01*
X57892437Y75531445D01*
X57982489Y75535838D01*
X58085559Y75538100D01*
X58196352Y75538278D01*
X58309575Y75536417D01*
G37*
G36*
X57364300Y72147731D02*
G01*
X57528212Y72120105D01*
X57695326Y72070789D01*
X57867571Y71999428D01*
X57909594Y71979126D01*
X58089008Y71878390D01*
X58252730Y71761281D01*
X58404439Y71625101D01*
X58437151Y71591705D01*
X58518254Y71502636D01*
X58590242Y71413362D01*
X58655056Y71320434D01*
X58714635Y71220404D01*
X58770919Y71109822D01*
X58825849Y70985240D01*
X58881363Y70843206D01*
X58922742Y70728326D01*
X58945863Y70663570D01*
X58968202Y70603278D01*
X58987794Y70552592D01*
X59002676Y70516657D01*
X59007690Y70505918D01*
X59030376Y70461309D01*
X59098211Y70504345D01*
X59118885Y70517906D01*
X59144948Y70535879D01*
X59177809Y70559316D01*
X59218875Y70589267D01*
X59269551Y70626780D01*
X59331245Y70672905D01*
X59405365Y70728694D01*
X59493315Y70795195D01*
X59596504Y70873457D01*
X59716340Y70964532D01*
X59788346Y71019318D01*
X59907038Y71108218D01*
X60020634Y71190509D01*
X60127230Y71264947D01*
X60224925Y71330289D01*
X60311815Y71385288D01*
X60385996Y71428701D01*
X60445565Y71459283D01*
X60484730Y71474694D01*
X60511400Y71482610D01*
X60508618Y71040274D01*
X60507830Y70926301D01*
X60506800Y70794425D01*
X60505578Y70650452D01*
X60504220Y70500185D01*
X60502776Y70349425D01*
X60501299Y70203978D01*
X60499841Y70069647D01*
X60499728Y70059572D01*
X60493620Y69521205D01*
X60215066Y69350967D01*
X60134053Y69301936D01*
X60052356Y69253359D01*
X59974311Y69207745D01*
X59904250Y69167614D01*
X59846509Y69135477D01*
X59812053Y69117190D01*
X59750434Y69085009D01*
X59685005Y69049662D01*
X59625289Y69016342D01*
X59594798Y68998676D01*
X59539398Y68966959D01*
X59474449Y68931411D01*
X59411770Y68898465D01*
X59396255Y68890593D01*
X59290506Y68837482D01*
X59290506Y68667644D01*
X59290133Y68601960D01*
X59289092Y68519493D01*
X59287506Y68427150D01*
X59285493Y68331843D01*
X59283174Y68240481D01*
X59282939Y68232153D01*
X59275372Y67966500D01*
X59202228Y68108740D01*
X59098702Y68297495D01*
X58991167Y68467595D01*
X58876011Y68624089D01*
X58749622Y68772027D01*
X58662822Y68862888D01*
X58531982Y68987095D01*
X58405752Y69091369D01*
X58281040Y69178200D01*
X58241246Y69202533D01*
X58167821Y69245966D01*
X58161043Y69489305D01*
X58151449Y69676659D01*
X58133487Y69842906D01*
X58106818Y69989248D01*
X58071101Y70116883D01*
X58025997Y70227013D01*
X57971168Y70320836D01*
X57906273Y70399553D01*
X57902337Y70403535D01*
X57825250Y70467706D01*
X57738131Y70514268D01*
X57636619Y70545384D01*
X57602871Y70552001D01*
X57502439Y70561126D01*
X57415643Y70551105D01*
X57342654Y70521987D01*
X57283644Y70473823D01*
X57269732Y70457039D01*
X57231991Y70398545D01*
X57201028Y70329711D01*
X57176141Y70247800D01*
X57156622Y70150077D01*
X57141768Y70033808D01*
X57132797Y69926014D01*
X57123737Y69797006D01*
X57115745Y69691661D01*
X57108815Y69609961D01*
X57102949Y69551887D01*
X57098142Y69517420D01*
X57095003Y69506770D01*
X57081438Y69502572D01*
X57049798Y69496122D01*
X57005488Y69488460D01*
X56975171Y69483729D01*
X56812605Y69452910D01*
X56669502Y69411661D01*
X56543515Y69358839D01*
X56432297Y69293307D01*
X56333503Y69213921D01*
X56258102Y69135353D01*
X56228205Y69099093D01*
X56188401Y69048719D01*
X56142647Y68989347D01*
X56094900Y68926095D01*
X56062350Y68882170D01*
X56021521Y68826726D01*
X55985837Y68778526D01*
X55957532Y68740566D01*
X55938838Y68715841D01*
X55932001Y68707336D01*
X55931723Y68718898D01*
X55931486Y68752423D01*
X55931292Y68806166D01*
X55931142Y68878381D01*
X55931037Y68967325D01*
X55930978Y69071254D01*
X55930967Y69188421D01*
X55931004Y69317082D01*
X55931092Y69455495D01*
X55931230Y69601915D01*
X55931333Y69688197D01*
X55931597Y69874084D01*
X55931956Y70038080D01*
X55932507Y70182005D01*
X55933348Y70307675D01*
X55934579Y70416910D01*
X55936296Y70511525D01*
X55938601Y70593338D01*
X55941590Y70664167D01*
X55945362Y70725829D01*
X55950016Y70780141D01*
X55955650Y70828922D01*
X55962362Y70873989D01*
X55970252Y70917158D01*
X55979418Y70960249D01*
X55989957Y71005078D01*
X56001969Y71053462D01*
X56006237Y71070377D01*
X56064204Y71262195D01*
X56136543Y71436722D01*
X56222790Y71593479D01*
X56322485Y71731986D01*
X56435165Y71851768D01*
X56560367Y71952343D01*
X56697630Y72033234D01*
X56846492Y72093961D01*
X57006491Y72134047D01*
X57038374Y72139330D01*
X57201663Y72154021D01*
X57364300Y72147731D01*
G37*
G36*
X57354395Y69265511D02*
G01*
X57450297Y69256582D01*
X57543097Y69239938D01*
X57642378Y69214078D01*
X57696234Y69197607D01*
X57885014Y69129597D01*
X58055609Y69050456D01*
X58211786Y68958007D01*
X58357312Y68850075D01*
X58467874Y68751808D01*
X58616128Y68595794D01*
X58750267Y68424419D01*
X58870560Y68237043D01*
X58977280Y68033024D01*
X59070697Y67811725D01*
X59151080Y67572503D01*
X59218703Y67314720D01*
X59273832Y67037736D01*
X59316175Y66745607D01*
X59319617Y66704587D01*
X59322683Y66641458D01*
X59325378Y66555991D01*
X59327704Y66447959D01*
X59329666Y66317131D01*
X59331269Y66163279D01*
X59332516Y65986175D01*
X59333390Y65791753D01*
X59336275Y64956432D01*
X59917910Y64738268D01*
X60499546Y64520104D01*
X60499575Y64050436D01*
X60499798Y63933653D01*
X60500421Y63812724D01*
X60501390Y63692406D01*
X60502655Y63577463D01*
X60504166Y63472655D01*
X60505869Y63382743D01*
X60507432Y63321546D01*
X60509913Y63236934D01*
X60511449Y63173180D01*
X60511872Y63127447D01*
X60511015Y63096901D01*
X60508712Y63078703D01*
X60504795Y63070018D01*
X60499097Y63068010D01*
X60492586Y63069480D01*
X60476781Y63074386D01*
X60440749Y63085522D01*
X60386918Y63102138D01*
X60317717Y63123487D01*
X60235575Y63148818D01*
X60142920Y63177383D01*
X60042182Y63208432D01*
X59972073Y63230037D01*
X59841663Y63270413D01*
X59695951Y63315861D01*
X59541472Y63364320D01*
X59384759Y63413732D01*
X59232348Y63462036D01*
X59090773Y63507174D01*
X58988246Y63540092D01*
X58877738Y63575697D01*
X58767578Y63611156D01*
X58661281Y63645344D01*
X58562357Y63677130D01*
X58474323Y63705386D01*
X58400690Y63728983D01*
X58344972Y63746791D01*
X58331410Y63751112D01*
X58160562Y63805477D01*
X58171391Y65038475D01*
X58173535Y65285038D01*
X58175424Y65509087D01*
X58177053Y65711812D01*
X58178414Y65894405D01*
X58179499Y66058056D01*
X58180301Y66203956D01*
X58180813Y66333297D01*
X58181028Y66447269D01*
X58180939Y66547063D01*
X58180538Y66633871D01*
X58179817Y66708882D01*
X58178771Y66773289D01*
X58177391Y66828282D01*
X58175670Y66875051D01*
X58173601Y66914788D01*
X58171177Y66948685D01*
X58168390Y66977931D01*
X58165234Y67003718D01*
X58161700Y67027237D01*
X58159185Y67041940D01*
X58130170Y67177571D01*
X58094419Y67293274D01*
X58050522Y67392223D01*
X57997067Y67477592D01*
X57932642Y67552556D01*
X57931666Y67553535D01*
X57858712Y67615475D01*
X57777133Y67665631D01*
X57690997Y67702840D01*
X57604373Y67725939D01*
X57521328Y67733765D01*
X57445933Y67725156D01*
X57395860Y67706702D01*
X57332066Y67660668D01*
X57275873Y67592924D01*
X57227665Y67504340D01*
X57187823Y67395787D01*
X57156730Y67268136D01*
X57134768Y67122257D01*
X57133287Y67108587D01*
X57130844Y67076502D01*
X57128625Y67028421D01*
X57126625Y66963627D01*
X57124835Y66881407D01*
X57123247Y66781047D01*
X57121856Y66661831D01*
X57120652Y66523046D01*
X57119629Y66363976D01*
X57118779Y66183908D01*
X57118095Y65982126D01*
X57117569Y65757917D01*
X57117261Y65564693D01*
X57117007Y65384044D01*
X57116727Y65210118D01*
X57116424Y65044371D01*
X57116104Y64888260D01*
X57115770Y64743238D01*
X57115427Y64610761D01*
X57115078Y64492286D01*
X57114728Y64389268D01*
X57114382Y64303162D01*
X57114042Y64235424D01*
X57113715Y64187510D01*
X57113402Y64160874D01*
X57113204Y64155657D01*
X57103733Y64164268D01*
X57080091Y64188988D01*
X57043777Y64228131D01*
X56996289Y64280017D01*
X56939126Y64342964D01*
X56873788Y64415288D01*
X56801774Y64495308D01*
X56724581Y64581342D01*
X56643709Y64671708D01*
X56560658Y64764722D01*
X56476925Y64858703D01*
X56394009Y64951970D01*
X56313409Y65042838D01*
X56236626Y65129627D01*
X56165156Y65210653D01*
X56100499Y65284236D01*
X56044154Y65348691D01*
X55997620Y65402337D01*
X55962395Y65443493D01*
X55939979Y65470476D01*
X55931899Y65481489D01*
X55930411Y65497728D01*
X55928951Y65535949D01*
X55927536Y65594430D01*
X55926186Y65671448D01*
X55924918Y65765276D01*
X55923751Y65874195D01*
X55922703Y65996478D01*
X55921792Y66130403D01*
X55921037Y66274245D01*
X55920456Y66426282D01*
X55920068Y66584790D01*
X55920046Y66597440D01*
X55919725Y66790912D01*
X55919508Y66962405D01*
X55919491Y67113648D01*
X55919763Y67246371D01*
X55920420Y67362299D01*
X55921554Y67463163D01*
X55923257Y67550691D01*
X55925624Y67626611D01*
X55928747Y67692651D01*
X55932719Y67750540D01*
X55937633Y67802006D01*
X55943582Y67848779D01*
X55950658Y67892585D01*
X55958957Y67935153D01*
X55968568Y67978212D01*
X55979588Y68023491D01*
X55992107Y68072718D01*
X56001373Y68108740D01*
X56063112Y68313600D01*
X56138126Y68499160D01*
X56226691Y68665943D01*
X56329086Y68814473D01*
X56439295Y68939024D01*
X56559588Y69046291D01*
X56684772Y69131357D01*
X56817085Y69195135D01*
X56958763Y69238538D01*
X57112042Y69262478D01*
X57245807Y69268231D01*
X57354395Y69265511D01*
G37*
D11*
G04 #@! TO.C,U1*
X11105000Y52225000D02*
X11105000Y54175000D01*
X11105000Y52225000D02*
X11105000Y50275000D01*
X16225000Y52225000D02*
X16225000Y54175000D01*
X16225000Y52225000D02*
X16225000Y50275000D01*
X11200000Y49525000D02*
X10870000Y49285000D01*
X10870000Y49765000D01*
X11200000Y49525000D01*
G36*
X11200000Y49525000D02*
G01*
X10870000Y49285000D01*
X10870000Y49765000D01*
X11200000Y49525000D01*
G37*
G04 #@! TO.C,TP1*
X10400000Y39500000D02*
G75*
G02*
X9000000Y39500000I-700000J0D01*
G01*
X9000000Y39500000D02*
G75*
G02*
X10400000Y39500000I700000J0D01*
G01*
D13*
G04 #@! TO.C,R13*
X20847073Y10504389D02*
X20847073Y10104389D01*
X22150001Y10500000D02*
X22150001Y10100000D01*
D11*
G04 #@! TO.C,D8*
X31600000Y60600000D02*
X31600000Y56700000D01*
D12*
X32250000Y58700000D02*
X32950000Y58700000D01*
X32250000Y58000000D02*
X32950000Y58000000D01*
X32600000Y58900000D02*
X32600000Y58700000D01*
X32600000Y58700000D02*
X32250000Y58000000D01*
X32600000Y58700000D02*
X32950000Y58000000D01*
X32600000Y58000000D02*
X32600000Y57700000D01*
D11*
X33600000Y60600000D02*
X31600000Y60600000D01*
X33600000Y60600000D02*
X33600000Y56700000D01*
G04 #@! TO.C,D5*
X22400000Y60600000D02*
X22400000Y56700000D01*
D12*
X23050000Y58700000D02*
X23750000Y58700000D01*
X23050000Y58000000D02*
X23750000Y58000000D01*
X23400000Y58900000D02*
X23400000Y58700000D01*
X23400000Y58700000D02*
X23050000Y58000000D01*
X23400000Y58700000D02*
X23750000Y58000000D01*
X23400000Y58000000D02*
X23400000Y57700000D01*
D11*
X24400000Y60600000D02*
X22400000Y60600000D01*
X24400000Y60600000D02*
X24400000Y56700000D01*
G04 #@! TO.C,D4*
X20100000Y60600000D02*
X20100000Y56700000D01*
D12*
X20750000Y58700000D02*
X21450000Y58700000D01*
X20750000Y58000000D02*
X21450000Y58000000D01*
X21100000Y58900000D02*
X21100000Y58700000D01*
X21100000Y58700000D02*
X20750000Y58000000D01*
X21100000Y58700000D02*
X21450000Y58000000D01*
X21100000Y58000000D02*
X21100000Y57700000D01*
D11*
X22100000Y60600000D02*
X20100000Y60600000D01*
X22100000Y60600000D02*
X22100000Y56700000D01*
G04 #@! TO.C,U6*
X39105000Y54415000D02*
X39385000Y54415000D01*
X39105000Y52105000D02*
X39105000Y54415000D01*
X39105000Y52105000D02*
X39105000Y49795000D01*
X39105000Y49795000D02*
X39385000Y49795000D01*
X49725000Y54415000D02*
X49445000Y54415000D01*
X49725000Y52105000D02*
X49725000Y54415000D01*
X49725000Y52105000D02*
X49725000Y49795000D01*
X49725000Y49795000D02*
X49445000Y49795000D01*
X49775000Y54965000D02*
X49445000Y55205000D01*
X49775000Y55445000D01*
X49775000Y54965000D01*
G36*
X49775000Y54965000D02*
G01*
X49445000Y55205000D01*
X49775000Y55445000D01*
X49775000Y54965000D01*
G37*
D13*
G04 #@! TO.C,R19*
X56565855Y58480021D02*
X56565855Y58880021D01*
X57868783Y58475632D02*
X57868783Y58875632D01*
G04 #@! TO.C,R14*
X47673783Y58592500D02*
X47673783Y58992500D01*
X48976711Y58588111D02*
X48976711Y58988111D01*
D16*
G04 #@! TO.C,R10*
X9500000Y47375005D02*
X9100000Y47375015D01*
X9501056Y48120840D02*
X9101057Y48120851D01*
D11*
G04 #@! TO.C,U2*
X16805000Y52225000D02*
X16805000Y54175000D01*
X16805000Y52225000D02*
X16805000Y50275000D01*
X21925000Y52225000D02*
X21925000Y54175000D01*
X21925000Y52225000D02*
X21925000Y50275000D01*
X16900000Y49525000D02*
X16570000Y49285000D01*
X16570000Y49765000D01*
X16900000Y49525000D01*
G36*
X16900000Y49525000D02*
G01*
X16570000Y49285000D01*
X16570000Y49765000D01*
X16900000Y49525000D01*
G37*
D13*
G04 #@! TO.C,R17*
X40164999Y58592500D02*
X40164999Y58992500D01*
X41467927Y58588111D02*
X41467927Y58988111D01*
D11*
G04 #@! TO.C,D3*
X16700000Y60600000D02*
X16700000Y56700000D01*
D12*
X17350000Y58700000D02*
X18050000Y58700000D01*
X17350000Y58000000D02*
X18050000Y58000000D01*
X17700000Y58900000D02*
X17700000Y58700000D01*
X17700000Y58700000D02*
X17350000Y58000000D01*
X17700000Y58700000D02*
X18050000Y58000000D01*
X17700000Y58000000D02*
X17700000Y57700000D01*
D11*
X18700000Y60600000D02*
X16700000Y60600000D01*
X18700000Y60600000D02*
X18700000Y56700000D01*
D16*
G04 #@! TO.C,R4*
X21000000Y47375005D02*
X20600000Y47375015D01*
X21001056Y48120840D02*
X20601057Y48120851D01*
G04 #@! TO.C,R7*
X26398944Y47329160D02*
X26798943Y47329149D01*
X26400000Y48074995D02*
X26800000Y48074985D01*
G04 #@! TO.C,R2*
X15300000Y47375005D02*
X14900000Y47375015D01*
X15301056Y48120840D02*
X14901057Y48120851D01*
D11*
G04 #@! TO.C,D9*
X5100000Y60600000D02*
X5100000Y56700000D01*
D12*
X5750000Y58700000D02*
X6450000Y58700000D01*
X5750000Y58000000D02*
X6450000Y58000000D01*
X6100000Y58900000D02*
X6100000Y58700000D01*
X6100000Y58700000D02*
X5750000Y58000000D01*
X6100000Y58700000D02*
X6450000Y58000000D01*
X6100000Y58000000D02*
X6100000Y57700000D01*
D11*
X7100000Y60600000D02*
X5100000Y60600000D01*
X7100000Y60600000D02*
X7100000Y56700000D01*
D13*
G04 #@! TO.C,M1*
X26374995Y43875005D02*
X26374995Y8075015D01*
X60175005Y43875005D02*
X26375005Y43875005D01*
X60175005Y43875005D02*
X60175005Y8075015D01*
X60175005Y8075015D02*
X26374995Y8075015D01*
D16*
G04 #@! TO.C,R5*
X23900000Y47325005D02*
X23500000Y47325015D01*
X23901056Y48070840D02*
X23501057Y48070851D01*
G04 #@! TO.C,R8*
X32600000Y47375005D02*
X32200000Y47375015D01*
X32601056Y48120840D02*
X32201057Y48120851D01*
D11*
G04 #@! TO.C,F1*
X9200000Y68900000D02*
X9200000Y64050000D01*
X11200000Y68900000D02*
X11200000Y64050000D01*
X9200000Y68950000D02*
G75*
G02*
X11200000Y68950000I1000000J0D01*
G01*
X11200000Y64050000D02*
G75*
G02*
X9200000Y64050000I-1000000J0D01*
G01*
D12*
G04 #@! TO.C,D11*
X17200000Y30850000D02*
X17200000Y30150000D01*
X17200000Y30500000D02*
X16900000Y30500000D01*
X17900000Y30850000D02*
X17900000Y30150000D01*
X17900000Y30500000D02*
X17200000Y30850000D01*
X17900000Y30500000D02*
X17200000Y30150000D01*
X18100000Y30500000D02*
X17900000Y30500000D01*
D18*
X19100000Y31050000D02*
X19100997Y30653995D01*
X19100000Y30346005D02*
X19100000Y29900000D01*
X19227997Y31074995D02*
X16300000Y31074995D01*
X19227997Y31074995D02*
X19227997Y30653995D01*
X19227997Y30754000D02*
X19100000Y30754000D01*
X19227997Y30346005D02*
X19227997Y29900000D01*
X19227997Y30246000D02*
X19100997Y30246000D01*
X19227997Y29900000D02*
X16299999Y29900000D01*
D13*
G04 #@! TO.C,R18*
X59068783Y58480021D02*
X59068783Y58880021D01*
X60371711Y58475632D02*
X60371711Y58875632D01*
D11*
G04 #@! TO.C,TP5*
X60300000Y45900000D02*
G75*
G02*
X58900000Y45900000I-700000J0D01*
G01*
X58900000Y45900000D02*
G75*
G02*
X60300000Y45900000I700000J0D01*
G01*
G04 #@! TO.C,D2*
X14400000Y60600000D02*
X14400000Y56700000D01*
D12*
X15050000Y58700000D02*
X15750000Y58700000D01*
X15050000Y58000000D02*
X15750000Y58000000D01*
X15400000Y58900000D02*
X15400000Y58700000D01*
X15400000Y58700000D02*
X15050000Y58000000D01*
X15400000Y58700000D02*
X15750000Y58000000D01*
X15400000Y58000000D02*
X15400000Y57700000D01*
D11*
X16400000Y60600000D02*
X14400000Y60600000D01*
X16400000Y60600000D02*
X16400000Y56700000D01*
D16*
G04 #@! TO.C,R6*
X29298944Y47379160D02*
X29698943Y47379149D01*
X29300000Y48124995D02*
X29700000Y48124985D01*
D11*
G04 #@! TO.C,U7*
X50415000Y54440000D02*
X50695000Y54440000D01*
X50415000Y52130000D02*
X50415000Y54440000D01*
X50415000Y52130000D02*
X50415000Y49820000D01*
X50415000Y49820000D02*
X50695000Y49820000D01*
X61035000Y54440000D02*
X60755000Y54440000D01*
X61035000Y52130000D02*
X61035000Y54440000D01*
X61035000Y52130000D02*
X61035000Y49820000D01*
X61035000Y49820000D02*
X60755000Y49820000D01*
X61085000Y54990000D02*
X60755000Y55230000D01*
X61085000Y55470000D01*
X61085000Y54990000D01*
G36*
X61085000Y54990000D02*
G01*
X60755000Y55230000D01*
X61085000Y55470000D01*
X61085000Y54990000D01*
G37*
G04 #@! TD*
M02*
