G04 #@! TF.GenerationSoftware,KiCad,Pcbnew,8.0.4-8.0.4-0~ubuntu22.04.1*
G04 #@! TF.CreationDate,2024-07-19T04:30:51+00:00*
G04 #@! TF.ProjectId,PRODashController,50524f44-6173-4684-936f-6e74726f6c6c,rev?*
G04 #@! TF.SameCoordinates,Original*
G04 #@! TF.FileFunction,Legend,Bot*
G04 #@! TF.FilePolarity,Positive*
%FSLAX46Y46*%
G04 Gerber Fmt 4.6, Leading zero omitted, Abs format (unit mm)*
G04 Created by KiCad (PCBNEW 8.0.4-8.0.4-0~ubuntu22.04.1) date 2024-07-19 04:30:51*
%MOMM*%
%LPD*%
G01*
G04 APERTURE LIST*
%ADD10C,0.250000*%
%ADD11C,0.200000*%
%ADD12C,0.120000*%
%ADD13C,0.150012*%
%ADD14C,0.000000*%
G04 APERTURE END LIST*
D10*
X17297431Y75135381D02*
X17297431Y76135381D01*
X17297431Y76135381D02*
X17059336Y76135381D01*
X17059336Y76135381D02*
X16916479Y76087762D01*
X16916479Y76087762D02*
X16821241Y75992524D01*
X16821241Y75992524D02*
X16773622Y75897286D01*
X16773622Y75897286D02*
X16726003Y75706810D01*
X16726003Y75706810D02*
X16726003Y75563953D01*
X16726003Y75563953D02*
X16773622Y75373477D01*
X16773622Y75373477D02*
X16821241Y75278239D01*
X16821241Y75278239D02*
X16916479Y75183000D01*
X16916479Y75183000D02*
X17059336Y75135381D01*
X17059336Y75135381D02*
X17297431Y75135381D01*
X15868860Y75802048D02*
X15868860Y75135381D01*
X16106955Y76183000D02*
X16345050Y75468715D01*
X16345050Y75468715D02*
X15726003Y75468715D01*
X61797431Y78435381D02*
X61797431Y79435381D01*
X61797431Y79435381D02*
X61559336Y79435381D01*
X61559336Y79435381D02*
X61416479Y79387762D01*
X61416479Y79387762D02*
X61321241Y79292524D01*
X61321241Y79292524D02*
X61273622Y79197286D01*
X61273622Y79197286D02*
X61226003Y79006810D01*
X61226003Y79006810D02*
X61226003Y78863953D01*
X61226003Y78863953D02*
X61273622Y78673477D01*
X61273622Y78673477D02*
X61321241Y78578239D01*
X61321241Y78578239D02*
X61416479Y78483000D01*
X61416479Y78483000D02*
X61559336Y78435381D01*
X61559336Y78435381D02*
X61797431Y78435381D01*
X60368860Y79435381D02*
X60559336Y79435381D01*
X60559336Y79435381D02*
X60654574Y79387762D01*
X60654574Y79387762D02*
X60702193Y79340143D01*
X60702193Y79340143D02*
X60797431Y79197286D01*
X60797431Y79197286D02*
X60845050Y79006810D01*
X60845050Y79006810D02*
X60845050Y78625858D01*
X60845050Y78625858D02*
X60797431Y78530620D01*
X60797431Y78530620D02*
X60749812Y78483000D01*
X60749812Y78483000D02*
X60654574Y78435381D01*
X60654574Y78435381D02*
X60464098Y78435381D01*
X60464098Y78435381D02*
X60368860Y78483000D01*
X60368860Y78483000D02*
X60321241Y78530620D01*
X60321241Y78530620D02*
X60273622Y78625858D01*
X60273622Y78625858D02*
X60273622Y78863953D01*
X60273622Y78863953D02*
X60321241Y78959191D01*
X60321241Y78959191D02*
X60368860Y79006810D01*
X60368860Y79006810D02*
X60464098Y79054429D01*
X60464098Y79054429D02*
X60654574Y79054429D01*
X60654574Y79054429D02*
X60749812Y79006810D01*
X60749812Y79006810D02*
X60797431Y78959191D01*
X60797431Y78959191D02*
X60845050Y78863953D01*
X28897431Y74835381D02*
X28897431Y75835381D01*
X28897431Y75835381D02*
X28659336Y75835381D01*
X28659336Y75835381D02*
X28516479Y75787762D01*
X28516479Y75787762D02*
X28421241Y75692524D01*
X28421241Y75692524D02*
X28373622Y75597286D01*
X28373622Y75597286D02*
X28326003Y75406810D01*
X28326003Y75406810D02*
X28326003Y75263953D01*
X28326003Y75263953D02*
X28373622Y75073477D01*
X28373622Y75073477D02*
X28421241Y74978239D01*
X28421241Y74978239D02*
X28516479Y74883000D01*
X28516479Y74883000D02*
X28659336Y74835381D01*
X28659336Y74835381D02*
X28897431Y74835381D01*
X27945050Y75740143D02*
X27897431Y75787762D01*
X27897431Y75787762D02*
X27802193Y75835381D01*
X27802193Y75835381D02*
X27564098Y75835381D01*
X27564098Y75835381D02*
X27468860Y75787762D01*
X27468860Y75787762D02*
X27421241Y75740143D01*
X27421241Y75740143D02*
X27373622Y75644905D01*
X27373622Y75644905D02*
X27373622Y75549667D01*
X27373622Y75549667D02*
X27421241Y75406810D01*
X27421241Y75406810D02*
X27992669Y74835381D01*
X27992669Y74835381D02*
X27373622Y74835381D01*
X58426003Y60330620D02*
X58473622Y60283000D01*
X58473622Y60283000D02*
X58616479Y60235381D01*
X58616479Y60235381D02*
X58711717Y60235381D01*
X58711717Y60235381D02*
X58854574Y60283000D01*
X58854574Y60283000D02*
X58949812Y60378239D01*
X58949812Y60378239D02*
X58997431Y60473477D01*
X58997431Y60473477D02*
X59045050Y60663953D01*
X59045050Y60663953D02*
X59045050Y60806810D01*
X59045050Y60806810D02*
X58997431Y60997286D01*
X58997431Y60997286D02*
X58949812Y61092524D01*
X58949812Y61092524D02*
X58854574Y61187762D01*
X58854574Y61187762D02*
X58711717Y61235381D01*
X58711717Y61235381D02*
X58616479Y61235381D01*
X58616479Y61235381D02*
X58473622Y61187762D01*
X58473622Y61187762D02*
X58426003Y61140143D01*
X58045050Y60521096D02*
X57568860Y60521096D01*
X58140288Y60235381D02*
X57806955Y61235381D01*
X57806955Y61235381D02*
X57473622Y60235381D01*
X57140288Y60235381D02*
X57140288Y61235381D01*
X57140288Y61235381D02*
X56568860Y60235381D01*
X56568860Y60235381D02*
X56568860Y61235381D01*
X56092669Y60616334D02*
X55330765Y60616334D01*
X54854574Y60235381D02*
X54854574Y61235381D01*
X54854574Y60759191D02*
X54283146Y60759191D01*
X54283146Y60235381D02*
X54283146Y61235381D01*
X34897431Y74835381D02*
X34897431Y75835381D01*
X34897431Y75835381D02*
X34659336Y75835381D01*
X34659336Y75835381D02*
X34516479Y75787762D01*
X34516479Y75787762D02*
X34421241Y75692524D01*
X34421241Y75692524D02*
X34373622Y75597286D01*
X34373622Y75597286D02*
X34326003Y75406810D01*
X34326003Y75406810D02*
X34326003Y75263953D01*
X34326003Y75263953D02*
X34373622Y75073477D01*
X34373622Y75073477D02*
X34421241Y74978239D01*
X34421241Y74978239D02*
X34516479Y74883000D01*
X34516479Y74883000D02*
X34659336Y74835381D01*
X34659336Y74835381D02*
X34897431Y74835381D01*
X33373622Y74835381D02*
X33945050Y74835381D01*
X33659336Y74835381D02*
X33659336Y75835381D01*
X33659336Y75835381D02*
X33754574Y75692524D01*
X33754574Y75692524D02*
X33849812Y75597286D01*
X33849812Y75597286D02*
X33945050Y75549667D01*
X40945050Y74883000D02*
X40802193Y74835381D01*
X40802193Y74835381D02*
X40564098Y74835381D01*
X40564098Y74835381D02*
X40468860Y74883000D01*
X40468860Y74883000D02*
X40421241Y74930620D01*
X40421241Y74930620D02*
X40373622Y75025858D01*
X40373622Y75025858D02*
X40373622Y75121096D01*
X40373622Y75121096D02*
X40421241Y75216334D01*
X40421241Y75216334D02*
X40468860Y75263953D01*
X40468860Y75263953D02*
X40564098Y75311572D01*
X40564098Y75311572D02*
X40754574Y75359191D01*
X40754574Y75359191D02*
X40849812Y75406810D01*
X40849812Y75406810D02*
X40897431Y75454429D01*
X40897431Y75454429D02*
X40945050Y75549667D01*
X40945050Y75549667D02*
X40945050Y75644905D01*
X40945050Y75644905D02*
X40897431Y75740143D01*
X40897431Y75740143D02*
X40849812Y75787762D01*
X40849812Y75787762D02*
X40754574Y75835381D01*
X40754574Y75835381D02*
X40516479Y75835381D01*
X40516479Y75835381D02*
X40373622Y75787762D01*
X40040288Y75835381D02*
X39802193Y74835381D01*
X39802193Y74835381D02*
X39611717Y75549667D01*
X39611717Y75549667D02*
X39421241Y74835381D01*
X39421241Y74835381D02*
X39183146Y75835381D01*
X58226003Y65230620D02*
X58273622Y65183000D01*
X58273622Y65183000D02*
X58416479Y65135381D01*
X58416479Y65135381D02*
X58511717Y65135381D01*
X58511717Y65135381D02*
X58654574Y65183000D01*
X58654574Y65183000D02*
X58749812Y65278239D01*
X58749812Y65278239D02*
X58797431Y65373477D01*
X58797431Y65373477D02*
X58845050Y65563953D01*
X58845050Y65563953D02*
X58845050Y65706810D01*
X58845050Y65706810D02*
X58797431Y65897286D01*
X58797431Y65897286D02*
X58749812Y65992524D01*
X58749812Y65992524D02*
X58654574Y66087762D01*
X58654574Y66087762D02*
X58511717Y66135381D01*
X58511717Y66135381D02*
X58416479Y66135381D01*
X58416479Y66135381D02*
X58273622Y66087762D01*
X58273622Y66087762D02*
X58226003Y66040143D01*
X57845050Y65421096D02*
X57368860Y65421096D01*
X57940288Y65135381D02*
X57606955Y66135381D01*
X57606955Y66135381D02*
X57273622Y65135381D01*
X56940288Y65135381D02*
X56940288Y66135381D01*
X56940288Y66135381D02*
X56368860Y65135381D01*
X56368860Y65135381D02*
X56368860Y66135381D01*
X55892669Y65516334D02*
X55130765Y65516334D01*
X54178384Y65135381D02*
X54654574Y65135381D01*
X54654574Y65135381D02*
X54654574Y66135381D01*
X46597431Y74735381D02*
X46597431Y75735381D01*
X46597431Y75735381D02*
X46359336Y75735381D01*
X46359336Y75735381D02*
X46216479Y75687762D01*
X46216479Y75687762D02*
X46121241Y75592524D01*
X46121241Y75592524D02*
X46073622Y75497286D01*
X46073622Y75497286D02*
X46026003Y75306810D01*
X46026003Y75306810D02*
X46026003Y75163953D01*
X46026003Y75163953D02*
X46073622Y74973477D01*
X46073622Y74973477D02*
X46121241Y74878239D01*
X46121241Y74878239D02*
X46216479Y74783000D01*
X46216479Y74783000D02*
X46359336Y74735381D01*
X46359336Y74735381D02*
X46597431Y74735381D01*
X45692669Y75735381D02*
X45026003Y75735381D01*
X45026003Y75735381D02*
X45454574Y74735381D01*
X22897431Y75035381D02*
X22897431Y76035381D01*
X22897431Y76035381D02*
X22659336Y76035381D01*
X22659336Y76035381D02*
X22516479Y75987762D01*
X22516479Y75987762D02*
X22421241Y75892524D01*
X22421241Y75892524D02*
X22373622Y75797286D01*
X22373622Y75797286D02*
X22326003Y75606810D01*
X22326003Y75606810D02*
X22326003Y75463953D01*
X22326003Y75463953D02*
X22373622Y75273477D01*
X22373622Y75273477D02*
X22421241Y75178239D01*
X22421241Y75178239D02*
X22516479Y75083000D01*
X22516479Y75083000D02*
X22659336Y75035381D01*
X22659336Y75035381D02*
X22897431Y75035381D01*
X21992669Y76035381D02*
X21373622Y76035381D01*
X21373622Y76035381D02*
X21706955Y75654429D01*
X21706955Y75654429D02*
X21564098Y75654429D01*
X21564098Y75654429D02*
X21468860Y75606810D01*
X21468860Y75606810D02*
X21421241Y75559191D01*
X21421241Y75559191D02*
X21373622Y75463953D01*
X21373622Y75463953D02*
X21373622Y75225858D01*
X21373622Y75225858D02*
X21421241Y75130620D01*
X21421241Y75130620D02*
X21468860Y75083000D01*
X21468860Y75083000D02*
X21564098Y75035381D01*
X21564098Y75035381D02*
X21849812Y75035381D01*
X21849812Y75035381D02*
X21945050Y75083000D01*
X21945050Y75083000D02*
X21992669Y75130620D01*
X47635527Y61202048D02*
X48397431Y60916334D01*
X48397431Y60916334D02*
X47635527Y60630620D01*
X46397432Y61202048D02*
X47159336Y60916334D01*
X47159336Y60916334D02*
X46397432Y60630620D01*
X45159337Y61202048D02*
X45921241Y60916334D01*
X45921241Y60916334D02*
X45159337Y60630620D01*
X43921241Y60535381D02*
X43921241Y61535381D01*
X43921241Y61059191D02*
X43349813Y61059191D01*
X43349813Y60535381D02*
X43349813Y61535381D01*
X42873622Y60535381D02*
X42873622Y61202048D01*
X42873622Y61535381D02*
X42921241Y61487762D01*
X42921241Y61487762D02*
X42873622Y61440143D01*
X42873622Y61440143D02*
X42826003Y61487762D01*
X42826003Y61487762D02*
X42873622Y61535381D01*
X42873622Y61535381D02*
X42873622Y61440143D01*
X41968861Y61202048D02*
X41968861Y60392524D01*
X41968861Y60392524D02*
X42016480Y60297286D01*
X42016480Y60297286D02*
X42064099Y60249667D01*
X42064099Y60249667D02*
X42159337Y60202048D01*
X42159337Y60202048D02*
X42302194Y60202048D01*
X42302194Y60202048D02*
X42397432Y60249667D01*
X41968861Y60583000D02*
X42064099Y60535381D01*
X42064099Y60535381D02*
X42254575Y60535381D01*
X42254575Y60535381D02*
X42349813Y60583000D01*
X42349813Y60583000D02*
X42397432Y60630620D01*
X42397432Y60630620D02*
X42445051Y60725858D01*
X42445051Y60725858D02*
X42445051Y61011572D01*
X42445051Y61011572D02*
X42397432Y61106810D01*
X42397432Y61106810D02*
X42349813Y61154429D01*
X42349813Y61154429D02*
X42254575Y61202048D01*
X42254575Y61202048D02*
X42064099Y61202048D01*
X42064099Y61202048D02*
X41968861Y61154429D01*
X41492670Y60535381D02*
X41492670Y61535381D01*
X41064099Y60535381D02*
X41064099Y61059191D01*
X41064099Y61059191D02*
X41111718Y61154429D01*
X41111718Y61154429D02*
X41206956Y61202048D01*
X41206956Y61202048D02*
X41349813Y61202048D01*
X41349813Y61202048D02*
X41445051Y61154429D01*
X41445051Y61154429D02*
X41492670Y61106810D01*
X39873622Y60821096D02*
X39397432Y60821096D01*
X39968860Y60535381D02*
X39635527Y61535381D01*
X39635527Y61535381D02*
X39302194Y60535381D01*
X38540289Y60583000D02*
X38635527Y60535381D01*
X38635527Y60535381D02*
X38826003Y60535381D01*
X38826003Y60535381D02*
X38921241Y60583000D01*
X38921241Y60583000D02*
X38968860Y60630620D01*
X38968860Y60630620D02*
X39016479Y60725858D01*
X39016479Y60725858D02*
X39016479Y61011572D01*
X39016479Y61011572D02*
X38968860Y61106810D01*
X38968860Y61106810D02*
X38921241Y61154429D01*
X38921241Y61154429D02*
X38826003Y61202048D01*
X38826003Y61202048D02*
X38635527Y61202048D01*
X38635527Y61202048D02*
X38540289Y61154429D01*
X38254574Y61202048D02*
X37873622Y61202048D01*
X38111717Y61535381D02*
X38111717Y60678239D01*
X38111717Y60678239D02*
X38064098Y60583000D01*
X38064098Y60583000D02*
X37968860Y60535381D01*
X37968860Y60535381D02*
X37873622Y60535381D01*
X37540288Y60535381D02*
X37540288Y61202048D01*
X37540288Y61535381D02*
X37587907Y61487762D01*
X37587907Y61487762D02*
X37540288Y61440143D01*
X37540288Y61440143D02*
X37492669Y61487762D01*
X37492669Y61487762D02*
X37540288Y61535381D01*
X37540288Y61535381D02*
X37540288Y61440143D01*
X37159336Y61202048D02*
X36921241Y60535381D01*
X36921241Y60535381D02*
X36683146Y61202048D01*
X35873622Y60535381D02*
X35873622Y61059191D01*
X35873622Y61059191D02*
X35921241Y61154429D01*
X35921241Y61154429D02*
X36016479Y61202048D01*
X36016479Y61202048D02*
X36206955Y61202048D01*
X36206955Y61202048D02*
X36302193Y61154429D01*
X35873622Y60583000D02*
X35968860Y60535381D01*
X35968860Y60535381D02*
X36206955Y60535381D01*
X36206955Y60535381D02*
X36302193Y60583000D01*
X36302193Y60583000D02*
X36349812Y60678239D01*
X36349812Y60678239D02*
X36349812Y60773477D01*
X36349812Y60773477D02*
X36302193Y60868715D01*
X36302193Y60868715D02*
X36206955Y60916334D01*
X36206955Y60916334D02*
X35968860Y60916334D01*
X35968860Y60916334D02*
X35873622Y60963953D01*
X35540288Y61202048D02*
X35159336Y61202048D01*
X35397431Y61535381D02*
X35397431Y60678239D01*
X35397431Y60678239D02*
X35349812Y60583000D01*
X35349812Y60583000D02*
X35254574Y60535381D01*
X35254574Y60535381D02*
X35159336Y60535381D01*
X34826002Y60535381D02*
X34826002Y61202048D01*
X34826002Y61535381D02*
X34873621Y61487762D01*
X34873621Y61487762D02*
X34826002Y61440143D01*
X34826002Y61440143D02*
X34778383Y61487762D01*
X34778383Y61487762D02*
X34826002Y61535381D01*
X34826002Y61535381D02*
X34826002Y61440143D01*
X34206955Y60535381D02*
X34302193Y60583000D01*
X34302193Y60583000D02*
X34349812Y60630620D01*
X34349812Y60630620D02*
X34397431Y60725858D01*
X34397431Y60725858D02*
X34397431Y61011572D01*
X34397431Y61011572D02*
X34349812Y61106810D01*
X34349812Y61106810D02*
X34302193Y61154429D01*
X34302193Y61154429D02*
X34206955Y61202048D01*
X34206955Y61202048D02*
X34064098Y61202048D01*
X34064098Y61202048D02*
X33968860Y61154429D01*
X33968860Y61154429D02*
X33921241Y61106810D01*
X33921241Y61106810D02*
X33873622Y61011572D01*
X33873622Y61011572D02*
X33873622Y60725858D01*
X33873622Y60725858D02*
X33921241Y60630620D01*
X33921241Y60630620D02*
X33968860Y60583000D01*
X33968860Y60583000D02*
X34064098Y60535381D01*
X34064098Y60535381D02*
X34206955Y60535381D01*
X33445050Y61202048D02*
X33445050Y60535381D01*
X33445050Y61106810D02*
X33397431Y61154429D01*
X33397431Y61154429D02*
X33302193Y61202048D01*
X33302193Y61202048D02*
X33159336Y61202048D01*
X33159336Y61202048D02*
X33064098Y61154429D01*
X33064098Y61154429D02*
X33016479Y61059191D01*
X33016479Y61059191D02*
X33016479Y60535381D01*
X31064098Y61583000D02*
X31921240Y60297286D01*
X29492669Y60535381D02*
X29968859Y60535381D01*
X29968859Y60535381D02*
X29968859Y61535381D01*
X29016478Y60535381D02*
X29111716Y60583000D01*
X29111716Y60583000D02*
X29159335Y60630620D01*
X29159335Y60630620D02*
X29206954Y60725858D01*
X29206954Y60725858D02*
X29206954Y61011572D01*
X29206954Y61011572D02*
X29159335Y61106810D01*
X29159335Y61106810D02*
X29111716Y61154429D01*
X29111716Y61154429D02*
X29016478Y61202048D01*
X29016478Y61202048D02*
X28873621Y61202048D01*
X28873621Y61202048D02*
X28778383Y61154429D01*
X28778383Y61154429D02*
X28730764Y61106810D01*
X28730764Y61106810D02*
X28683145Y61011572D01*
X28683145Y61011572D02*
X28683145Y60725858D01*
X28683145Y60725858D02*
X28730764Y60630620D01*
X28730764Y60630620D02*
X28778383Y60583000D01*
X28778383Y60583000D02*
X28873621Y60535381D01*
X28873621Y60535381D02*
X29016478Y60535381D01*
X28349811Y61202048D02*
X28159335Y60535381D01*
X28159335Y60535381D02*
X27968859Y61011572D01*
X27968859Y61011572D02*
X27778383Y60535381D01*
X27778383Y60535381D02*
X27587907Y61202048D01*
X26492668Y60821096D02*
X26016478Y60821096D01*
X26587906Y60535381D02*
X26254573Y61535381D01*
X26254573Y61535381D02*
X25921240Y60535381D01*
X25159335Y60583000D02*
X25254573Y60535381D01*
X25254573Y60535381D02*
X25445049Y60535381D01*
X25445049Y60535381D02*
X25540287Y60583000D01*
X25540287Y60583000D02*
X25587906Y60630620D01*
X25587906Y60630620D02*
X25635525Y60725858D01*
X25635525Y60725858D02*
X25635525Y61011572D01*
X25635525Y61011572D02*
X25587906Y61106810D01*
X25587906Y61106810D02*
X25540287Y61154429D01*
X25540287Y61154429D02*
X25445049Y61202048D01*
X25445049Y61202048D02*
X25254573Y61202048D01*
X25254573Y61202048D02*
X25159335Y61154429D01*
X24873620Y61202048D02*
X24492668Y61202048D01*
X24730763Y61535381D02*
X24730763Y60678239D01*
X24730763Y60678239D02*
X24683144Y60583000D01*
X24683144Y60583000D02*
X24587906Y60535381D01*
X24587906Y60535381D02*
X24492668Y60535381D01*
X24159334Y60535381D02*
X24159334Y61202048D01*
X24159334Y61535381D02*
X24206953Y61487762D01*
X24206953Y61487762D02*
X24159334Y61440143D01*
X24159334Y61440143D02*
X24111715Y61487762D01*
X24111715Y61487762D02*
X24159334Y61535381D01*
X24159334Y61535381D02*
X24159334Y61440143D01*
X23778382Y61202048D02*
X23540287Y60535381D01*
X23540287Y60535381D02*
X23302192Y61202048D01*
X22492668Y60535381D02*
X22492668Y61059191D01*
X22492668Y61059191D02*
X22540287Y61154429D01*
X22540287Y61154429D02*
X22635525Y61202048D01*
X22635525Y61202048D02*
X22826001Y61202048D01*
X22826001Y61202048D02*
X22921239Y61154429D01*
X22492668Y60583000D02*
X22587906Y60535381D01*
X22587906Y60535381D02*
X22826001Y60535381D01*
X22826001Y60535381D02*
X22921239Y60583000D01*
X22921239Y60583000D02*
X22968858Y60678239D01*
X22968858Y60678239D02*
X22968858Y60773477D01*
X22968858Y60773477D02*
X22921239Y60868715D01*
X22921239Y60868715D02*
X22826001Y60916334D01*
X22826001Y60916334D02*
X22587906Y60916334D01*
X22587906Y60916334D02*
X22492668Y60963953D01*
X22159334Y61202048D02*
X21778382Y61202048D01*
X22016477Y61535381D02*
X22016477Y60678239D01*
X22016477Y60678239D02*
X21968858Y60583000D01*
X21968858Y60583000D02*
X21873620Y60535381D01*
X21873620Y60535381D02*
X21778382Y60535381D01*
X21445048Y60535381D02*
X21445048Y61202048D01*
X21445048Y61535381D02*
X21492667Y61487762D01*
X21492667Y61487762D02*
X21445048Y61440143D01*
X21445048Y61440143D02*
X21397429Y61487762D01*
X21397429Y61487762D02*
X21445048Y61535381D01*
X21445048Y61535381D02*
X21445048Y61440143D01*
X20826001Y60535381D02*
X20921239Y60583000D01*
X20921239Y60583000D02*
X20968858Y60630620D01*
X20968858Y60630620D02*
X21016477Y60725858D01*
X21016477Y60725858D02*
X21016477Y61011572D01*
X21016477Y61011572D02*
X20968858Y61106810D01*
X20968858Y61106810D02*
X20921239Y61154429D01*
X20921239Y61154429D02*
X20826001Y61202048D01*
X20826001Y61202048D02*
X20683144Y61202048D01*
X20683144Y61202048D02*
X20587906Y61154429D01*
X20587906Y61154429D02*
X20540287Y61106810D01*
X20540287Y61106810D02*
X20492668Y61011572D01*
X20492668Y61011572D02*
X20492668Y60725858D01*
X20492668Y60725858D02*
X20540287Y60630620D01*
X20540287Y60630620D02*
X20587906Y60583000D01*
X20587906Y60583000D02*
X20683144Y60535381D01*
X20683144Y60535381D02*
X20826001Y60535381D01*
X20064096Y61202048D02*
X20064096Y60535381D01*
X20064096Y61106810D02*
X20016477Y61154429D01*
X20016477Y61154429D02*
X19921239Y61202048D01*
X19921239Y61202048D02*
X19778382Y61202048D01*
X19778382Y61202048D02*
X19683144Y61154429D01*
X19683144Y61154429D02*
X19635525Y61059191D01*
X19635525Y61059191D02*
X19635525Y60535381D01*
X18397429Y61202048D02*
X17635525Y60916334D01*
X17635525Y60916334D02*
X18397429Y60630620D01*
X17159334Y61202048D02*
X16397430Y60916334D01*
X16397430Y60916334D02*
X17159334Y60630620D01*
X15921239Y61202048D02*
X15159335Y60916334D01*
X15159335Y60916334D02*
X15921239Y60630620D01*
X61997431Y71935381D02*
X61997431Y72935381D01*
X61997431Y72935381D02*
X61759336Y72935381D01*
X61759336Y72935381D02*
X61616479Y72887762D01*
X61616479Y72887762D02*
X61521241Y72792524D01*
X61521241Y72792524D02*
X61473622Y72697286D01*
X61473622Y72697286D02*
X61426003Y72506810D01*
X61426003Y72506810D02*
X61426003Y72363953D01*
X61426003Y72363953D02*
X61473622Y72173477D01*
X61473622Y72173477D02*
X61521241Y72078239D01*
X61521241Y72078239D02*
X61616479Y71983000D01*
X61616479Y71983000D02*
X61759336Y71935381D01*
X61759336Y71935381D02*
X61997431Y71935381D01*
X60521241Y72935381D02*
X60997431Y72935381D01*
X60997431Y72935381D02*
X61045050Y72459191D01*
X61045050Y72459191D02*
X60997431Y72506810D01*
X60997431Y72506810D02*
X60902193Y72554429D01*
X60902193Y72554429D02*
X60664098Y72554429D01*
X60664098Y72554429D02*
X60568860Y72506810D01*
X60568860Y72506810D02*
X60521241Y72459191D01*
X60521241Y72459191D02*
X60473622Y72363953D01*
X60473622Y72363953D02*
X60473622Y72125858D01*
X60473622Y72125858D02*
X60521241Y72030620D01*
X60521241Y72030620D02*
X60568860Y71983000D01*
X60568860Y71983000D02*
X60664098Y71935381D01*
X60664098Y71935381D02*
X60902193Y71935381D01*
X60902193Y71935381D02*
X60997431Y71983000D01*
X60997431Y71983000D02*
X61045050Y72030620D01*
D11*
G04 #@! TO.C,M2*
X2324999Y22824999D02*
X2324999Y26025002D01*
X2324999Y10724999D02*
X2324999Y21125001D01*
X2324999Y8824999D02*
X2324999Y9124999D01*
X2324999Y8824999D02*
X17724999Y8824999D01*
X3824999Y29424997D02*
X19124998Y29424999D01*
X19124996Y22725001D02*
X19124996Y27525001D01*
X19124996Y16524999D02*
X19124996Y19224999D01*
X19124996Y13825001D02*
X19124996Y14925004D01*
X19124996Y10274999D02*
X19125001Y11824999D01*
X19124998Y29125001D02*
X19124998Y29424999D01*
G04 #@! TO.C,M1*
X26374995Y43875005D02*
X26374995Y8075015D01*
X60175005Y43875005D02*
X26374995Y43875005D01*
X60175005Y43875005D02*
X60175005Y8075015D01*
X60175005Y8075015D02*
X26374995Y8075015D01*
D12*
G04 #@! TO.C,F1*
X9200000Y64100000D02*
X9200000Y68950000D01*
X11200000Y64100000D02*
X11200000Y68950000D01*
X9200000Y68950000D02*
G75*
G02*
X11200000Y68950000I1000000J0D01*
G01*
X11200000Y64050000D02*
G75*
G02*
X9200000Y64050000I-1000000J0D01*
G01*
G04 #@! TO.C,JP7*
X20550000Y78600000D02*
X20550000Y76600000D01*
X20550000Y76600000D02*
X24650000Y76600000D01*
X23900000Y76400000D02*
X23600000Y76100000D01*
X23900000Y76400000D02*
X24200000Y76100000D01*
X24200000Y76100000D02*
X23600000Y76100000D01*
X24650000Y78600000D02*
X20550000Y78600000D01*
X24650000Y76600000D02*
X24650000Y78600000D01*
D13*
G04 #@! TO.C,BT1*
X9280684Y46040000D02*
X7756684Y46040000D01*
X16011684Y45024000D02*
X16011684Y47056000D01*
X16164110Y49670600D02*
X16164110Y50612000D01*
X16164110Y36388000D02*
X16164110Y37588302D01*
X17027684Y46040000D02*
X14995684Y46040000D01*
X19320136Y50612000D02*
X16164110Y50612000D01*
X19320136Y45731110D02*
X19320136Y50612000D01*
X19320136Y36388000D02*
X16164110Y36388000D01*
X19320136Y36388000D02*
X19320136Y41268889D01*
X5182469Y45654049D02*
G75*
G02*
X19011117Y45675107I6917620J-2154015D01*
G01*
X18915513Y41202548D02*
G75*
G02*
X5228594Y41376081I-6815431J2297434D01*
G01*
D12*
G04 #@! TO.C,JP6*
X20550000Y81530000D02*
X20550000Y79530000D01*
X20550000Y79530000D02*
X24650000Y79530000D01*
X23900000Y79330000D02*
X23600000Y79030000D01*
X23900000Y79330000D02*
X24200000Y79030000D01*
X24200000Y79030000D02*
X23600000Y79030000D01*
X24650000Y81530000D02*
X20550000Y81530000D01*
X24650000Y79530000D02*
X24650000Y81530000D01*
G04 #@! TO.C,JP15*
X44150000Y78500000D02*
X44150000Y76500000D01*
X44150000Y76500000D02*
X48250000Y76500000D01*
X47500000Y76300000D02*
X47200000Y76000000D01*
X47500000Y76300000D02*
X47800000Y76000000D01*
X47800000Y76000000D02*
X47200000Y76000000D01*
X48250000Y78500000D02*
X44150000Y78500000D01*
X48250000Y76500000D02*
X48250000Y78500000D01*
G04 #@! TO.C,JP10*
X55650000Y74730000D02*
X55650000Y72730000D01*
X55650000Y72730000D02*
X59750000Y72730000D01*
X59000000Y72530000D02*
X58700000Y72230000D01*
X59000000Y72530000D02*
X59300000Y72230000D01*
X59300000Y72230000D02*
X58700000Y72230000D01*
X59750000Y74730000D02*
X55650000Y74730000D01*
X59750000Y72730000D02*
X59750000Y74730000D01*
G04 #@! TO.C,JP2*
X32500000Y81357500D02*
X32500000Y79357500D01*
X32500000Y79357500D02*
X36600000Y79357500D01*
X35850000Y79157500D02*
X35550000Y78857500D01*
X35850000Y79157500D02*
X36150000Y78857500D01*
X36150000Y78857500D02*
X35550000Y78857500D01*
X36600000Y81357500D02*
X32500000Y81357500D01*
X36600000Y79357500D02*
X36600000Y81357500D01*
G04 #@! TO.C,JP11*
X55650000Y71800000D02*
X55650000Y69800000D01*
X55650000Y69800000D02*
X59750000Y69800000D01*
X59000000Y69600000D02*
X58700000Y69300000D01*
X59000000Y69600000D02*
X59300000Y69300000D01*
X59300000Y69300000D02*
X58700000Y69300000D01*
X59750000Y71800000D02*
X55650000Y71800000D01*
X59750000Y69800000D02*
X59750000Y71800000D01*
D14*
G04 #@! TO.C,G1*
G36*
X46020679Y50842554D02*
G01*
X46363493Y50842379D01*
X46703214Y50842116D01*
X47038605Y50841766D01*
X47368429Y50841328D01*
X47691450Y50840802D01*
X48006431Y50840189D01*
X48312136Y50839488D01*
X48607328Y50838700D01*
X48890771Y50837824D01*
X49161227Y50836861D01*
X49417461Y50835810D01*
X49658235Y50834672D01*
X49882314Y50833446D01*
X50088460Y50832132D01*
X50275438Y50830731D01*
X50442009Y50829242D01*
X50586939Y50827666D01*
X50708990Y50826002D01*
X50806925Y50824250D01*
X50879509Y50822411D01*
X50925504Y50820485D01*
X50943674Y50818470D01*
X50980726Y50789215D01*
X51013054Y50733878D01*
X51024554Y50664651D01*
X51022997Y50641401D01*
X51008868Y50602715D01*
X50975149Y50562213D01*
X50925744Y50512808D01*
X40079886Y50512808D01*
X40030481Y50562213D01*
X40010271Y50584093D01*
X39987395Y50622137D01*
X39981076Y50664651D01*
X39987973Y50718980D01*
X40015804Y50778055D01*
X40061956Y50818470D01*
X40061968Y50818477D01*
X40080228Y50820491D01*
X40126310Y50822417D01*
X40198976Y50824256D01*
X40296990Y50826007D01*
X40419115Y50827671D01*
X40564115Y50829247D01*
X40730754Y50830735D01*
X40917794Y50832136D01*
X41123999Y50833450D01*
X41348133Y50834675D01*
X41588958Y50835814D01*
X41845239Y50836864D01*
X42115739Y50837827D01*
X42399220Y50838703D01*
X42694448Y50839491D01*
X43000184Y50840191D01*
X43315193Y50840804D01*
X43638237Y50841329D01*
X43968081Y50841767D01*
X44303487Y50842117D01*
X44643220Y50842380D01*
X44986042Y50842555D01*
X45330717Y50842642D01*
X45676008Y50842642D01*
X46020679Y50842554D01*
G37*
G36*
X51824055Y57977531D02*
G01*
X51866703Y57941727D01*
X51866719Y57941713D01*
X51895305Y57914505D01*
X51915685Y57888277D01*
X51931406Y57855675D01*
X51946015Y57809343D01*
X51963059Y57741927D01*
X51965915Y57729706D01*
X51980791Y57655280D01*
X51995922Y57564374D01*
X52009685Y57467370D01*
X52020460Y57374648D01*
X52025857Y57320325D01*
X52032318Y57249404D01*
X52035496Y57197260D01*
X52035228Y57157567D01*
X52031352Y57124000D01*
X52023707Y57090235D01*
X52012129Y57049946D01*
X52006792Y57033140D01*
X51972207Y56951809D01*
X51919831Y56861925D01*
X51847809Y56760575D01*
X51754287Y56644845D01*
X51697174Y56581377D01*
X51639555Y56529254D01*
X51579607Y56489959D01*
X51508687Y56456878D01*
X51482315Y56446349D01*
X51447617Y56433161D01*
X51430649Y56427674D01*
X51427592Y56428348D01*
X51405472Y56440707D01*
X51369893Y56464732D01*
X51327822Y56495397D01*
X51286223Y56527677D01*
X51252061Y56556544D01*
X51224957Y56585733D01*
X51180095Y56655345D01*
X51142982Y56740297D01*
X51117888Y56831825D01*
X51115171Y56846224D01*
X51108294Y56892846D01*
X51108630Y56930701D01*
X51117234Y56971759D01*
X51135158Y57027993D01*
X51146640Y57059392D01*
X51191841Y57155264D01*
X51247923Y57243966D01*
X51309897Y57318297D01*
X51372775Y57371055D01*
X51432805Y57416073D01*
X51503933Y57483700D01*
X51573733Y57563283D01*
X51638702Y57649735D01*
X51695333Y57737968D01*
X51740123Y57822895D01*
X51769567Y57899428D01*
X51780160Y57962479D01*
X51780192Y57965995D01*
X51784302Y57988826D01*
X51797755Y57992951D01*
X51824055Y57977531D01*
G37*
G36*
X51618937Y58352131D02*
G01*
X51634762Y58337774D01*
X51637124Y58335568D01*
X51653475Y58312311D01*
X51661671Y58277611D01*
X51663913Y58222781D01*
X51658944Y58144640D01*
X51628856Y58013080D01*
X51573407Y57887261D01*
X51494787Y57773008D01*
X51494538Y57772711D01*
X51458575Y57736549D01*
X51404114Y57689600D01*
X51337243Y57636426D01*
X51264050Y57581591D01*
X51190623Y57529656D01*
X51123052Y57485185D01*
X51067424Y57452740D01*
X51040867Y57437349D01*
X50986556Y57396854D01*
X50946845Y57354971D01*
X50938793Y57342908D01*
X50905864Y57271278D01*
X50882216Y57180585D01*
X50869366Y57078273D01*
X50868829Y56971790D01*
X50870888Y56941565D01*
X50877470Y56888364D01*
X50889537Y56840003D01*
X50909976Y56786407D01*
X50941672Y56717499D01*
X50961286Y56677624D01*
X50993827Y56618844D01*
X51028738Y56568446D01*
X51072625Y56517380D01*
X51132093Y56456595D01*
X51179714Y56408298D01*
X51219603Y56363769D01*
X51238877Y56335390D01*
X51238552Y56321876D01*
X51227666Y56317765D01*
X51188213Y56317113D01*
X51132431Y56326724D01*
X51067319Y56345627D01*
X51044949Y56354757D01*
X50985047Y56387183D01*
X50915020Y56432689D01*
X50841859Y56486036D01*
X50772554Y56541986D01*
X50714096Y56595301D01*
X50673476Y56640743D01*
X50623978Y56715326D01*
X50556269Y56857655D01*
X50515240Y57010664D01*
X50501442Y57172652D01*
X50508563Y57241186D01*
X50539190Y57341637D01*
X50592257Y57449281D01*
X50665896Y57560486D01*
X50758237Y57671623D01*
X50761258Y57674857D01*
X50786310Y57698129D01*
X50819056Y57722043D01*
X50863301Y57748755D01*
X50922849Y57780426D01*
X51001506Y57819213D01*
X51103076Y57867276D01*
X51174926Y57900951D01*
X51253293Y57938298D01*
X51312199Y57967759D01*
X51355656Y57991789D01*
X51387679Y58012843D01*
X51412281Y58033377D01*
X51433477Y58055845D01*
X51455280Y58082702D01*
X51485159Y58124861D01*
X51525890Y58192947D01*
X51557552Y58257587D01*
X51565294Y58276292D01*
X51584988Y58323271D01*
X51597915Y58348894D01*
X51607943Y58357176D01*
X51618937Y58352131D01*
G37*
G36*
X45727298Y54419048D02*
G01*
X45808199Y54390742D01*
X45874295Y54337611D01*
X45925775Y54259486D01*
X45962827Y54156196D01*
X45967486Y54136275D01*
X45976246Y54080909D01*
X45980964Y54015135D01*
X45981467Y53936941D01*
X45977581Y53844314D01*
X45969133Y53735242D01*
X45955951Y53607713D01*
X45937861Y53459716D01*
X45914690Y53289238D01*
X45886265Y53094267D01*
X45852413Y52872791D01*
X45842600Y52808527D01*
X45824860Y52686832D01*
X45807889Y52563905D01*
X45792679Y52447222D01*
X45780221Y52344259D01*
X45771506Y52262493D01*
X45769134Y52237706D01*
X45755872Y52105844D01*
X45741476Y51972500D01*
X45726392Y51841050D01*
X45711065Y51714874D01*
X45695941Y51597348D01*
X45681465Y51491852D01*
X45668083Y51401763D01*
X45656241Y51330459D01*
X45646384Y51281318D01*
X45638957Y51257719D01*
X45621595Y51235173D01*
X45567407Y51193170D01*
X45498818Y51166276D01*
X45468806Y51161295D01*
X45415483Y51156346D01*
X45357506Y51153974D01*
X45269746Y51160362D01*
X45193464Y51185278D01*
X45139180Y51229081D01*
X45106730Y51291910D01*
X45095950Y51373900D01*
X45097408Y51396377D01*
X45104068Y51448369D01*
X45115189Y51518047D01*
X45129743Y51599108D01*
X45146704Y51685251D01*
X45155458Y51727935D01*
X45182314Y51861656D01*
X45203824Y51974383D01*
X45220949Y52071806D01*
X45234654Y52159617D01*
X45245901Y52243508D01*
X45255652Y52329169D01*
X45258195Y52352137D01*
X45266699Y52422245D01*
X45278257Y52511678D01*
X45291996Y52613893D01*
X45307043Y52722343D01*
X45322525Y52830485D01*
X45345425Y52987802D01*
X45366246Y53131837D01*
X45383445Y53253336D01*
X45397294Y53355524D01*
X45408065Y53441626D01*
X45416030Y53514866D01*
X45421463Y53578469D01*
X45424635Y53635659D01*
X45425818Y53689661D01*
X45425287Y53743698D01*
X45423312Y53800996D01*
X45420166Y53864779D01*
X45416122Y53938271D01*
X45414603Y53966561D01*
X45410366Y54058237D01*
X45407585Y54140221D01*
X45406362Y54207686D01*
X45406798Y54255804D01*
X45408993Y54279747D01*
X45410543Y54284572D01*
X45444638Y54341900D01*
X45501230Y54385837D01*
X45576181Y54414052D01*
X45665356Y54424213D01*
X45727298Y54419048D01*
G37*
G36*
X44714721Y54405894D02*
G01*
X44781530Y54372136D01*
X44833559Y54321074D01*
X44848554Y54299035D01*
X44872916Y54256958D01*
X44892759Y54211526D01*
X44908032Y54160634D01*
X44918682Y54102180D01*
X44924657Y54034059D01*
X44925903Y53954167D01*
X44922369Y53860400D01*
X44914002Y53750654D01*
X44900749Y53622826D01*
X44882559Y53474811D01*
X44859378Y53304506D01*
X44831155Y53109807D01*
X44797836Y52888609D01*
X44797622Y52887205D01*
X44780069Y52769728D01*
X44763221Y52652519D01*
X44747848Y52541265D01*
X44734717Y52441654D01*
X44724598Y52359373D01*
X44718261Y52300108D01*
X44718215Y52299607D01*
X44711512Y52231231D01*
X44702107Y52141977D01*
X44690868Y52039736D01*
X44678660Y51932398D01*
X44666352Y51827854D01*
X44665126Y51817642D01*
X44653083Y51717172D01*
X44641300Y51618634D01*
X44630582Y51528759D01*
X44621730Y51454277D01*
X44615547Y51401918D01*
X44613598Y51386507D01*
X44603531Y51327001D01*
X44591439Y51277616D01*
X44579524Y51247774D01*
X44570546Y51236797D01*
X44531340Y51206924D01*
X44477785Y51180058D01*
X44420263Y51161803D01*
X44391180Y51157161D01*
X44326682Y51153757D01*
X44257992Y51156595D01*
X44196090Y51164999D01*
X44151960Y51178294D01*
X44139542Y51184992D01*
X44085379Y51231075D01*
X44048693Y51291669D01*
X44035195Y51357984D01*
X44035225Y51359985D01*
X44038601Y51394080D01*
X44046922Y51450647D01*
X44059282Y51524262D01*
X44074775Y51609502D01*
X44092494Y51700944D01*
X44103306Y51755298D01*
X44131724Y51901469D01*
X44154766Y52026281D01*
X44173292Y52134955D01*
X44188162Y52232711D01*
X44200238Y52324771D01*
X44210379Y52416355D01*
X44211561Y52427551D01*
X44218663Y52487814D01*
X44229181Y52570327D01*
X44242418Y52669914D01*
X44257679Y52781403D01*
X44274267Y52899618D01*
X44291487Y53019387D01*
X44303026Y53099133D01*
X44323376Y53244106D01*
X44339423Y53367195D01*
X44351471Y53472968D01*
X44359824Y53565991D01*
X44364787Y53650832D01*
X44366665Y53732056D01*
X44365761Y53814231D01*
X44362379Y53901924D01*
X44356826Y53999701D01*
X44353803Y54048779D01*
X44349354Y54129383D01*
X44347305Y54188298D01*
X44347803Y54230414D01*
X44350996Y54260619D01*
X44357034Y54283802D01*
X44366062Y54304850D01*
X44376166Y54322659D01*
X44423795Y54372192D01*
X44487669Y54405497D01*
X44561586Y54422359D01*
X44639338Y54422563D01*
X44714721Y54405894D01*
G37*
G36*
X40705759Y53260008D02*
G01*
X40842397Y53218369D01*
X40974245Y53149854D01*
X41099189Y53055567D01*
X41215119Y52936611D01*
X41287421Y52851114D01*
X41303349Y52913454D01*
X41313789Y52951167D01*
X41343781Y53028881D01*
X41381547Y53083689D01*
X41430716Y53119919D01*
X41494920Y53141901D01*
X41536900Y53148677D01*
X41626199Y53144477D01*
X41705083Y53114939D01*
X41770455Y53062222D01*
X41819216Y52988481D01*
X41848270Y52895874D01*
X41849652Y52884121D01*
X41850264Y52857661D01*
X41848913Y52818976D01*
X41845405Y52765986D01*
X41839550Y52696613D01*
X41831155Y52608780D01*
X41820028Y52500409D01*
X41805976Y52369422D01*
X41788808Y52213740D01*
X41768332Y52031286D01*
X41758515Y51944661D01*
X41740703Y51790078D01*
X41725151Y51660552D01*
X41711348Y51553507D01*
X41698780Y51466372D01*
X41686936Y51396571D01*
X41675304Y51341533D01*
X41663370Y51298682D01*
X41650624Y51265446D01*
X41636551Y51239252D01*
X41620641Y51217525D01*
X41602380Y51197693D01*
X41550100Y51157959D01*
X41475815Y51130683D01*
X41392628Y51119677D01*
X41311168Y51127240D01*
X41243797Y51154038D01*
X41195287Y51198910D01*
X41187054Y51213267D01*
X41178488Y51241041D01*
X41174692Y51279339D01*
X41175795Y51331766D01*
X41181922Y51401930D01*
X41193201Y51493436D01*
X41209758Y51609890D01*
X41223038Y51703842D01*
X41243383Y51877454D01*
X41254378Y52028719D01*
X41255853Y52161168D01*
X41247637Y52278331D01*
X41229559Y52383739D01*
X41201448Y52480922D01*
X41163132Y52573412D01*
X41141946Y52613949D01*
X41086664Y52697074D01*
X41021339Y52772485D01*
X40950413Y52836447D01*
X40878326Y52885224D01*
X40809519Y52915078D01*
X40748435Y52922274D01*
X40730982Y52918683D01*
X40695287Y52895875D01*
X40664225Y52850881D01*
X40636469Y52781411D01*
X40610687Y52685176D01*
X40605546Y52661196D01*
X40599851Y52628443D01*
X40595246Y52591380D01*
X40591619Y52546913D01*
X40588857Y52491947D01*
X40586848Y52423390D01*
X40585481Y52338148D01*
X40584643Y52233125D01*
X40584223Y52105229D01*
X40584108Y51951366D01*
X40583898Y51792826D01*
X40583215Y51658030D01*
X40582003Y51548223D01*
X40580202Y51461351D01*
X40577756Y51395359D01*
X40574608Y51348192D01*
X40570699Y51317797D01*
X40565974Y51302119D01*
X40534001Y51262809D01*
X40474402Y51224152D01*
X40400397Y51200514D01*
X40318529Y51193032D01*
X40235341Y51202845D01*
X40157376Y51231089D01*
X40138754Y51242305D01*
X40091622Y51283081D01*
X40052241Y51332794D01*
X40029819Y51380651D01*
X40026992Y51407524D01*
X40025947Y51457229D01*
X40026882Y51521763D01*
X40029797Y51593861D01*
X40029927Y51596307D01*
X40033654Y51668087D01*
X40038335Y51760560D01*
X40043573Y51865727D01*
X40048968Y51975588D01*
X40054122Y52082144D01*
X40059702Y52188965D01*
X40069888Y52348775D01*
X40081485Y52495131D01*
X40094174Y52624913D01*
X40107639Y52734999D01*
X40121562Y52822267D01*
X40135626Y52883595D01*
X40158321Y52951151D01*
X40213854Y53066902D01*
X40282918Y53157164D01*
X40365362Y53221804D01*
X40461037Y53260687D01*
X40569792Y53273677D01*
X40705759Y53260008D01*
G37*
G36*
X47617198Y52459419D02*
G01*
X47626223Y52349909D01*
X47691458Y52315302D01*
X47728817Y52293212D01*
X47764676Y52259629D01*
X47782947Y52216357D01*
X47789303Y52154048D01*
X47786117Y52101452D01*
X47765463Y52046580D01*
X47726442Y52013685D01*
X47669620Y52003479D01*
X47609794Y52004733D01*
X47609794Y51936360D01*
X47607634Y51887187D01*
X47596249Y51793915D01*
X47577056Y51692092D01*
X47552282Y51592878D01*
X47524156Y51507436D01*
X47510583Y51474098D01*
X47452679Y51362297D01*
X47384862Y51276234D01*
X47305460Y51214117D01*
X47212797Y51174155D01*
X47197213Y51169895D01*
X47165673Y51164404D01*
X47133829Y51164940D01*
X47098857Y51172991D01*
X47057936Y51190041D01*
X47008242Y51217575D01*
X46946952Y51257079D01*
X46871245Y51310039D01*
X46778297Y51377939D01*
X46665286Y51462265D01*
X46619097Y51497380D01*
X46507706Y51585835D01*
X46402863Y51674244D01*
X46307462Y51759861D01*
X46224396Y51839940D01*
X46156559Y51911734D01*
X46106843Y51972499D01*
X46078143Y52019488D01*
X46061279Y52072686D01*
X46060843Y52118022D01*
X46072812Y52143554D01*
X46110431Y52178890D01*
X46163738Y52203562D01*
X46224614Y52212868D01*
X46238580Y52212337D01*
X46270452Y52206351D01*
X46304893Y52191978D01*
X46344770Y52167065D01*
X46392949Y52129460D01*
X46452296Y52077009D01*
X46525678Y52007560D01*
X46615962Y51918960D01*
X46687202Y51849316D01*
X46773459Y51768999D01*
X46844706Y51708577D01*
X46903024Y51666602D01*
X46950489Y51641628D01*
X46989181Y51632209D01*
X47021177Y51636897D01*
X47021594Y51637060D01*
X47052296Y51662964D01*
X47081153Y51712449D01*
X47106500Y51780104D01*
X47126670Y51860520D01*
X47139994Y51948289D01*
X47144806Y52038001D01*
X47145018Y52053166D01*
X47145976Y52080515D01*
X47145472Y52102517D01*
X47140892Y52121413D01*
X47129619Y52139446D01*
X47109041Y52158858D01*
X47076542Y52181890D01*
X47029507Y52210784D01*
X46965324Y52247783D01*
X46881376Y52295127D01*
X46775049Y52355060D01*
X46773392Y52355998D01*
X46660200Y52421303D01*
X46570412Y52476277D01*
X46501260Y52523123D01*
X46449978Y52564048D01*
X46413800Y52601255D01*
X46389961Y52636949D01*
X46375693Y52673335D01*
X46364973Y52726810D01*
X46788792Y52726810D01*
X46797808Y52699209D01*
X46798959Y52698171D01*
X46822047Y52683461D01*
X46865170Y52660073D01*
X46922597Y52631007D01*
X46988599Y52599266D01*
X47007085Y52590595D01*
X47071173Y52560813D01*
X47114154Y52542048D01*
X47140246Y52533218D01*
X47153662Y52533247D01*
X47158621Y52541053D01*
X47159337Y52555559D01*
X47159013Y52566765D01*
X47152231Y52623465D01*
X47138571Y52692965D01*
X47120571Y52764847D01*
X47100771Y52828691D01*
X47081710Y52874078D01*
X47081093Y52875203D01*
X47049805Y52917709D01*
X47013875Y52935287D01*
X46968974Y52928544D01*
X46910773Y52898089D01*
X46905114Y52894379D01*
X46860402Y52856633D01*
X46823702Y52811883D01*
X46798628Y52766488D01*
X46788792Y52726810D01*
X46364973Y52726810D01*
X46362045Y52741419D01*
X46363618Y52837101D01*
X46392242Y52926626D01*
X46448583Y53011773D01*
X46533307Y53094324D01*
X46645727Y53175393D01*
X46801012Y53255339D01*
X46971451Y53310487D01*
X47157047Y53340839D01*
X47262501Y53350640D01*
X47339943Y53270685D01*
X47360873Y53247980D01*
X47439071Y53139236D01*
X47503627Y53006520D01*
X47554717Y52849320D01*
X47592516Y52667124D01*
X47605773Y52555559D01*
X47617198Y52459419D01*
G37*
G36*
X43650449Y52445103D02*
G01*
X43651552Y52433072D01*
X43657319Y52385982D01*
X43666366Y52357505D01*
X43682995Y52338942D01*
X43711506Y52321590D01*
X43713110Y52320707D01*
X43774917Y52274586D01*
X43810603Y52217862D01*
X43822075Y52147533D01*
X43818683Y52103584D01*
X43798274Y52047633D01*
X43760012Y52013938D01*
X43704581Y52003339D01*
X43646650Y52004453D01*
X43636998Y51876595D01*
X43628082Y51789529D01*
X43598782Y51634101D01*
X43554387Y51497527D01*
X43495817Y51381457D01*
X43423994Y51287539D01*
X43339837Y51217425D01*
X43244267Y51172762D01*
X43239424Y51171278D01*
X43197295Y51161716D01*
X43160052Y51163026D01*
X43117985Y51176925D01*
X43061384Y51205133D01*
X43017913Y51231442D01*
X42955490Y51273629D01*
X42879286Y51327938D01*
X42793615Y51391070D01*
X42702792Y51459725D01*
X42611128Y51530605D01*
X42522938Y51600410D01*
X42442535Y51665841D01*
X42374232Y51723600D01*
X42322344Y51770386D01*
X42281594Y51809826D01*
X42200784Y51894045D01*
X42142915Y51965340D01*
X42106952Y52025716D01*
X42091856Y52077179D01*
X42096589Y52121735D01*
X42120116Y52161389D01*
X42142538Y52183089D01*
X42178068Y52200532D01*
X42230695Y52209382D01*
X42248606Y52210788D01*
X42279267Y52210487D01*
X42308711Y52204541D01*
X42340030Y52190803D01*
X42376316Y52167125D01*
X42420660Y52131363D01*
X42476154Y52081367D01*
X42545892Y52014993D01*
X42632964Y51930093D01*
X42703510Y51862014D01*
X42797019Y51776334D01*
X42874839Y51711572D01*
X42938425Y51666631D01*
X42989235Y51640414D01*
X43028724Y51631823D01*
X43045359Y51635065D01*
X43078917Y51661189D01*
X43109997Y51709854D01*
X43137003Y51776663D01*
X43158339Y51857222D01*
X43172410Y51947134D01*
X43177620Y52042002D01*
X43177794Y52054805D01*
X43178570Y52081680D01*
X43177747Y52103497D01*
X43172718Y52122453D01*
X43160877Y52140745D01*
X43139615Y52160570D01*
X43106327Y52184125D01*
X43058405Y52213607D01*
X42993243Y52251212D01*
X42908233Y52299137D01*
X42800768Y52359580D01*
X42699974Y52417441D01*
X42608185Y52473188D01*
X42537416Y52520719D01*
X42484878Y52562267D01*
X42447782Y52600064D01*
X42423339Y52636342D01*
X42408759Y52673335D01*
X42398927Y52722382D01*
X42817403Y52722382D01*
X42818381Y52699991D01*
X42832763Y52688098D01*
X42834034Y52687560D01*
X42856706Y52677258D01*
X42899262Y52657476D01*
X42956111Y52630822D01*
X43021665Y52599907D01*
X43031769Y52595130D01*
X43098329Y52563926D01*
X43143381Y52543966D01*
X43171120Y52534120D01*
X43185740Y52533262D01*
X43191436Y52540264D01*
X43192403Y52553997D01*
X43192388Y52556101D01*
X43187123Y52608255D01*
X43174180Y52676180D01*
X43156204Y52749100D01*
X43135834Y52816236D01*
X43115714Y52866812D01*
X43103289Y52891082D01*
X43084432Y52918358D01*
X43062808Y52929281D01*
X43029302Y52930577D01*
X42997185Y52925783D01*
X42936466Y52897876D01*
X42882327Y52850210D01*
X42842399Y52788579D01*
X42830387Y52761068D01*
X42817403Y52722382D01*
X42398927Y52722382D01*
X42395111Y52741419D01*
X42396685Y52837101D01*
X42425309Y52926626D01*
X42481649Y53011773D01*
X42566374Y53094324D01*
X42679253Y53175686D01*
X42834451Y53255498D01*
X43004818Y53310549D01*
X43190420Y53340867D01*
X43296180Y53350697D01*
X43374216Y53268174D01*
X43426881Y53205237D01*
X43493585Y53097521D01*
X43548688Y52969456D01*
X43592795Y52819236D01*
X43626513Y52645053D01*
X43637413Y52553997D01*
X43650449Y52445103D01*
G37*
G36*
X50722600Y56237498D02*
G01*
X50757642Y56234170D01*
X50815965Y56228035D01*
X50893934Y56219513D01*
X50987914Y56209025D01*
X51094271Y56196995D01*
X51209369Y56183842D01*
X51329575Y56169987D01*
X51451252Y56155854D01*
X51570767Y56141861D01*
X51684485Y56128432D01*
X51788770Y56115987D01*
X51879989Y56104948D01*
X51954505Y56095736D01*
X52008685Y56088772D01*
X52038894Y56084478D01*
X52044185Y56083553D01*
X52092176Y56067761D01*
X52122683Y56038482D01*
X52138753Y55990932D01*
X52143433Y55920328D01*
X52142473Y55869501D01*
X52139076Y55804408D01*
X52134071Y55752341D01*
X52133212Y55746223D01*
X52125818Y55710404D01*
X52112062Y55684115D01*
X52085809Y55659111D01*
X52040925Y55627145D01*
X52031207Y55620491D01*
X52000238Y55597613D01*
X51974656Y55573897D01*
X51950775Y55544314D01*
X51924911Y55503839D01*
X51893380Y55447444D01*
X51852495Y55370103D01*
X51835660Y55336963D01*
X51797391Y55255806D01*
X51758024Y55165599D01*
X51719471Y55071398D01*
X51683642Y54978259D01*
X51652448Y54891238D01*
X51627801Y54815389D01*
X51611611Y54755769D01*
X51605790Y54717433D01*
X51605440Y54712080D01*
X51601501Y54679951D01*
X51593642Y54624432D01*
X51582437Y54549332D01*
X51568461Y54458460D01*
X51552288Y54355625D01*
X51534492Y54244635D01*
X51520328Y54157302D01*
X51500577Y54035800D01*
X51484904Y53938564D01*
X51473090Y53862827D01*
X51464912Y53805824D01*
X51460151Y53764788D01*
X51458586Y53736953D01*
X51459997Y53719553D01*
X51464162Y53709822D01*
X51470862Y53704993D01*
X51479875Y53702301D01*
X51490982Y53698978D01*
X51530839Y53673296D01*
X51570878Y53622562D01*
X51600649Y53555913D01*
X51616160Y53480325D01*
X51618754Y53437063D01*
X51615422Y53395775D01*
X51602740Y53353641D01*
X51578160Y53298474D01*
X51563199Y53268368D01*
X51529887Y53213733D01*
X51491964Y53172836D01*
X51440971Y53135634D01*
X51435122Y53129505D01*
X51427063Y53110005D01*
X51419658Y53075247D01*
X51412375Y53021792D01*
X51404682Y52946195D01*
X51396046Y52845016D01*
X51391249Y52786097D01*
X51381475Y52668479D01*
X51371047Y52545486D01*
X51360938Y52428566D01*
X51352124Y52329169D01*
X51349942Y52304845D01*
X51340671Y52198609D01*
X51331078Y52084808D01*
X51322176Y51975611D01*
X51314977Y51883182D01*
X51307871Y51801989D01*
X51289127Y51661546D01*
X51263294Y51544843D01*
X51229373Y51448709D01*
X51186368Y51369970D01*
X51133279Y51305454D01*
X51098073Y51274342D01*
X51022147Y51225796D01*
X50941082Y51193340D01*
X50864714Y51181513D01*
X50843073Y51182701D01*
X50766089Y51201461D01*
X50682816Y51239885D01*
X50599782Y51293918D01*
X50523515Y51359505D01*
X50460545Y51432588D01*
X50447506Y51452204D01*
X50415911Y51519846D01*
X50401936Y51587308D01*
X50405496Y51648794D01*
X50426508Y51698509D01*
X50464887Y51730655D01*
X50475011Y51735446D01*
X50484427Y51742147D01*
X50492581Y51753511D01*
X50500380Y51772958D01*
X50508731Y51803911D01*
X50518541Y51849791D01*
X50530718Y51914019D01*
X50546170Y52000017D01*
X50565803Y52111206D01*
X50569832Y52134445D01*
X50587032Y52248398D01*
X50595195Y52335174D01*
X50594298Y52394558D01*
X50591930Y52427214D01*
X50597222Y52488162D01*
X50616870Y52559568D01*
X50619305Y52567130D01*
X50633679Y52623002D01*
X50649593Y52700415D01*
X50666002Y52793145D01*
X50681861Y52894968D01*
X50696127Y52999662D01*
X50707754Y53101003D01*
X50713117Y53153557D01*
X50400214Y53228192D01*
X50123450Y53292461D01*
X49829235Y53356592D01*
X49556934Y53411283D01*
X49537113Y53415075D01*
X49478582Y53426341D01*
X49431011Y53435591D01*
X49403195Y53441120D01*
X49396531Y53442199D01*
X49385125Y53440072D01*
X49376725Y53427943D01*
X49369880Y53401081D01*
X49363138Y53354754D01*
X49355046Y53284233D01*
X49349346Y53233687D01*
X49340102Y53155997D01*
X49331233Y53085846D01*
X49324062Y53033918D01*
X49310390Y52936568D01*
X49294454Y52811950D01*
X49277151Y52667279D01*
X49258969Y52507082D01*
X49240401Y52335888D01*
X49221936Y52158224D01*
X49204065Y51978617D01*
X49187280Y51801595D01*
X49172071Y51631687D01*
X49164845Y51551147D01*
X49155993Y51466116D01*
X49146904Y51400839D01*
X49136433Y51350042D01*
X49123436Y51308453D01*
X49106768Y51270801D01*
X49085287Y51231812D01*
X49074990Y51215158D01*
X49025928Y51156835D01*
X48961962Y51112901D01*
X48876167Y51078274D01*
X48832057Y51064320D01*
X48796178Y51055121D01*
X48765984Y51052817D01*
X48730024Y51056711D01*
X48676851Y51066103D01*
X48651915Y51071192D01*
X48557143Y51103457D01*
X48484188Y51151643D01*
X48435004Y51214550D01*
X48431330Y51221776D01*
X48419547Y51249661D01*
X48410803Y51281144D01*
X48405263Y51318734D01*
X48403092Y51364938D01*
X48404456Y51422266D01*
X48409521Y51493224D01*
X48418452Y51580322D01*
X48431416Y51686067D01*
X48448578Y51812967D01*
X48470104Y51963532D01*
X48496158Y52140268D01*
X48520954Y52308228D01*
X48554126Y52538451D01*
X48582323Y52741987D01*
X48605652Y52919985D01*
X48624223Y53073595D01*
X48638143Y53203968D01*
X48647520Y53312254D01*
X48652464Y53399603D01*
X48653082Y53467165D01*
X48649482Y53516091D01*
X48641773Y53547530D01*
X48630063Y53562633D01*
X48606725Y53583360D01*
X48575631Y53628943D01*
X48543966Y53690601D01*
X48514508Y53761532D01*
X48490030Y53834935D01*
X48473308Y53904010D01*
X48467117Y53961953D01*
X48472371Y54016905D01*
X48494207Y54090053D01*
X48529401Y54156741D01*
X48574033Y54211343D01*
X48624183Y54248232D01*
X48675934Y54261778D01*
X48723899Y54261778D01*
X48755022Y54599621D01*
X48761625Y54671639D01*
X48777573Y54849330D01*
X48791046Y55006182D01*
X48802510Y55148076D01*
X48812428Y55280897D01*
X48821266Y55410528D01*
X48829488Y55542853D01*
X48830675Y55562318D01*
X48838857Y55668070D01*
X48849859Y55750057D01*
X48865743Y55812840D01*
X48888568Y55860982D01*
X48920395Y55899044D01*
X48963282Y55931588D01*
X49019291Y55963176D01*
X49050604Y55976518D01*
X49131828Y55994953D01*
X49221756Y55998880D01*
X49309097Y55988299D01*
X49382563Y55963209D01*
X49486107Y55897731D01*
X49564102Y55821187D01*
X49615430Y55734537D01*
X49639577Y55638432D01*
X49641829Y55594281D01*
X49639566Y55508439D01*
X49631027Y55397789D01*
X49616417Y55264383D01*
X49595940Y55110275D01*
X49569800Y54937519D01*
X49554881Y54843304D01*
X49528945Y54675777D01*
X49507892Y54533878D01*
X49491456Y54415642D01*
X49479368Y54319104D01*
X49471362Y54242300D01*
X49467170Y54183264D01*
X49462483Y54082953D01*
X49578730Y54040245D01*
X49596494Y54033895D01*
X49670644Y54009911D01*
X49760336Y53983908D01*
X49861931Y53956674D01*
X49971796Y53928999D01*
X50086292Y53901670D01*
X50201785Y53875476D01*
X50314638Y53851204D01*
X50421214Y53829644D01*
X50517878Y53811583D01*
X50600993Y53797809D01*
X50666924Y53789111D01*
X50712034Y53786276D01*
X50732686Y53790094D01*
X50735672Y53794951D01*
X50744646Y53826589D01*
X50754417Y53881881D01*
X50764638Y53956875D01*
X50774961Y54047623D01*
X50785038Y54150175D01*
X50794523Y54260580D01*
X50803067Y54374888D01*
X50810322Y54489150D01*
X50815942Y54599415D01*
X50819577Y54701734D01*
X50820882Y54792156D01*
X50821723Y54851559D01*
X50825204Y54936507D01*
X50830755Y55015393D01*
X50837700Y55076721D01*
X50838587Y55082614D01*
X50844852Y55132823D01*
X50846833Y55178044D01*
X50844102Y55226632D01*
X50836231Y55286945D01*
X50822790Y55367338D01*
X50810153Y55436630D01*
X50794211Y55518486D01*
X50778876Y55592090D01*
X50766212Y55647233D01*
X50765663Y55649424D01*
X50750446Y55703528D01*
X50734012Y55739496D01*
X50710037Y55767432D01*
X50672195Y55797443D01*
X50643836Y55820705D01*
X50610571Y55855910D01*
X50593897Y55884750D01*
X50592619Y55891582D01*
X50590021Y55929681D01*
X50589965Y55984458D01*
X50592528Y56046492D01*
X50594685Y56078673D01*
X50599827Y56130000D01*
X50607456Y56163175D01*
X50619750Y56185636D01*
X50638885Y56204822D01*
X50640220Y56205952D01*
X50677906Y56228610D01*
X50714682Y56237980D01*
X50722600Y56237498D01*
G37*
G36*
X53538548Y52777656D02*
G01*
X53537349Y52563932D01*
X53535947Y52362749D01*
X53534340Y52175944D01*
X53532529Y52005352D01*
X53530512Y51852808D01*
X53528290Y51720149D01*
X53525862Y51609209D01*
X53523227Y51521823D01*
X53520384Y51459828D01*
X53517334Y51425058D01*
X53491793Y51283616D01*
X53422687Y51019198D01*
X53328664Y50767040D01*
X53211162Y50528457D01*
X53071618Y50304764D01*
X52911468Y50097273D01*
X52732150Y49907301D01*
X52535099Y49736159D01*
X52321753Y49585163D01*
X52093548Y49455627D01*
X51851922Y49348864D01*
X51598311Y49266189D01*
X51334152Y49208917D01*
X51060881Y49178360D01*
X51038408Y49177695D01*
X50986747Y49176984D01*
X50908511Y49176318D01*
X50805021Y49175695D01*
X50677599Y49175115D01*
X50527564Y49174577D01*
X50356238Y49174082D01*
X50164941Y49173629D01*
X49954993Y49173218D01*
X49727717Y49172847D01*
X49484431Y49172517D01*
X49226458Y49172227D01*
X48955117Y49171977D01*
X48671730Y49171766D01*
X48377617Y49171593D01*
X48074099Y49171460D01*
X47762497Y49171364D01*
X47444131Y49171306D01*
X47120321Y49171285D01*
X46792390Y49171301D01*
X46461657Y49171353D01*
X46129444Y49171441D01*
X45797070Y49171564D01*
X45465857Y49171723D01*
X45137126Y49171915D01*
X44812196Y49172143D01*
X44492389Y49172403D01*
X44179026Y49172698D01*
X43873427Y49173025D01*
X43576913Y49173384D01*
X43290805Y49173775D01*
X43016423Y49174198D01*
X42755088Y49174653D01*
X42508121Y49175137D01*
X42276843Y49175653D01*
X42062574Y49176198D01*
X41866634Y49176772D01*
X41690346Y49177376D01*
X41535029Y49178008D01*
X41402004Y49178668D01*
X41292592Y49179356D01*
X41208113Y49180072D01*
X41149889Y49180814D01*
X41119240Y49181582D01*
X41061813Y49185621D01*
X40966318Y49195894D01*
X40866654Y49209877D01*
X40776916Y49225751D01*
X40687656Y49245397D01*
X40424694Y49322329D01*
X40174638Y49424201D01*
X39938806Y49549588D01*
X39718517Y49697063D01*
X39515087Y49865200D01*
X39329836Y50052573D01*
X39164082Y50257756D01*
X39019142Y50479323D01*
X38896336Y50715848D01*
X38796980Y50965904D01*
X38722395Y51228067D01*
X38673896Y51500909D01*
X38672822Y51512402D01*
X38670647Y51556266D01*
X38668656Y51626459D01*
X38666847Y51723209D01*
X38665219Y51846744D01*
X38663771Y51997292D01*
X38662501Y52175080D01*
X38661407Y52380335D01*
X38660490Y52613286D01*
X38659747Y52874160D01*
X38659176Y53163184D01*
X38659023Y53285548D01*
X38981495Y53285548D01*
X38981589Y53006596D01*
X38981907Y52751999D01*
X38982448Y52522279D01*
X38983210Y52317960D01*
X38984191Y52139564D01*
X38985388Y51987614D01*
X38986801Y51862633D01*
X38988427Y51765145D01*
X38990265Y51695671D01*
X38992312Y51654736D01*
X39010850Y51490367D01*
X39062227Y51233278D01*
X39139816Y50988636D01*
X39243480Y50756728D01*
X39373085Y50537840D01*
X39528494Y50332259D01*
X39709572Y50140270D01*
X39731084Y50119983D01*
X39929933Y49954145D01*
X40143131Y49813411D01*
X40369671Y49698230D01*
X40608547Y49609051D01*
X40858751Y49546325D01*
X41119279Y49510501D01*
X41120358Y49510417D01*
X41150362Y49509307D01*
X41207977Y49508251D01*
X41291885Y49507250D01*
X41400770Y49506303D01*
X41533313Y49505410D01*
X41688195Y49504572D01*
X41864099Y49503787D01*
X42059707Y49503056D01*
X42273701Y49502379D01*
X42504762Y49501756D01*
X42751574Y49501185D01*
X43012817Y49500669D01*
X43287174Y49500205D01*
X43573327Y49499794D01*
X43869958Y49499436D01*
X44175749Y49499131D01*
X44489382Y49498879D01*
X44809539Y49498679D01*
X45134901Y49498531D01*
X45464152Y49498436D01*
X45795973Y49498393D01*
X46129046Y49498402D01*
X46462052Y49498462D01*
X46793675Y49498575D01*
X47122596Y49498739D01*
X47447496Y49498954D01*
X47767059Y49499221D01*
X48079966Y49499539D01*
X48384899Y49499908D01*
X48680540Y49500328D01*
X48965571Y49500799D01*
X49238674Y49501320D01*
X49498532Y49501892D01*
X49743825Y49502515D01*
X49973237Y49503188D01*
X50185449Y49503911D01*
X50379143Y49504684D01*
X50553001Y49505507D01*
X50705705Y49506379D01*
X50835937Y49507302D01*
X50942380Y49508273D01*
X51023715Y49509295D01*
X51078624Y49510365D01*
X51105790Y49511485D01*
X51216477Y49524008D01*
X51466194Y49572426D01*
X51705963Y49646884D01*
X51934145Y49745979D01*
X52149099Y49868306D01*
X52349185Y50012462D01*
X52532762Y50177044D01*
X52698192Y50360646D01*
X52843832Y50561866D01*
X52968043Y50779300D01*
X53069185Y51011544D01*
X53145618Y51257195D01*
X53151478Y51280497D01*
X53160113Y51315669D01*
X53167996Y51349957D01*
X53175158Y51384722D01*
X53181630Y51421324D01*
X53187444Y51461124D01*
X53192631Y51505485D01*
X53197224Y51555767D01*
X53201252Y51613331D01*
X53204749Y51679540D01*
X53207745Y51755752D01*
X53210272Y51843331D01*
X53212361Y51943637D01*
X53214045Y52058032D01*
X53215353Y52187876D01*
X53216318Y52334532D01*
X53216972Y52499359D01*
X53217346Y52683719D01*
X53217470Y52888974D01*
X53217378Y53116485D01*
X53217100Y53367613D01*
X53216668Y53643718D01*
X53216113Y53946164D01*
X53215467Y54276309D01*
X53215080Y54475483D01*
X53214503Y54781378D01*
X53213962Y55060421D01*
X53213415Y55313988D01*
X53212818Y55543454D01*
X53212128Y55750196D01*
X53211302Y55935587D01*
X53210296Y56101006D01*
X53209068Y56247825D01*
X53207573Y56377423D01*
X53205768Y56491173D01*
X53203611Y56590452D01*
X53201058Y56676635D01*
X53198065Y56751097D01*
X53194590Y56815215D01*
X53190589Y56870364D01*
X53186019Y56917920D01*
X53180836Y56959257D01*
X53174997Y56995753D01*
X53168459Y57028781D01*
X53161179Y57059719D01*
X53153113Y57089941D01*
X53144219Y57120823D01*
X53134451Y57153740D01*
X53123769Y57190069D01*
X53086517Y57306529D01*
X52991555Y57537019D01*
X52872556Y57756753D01*
X52731830Y57962168D01*
X52571684Y58149699D01*
X52394426Y58315784D01*
X52393942Y58316188D01*
X52319846Y58376290D01*
X52251014Y58429118D01*
X52190301Y58472798D01*
X52140562Y58505455D01*
X52104651Y58525212D01*
X52085424Y58530197D01*
X52085736Y58518532D01*
X52095719Y58500566D01*
X52118520Y58460302D01*
X52150817Y58403650D01*
X52189921Y58335329D01*
X52233141Y58260054D01*
X52255477Y58220789D01*
X52310328Y58121588D01*
X52366732Y58016359D01*
X52419198Y57915426D01*
X52462240Y57829112D01*
X52484082Y57783752D01*
X52515511Y57716740D01*
X52537291Y57665523D01*
X52551497Y57623446D01*
X52560208Y57583854D01*
X52565498Y57540090D01*
X52569446Y57485499D01*
X52572716Y57423602D01*
X52572487Y57370765D01*
X52566860Y57323735D01*
X52554438Y57271429D01*
X52533826Y57202769D01*
X52524135Y57173264D01*
X52495474Y57096320D01*
X52463798Y57022125D01*
X52434370Y56963341D01*
X52389870Y56890650D01*
X52307962Y56777128D01*
X52215109Y56667884D01*
X52115844Y56567384D01*
X52014696Y56480091D01*
X51916198Y56410468D01*
X51824880Y56362979D01*
X51791218Y56349534D01*
X51745470Y56333054D01*
X51716341Y56326919D01*
X51697369Y56330174D01*
X51682091Y56341861D01*
X51678378Y56348617D01*
X51683096Y56368110D01*
X51704836Y56399740D01*
X51745842Y56447210D01*
X51784350Y56491045D01*
X51877177Y56608655D01*
X51962527Y56733439D01*
X52038505Y56861465D01*
X52103214Y56988800D01*
X52154758Y57111514D01*
X52191241Y57225675D01*
X52210767Y57327351D01*
X52211439Y57412611D01*
X52205710Y57444447D01*
X52183483Y57521766D01*
X52146766Y57621223D01*
X52096210Y57741227D01*
X52032466Y57880185D01*
X51956187Y58036503D01*
X51925665Y58098012D01*
X51882102Y58189047D01*
X51848940Y58264216D01*
X51823747Y58329549D01*
X51804093Y58391078D01*
X51787548Y58454832D01*
X51776541Y58503683D01*
X51763406Y58569211D01*
X51754426Y58623253D01*
X51751099Y58657468D01*
X51750336Y58678577D01*
X51744289Y58696218D01*
X51727362Y58710006D01*
X51693959Y58724192D01*
X51638484Y58743025D01*
X51528649Y58776707D01*
X51320624Y58825047D01*
X51105542Y58853926D01*
X51100805Y58854303D01*
X51067513Y58855877D01*
X51013383Y58857336D01*
X50937982Y58858682D01*
X50840877Y58859915D01*
X50721637Y58861036D01*
X50579827Y58862046D01*
X50415014Y58862947D01*
X50226767Y58863738D01*
X50014653Y58864422D01*
X49778238Y58864999D01*
X49517089Y58865469D01*
X49230774Y58865834D01*
X48918860Y58866096D01*
X48580915Y58866253D01*
X48216505Y58866309D01*
X47825197Y58866263D01*
X47406559Y58866117D01*
X46960157Y58865871D01*
X46485560Y58865527D01*
X45982334Y58865085D01*
X45951041Y58865055D01*
X45501693Y58864623D01*
X45080415Y58864203D01*
X44686278Y58863789D01*
X44318350Y58863376D01*
X43975705Y58862958D01*
X43657411Y58862530D01*
X43362539Y58862086D01*
X43090160Y58861620D01*
X42839345Y58861127D01*
X42609163Y58860602D01*
X42398686Y58860038D01*
X42206983Y58859431D01*
X42033127Y58858774D01*
X41876186Y58858062D01*
X41735231Y58857290D01*
X41609334Y58856451D01*
X41497564Y58855541D01*
X41398992Y58854554D01*
X41312689Y58853484D01*
X41237725Y58852325D01*
X41173170Y58851073D01*
X41118096Y58849721D01*
X41071572Y58848264D01*
X41032670Y58846696D01*
X41000459Y58845012D01*
X40974011Y58843206D01*
X40952395Y58841272D01*
X40934682Y58839206D01*
X40919944Y58837001D01*
X40907249Y58834652D01*
X40688192Y58781816D01*
X40444371Y58699622D01*
X40217513Y58595572D01*
X40005300Y58468580D01*
X39805418Y58317558D01*
X39713511Y58235744D01*
X39542512Y58055935D01*
X39390608Y57857667D01*
X39260241Y57644704D01*
X39153853Y57420811D01*
X39073885Y57189753D01*
X39068100Y57169479D01*
X39057882Y57134305D01*
X39048568Y57102089D01*
X39040114Y57071439D01*
X39032475Y57040962D01*
X39025607Y57009266D01*
X39019466Y56974959D01*
X39014007Y56936649D01*
X39009186Y56892944D01*
X39004959Y56842451D01*
X39001282Y56783779D01*
X38998110Y56715536D01*
X38995399Y56636328D01*
X38993105Y56544765D01*
X38991183Y56439454D01*
X38989590Y56319002D01*
X38988280Y56182018D01*
X38987209Y56027110D01*
X38986334Y55852885D01*
X38985610Y55657951D01*
X38984992Y55440917D01*
X38984437Y55200390D01*
X38983900Y54934977D01*
X38983336Y54643287D01*
X38982702Y54323928D01*
X38982580Y54263298D01*
X38981989Y53914422D01*
X38981628Y53588330D01*
X38981495Y53285548D01*
X38659023Y53285548D01*
X38658778Y53480587D01*
X38658550Y53826596D01*
X38658491Y54201438D01*
X38658531Y54506557D01*
X38658623Y54806446D01*
X38658776Y55079798D01*
X38659001Y55327917D01*
X38659309Y55552109D01*
X38659712Y55753678D01*
X38660219Y55933931D01*
X38660843Y56094172D01*
X38661593Y56235707D01*
X38662481Y56359840D01*
X38663518Y56467877D01*
X38664715Y56561124D01*
X38666082Y56640885D01*
X38667631Y56708466D01*
X38669373Y56765171D01*
X38671317Y56812307D01*
X38673476Y56851179D01*
X38675861Y56883090D01*
X38678481Y56909348D01*
X38681349Y56931257D01*
X38724451Y57155663D01*
X38800560Y57417253D01*
X38901763Y57667158D01*
X39026744Y57903801D01*
X39174186Y58125608D01*
X39342774Y58331003D01*
X39531190Y58518410D01*
X39738119Y58686252D01*
X39962244Y58832955D01*
X40202248Y58956942D01*
X40456817Y59056638D01*
X40535547Y59081709D01*
X40725215Y59131632D01*
X40916960Y59166068D01*
X41123277Y59187469D01*
X41133188Y59188013D01*
X41177793Y59189331D01*
X41249585Y59190586D01*
X41347226Y59191777D01*
X41469377Y59192905D01*
X41614697Y59193970D01*
X41781849Y59194971D01*
X41969492Y59195909D01*
X42176287Y59196784D01*
X42400896Y59197595D01*
X42641978Y59198343D01*
X42898195Y59199027D01*
X43168206Y59199648D01*
X43450674Y59200206D01*
X43744258Y59200700D01*
X44047620Y59201131D01*
X44359420Y59201499D01*
X44678319Y59201803D01*
X45002977Y59202044D01*
X45332055Y59202222D01*
X45664215Y59202336D01*
X45998116Y59202386D01*
X46332419Y59202374D01*
X46665786Y59202298D01*
X46996876Y59202158D01*
X47324351Y59201956D01*
X47646871Y59201689D01*
X47963098Y59201360D01*
X48271691Y59200967D01*
X48571311Y59200511D01*
X48860620Y59199991D01*
X49138277Y59199408D01*
X49402945Y59198762D01*
X49653282Y59198052D01*
X49887951Y59197279D01*
X50105611Y59196442D01*
X50304924Y59195543D01*
X50484550Y59194579D01*
X50643151Y59193553D01*
X50779385Y59192463D01*
X50891916Y59191309D01*
X50979402Y59190093D01*
X51040505Y59188813D01*
X51073886Y59187469D01*
X51278627Y59165962D01*
X51485015Y59129389D01*
X51671607Y59080000D01*
X51686886Y59075119D01*
X51737085Y59059762D01*
X51767250Y59056027D01*
X51783926Y59067342D01*
X51793659Y59097136D01*
X51802996Y59148840D01*
X51804637Y59157290D01*
X51820236Y59197183D01*
X51848309Y59217862D01*
X51856102Y59220789D01*
X51884260Y59228715D01*
X51899193Y59222503D01*
X51904968Y59197184D01*
X51905652Y59147791D01*
X51905614Y59142913D01*
X51906332Y59083745D01*
X51912308Y59041008D01*
X51927756Y59008954D01*
X51956890Y58981835D01*
X52003924Y58953903D01*
X52073071Y58919411D01*
X52195558Y58855633D01*
X52422457Y58713336D01*
X52632422Y58548880D01*
X52824118Y58364109D01*
X52996205Y58160865D01*
X53147346Y57940992D01*
X53276203Y57706332D01*
X53381439Y57458729D01*
X53461715Y57200025D01*
X53515694Y56932064D01*
X53517681Y56912563D01*
X53520630Y56859438D01*
X53523386Y56780311D01*
X53525951Y56677017D01*
X53528322Y56551392D01*
X53530499Y56405272D01*
X53532482Y56240492D01*
X53534270Y56058887D01*
X53535863Y55862292D01*
X53537260Y55652544D01*
X53538461Y55431477D01*
X53539465Y55200927D01*
X53540271Y54962729D01*
X53540879Y54718720D01*
X53541289Y54470733D01*
X53541499Y54220606D01*
X53541510Y53970172D01*
X53541320Y53721268D01*
X53540930Y53475729D01*
X53540338Y53235390D01*
X53539544Y53002088D01*
X53539042Y52888974D01*
X53538548Y52777656D01*
G37*
D12*
G04 #@! TO.C,JP3*
X32550000Y78400000D02*
X32550000Y76400000D01*
X32550000Y76400000D02*
X36650000Y76400000D01*
X35900000Y76200000D02*
X35600000Y75900000D01*
X35900000Y76200000D02*
X36200000Y75900000D01*
X36200000Y75900000D02*
X35600000Y75900000D01*
X36650000Y78400000D02*
X32550000Y78400000D01*
X36650000Y76400000D02*
X36650000Y78400000D01*
G04 #@! TO.C,TP10*
X57700000Y67400000D02*
G75*
G02*
X56300000Y67400000I-700000J0D01*
G01*
X56300000Y67400000D02*
G75*
G02*
X57700000Y67400000I700000J0D01*
G01*
G04 #@! TO.C,JP8*
X14900000Y81600000D02*
X14900000Y79600000D01*
X14900000Y79600000D02*
X19000000Y79600000D01*
X18250000Y79400000D02*
X17950000Y79100000D01*
X18250000Y79400000D02*
X18550000Y79100000D01*
X18550000Y79100000D02*
X17950000Y79100000D01*
X19000000Y81600000D02*
X14900000Y81600000D01*
X19000000Y79600000D02*
X19000000Y81600000D01*
G04 #@! TO.C,JP9*
X14900000Y78657500D02*
X14900000Y76657500D01*
X14900000Y76657500D02*
X19000000Y76657500D01*
X18250000Y76457500D02*
X17950000Y76157500D01*
X18250000Y76457500D02*
X18550000Y76157500D01*
X18550000Y76157500D02*
X17950000Y76157500D01*
X19000000Y78657500D02*
X14900000Y78657500D01*
X19000000Y76657500D02*
X19000000Y78657500D01*
G04 #@! TO.C,JP16*
X38450000Y81442500D02*
X38450000Y79442500D01*
X38450000Y79442500D02*
X42550000Y79442500D01*
X41800000Y79242500D02*
X41500000Y78942500D01*
X41800000Y79242500D02*
X42100000Y78942500D01*
X42100000Y78942500D02*
X41500000Y78942500D01*
X42550000Y81442500D02*
X38450000Y81442500D01*
X42550000Y79442500D02*
X42550000Y81442500D01*
G04 #@! TO.C,JP17*
X38450000Y78500000D02*
X38450000Y76500000D01*
X38450000Y76500000D02*
X42550000Y76500000D01*
X41800000Y76300000D02*
X41500000Y76000000D01*
X41800000Y76300000D02*
X42100000Y76000000D01*
X42100000Y76000000D02*
X41500000Y76000000D01*
X42550000Y78500000D02*
X38450000Y78500000D01*
X42550000Y76500000D02*
X42550000Y78500000D01*
G04 #@! TO.C,JP5*
X26550000Y78500000D02*
X26550000Y76500000D01*
X26550000Y76500000D02*
X30650000Y76500000D01*
X29900000Y76300000D02*
X29600000Y76000000D01*
X29900000Y76300000D02*
X30200000Y76000000D01*
X30200000Y76000000D02*
X29600000Y76000000D01*
X30650000Y78500000D02*
X26550000Y78500000D01*
X30650000Y76500000D02*
X30650000Y78500000D01*
G04 #@! TO.C,JP14*
X44150000Y81472500D02*
X44150000Y79472500D01*
X44150000Y79472500D02*
X48250000Y79472500D01*
X47500000Y79272500D02*
X47200000Y78972500D01*
X47500000Y79272500D02*
X47800000Y78972500D01*
X47800000Y78972500D02*
X47200000Y78972500D01*
X48250000Y81472500D02*
X44150000Y81472500D01*
X48250000Y79472500D02*
X48250000Y81472500D01*
G04 #@! TO.C,JP4*
X26550000Y81442500D02*
X26550000Y79442500D01*
X26550000Y79442500D02*
X30650000Y79442500D01*
X29900000Y79242500D02*
X29600000Y78942500D01*
X29900000Y79242500D02*
X30200000Y78942500D01*
X30200000Y78942500D02*
X29600000Y78942500D01*
X30650000Y81442500D02*
X26550000Y81442500D01*
X30650000Y79442500D02*
X30650000Y81442500D01*
G04 #@! TO.C,JP13*
X55550000Y78700000D02*
X55550000Y76700000D01*
X55550000Y76700000D02*
X59650000Y76700000D01*
X58900000Y76500000D02*
X58600000Y76200000D01*
X58900000Y76500000D02*
X59200000Y76200000D01*
X59200000Y76200000D02*
X58600000Y76200000D01*
X59650000Y78700000D02*
X55550000Y78700000D01*
X59650000Y76700000D02*
X59650000Y78700000D01*
G04 #@! TO.C,JP12*
X55550000Y81600000D02*
X55550000Y79600000D01*
X55550000Y79600000D02*
X59650000Y79600000D01*
X58900000Y79400000D02*
X58600000Y79100000D01*
X58900000Y79400000D02*
X59200000Y79100000D01*
X59200000Y79100000D02*
X58600000Y79100000D01*
X59650000Y81600000D02*
X55550000Y81600000D01*
X59650000Y79600000D02*
X59650000Y81600000D01*
G04 #@! TO.C,TP9*
X57600000Y62500000D02*
G75*
G02*
X56200000Y62500000I-700000J0D01*
G01*
X56200000Y62500000D02*
G75*
G02*
X57600000Y62500000I700000J0D01*
G01*
G04 #@! TD*
M02*
